M48
; DRILL file KiCad 10.0.6 date 2026-09-07T19:52:13
; FORMAT={-:-/ absolute / metric / decimal}
; #@! TF.CreationDate,2026-09-07T19:52:13+08:00
; #@! TF.GenerationSoftware,Kicad,Pcbnew,10.0.6
; #@! TF.FileFunction,MixedPlating,1,4
FMAT,2
METRIC
; #@! TA.AperFunction,Plated,PTH,ViaDrill
T1C0.300
; #@! TA.AperFunction,Plated,PTH,ComponentDrill
T2C0.300
; #@! TA.AperFunction,Plated,PTH,ViaDrill
T3C0.400
; #@! TA.AperFunction,Plated,PTH,ViaDrill
T4C0.500
; #@! TA.AperFunction,Plated,PTH,ComponentDrill
T5C1.000
; #@! TA.AperFunction,Plated,PTH,ComponentDrill
T6C2.600
; #@! TA.AperFunction,NonPlated,NPTH,ComponentDrill
T7C1.000
%
G90
G05
T1
X98.5Y-52.0
X98.5Y-58.0
X98.5Y-64.0
X98.5Y-70.0
X98.5Y-76.0
X98.5Y-82.0
X98.5Y-88.0
X98.5Y-94.0
X98.5Y-100.0
X98.5Y-106.0
X98.5Y-112.0
X98.5Y-126.0
X100.0Y-50.0
X100.0Y-55.0
X100.0Y-60.0
X100.0Y-65.0
X100.0Y-70.0
X100.0Y-75.0
X100.0Y-80.0
X100.0Y-85.0
X100.0Y-90.0
X100.0Y-95.0
X100.0Y-105.0
X101.964Y-106.287
X102.576Y-104.05
X103.0Y-48.0
X103.276Y-100.985
X103.969Y-111.61
X105.0Y-50.0
X105.0Y-55.0
X105.0Y-60.0
X105.0Y-65.0
X106.64Y-110.351
X107.968Y-109.358
X108.0Y-48.0
X108.48Y-105.8
X109.48Y-101.464
X110.0Y-50.0
X110.0Y-65.0
X110.0Y-75.0
X110.0Y-80.0
X110.0Y-95.0
X110.0Y-120.0
X110.0Y-125.0
X110.087Y-114.367
X110.572Y-113.366
X110.8Y-107.05
X113.0Y-48.0
X113.2Y-105.737
X115.0Y-50.0
X115.0Y-55.0
X115.0Y-60.0
X115.0Y-80.0
X115.0Y-85.0
X115.0Y-90.0
X115.0Y-95.0
X115.0Y-121.0
X115.397Y-108.688
X115.565Y-117.054
X115.8Y-71.125
X116.45Y-105.137
X118.0Y-48.0
X118.91Y-79.4
X120.0Y-50.0
X120.0Y-55.0
X120.0Y-60.0
X120.0Y-70.0
X120.0Y-85.0
X120.0Y-90.0
X120.386Y-113.59
X121.522Y-85.096
X122.032Y-119.233
X123.0Y-48.0
X124.0Y-86.72
X124.467Y-82.282
X124.653Y-74.249
X124.9Y-84.0
X125.0Y-50.0
X125.0Y-55.0
X125.0Y-60.0
X125.0Y-90.0
X125.198Y-79.987
X126.0Y-86.72
X127.064Y-82.82
X128.0Y-48.0
X128.0Y-86.72
X129.816Y-71.864
X129.956Y-123.5
X130.0Y-50.0
X130.0Y-55.0
X130.0Y-60.0
X130.0Y-90.0
X130.0Y-121.3
X130.049Y-69.903
X130.48Y-74.2
X130.623Y-85.718
X130.778Y-70.601
X131.003Y-73.515
X132.059Y-75.995
X132.2Y-72.25
X133.0Y-48.0
X135.0Y-50.0
X135.0Y-55.0
X135.0Y-60.0
X135.0Y-65.0
X135.0Y-75.0
X135.0Y-80.0
X135.0Y-85.0
X135.0Y-90.0
X135.0Y-95.0
X135.0Y-120.0
X135.0Y-125.0
X135.5Y-52.0
X135.5Y-58.0
X135.5Y-64.0
X135.5Y-70.0
X135.5Y-76.0
X135.5Y-82.0
X135.5Y-88.0
X135.5Y-94.0
X135.5Y-100.0
X135.5Y-118.0
X135.5Y-126.0
T2
X104.0Y-104.5
X104.0Y-105.5
X105.0Y-104.5
X105.0Y-105.5
T3
X112.079Y-116.983
X118.643Y-119.135
T4
X104.079Y-87.674
X104.252Y-79.287
T5
X113.5Y-125.5
X116.0Y-125.5
X118.0Y-125.5
X120.5Y-125.5
T6
X111.0Y-127.5
X123.0Y-127.5
T7
X114.75Y-127.68
X119.25Y-127.68
M30
