#VRML V2.0 utf8
# 3D model generated by easyeda2kicad.py (https://github.com/uPesy/easyeda2kicad.py)

Shape{
    appearance Appearance {
        material  Material 	{
            diffuseColor 0.25098039215686274 0.25098039215686274 0.25098039215686274
            specularColor 0.12549019607843137 0.12549019607843137 0.12549019607843137
            ambientIntensity 0.251
            transparency 0.0
            shininess 0.5
        }
    }
    geometry IndexedFaceSet {
        ccw TRUE
        solid FALSE
        coord DEF co Coordinate {
            point [
                -0.1575 0.1713 0.0197, -1.0433 0.1713 0.0197, -1.0433 1.0374 0.0197, -0.0809 -0.5004 0.0197, -0.0488 -0.5004 0.0197, -0.0373 -0.5011 0.0197, -0.1575 -0.1831 0.0197, -0.1971 -0.3823 0.0197, -0.213 -0.3823 0.0197, -0.1343 -0.407 0.0197, -0.1398 -0.4171 0.0197, -0.0373 1.0374 0.0197, -0.0488 -0.3823 0.0197, -0.0821 -0.3823 0.0197, -0.0992 -0.3841 0.0197, -0.113 -0.389 0.0197, -0.1258 -0.3976 0.0197, -0.126 -0.3977 0.0197, -0.143 -0.4288 0.0197, -0.1438 -0.4399 0.0197, -0.1525 -0.5004 0.0197, -0.1422 -0.4557 0.0197, -0.1379 -0.468 0.0197, -0.1312 -0.4786 0.0197, -0.2418 -0.5004 0.0197, -0.2591 -0.5004 0.0197, -1.0433 -0.5011 0.0197, -1.0433 -0.1831 0.0197, -0.1215 -0.4879 0.0197, -0.1091 -0.4951 0.0197, -0.0955 -0.4991 0.0197, -0.1698 -0.5004 0.0197, -0.181 -0.4673 0.0197, -0.2298 -0.4673 0.0197, 0.0852 -0.5011 0.0197, 0.09 -0.5018 0.0197, -0.0373 -1.0492 0.0197, 0.0932 -0.5019 0.0197, 0.1001 -0.5011 0.0197, 0.7283 -1.0492 0.0197, -0.0257 -0.4875 0.0197, -0.0257 -0.5004 0.0197, 0.0376 -0.5004 0.0197, -0.0229 -0.3823 0.0197, -0.0229 -0.3953 0.0197, 0.0607 -0.4943 0.0197, 0.0607 -0.4813 0.0197, 0.0376 -0.3823 0.0197, 0.7283 1.0374 0.0197, 0.1575 0.1713 0.0197, 1.0433 0.7224 0.0197, 1.0433 0.1713 0.0197, 0.0218 -0.4471 0.0197, 0.0218 -0.4875 0.0197, -0.02 -0.4471 0.0197, -0.02 -0.4342 0.0197, 0.0218 -0.4342 0.0197, 0.0218 -0.3953 0.0197, 0.1 -0.3951 0.0197, 0.1088 -0.3983 0.0197, 0.0628 -0.4825 0.0197, 0.117 -0.4038 0.0197, 0.1241 -0.4117 0.0197, 0.1327 -0.4426 0.0197, 0.1315 -0.4554 0.0197, 0.1283 -0.4656 0.0197, 0.102 -0.4877 0.0197, 0.091 -0.4889 0.0197, 0.1106 -0.4845 0.0197, 0.1179 -0.4796 0.0197, 0.1234 -0.4738 0.0197, 0.0753 -0.4872 0.0197, 0.2191 -0.5004 0.0197, 0.1586 -0.5004 0.0197, 0.1077 -0.5004 0.0197, 0.1192 -0.4964 0.0197, 0.2033 -0.3823 0.0197, 0.1575 -0.1831 0.0197, 0.2191 -0.3823 0.0197, 1.0433 -0.1831 0.0197, 1.0433 -0.5011 0.0197, 1.0433 -0.7343 0.0197, 0.129 -0.4208 0.0197, 0.1321 -0.4334 0.0197, 0.1247 -0.3921 0.0197, 0.1354 -0.4024 0.0197, 0.1423 -0.4134 0.0197, 0.1287 -0.4903 0.0197, 0.1376 -0.481 0.0197, 0.1586 -0.4875 0.0197, 0.1439 -0.4698 0.0197, 0.2033 -0.4875 0.0197, 0.1474 -0.4573 0.0197, 0.1486 -0.4436 0.0197, 0.1469 -0.4268 0.0197, 0.1135 -0.3857 0.0197, 0.1003 -0.3818 0.0197, 0.0885 -0.3809 0.0197, 0.0743 -0.3818 0.0197, 0.0607 -0.3855 0.0197, 0.0607 -0.4014 0.0197, 0.074 -0.3957 0.0197, 0.0883 -0.3938 0.0197, -1.0433 -1.0492 0.0197, 0.0733 -0.4995 0.0197, 1.0433 0.1713 0.0984, 1.0433 0.1417 0.0984, 0.2559 0.1417 0.0984, 1.0433 -0.1535 0.0984, 1.0433 -0.1831 0.0984, 0.2559 -0.1535 0.0984, 0.1575 -0.1831 0.0984, 0.1575 0.1713 0.0984, -1.0433 -0.1831 0.0984, -1.0433 -0.1535 0.0984, -0.2559 -0.1535 0.0984, -1.0433 0.1417 0.0984, -1.0433 0.1713 0.0984, -0.2559 0.1417 0.0984, -0.1575 0.1713 0.0984, -0.1575 -0.1831 0.0984
            ]
        }
        coordIndex [
            0,1,2,-1,3,4,5,-1,6,7,8,-1,7,9,10,-1,2,11,0,-1,0,11,12,-1,0,12,6,-1,6,12,13,-1,6,13,14,-1,14,15,6,-1,6,15,16,-1,6,16,7,-1,7,16,17,-1,7,17,9,-1,10,18,7,-1,7,18,19,-1,7,19,20,-1,19,21,20,-1,20,21,22,-1,20,22,23,-1,24,5,25,-1,25,5,26,-1,25,26,8,-1,8,26,27,-1,8,27,6,-1,23,28,20,-1,20,28,29,-1,20,29,30,-1,30,3,20,-1,20,3,5,-1,20,5,31,-1,31,5,24,-1,31,24,32,-1,32,24,33,-1,34,35,36,-1,35,37,36,-1,36,37,38,-1,36,38,39,-1,40,41,5,-1,5,41,42,-1,4,12,5,-1,5,12,11,-1,5,11,40,-1,40,11,43,-1,40,43,44,-1,45,42,46,-1,46,42,47,-1,11,48,49,-1,49,48,50,-1,49,50,51,-1,52,53,54,-1,54,53,40,-1,54,40,55,-1,55,40,44,-1,55,44,56,-1,56,44,57,-1,58,59,60,-1,60,59,61,-1,60,61,62,-1,63,64,60,-1,60,64,65,-1,66,67,68,-1,68,67,69,-1,65,70,60,-1,60,70,69,-1,60,69,71,-1,71,69,67,-1,72,38,73,-1,73,38,74,-1,73,74,75,-1,76,77,78,-1,78,77,79,-1,78,79,72,-1,72,79,80,-1,72,80,38,-1,38,80,81,-1,38,81,39,-1,11,49,43,-1,43,49,77,-1,43,77,47,-1,62,82,60,-1,60,82,83,-1,60,83,63,-1,84,77,85,-1,85,77,76,-1,85,76,86,-1,75,87,73,-1,73,87,88,-1,73,88,89,-1,89,88,90,-1,89,90,91,-1,90,92,91,-1,91,92,93,-1,91,93,76,-1,76,93,94,-1,76,94,86,-1,84,95,77,-1,77,95,96,-1,77,96,97,-1,97,98,77,-1,77,98,99,-1,77,99,47,-1,47,99,100,-1,47,100,46,-1,46,100,101,-1,46,101,60,-1,60,101,102,-1,60,102,58,-1,103,26,36,-1,36,26,5,-1,36,5,34,-1,34,5,42,-1,34,42,104,-1,104,42,45,-1,105,106,107,-1,108,109,110,-1,110,109,111,-1,110,111,107,-1,107,111,112,-1,107,112,105,-1,113,114,115,-1,116,117,118,-1,118,117,119,-1,118,119,115,-1,115,119,120,-1,115,120,113,-1,
        ]
    }
}
Shape{
    appearance Appearance {
        material  Material 	{
            diffuseColor 1.0 1.0 1.0
            specularColor 0.5019607843137255 0.5019607843137255 0.5019607843137255
            ambientIntensity 1.0
            transparency 0.0
            shininess 0.5
        }
    }
    geometry IndexedFaceSet {
        ccw TRUE
        solid FALSE
        coord DEF co Coordinate {
            point [
                -0.9831 -0.0535 0.4412, -0.9843 -0.0059 0.2165, -0.9751 -0.1399 0.2165, -0.9468 -0.2712 0.4412, -0.9557 -0.2415 0.4412, -0.9478 -0.2715 0.2165, -0.9739 -0.1481 0.4412, -0.9747 -0.1399 0.4412, -0.9285 -0.3326 0.4412, -0.9028 -0.398 0.2165, -0.9019 -0.3977 0.4412, -0.8926 -0.4207 0.4412, -0.841 -0.5173 0.2165, -0.8484 -0.5049 0.4412, -0.7635 -0.6271 0.2165, -0.7963 -0.5844 0.4412, -0.8405 -0.517 0.4412, -0.6718 -0.7252 0.2165, -0.7367 -0.6586 0.4412, -0.7626 -0.6264 0.4412, -0.567 -0.8091 0.4412, -0.5976 -0.788 0.4412, -0.5676 -0.81 0.2165, -0.6703 -0.7266 0.4412, -0.6717 -0.7252 0.4412, -0.5193 -0.842 0.4412, -0.4528 -0.8798 0.2165, -0.4525 -0.8792 0.4412, -0.4362 -0.8882 0.4412, -0.3296 -0.9333 0.2165, -0.349 -0.9262 0.4412, -0.2003 -0.9696 0.2165, -0.2586 -0.9556 0.4412, -0.3294 -0.9326 0.4412, -0.0672 -0.9877 0.4412, -0.0713 -0.9876 0.4412, -0.0672 -0.9879 0.2165, -0.1657 -0.9761 0.4412, -0.2 -0.9685 0.4412, 0.0238 -0.9899 0.4412, 0.0672 -0.9879 0.2165, 0.0671 -0.9867 0.4412, 0.1186 -0.983 0.4412, 0.2003 -0.9696 0.2165, 0.2002 -0.9691 0.4412, 0.2124 -0.967 0.4412, 0.3296 -0.9333 0.2165, 0.3042 -0.942 0.4412, 0.4528 -0.8798 0.2165, 0.3931 -0.9083 0.4412, 0.3293 -0.9325 0.4412, 0.5673 -0.8097 0.4412, 0.5591 -0.8159 0.4412, 0.5676 -0.81 0.2165, 0.4783 -0.8661 0.4412, 0.4524 -0.8789 0.4412, 0.6347 -0.7582 0.4412, 0.6718 -0.7252 0.2165, 0.671 -0.7244 0.4412, 0.7043 -0.6934 0.4412, 0.7635 -0.6271 0.2165, 0.7633 -0.6269 0.4412, 0.7674 -0.6222 0.4412, 0.841 -0.5173 0.2165, 0.8233 -0.5453 0.4412, 0.9028 -0.398 0.2165, 0.8715 -0.4633 0.4412, 0.8401 -0.5168 0.4412, 0.9471 -0.2713 0.4412, 0.9432 -0.2874 0.4412, 0.9478 -0.2715 0.2165, 0.9116 -0.3771 0.4412, 0.902 -0.3977 0.4412, 0.9659 -0.195 0.4412, 0.9751 -0.1399 0.2165, 0.974 -0.1398 0.4412, 0.9797 -0.1009 0.4412, 0.9843 -0.0059 0.2165, 0.9843 -0.0059 0.4412, 0.9797 0.0891 0.4412, 0.9751 0.1281 0.2165, 0.974 0.128 0.4412, 0.9659 0.1832 0.4412, 0.9478 0.2596 0.2165, 0.9471 0.2595 0.4412, 0.9432 0.2755 0.4412, 0.9028 0.3862 0.2165, 0.9116 0.3652 0.4412, 0.841 0.5055 0.2165, 0.8715 0.4515 0.4412, 0.902 0.3859 0.4412, 0.7633 0.6151 0.4412, 0.7674 0.6104 0.4412, 0.7635 0.6152 0.2165, 0.8233 0.5335 0.4412, 0.8401 0.505 0.4412, 0.7043 0.6816 0.4412, 0.6718 0.7134 0.2165, 0.671 0.7126 0.4412, 0.6347 0.7464 0.4412, 0.5676 0.7982 0.2165, 0.5673 0.7978 0.4412, 0.5591 0.8041 0.4412, 0.4528 0.868 0.2165, 0.4783 0.8543 0.4412, 0.3296 0.9215 0.2165, 0.3931 0.8964 0.4412, 0.4524 0.8671 0.4412, 0.2002 0.9572 0.4412, 0.2124 0.9552 0.4412, 0.2003 0.9578 0.2165, 0.3042 0.9302 0.4412, 0.3293 0.9206 0.4412, 0.1186 0.9712 0.4412, 0.0672 0.976 0.2165, 0.0671 0.9749 0.4412, 0.0238 0.9781 0.4412, -0.0672 0.976 0.2165, -0.0672 0.9759 0.4412, -0.0713 0.9758 0.4412, -0.2003 0.9578 0.2165, -0.1657 0.9643 0.4412, -0.3296 0.9215 0.2165, -0.2586 0.9438 0.4412, -0.2 0.9567 0.4412, -0.4525 0.8674 0.4412, -0.4362 0.8764 0.4412, -0.4528 0.868 0.2165, -0.349 0.9144 0.4412, -0.3294 0.9208 0.4412, -0.5193 0.8302 0.4412, -0.5676 0.7982 0.2165, -0.567 0.7973 0.4412, -0.5976 0.7762 0.4412, -0.6718 0.7134 0.2165, -0.6703 0.7148 0.4412, -0.7635 0.6152 0.2165, -0.7367 0.6468 0.4412, -0.6717 0.7133 0.4412, -0.841 0.5055 0.2165, -0.7963 0.5726 0.4412, -0.7626 0.6145 0.4412, -0.9019 0.3859 0.4412, -0.8926 0.4089 0.4412, -0.9028 0.3862 0.2165, -0.8484 0.4931 0.4412, -0.8405 0.5052 0.4412, -0.9285 0.3208 0.4412, -0.9478 0.2596 0.2165, -0.9468 0.2593 0.4412, -0.9557 0.2296 0.4412, -0.9751 0.1281 0.2165, -0.9739 0.1363 0.4412, -0.9831 -0.0059 0.4412, -0.9831 0.0416 0.4412, -0.9747 0.1281 0.4412
            ]
        }
        coordIndex [
            0,1,2,-1,3,4,5,-1,5,4,6,-1,5,6,2,-1,2,6,7,-1,2,7,0,-1,3,5,8,-1,8,5,9,-1,8,9,10,-1,10,9,11,-1,11,9,12,-1,11,12,13,-1,14,15,12,-1,12,15,16,-1,12,16,13,-1,17,18,14,-1,14,18,19,-1,14,19,15,-1,20,21,22,-1,22,21,23,-1,22,23,17,-1,17,23,24,-1,17,24,18,-1,20,22,25,-1,25,22,26,-1,25,26,27,-1,27,26,28,-1,28,26,29,-1,28,29,30,-1,31,32,29,-1,29,32,33,-1,29,33,30,-1,34,35,36,-1,36,35,37,-1,36,37,31,-1,31,37,38,-1,31,38,32,-1,34,36,39,-1,39,36,40,-1,39,40,41,-1,41,40,42,-1,42,40,43,-1,42,43,44,-1,44,43,45,-1,45,43,46,-1,45,46,47,-1,48,49,46,-1,46,49,50,-1,46,50,47,-1,51,52,53,-1,53,52,54,-1,53,54,48,-1,48,54,55,-1,48,55,49,-1,51,53,56,-1,56,53,57,-1,56,57,58,-1,58,57,59,-1,59,57,60,-1,59,60,61,-1,61,60,62,-1,62,60,63,-1,62,63,64,-1,65,66,63,-1,63,66,67,-1,63,67,64,-1,68,69,70,-1,70,69,71,-1,70,71,65,-1,65,71,72,-1,65,72,66,-1,68,70,73,-1,73,70,74,-1,73,74,75,-1,75,74,76,-1,76,74,77,-1,76,77,78,-1,78,77,79,-1,79,77,80,-1,79,80,81,-1,81,80,82,-1,82,80,83,-1,82,83,84,-1,84,83,85,-1,85,83,86,-1,85,86,87,-1,88,89,86,-1,86,89,90,-1,86,90,87,-1,91,92,93,-1,93,92,94,-1,93,94,88,-1,88,94,95,-1,88,95,89,-1,91,93,96,-1,96,93,97,-1,96,97,98,-1,98,97,99,-1,99,97,100,-1,99,100,101,-1,101,100,102,-1,102,100,103,-1,102,103,104,-1,105,106,103,-1,103,106,107,-1,103,107,104,-1,108,109,110,-1,110,109,111,-1,110,111,105,-1,105,111,112,-1,105,112,106,-1,108,110,113,-1,113,110,114,-1,113,114,115,-1,115,114,116,-1,116,114,117,-1,116,117,118,-1,118,117,119,-1,119,117,120,-1,119,120,121,-1,122,123,120,-1,120,123,124,-1,120,124,121,-1,125,126,127,-1,127,126,128,-1,127,128,122,-1,122,128,129,-1,122,129,123,-1,125,127,130,-1,130,127,131,-1,130,131,132,-1,132,131,133,-1,133,131,134,-1,133,134,135,-1,136,137,134,-1,134,137,138,-1,134,138,135,-1,139,140,136,-1,136,140,141,-1,136,141,137,-1,142,143,144,-1,144,143,145,-1,144,145,139,-1,139,145,146,-1,139,146,140,-1,142,144,147,-1,147,144,148,-1,147,148,149,-1,149,148,150,-1,150,148,151,-1,150,151,152,-1,0,153,1,-1,1,153,154,-1,1,154,151,-1,151,154,155,-1,151,155,152,-1,
        ]
    }
}
Shape{
    appearance Appearance {
        material  Material 	{
            diffuseColor 0.25098039215686274 0.25098039215686274 0.25098039215686274
            specularColor 0.12549019607843137 0.12549019607843137 0.12549019607843137
            ambientIntensity 0.251
            transparency 0.0
            shininess 0.5
        }
    }
    geometry IndexedFaceSet {
        ccw TRUE
        solid FALSE
        coord DEF co Coordinate {
            point [
                0.9801 0.2894 0.2165, 0.9801 0.2894 0.3346, 0.9364 0.4076 0.2165, 0.9364 0.4076 0.3346, 0.8785 0.5195 0.2165, 0.8785 0.5195 0.3346, 0.8073 0.6235 0.2165, 0.8073 0.6235 0.3346, 0.7238 0.7179 0.2165, 0.7238 0.7179 0.3346, 0.6294 0.8014 0.2165, 0.6294 0.8014 0.3346, 0.5254 0.8726 0.2165, 0.5254 0.8726 0.3346, 0.4135 0.9305 0.2165, 0.4135 0.9305 0.3346, 0.2953 0.9742 0.2165, 0.2953 0.9742 0.3346, 0.2953 -0.986 0.2165, 0.2953 -0.986 0.3346, 0.4135 -0.9423 0.2165, 0.4135 -0.9423 0.3346, 0.5254 -0.8844 0.2165, 0.5254 -0.8844 0.3346, 0.6294 -0.8132 0.2165, 0.6294 -0.8132 0.3346, 0.7238 -0.7297 0.2165, 0.7238 -0.7297 0.3346, 0.8073 -0.6353 0.2165, 0.8073 -0.6353 0.3346, 0.8785 -0.5313 0.2165, 0.8785 -0.5313 0.3346, 0.9364 -0.4194 0.2165, 0.9364 -0.4194 0.3346, 0.9801 -0.3012 0.2165, 0.9801 -0.3012 0.3346, -1.0433 1.0374 0.4134, -0.2953 1.0374 0.4134, -1.0433 1.0374 0.0197, -0.2953 1.0374 0.2165, 0.2953 1.0374 0.3346, 0.7283 1.0374 0.3346, 0.2953 1.0374 0.2165, 0.7283 1.0374 0.0197, -0.0373 1.0374 0.0197, -0.2953 -1.0492 0.2165, -0.2953 -1.0492 0.4134, -1.0433 -1.0492 0.4134, 0.7283 -1.0492 0.3346, 0.2953 -1.0492 0.3346, 0.7283 -1.0492 0.0197, 0.2953 -1.0492 0.2165, -0.0373 -1.0492 0.0197, -1.0433 -1.0492 0.0197, 1.0433 -0.3012 0.2165, 1.0433 -0.5011 0.0197, 1.0433 -0.1831 0.0197, 1.0433 0.1713 0.0984, 1.0433 0.1713 0.0197, 1.0433 0.2894 0.2165, 1.0433 0.7224 0.0197, 1.0433 0.2894 0.3346, 1.0433 0.7224 0.3346, 1.0433 -0.3012 0.3346, 1.0433 -0.7343 0.3346, 1.0433 -0.7343 0.0197, 1.0433 -0.1831 0.0984, 1.0433 -0.1535 0.0984, 1.0433 0.1417 0.0984, -1.0433 0.2894 0.4134, -0.9801 0.2894 0.4134, -0.9364 0.4076 0.4134, -0.8785 0.5195 0.4134, -0.8073 0.6235 0.4134, -0.7238 0.7179 0.4134, -0.6294 0.8014 0.4134, -0.2953 0.9742 0.4134, -0.4135 0.9305 0.4134, -0.5254 0.8726 0.4134, -0.2953 -0.986 0.4134, -0.4135 -0.9423 0.4134, -0.5254 -0.8844 0.4134, -0.6294 -0.8132 0.4134, -0.7238 -0.7297 0.4134, -0.8073 -0.6353 0.4134, -0.9801 -0.3012 0.4134, -1.0433 -0.3012 0.4134, -0.9364 -0.4194 0.4134, -0.8785 -0.5313 0.4134, -0.2953 0.9742 0.2165, -0.4135 0.9305 0.2165, -0.5254 0.8726 0.2165, -0.6294 0.8014 0.2165, -0.7238 0.7179 0.2165, -0.8073 0.6235 0.2165, -0.8785 0.5195 0.2165, -0.9364 0.4076 0.2165, -0.9801 0.2894 0.2165, -0.9801 -0.3012 0.2165, -0.9364 -0.4194 0.2165, -0.8785 -0.5313 0.2165, -0.8073 -0.6353 0.2165, -0.7238 -0.7297 0.2165, -0.6294 -0.8132 0.2165, -0.5254 -0.8844 0.2165, -0.4135 -0.9423 0.2165, -0.2953 -0.986 0.2165, -1.0433 0.1713 0.0197, -1.0433 0.1713 0.0984, -1.0433 0.2894 0.2165, -1.0433 -0.3012 0.2165, -1.0433 -0.1831 0.0984, -1.0433 -0.1831 0.0197, -1.0433 0.1417 0.0984, -1.0433 -0.1535 0.0984, -1.0433 -0.5011 0.0197, 0.9478 0.2596 0.2165, -0.0672 -0.9879 0.2165, 0.9028 0.3862 0.2165, 0.841 0.5055 0.2165, 0.7635 0.6152 0.2165, 0.6718 0.7134 0.2165, 0.5676 0.7982 0.2165, 0.4528 0.868 0.2165, 0.4528 -0.8798 0.2165, 0.3296 -0.9333 0.2165, 0.2003 -0.9696 0.2165, 0.0672 -0.9879 0.2165, 0.3296 0.9215 0.2165, -0.4528 0.868 0.2165, -0.3296 0.9215 0.2165, -0.2003 0.9578 0.2165, -0.0672 0.976 0.2165, 0.0672 0.976 0.2165, 0.2003 0.9578 0.2165, -0.5676 0.7982 0.2165, -0.6718 0.7134 0.2165, -0.7635 0.6152 0.2165, -0.841 0.5055 0.2165, -0.9028 0.3862 0.2165, -0.9478 0.2596 0.2165, -0.9751 0.1281 0.2165, -0.9843 -0.0059 0.2165, -0.9751 -0.1399 0.2165, -0.9478 -0.2715 0.2165, -0.2003 -0.9696 0.2165, -0.3296 -0.9333 0.2165, -0.4528 -0.8798 0.2165, -0.9028 -0.398 0.2165, -0.841 -0.5173 0.2165, -0.7635 -0.6271 0.2165, -0.6718 -0.7252 0.2165, -0.5676 -0.81 0.2165, 0.5676 -0.81 0.2165, 0.6718 -0.7252 0.2165, 0.7635 -0.6271 0.2165, 0.841 -0.5173 0.2165, 0.9028 -0.398 0.2165, 0.9478 -0.2715 0.2165, 0.9751 -0.1399 0.2165, 0.9843 -0.0059 0.2165, 0.9751 0.1281 0.2165
            ]
        }
        coordIndex [
            0,1,2,-1,2,1,3,-1,2,3,4,-1,4,3,5,-1,4,5,6,-1,6,5,7,-1,6,7,8,-1,8,7,9,-1,8,9,10,-1,10,9,11,-1,10,11,12,-1,12,11,13,-1,12,13,14,-1,14,13,15,-1,14,15,16,-1,16,15,17,-1,18,19,20,-1,20,19,21,-1,20,21,22,-1,22,21,23,-1,22,23,24,-1,24,23,25,-1,24,25,26,-1,26,25,27,-1,26,27,28,-1,28,27,29,-1,28,29,30,-1,30,29,31,-1,30,31,32,-1,32,31,33,-1,32,33,34,-1,34,33,35,-1,36,37,38,-1,38,37,39,-1,40,41,42,-1,42,41,43,-1,42,43,39,-1,39,43,44,-1,39,44,38,-1,45,46,47,-1,48,49,50,-1,50,49,51,-1,50,51,52,-1,52,51,45,-1,52,45,53,-1,53,45,47,-1,54,55,56,-1,57,58,59,-1,59,58,60,-1,59,60,61,-1,61,60,62,-1,54,63,55,-1,55,63,64,-1,55,64,65,-1,56,66,54,-1,54,66,67,-1,54,67,59,-1,59,67,68,-1,59,68,57,-1,63,54,35,-1,35,54,34,-1,1,0,61,-1,61,0,59,-1,19,18,49,-1,49,18,51,-1,40,42,17,-1,17,42,16,-1,69,70,36,-1,36,70,71,-1,36,71,72,-1,72,73,36,-1,36,73,74,-1,36,74,75,-1,76,37,77,-1,77,37,36,-1,77,36,78,-1,78,36,75,-1,46,79,47,-1,47,79,80,-1,47,80,81,-1,81,82,47,-1,47,82,83,-1,47,83,84,-1,85,86,87,-1,87,86,47,-1,87,47,88,-1,88,47,84,-1,89,76,90,-1,90,76,77,-1,90,77,91,-1,91,77,78,-1,91,78,92,-1,92,78,75,-1,92,75,93,-1,93,75,74,-1,93,74,94,-1,94,74,73,-1,94,73,95,-1,95,73,72,-1,95,72,96,-1,96,72,71,-1,96,71,97,-1,97,71,70,-1,98,85,99,-1,99,85,87,-1,99,87,100,-1,100,87,88,-1,100,88,101,-1,101,88,84,-1,101,84,102,-1,102,84,83,-1,102,83,103,-1,103,83,82,-1,103,82,104,-1,104,82,81,-1,104,81,105,-1,105,81,80,-1,105,80,106,-1,106,80,79,-1,38,107,108,-1,69,36,109,-1,109,36,38,-1,110,111,112,-1,38,108,109,-1,109,108,113,-1,109,113,110,-1,110,113,114,-1,110,114,111,-1,47,86,53,-1,53,86,110,-1,53,110,115,-1,115,110,112,-1,59,0,116,-1,106,45,117,-1,117,45,51,-1,116,0,118,-1,118,0,2,-1,118,2,119,-1,119,2,4,-1,119,4,120,-1,120,4,6,-1,120,6,121,-1,121,6,8,-1,121,8,122,-1,122,8,10,-1,122,10,123,-1,124,125,18,-1,18,125,126,-1,18,126,51,-1,51,126,127,-1,51,127,117,-1,16,128,14,-1,14,128,123,-1,14,123,12,-1,12,123,10,-1,129,130,89,-1,89,130,131,-1,89,131,39,-1,39,131,132,-1,39,132,42,-1,42,132,133,-1,42,133,16,-1,16,133,134,-1,16,134,128,-1,89,90,129,-1,129,90,91,-1,129,91,135,-1,135,91,92,-1,135,92,136,-1,136,92,93,-1,136,93,137,-1,137,93,94,-1,137,94,138,-1,138,94,95,-1,138,95,139,-1,139,95,96,-1,139,96,140,-1,140,96,97,-1,140,97,141,-1,141,97,109,-1,141,109,142,-1,142,109,110,-1,142,110,143,-1,143,110,98,-1,143,98,144,-1,117,145,106,-1,106,145,146,-1,106,146,105,-1,105,146,147,-1,144,98,148,-1,148,98,99,-1,148,99,149,-1,149,99,100,-1,149,100,150,-1,150,100,101,-1,150,101,151,-1,151,101,102,-1,151,102,152,-1,152,102,103,-1,152,103,147,-1,147,103,104,-1,147,104,105,-1,18,20,124,-1,124,20,22,-1,124,22,153,-1,153,22,24,-1,153,24,154,-1,154,24,26,-1,154,26,155,-1,155,26,28,-1,155,28,156,-1,156,28,30,-1,156,30,157,-1,157,30,32,-1,157,32,158,-1,158,32,34,-1,158,34,159,-1,159,34,54,-1,159,54,160,-1,160,54,59,-1,160,59,161,-1,161,59,116,-1,110,86,98,-1,98,86,85,-1,97,70,109,-1,109,70,69,-1,46,45,79,-1,79,45,106,-1,39,37,89,-1,89,37,76,-1,1,61,3,-1,3,61,62,-1,3,62,5,-1,13,11,41,-1,41,11,9,-1,41,9,62,-1,62,9,7,-1,62,7,5,-1,40,17,41,-1,41,17,15,-1,41,15,13,-1,19,49,21,-1,21,49,48,-1,21,48,23,-1,63,35,64,-1,64,35,33,-1,64,33,31,-1,31,29,64,-1,64,29,27,-1,64,27,48,-1,48,27,25,-1,48,25,23,-1,
        ]
    }
}
Shape{
    appearance Appearance {
        material  Material 	{
            diffuseColor 1.0 1.0 1.0
            specularColor 0.5019607843137255 0.5019607843137255 0.5019607843137255
            ambientIntensity 1.0
            transparency 0.0
            shininess 0.5
        }
    }
    geometry IndexedFaceSet {
        ccw TRUE
        solid FALSE
        coord DEF co Coordinate {
            point [
                0.7633 0.6151 0.4412, 0.7043 0.6816 0.4412, 0.6872 0.6648 0.4619, 0.671 0.7126 0.4412, 0.6347 0.7464 0.4412, 0.6192 0.728 0.4619, 0.2002 0.9572 0.4412, 0.1186 0.9712 0.4412, 0.1157 0.9473 0.4619, -0.6717 0.7133 0.4412, -0.7367 0.6468 0.4412, -0.7188 0.6309 0.4619, -0.7626 0.6145 0.4412, -0.7963 0.5726 0.4412, -0.7769 0.5585 0.4619, -0.9747 0.1281 0.4412, -0.9831 0.0416 0.4412, -0.9591 0.0405 0.4619, -0.8405 -0.517 0.4412, -0.7963 -0.5844 0.4412, -0.7769 -0.5703 0.4619, -0.0672 -0.9877 0.4412, 0.0238 -0.9899 0.4412, 0.0232 -0.9659 0.4619, 0.0671 -0.9867 0.4412, 0.1186 -0.983 0.4412, 0.1157 -0.9592 0.4619, 0.5673 -0.8097 0.4412, 0.6347 -0.7582 0.4412, 0.6192 -0.7399 0.4619, 0.974 -0.1398 0.4412, 0.9797 -0.1009 0.4412, 0.9558 -0.0986 0.4619, 0.6872 0.6648 0.6356, 0.7487 0.5954 0.6356, 0.7345 0.584 0.6097, 0.9797 0.0891 0.6563, 0.9843 -0.0059 0.6563, 0.9603 -0.0059 0.6356, 0.974 0.128 0.6563, 0.9558 0.0868 0.6356, 0.902 0.3859 0.6563, 0.9116 0.3652 0.6563, 0.8894 0.3562 0.6356, 0.4783 0.8543 0.6563, 0.5591 0.8041 0.6563, 0.5455 0.7844 0.6356, 0.2124 0.9552 0.6563, 0.3042 0.9302 0.6563, 0.2967 0.9073 0.6356, 0.0671 0.9749 0.6563, 0.1186 0.9712 0.6563, 0.1157 0.9473 0.6356, -0.0672 0.9759 0.6563, 0.0238 0.9781 0.6563, 0.0232 0.9541 0.6356, -0.1657 0.9643 0.6563, -0.0713 0.9758 0.6563, -0.0696 0.9518 0.6356, -0.4362 0.8764 0.6563, -0.349 0.9144 0.6563, -0.3405 0.8919 0.6356, -0.567 0.7973 0.6563, -0.5193 0.8302 0.6563, -0.5067 0.8098 0.6356, -0.6703 0.7148 0.6563, -0.5976 0.7762 0.6563, -0.583 0.7571 0.6356, -0.7626 0.6145 0.6563, -0.7367 0.6468 0.6563, -0.7188 0.6309 0.6356, -0.8926 0.4089 0.6563, -0.8484 0.4931 0.6563, -0.8277 0.4809 0.6356, -0.9739 0.1363 0.6563, -0.9557 0.2296 0.6563, -0.9324 0.2239 0.6356, -0.9831 -0.0059 0.6563, -0.9831 0.0416 0.6563, -0.9591 0.0405 0.6356, -0.9747 -0.1399 0.6563, -0.9831 -0.0535 0.6563, -0.9591 -0.0523 0.6356, -0.9557 -0.2415 0.6563, -0.9739 -0.1481 0.6563, -0.9502 -0.1447 0.6356, -0.8484 -0.5049 0.6563, -0.8926 -0.4207 0.6563, -0.8708 -0.4106 0.6356, -0.7626 -0.6264 0.6563, -0.7963 -0.5844 0.6563, -0.7769 -0.5703 0.6356, -0.6717 -0.7252 0.6563, -0.7367 -0.6586 0.6563, -0.7188 -0.6427 0.6356, -0.5976 -0.788 0.6563, -0.6703 -0.7266 0.6563, -0.654 -0.7091 0.6356, -0.349 -0.9262 0.6563, -0.4362 -0.8882 0.6563, -0.4256 -0.8667 0.6356, -0.0713 -0.9876 0.6563, -0.1657 -0.9761 0.6563, -0.1617 -0.9525 0.6356, 0.0671 -0.9867 0.6563, 0.0238 -0.9899 0.6563, 0.0232 -0.9659 0.6356, 0.3042 -0.942 0.6563, 0.2124 -0.967 0.6563, 0.2072 -0.9435 0.6356, 0.5591 -0.8159 0.6563, 0.4783 -0.8661 0.6563, 0.4667 -0.8451 0.6356, 0.671 -0.7244 0.6563, 0.6347 -0.7582 0.6563, 0.6192 -0.7399 0.6356, 0.7633 -0.6269 0.6563, 0.7043 -0.6934 0.6563, 0.6872 -0.6767 0.6356, 0.8233 -0.5453 0.6563, 0.7674 -0.6222 0.6563, 0.7487 -0.6072 0.6356, 0.9432 -0.2874 0.6563, 0.9116 -0.3771 0.6563, 0.8894 -0.368 0.6356, 0.974 -0.1398 0.6563, 0.9659 -0.195 0.6563, 0.9424 -0.1904 0.6356, 0.9797 -0.1009 0.6563, 0.9558 -0.0986 0.6356, 0.8715 -0.4633 0.6563, 0.8401 -0.5168 0.6563, 0.8032 -0.5321 0.6356, 0.3931 -0.9083 0.6563, 0.3293 -0.9325 0.6563, 0.2967 -0.9192 0.6356, 0.1186 -0.983 0.6563, -0.2586 -0.9556 0.6563, -0.3294 -0.9326 0.6563, -0.3405 -0.9038 0.6356, -0.5193 -0.842 0.6563, -0.567 -0.8091 0.6563, -0.583 -0.7689 0.6356, -0.9285 -0.3326 0.6563, -0.9468 -0.2712 0.6563, -0.9324 -0.2357 0.6356, -0.9285 0.3208 0.6563, -0.9019 0.3859 0.6563, -0.8708 0.3987 0.6356, -0.7963 0.5726 0.6563, -0.2586 0.9438 0.6563, -0.2 0.9567 0.6563, -0.1617 0.9406 0.6356, 0.3931 0.8964 0.6563, 0.4524 0.8671 0.6563, 0.4667 0.8333 0.6356, 0.6347 0.7464 0.6563, 0.671 0.7126 0.6563, 0.7674 0.6104 0.6563, 0.7633 0.6151 0.6563, 0.7043 0.6816 0.6563, 0.8032 0.5203 0.6356, 0.8233 0.5335 0.6563, 0.8401 0.505 0.6563, 0.9202 0.2687 0.6356, 0.9432 0.2755 0.6563, 0.9471 0.2595 0.6563, 0.9659 0.1832 0.6563, 0.7784 0.5041 0.5802, 0.788 0.5103 0.6097, 0.6741 -0.6639 0.6097, 0.6074 -0.7259 0.6097, 0.6001 -0.7172 0.5802, 0.5286 -0.7718 0.5802, 0.5264 -0.7686 0.5488, 0.2002 -0.9691 0.6563, 0.1157 -0.9592 0.6356, 0.1135 -0.9411 0.6097, 0.0228 -0.9476 0.6097, 0.0225 -0.9362 0.5802, -0.0674 -0.9341 0.5802, -0.0671 -0.9302 0.5488, -0.7051 -0.6306 0.6097, -0.7621 -0.5596 0.6097, -0.7529 -0.5529 0.5802, -0.8022 -0.4777 0.5802, -0.7988 -0.4757 0.5488, -0.9409 -0.0514 0.6097, -0.9409 0.0396 0.6097, -0.9295 0.0391 0.5802, -0.9208 0.1286 0.5802, -0.917 0.128 0.5488, -0.6717 0.7133 0.6563, -0.654 0.6973 0.6356, -0.572 0.7426 0.6097, -0.497 0.7943 0.6097, -0.491 0.7846 0.5802, -0.4124 0.8283 0.5802, -0.4107 0.8248 0.5488, 0.0228 0.9358 0.6097, 0.1135 0.9292 0.6097, 0.1122 0.9179 0.5802, 0.2008 0.9028 0.5802, 0.2 0.899 0.5488, 0.5673 0.7978 0.6563, 0.6192 0.728 0.6356, 0.6074 0.7141 0.6097, 0.6741 0.6521 0.6097, 0.6659 0.6441 0.5802, 0.7256 0.5768 0.5802, 0.7225 0.5744 0.5488, 0.8206 0.4248 0.5488, 0.824 0.4266 0.5802, 0.8341 0.4319 0.6097, 0.8503 0.4403 0.6356, 0.8715 0.4515 0.6563, 0.7345 -0.5958 0.6097, 0.6659 -0.6559 0.5802, 0.5976 -0.7142 0.5488, 0.5286 -0.7718 0.5173, 0.2033 -0.9257 0.6097, 0.1122 -0.9297 0.5802, 0.0224 -0.9324 0.5488, -0.0674 -0.9341 0.5173, -0.6415 -0.6957 0.6097, -0.6966 -0.623 0.5802, -0.7497 -0.5506 0.5488, -0.8022 -0.4777 0.5173, -0.9321 -0.142 0.6097, -0.9295 -0.0509 0.5802, -0.9256 0.0389 0.5488, -0.9208 0.1286 0.5173, -0.6415 0.6839 0.6097, -0.565 0.7335 0.5802, -0.489 0.7813 0.5488, -0.4124 0.8283 0.5173, -0.0682 0.9336 0.6097, 0.0225 0.9244 0.5802, 0.1117 0.9141 0.5488, 0.2008 0.9028 0.5173, 0.5351 0.7694 0.6097, 0.6001 0.7054 0.5802, 0.6632 0.6414 0.5488, 0.7256 0.5768 0.5173, 0.8619 0.345 0.5173, 0.8583 0.3436 0.5488, 0.8619 0.345 0.5802, 0.8725 0.3493 0.6097, 0.902 -0.3977 0.6563, 0.8503 -0.4522 0.6356, 0.788 -0.5221 0.6097, 0.7256 -0.5886 0.5802, 0.6632 -0.6532 0.5488, 0.6001 -0.7172 0.5173, 0.5351 -0.7812 0.4878, 0.4524 -0.8789 0.6563, 0.3835 -0.8863 0.6356, 0.2911 -0.9018 0.6097, 0.2008 -0.9146 0.5802, 0.1117 -0.9259 0.5488, 0.0225 -0.9362 0.5173, -0.0682 -0.9454 0.4878, -0.4525 -0.8792 0.6563, -0.5067 -0.8216 0.6356, -0.572 -0.7544 0.6097, -0.6338 -0.6874 0.5802, -0.6937 -0.6204 0.5488, -0.7529 -0.5529 0.5173, -0.812 -0.4835 0.4878, -0.9019 -0.3977 0.6563, -0.9058 -0.3246 0.6356, -0.9146 -0.2313 0.6097, -0.9208 -0.1404 0.5802, -0.9256 -0.0507 0.5488, -0.9295 0.0391 0.5173, -0.9321 0.1302 0.4878, -0.8405 0.5052 0.6563, -0.7769 0.5585 0.6356, -0.7051 0.6188 0.6097, -0.6338 0.6755 0.5802, -0.5627 0.7304 0.5488, -0.491 0.7846 0.5173, -0.4175 0.8385 0.4878, -0.3294 0.9208 0.6563, -0.2523 0.9206 0.6356, -0.1586 0.9227 0.6097, -0.0674 0.9223 0.5802, 0.0224 0.9205 0.5488, 0.1122 0.9179 0.5173, 0.2033 0.9139 0.4878, 0.3293 0.9206 0.6563, 0.3835 0.8744 0.6356, 0.4578 0.8174 0.6097, 0.5286 0.76 0.5802, 0.5976 0.7024 0.5488, 0.6659 0.6441 0.5173, 0.7345 0.584 0.4878, 0.9027 0.2635 0.4878, 0.8917 0.2602 0.5173, 0.888 0.2591 0.5488, 0.8917 0.2602 0.5802, 0.9027 0.2635 0.6097, 0.8341 -0.4437 0.4878, 0.8725 -0.3611 0.4878, 0.8619 -0.3568 0.5173, 0.8341 -0.4437 0.6097, 0.7784 -0.5159 0.5802, 0.7225 -0.5862 0.5488, 0.6659 -0.6559 0.5173, 0.6074 -0.7259 0.4878, 0.5455 -0.7962 0.4619, 0.3762 -0.8695 0.4878, 0.4578 -0.8292 0.4878, 0.4523 -0.8192 0.5173, 0.3762 -0.8695 0.6097, 0.2876 -0.891 0.5802, 0.2 -0.9108 0.5488, 0.1122 -0.9297 0.5173, 0.0228 -0.9476 0.4878, -0.0696 -0.9636 0.4619, -0.2475 -0.9148 0.4878, -0.1586 -0.9345 0.4878, -0.1567 -0.9232 0.5173, -0.497 -0.8061 0.6097, -0.565 -0.7453 0.5802, -0.6311 -0.6845 0.5488, -0.6966 -0.623 0.5173, -0.7621 -0.5596 0.4878, -0.8277 -0.4927 0.4619, -0.8886 -0.3186 0.4878, -0.8543 -0.4029 0.4878, -0.8439 -0.3981 0.5173, -0.8886 -0.3186 0.6097, -0.9036 -0.2286 0.5802, -0.917 -0.1398 0.5488, -0.9295 -0.0509 0.5173, -0.9409 0.0396 0.4878, -0.9502 0.1328 0.4619, -0.8886 0.3068 0.4878, -0.9146 0.2195 0.4878, -0.9036 0.2168 0.5173, -0.7621 0.5478 0.6097, -0.6966 0.6112 0.5802, -0.6311 0.6727 0.5488, -0.565 0.7335 0.5173, -0.497 0.7943 0.4878, -0.4256 0.8549 0.4619, -0.2475 0.903 0.4878, -0.334 0.8749 0.4878, -0.33 0.8642 0.5173, -0.2475 0.903 0.6097, -0.1567 0.9114 0.5802, -0.0671 0.9184 0.5488, 0.0225 0.9244 0.5173, 0.1135 0.9292 0.4878, 0.2072 0.9317 0.4619, 0.3762 0.8577 0.4878, 0.2911 0.89 0.4878, 0.2876 0.8791 0.5173, 0.3762 0.8577 0.6097, 0.4523 0.8074 0.5802, 0.5264 0.7568 0.5488, 0.6001 0.7054 0.5173, 0.6741 0.6521 0.4878, 0.7487 0.5954 0.4619, 0.8341 0.4319 0.4878, 0.788 0.5103 0.4878, 0.7784 0.5041 0.5173, 0.9424 0.1786 0.4619, 0.9245 0.1751 0.4878, 0.9133 0.1729 0.5173, 0.9095 0.1721 0.5488, 0.9133 0.1729 0.5802, 0.9245 0.1751 0.6097, 0.9424 0.1786 0.6356, 0.8894 -0.368 0.4619, 0.8503 -0.4522 0.4619, 0.8032 -0.5321 0.4619, 0.7633 -0.6269 0.4412, 0.7674 -0.6222 0.4412, 0.7487 -0.6072 0.4619, 0.788 -0.5221 0.4878, 0.824 -0.4384 0.5173, 0.8583 -0.3554 0.5488, 0.9471 -0.2713 0.6563, 0.9202 -0.2805 0.6356, 0.9027 -0.2753 0.6097, 0.8725 -0.3611 0.6097, 0.8619 -0.3568 0.5802, 0.824 -0.4384 0.5802, 0.8206 -0.4366 0.5488, 0.7752 -0.5138 0.5488, 0.7784 -0.5159 0.5173, 0.7256 -0.5886 0.5173, 0.7345 -0.5958 0.4878, 0.6741 -0.6639 0.4878, 0.6872 -0.6767 0.4619, 0.4667 -0.8451 0.4619, 0.3835 -0.8863 0.4619, 0.2967 -0.9192 0.4619, 0.2002 -0.9691 0.4412, 0.2124 -0.967 0.4412, 0.2072 -0.9435 0.4619, 0.2911 -0.9018 0.4878, 0.3717 -0.8591 0.5173, 0.4504 -0.8158 0.5488, -0.1617 -0.9525 0.4619, -0.2523 -0.9324 0.4619, -0.3405 -0.9038 0.4619, -0.4525 -0.8792 0.4412, -0.4362 -0.8882 0.4412, -0.4256 -0.8667 0.4619, -0.334 -0.8867 0.4878, -0.2445 -0.9038 0.5173, -0.156 -0.9194 0.5488, -0.0672 -0.9877 0.6563, -0.0696 -0.9636 0.6356, -0.0682 -0.9454 0.6097, -0.1586 -0.9345 0.6097, -0.1567 -0.9232 0.5802, -0.2445 -0.9038 0.5802, -0.2435 -0.9001 0.5488, -0.3286 -0.8724 0.5488, -0.33 -0.876 0.5173, -0.4124 -0.8401 0.5173, -0.4175 -0.8504 0.4878, -0.497 -0.8061 0.4878, -0.5067 -0.8216 0.4619, -0.583 -0.7689 0.4619, -0.2475 -0.9148 0.6097, -0.33 -0.876 0.5802, -0.4107 -0.8367 0.5488, -0.491 -0.7964 0.5173, -0.572 -0.7544 0.4878, -0.654 -0.7091 0.4619, -0.6703 -0.7266 0.4412, -0.6717 -0.7252 0.4412, -0.2 -0.9685 0.6563, -0.2523 -0.9324 0.6356, -0.334 -0.8867 0.6097, -0.4175 -0.8504 0.6097, -0.4124 -0.8401 0.5802, -0.491 -0.7964 0.5802, -0.489 -0.7931 0.5488, -0.5627 -0.7423 0.5488, -0.565 -0.7453 0.5173, -0.6338 -0.6874 0.5173, -0.6415 -0.6957 0.4878, -0.7051 -0.6306 0.4878, -0.7188 -0.6427 0.4619, -0.8708 -0.4106 0.4619, -0.9058 -0.3246 0.4619, -0.9324 -0.2357 0.4619, -0.9747 -0.1399 0.4412, -0.9739 -0.1481 0.4412, -0.9502 -0.1447 0.4619, -0.9146 -0.2313 0.4878, -0.8779 -0.3148 0.5173, -0.8404 -0.3964 0.5488, -0.8405 -0.517 0.6563, -0.8277 -0.4927 0.6356, -0.812 -0.4835 0.6097, -0.8543 -0.4029 0.6097, -0.8439 -0.3981 0.5802, -0.8779 -0.3148 0.5802, -0.8742 -0.3135 0.5488, -0.8998 -0.2277 0.5488, -0.9036 -0.2286 0.5173, -0.9208 -0.1404 0.5173, -0.9321 -0.142 0.4878, -0.9409 -0.0514 0.4878, -0.9591 -0.0523 0.4619, -0.9324 0.2239 0.4619, -0.9058 0.3128 0.4619, -0.8708 0.3987 0.4619, -0.8405 0.5052 0.4412, -0.8484 0.4931 0.4412, -0.8277 0.4809 0.4619, -0.8543 0.3911 0.4878, -0.8779 0.303 0.5173, -0.8998 0.2159 0.5488, -0.9468 0.2593 0.6563, -0.9058 0.3128 0.6356, -0.8886 0.3068 0.6097, -0.8543 0.3911 0.6097, -0.8439 0.3862 0.5802, -0.8022 0.4659 0.5802, -0.7988 0.4639 0.5488, -0.7497 0.5388 0.5488, -0.7529 0.5411 0.5173, -0.6966 0.6112 0.5173, -0.7051 0.6188 0.4878, -0.6415 0.6839 0.4878, -0.654 0.6973 0.4619, -0.583 0.7571 0.4619, -0.3405 0.8919 0.4619, -0.2523 0.9206 0.4619, -0.1617 0.9406 0.4619, -0.0672 0.9759 0.4412, -0.0713 0.9758 0.4412, -0.0696 0.9518 0.4619, -0.1586 0.9227 0.4878, -0.2445 0.892 0.5173, -0.3286 0.8606 0.5488, -0.4525 0.8674 0.6563, -0.4256 0.8549 0.6356, -0.4175 0.8385 0.6097, -0.334 0.8749 0.6097, -0.33 0.8642 0.5802, -0.2445 0.892 0.5802, -0.2435 0.8883 0.5488, -0.156 0.9076 0.5488, -0.1567 0.9114 0.5173, -0.0674 0.9223 0.5173, -0.0682 0.9336 0.4878, 0.0228 0.9358 0.4878, 0.0232 0.9541 0.4619, 0.2967 0.9073 0.4619, 0.3835 0.8744 0.4619, 0.4667 0.8333 0.4619, 0.5673 0.7978 0.4412, 0.5591 0.8041 0.4412, 0.5455 0.7844 0.4619, 0.4578 0.8174 0.4878, 0.3717 0.8473 0.5173, 0.2864 0.8755 0.5488, 0.8032 0.5203 0.4619, 0.8503 0.4403 0.4619, 0.8894 0.3562 0.4619, 0.9471 0.2595 0.4412, 0.9432 0.2755 0.4412, 0.9202 0.2687 0.4619, 0.8725 0.3493 0.4878, 0.824 0.4266 0.5173, 0.7752 0.5019 0.5488, 0.9376 -0.0968 0.6097, 0.942 -0.0059 0.6097, 0.9263 -0.0957 0.5802, 0.9306 -0.0059 0.5802, 0.9224 -0.0954 0.5488, 0.9267 -0.0059 0.5488, 0.9263 -0.0957 0.5173, 0.9306 -0.0059 0.5173, 0.9376 -0.0968 0.4878, 0.942 -0.0059 0.4878, 0.9603 -0.0059 0.4619, 0.9843 -0.0059 0.4412, 0.9245 -0.1869 0.6097, 0.9133 -0.1847 0.5802, 0.9095 -0.184 0.5488, 0.9133 -0.1847 0.5173, 0.9245 -0.1869 0.4878, 0.9424 -0.1904 0.4619, 0.9659 -0.195 0.4412, 0.9202 -0.2805 0.4619, 0.9432 -0.2874 0.4412, 0.9471 -0.2713 0.4412, 0.8917 -0.272 0.5802, 0.888 -0.2709 0.5488, 0.8917 -0.272 0.5173, 0.9027 -0.2753 0.4878, 0.9116 -0.3771 0.4412, 0.8233 -0.5453 0.4412, 0.8401 -0.5168 0.4412, 0.8715 -0.4633 0.4412, 0.902 -0.3977 0.4412, 0.7043 -0.6934 0.4412, 0.671 -0.7244 0.4412, 0.5591 -0.8159 0.4412, 0.4783 -0.8661 0.4412, 0.3042 -0.942 0.4412, 0.3293 -0.9325 0.4412, 0.3931 -0.9083 0.4412, 0.4524 -0.8789 0.4412, 0.2033 -0.9257 0.4878, 0.2876 -0.891 0.5173, 0.3701 -0.8555 0.5488, 0.4523 -0.8192 0.5802, 0.5351 -0.7812 0.6097, 0.1135 -0.9411 0.4878, 0.2008 -0.9146 0.5173, 0.2864 -0.8873 0.5488, 0.3717 -0.8591 0.5802, 0.4578 -0.8292 0.6097, 0.5455 -0.7962 0.6356, 0.5673 -0.8097 0.6563, -0.0713 -0.9876 0.4412, -0.1657 -0.9761 0.4412, -0.349 -0.9262 0.4412, -0.3294 -0.9326 0.4412, -0.2586 -0.9556 0.4412, -0.2 -0.9685 0.4412, -0.5976 -0.788 0.4412, -0.567 -0.8091 0.4412, -0.5193 -0.842 0.4412, -0.7367 -0.6586 0.4412, -0.7626 -0.6264 0.4412, -0.8484 -0.5049 0.4412, -0.8926 -0.4207 0.4412, -0.9557 -0.2415 0.4412, -0.9468 -0.2712 0.4412, -0.9285 -0.3326 0.4412, -0.9019 -0.3977 0.4412, -0.9831 -0.0535 0.4412, -0.9831 -0.0059 0.4412, -0.9739 0.1363 0.4412, -0.9557 0.2296 0.4412, -0.8926 0.4089 0.4412, -0.9019 0.3859 0.4412, -0.9285 0.3208 0.4412, -0.9468 0.2593 0.4412, -0.812 0.4717 0.4878, -0.8439 0.3862 0.5173, -0.8742 0.3017 0.5488, -0.9036 0.2168 0.5802, -0.9321 0.1302 0.6097, -0.7621 0.5478 0.4878, -0.8022 0.4659 0.5173, -0.8404 0.3846 0.5488, -0.8779 0.303 0.5802, -0.9146 0.2195 0.6097, -0.9502 0.1328 0.6356, -0.9747 0.1281 0.6563, -0.4525 0.8674 0.4412, -0.5193 0.8302 0.4412, -0.5067 0.8098 0.4619, -0.572 0.7426 0.4878, -0.6338 0.6755 0.5173, -0.6937 0.6086 0.5488, -0.7529 0.5411 0.5802, -0.812 0.4717 0.6097, -0.567 0.7973 0.4412, -0.5976 0.7762 0.4412, -0.6703 0.7148 0.4412, -0.4362 0.8764 0.4412, -0.349 0.9144 0.4412, -0.1657 0.9643 0.4412, -0.2 0.9567 0.4412, -0.2586 0.9438 0.4412, -0.3294 0.9208 0.4412, 0.0238 0.9781 0.4412, 0.0671 0.9749 0.4412, 0.2124 0.9552 0.4412, 0.3042 0.9302 0.4412, 0.4783 0.8543 0.4412, 0.4524 0.8671 0.4412, 0.3931 0.8964 0.4412, 0.3293 0.9206 0.4412, 0.5351 0.7694 0.4878, 0.4523 0.8074 0.5173, 0.3701 0.8437 0.5488, 0.2876 0.8791 0.5802, 0.2033 0.9139 0.6097, 0.6074 0.7141 0.4878, 0.5286 0.76 0.5173, 0.4504 0.804 0.5488, 0.3717 0.8473 0.5802, 0.2911 0.89 0.6097, 0.2072 0.9317 0.6356, 0.2002 0.9572 0.6563, 0.7674 0.6104 0.4412, 0.8233 0.5335 0.4412, 0.9116 0.3652 0.4412, 0.902 0.3859 0.4412, 0.8715 0.4515 0.4412, 0.8401 0.505 0.4412, 0.9659 0.1832 0.4412, 0.9558 0.0868 0.4619, 0.9797 0.0891 0.4412, 0.974 0.128 0.4412, 0.9376 0.085 0.6097, 0.9263 0.0839 0.5802, 0.9224 0.0835 0.5488, 0.9263 0.0839 0.5173, 0.9376 0.085 0.4878, -0.4605 0.8192 2.1457, -0.4605 -0.831 2.1457, -0.4188 0.8411 2.1457, -0.4188 -0.8529 2.1457, 0.3774 -0.8722 2.1457, 0.9449 -0.0059 2.1457, 0.9405 0.0853 2.1457, 0.292 0.8927 2.1457, 0.2039 0.9167 2.1457, 0.1139 0.9321 2.1457, -0.3351 -0.8894 2.1457, -0.2482 -0.9176 2.1457, -0.1591 -0.9373 2.1457, 0.5368 0.7717 2.1457, 0.4592 0.8199 2.1457, 0.3774 0.8604 2.1457, 0.0228 0.9387 2.1457, -0.0684 0.9365 2.1457, -0.1591 0.9255 2.1457, -0.0684 -0.9483 2.1457, 0.0228 -0.9505 2.1457, 0.1139 -0.9439 2.1457, 0.2039 -0.9285 2.1457, 0.292 -0.9045 2.1457, 0.6093 -0.7281 2.1457, 0.6762 -0.6659 2.1457, 0.7367 -0.5976 2.1457, 0.4592 -0.8317 2.1457, 0.8367 -0.445 2.1457, 0.8751 -0.3622 2.1457, 0.9054 -0.2761 2.1457, 0.9273 -0.1874 2.1457, 0.9405 -0.0971 2.1457, -0.2482 0.9058 2.1457, -0.3351 0.8776 2.1457, 0.5368 -0.7835 2.1457, 0.7904 -0.5237 2.1457, 0.9273 0.1756 2.1457, 0.9054 0.2643 2.1457, 0.8751 0.3504 2.1457, 0.8367 0.4332 2.1457, 0.7904 0.5119 2.1457, 0.7367 0.5858 2.1457, 0.6762 0.6541 2.1457, 0.6093 0.7163 2.1457, -0.9831 0.0416 2.1063, -0.9831 -0.0059 2.1063, -0.9831 -0.0535 2.1063, -0.9747 -0.1399 2.1063, -0.9739 -0.1481 2.1063, -0.9557 -0.2415 2.1063, -0.9468 -0.2712 2.1063, -0.9285 -0.3326 2.1063, -0.9019 -0.3977 2.1063, -0.8926 -0.4207 2.1063, -0.8484 -0.5049 2.1063, -0.8405 -0.517 2.1063, -0.7963 -0.5844 2.1063, -0.7626 -0.6264 2.1063, -0.7367 -0.6586 2.1063, -0.6717 -0.7252 2.1063, -0.6703 -0.7266 2.1063, -0.5976 -0.788 2.1063, -0.567 -0.8091 2.1063, -0.5193 -0.842 2.1063, -0.4525 -0.8792 2.1063, -0.4362 -0.8882 2.1063, -0.349 -0.9262 2.1063, -0.3294 -0.9326 2.1063, -0.2586 -0.9556 2.1063, -0.2 -0.9685 2.1063, -0.1657 -0.9761 2.1063, -0.0713 -0.9876 2.1063, -0.0672 -0.9877 2.1063, 0.0238 -0.9899 2.1063, 0.0671 -0.9867 2.1063, 0.1186 -0.983 2.1063, 0.2002 -0.9691 2.1063, 0.2124 -0.967 2.1063, 0.3042 -0.942 2.1063, 0.3293 -0.9325 2.1063, 0.3931 -0.9083 2.1063, 0.4524 -0.8789 2.1063, 0.4783 -0.8661 2.1063, 0.5591 -0.8159 2.1063, 0.5673 -0.8097 2.1063, 0.6347 -0.7582 2.1063, 0.671 -0.7244 2.1063, 0.7043 -0.6934 2.1063, 0.7633 -0.6269 2.1063, 0.7674 -0.6222 2.1063, 0.8233 -0.5453 2.1063, 0.8401 -0.5168 2.1063, 0.8715 -0.4633 2.1063, 0.902 -0.3977 2.1063, 0.9116 -0.3771 2.1063, 0.9432 -0.2874 2.1063, 0.9471 -0.2713 2.1063, 0.9659 -0.195 2.1063, 0.974 -0.1398 2.1063, 0.9797 -0.1009 2.1063, 0.9843 -0.0059 2.1063, 0.9797 0.0891 2.1063, 0.974 0.128 2.1063, 0.9659 0.1832 2.1063, 0.9471 0.2595 2.1063, 0.9432 0.2755 2.1063, 0.9116 0.3652 2.1063, 0.902 0.3859 2.1063, 0.8715 0.4515 2.1063, 0.8401 0.505 2.1063, 0.8233 0.5335 2.1063, 0.7674 0.6104 2.1063, 0.7633 0.6151 2.1063, 0.7043 0.6816 2.1063, 0.671 0.7126 2.1063, 0.6347 0.7464 2.1063, 0.5673 0.7978 2.1063, 0.5591 0.8041 2.1063, 0.4783 0.8543 2.1063, 0.4524 0.8671 2.1063, 0.3931 0.8964 2.1063, 0.3293 0.9206 2.1063, 0.3042 0.9302 2.1063, 0.2124 0.9552 2.1063, 0.2002 0.9572 2.1063, 0.1186 0.9712 2.1063, 0.0671 0.9749 2.1063, 0.0238 0.9781 2.1063, -0.0672 0.9759 2.1063, -0.0713 0.9758 2.1063, -0.1657 0.9643 2.1063, -0.2 0.9567 2.1063, -0.2586 0.9438 2.1063, -0.3294 0.9208 2.1063, -0.349 0.9144 2.1063, -0.4362 0.8764 2.1063, -0.4525 0.8674 2.1063, -0.5193 0.8302 2.1063, -0.567 0.7973 2.1063, -0.5976 0.7762 2.1063, -0.6703 0.7148 2.1063, -0.6717 0.7133 2.1063, -0.7367 0.6468 2.1063, -0.7626 0.6145 2.1063, -0.7963 0.5726 2.1063, -0.8405 0.5052 2.1063, -0.8484 0.4931 2.1063, -0.8926 0.4089 2.1063, -0.9019 0.3859 2.1063, -0.9285 0.3208 2.1063, -0.9468 0.2593 2.1063, -0.9557 0.2296 2.1063, -0.9739 0.1363 2.1063, -0.9747 0.1281 2.1063
            ]
        }
        coordIndex [
            0,1,2,-1,3,4,5,-1,6,7,8,-1,9,10,11,-1,12,13,14,-1,15,16,17,-1,18,19,20,-1,21,22,23,-1,24,25,26,-1,27,28,29,-1,30,31,32,-1,33,34,35,-1,36,37,38,-1,39,36,40,-1,41,42,43,-1,44,45,46,-1,47,48,49,-1,50,51,52,-1,53,54,55,-1,56,57,58,-1,59,60,61,-1,62,63,64,-1,65,66,67,-1,68,69,70,-1,71,72,73,-1,74,75,76,-1,77,78,79,-1,80,81,82,-1,83,84,85,-1,86,87,88,-1,89,90,91,-1,92,93,94,-1,95,96,97,-1,98,99,100,-1,101,102,103,-1,104,105,106,-1,107,108,109,-1,110,111,112,-1,113,114,115,-1,116,117,118,-1,119,120,121,-1,122,123,124,-1,125,126,127,-1,37,128,129,-1,130,131,132,-1,133,134,135,-1,104,106,136,-1,137,138,139,-1,140,141,142,-1,143,144,145,-1,146,147,148,-1,68,70,149,-1,150,151,152,-1,153,154,155,-1,156,157,33,-1,158,34,159,-1,159,34,33,-1,159,33,160,-1,160,33,157,-1,161,162,163,-1,164,165,166,-1,39,40,167,-1,168,35,169,-1,169,35,34,-1,169,34,161,-1,161,34,158,-1,161,158,162,-1,120,116,121,-1,121,116,118,-1,121,118,170,-1,170,118,171,-1,170,171,172,-1,172,171,173,-1,172,173,174,-1,108,175,109,-1,109,175,176,-1,109,176,177,-1,177,176,178,-1,177,178,179,-1,179,178,180,-1,179,180,181,-1,96,92,97,-1,97,92,94,-1,97,94,182,-1,182,94,183,-1,182,183,184,-1,184,183,185,-1,184,185,186,-1,84,80,85,-1,85,80,82,-1,85,82,187,-1,187,82,188,-1,187,188,189,-1,189,188,190,-1,189,190,191,-1,192,65,193,-1,193,65,67,-1,193,67,194,-1,194,67,195,-1,194,195,196,-1,196,195,197,-1,196,197,198,-1,57,53,58,-1,58,53,55,-1,58,55,199,-1,199,55,200,-1,199,200,201,-1,201,200,202,-1,201,202,203,-1,45,204,46,-1,46,204,205,-1,46,205,206,-1,206,205,207,-1,206,207,208,-1,208,207,209,-1,208,209,210,-1,211,168,212,-1,212,168,169,-1,212,169,213,-1,213,169,161,-1,213,161,214,-1,214,161,163,-1,214,163,215,-1,131,119,132,-1,132,119,121,-1,132,121,216,-1,216,121,170,-1,216,170,217,-1,217,170,172,-1,217,172,218,-1,218,172,174,-1,218,174,219,-1,134,107,135,-1,135,107,109,-1,135,109,220,-1,220,109,177,-1,220,177,221,-1,221,177,179,-1,221,179,222,-1,222,179,181,-1,222,181,223,-1,141,95,142,-1,142,95,97,-1,142,97,224,-1,224,97,182,-1,224,182,225,-1,225,182,184,-1,225,184,226,-1,226,184,186,-1,226,186,227,-1,144,83,145,-1,145,83,85,-1,145,85,228,-1,228,85,187,-1,228,187,229,-1,229,187,189,-1,229,189,230,-1,230,189,191,-1,230,191,231,-1,69,192,70,-1,70,192,193,-1,70,193,232,-1,232,193,194,-1,232,194,233,-1,233,194,196,-1,233,196,234,-1,234,196,198,-1,234,198,235,-1,151,56,152,-1,152,56,58,-1,152,58,236,-1,236,58,199,-1,236,199,237,-1,237,199,201,-1,237,201,238,-1,238,201,203,-1,238,203,239,-1,154,44,155,-1,155,44,46,-1,155,46,240,-1,240,46,206,-1,240,206,241,-1,241,206,208,-1,241,208,242,-1,242,208,210,-1,242,210,243,-1,244,211,245,-1,245,211,212,-1,245,212,246,-1,246,212,213,-1,246,213,247,-1,247,213,214,-1,247,214,43,-1,43,214,215,-1,43,215,41,-1,248,130,249,-1,249,130,132,-1,249,132,250,-1,250,132,216,-1,250,216,251,-1,251,216,217,-1,251,217,252,-1,252,217,218,-1,252,218,253,-1,253,218,219,-1,253,219,254,-1,255,133,256,-1,256,133,135,-1,256,135,257,-1,257,135,220,-1,257,220,258,-1,258,220,221,-1,258,221,259,-1,259,221,222,-1,259,222,260,-1,260,222,223,-1,260,223,261,-1,262,140,263,-1,263,140,142,-1,263,142,264,-1,264,142,224,-1,264,224,265,-1,265,224,225,-1,265,225,266,-1,266,225,226,-1,266,226,267,-1,267,226,227,-1,267,227,268,-1,269,143,270,-1,270,143,145,-1,270,145,271,-1,271,145,228,-1,271,228,272,-1,272,228,229,-1,272,229,273,-1,273,229,230,-1,273,230,274,-1,274,230,231,-1,274,231,275,-1,276,149,277,-1,277,149,70,-1,277,70,278,-1,278,70,232,-1,278,232,279,-1,279,232,233,-1,279,233,280,-1,280,233,234,-1,280,234,281,-1,281,234,235,-1,281,235,282,-1,283,150,284,-1,284,150,152,-1,284,152,285,-1,285,152,236,-1,285,236,286,-1,286,236,237,-1,286,237,287,-1,287,237,238,-1,287,238,288,-1,288,238,239,-1,288,239,289,-1,290,153,291,-1,291,153,155,-1,291,155,292,-1,292,155,240,-1,292,240,293,-1,293,240,241,-1,293,241,294,-1,294,241,242,-1,294,242,295,-1,295,242,243,-1,295,243,296,-1,297,244,298,-1,298,244,245,-1,298,245,299,-1,299,245,246,-1,299,246,300,-1,300,246,247,-1,300,247,301,-1,301,247,43,-1,301,43,164,-1,164,43,42,-1,164,42,165,-1,302,303,304,-1,123,248,124,-1,124,248,249,-1,124,249,305,-1,305,249,250,-1,305,250,306,-1,306,250,251,-1,306,251,307,-1,307,251,252,-1,307,252,308,-1,308,252,253,-1,308,253,309,-1,309,253,254,-1,309,254,310,-1,311,312,313,-1,111,255,112,-1,112,255,256,-1,112,256,314,-1,314,256,257,-1,314,257,315,-1,315,257,258,-1,315,258,316,-1,316,258,259,-1,316,259,317,-1,317,259,260,-1,317,260,318,-1,318,260,261,-1,318,261,319,-1,320,321,322,-1,99,262,100,-1,100,262,263,-1,100,263,323,-1,323,263,264,-1,323,264,324,-1,324,264,265,-1,324,265,325,-1,325,265,266,-1,325,266,326,-1,326,266,267,-1,326,267,327,-1,327,267,268,-1,327,268,328,-1,329,330,331,-1,87,269,88,-1,88,269,270,-1,88,270,332,-1,332,270,271,-1,332,271,333,-1,333,271,272,-1,333,272,334,-1,334,272,273,-1,334,273,335,-1,335,273,274,-1,335,274,336,-1,336,274,275,-1,336,275,337,-1,338,339,340,-1,72,276,73,-1,73,276,277,-1,73,277,341,-1,341,277,278,-1,341,278,342,-1,342,278,279,-1,342,279,343,-1,343,279,280,-1,343,280,344,-1,344,280,281,-1,344,281,345,-1,345,281,282,-1,345,282,346,-1,347,348,349,-1,60,283,61,-1,61,283,284,-1,61,284,350,-1,350,284,285,-1,350,285,351,-1,351,285,286,-1,351,286,352,-1,352,286,287,-1,352,287,353,-1,353,287,288,-1,353,288,354,-1,354,288,289,-1,354,289,355,-1,356,357,358,-1,48,290,49,-1,49,290,291,-1,49,291,359,-1,359,291,292,-1,359,292,360,-1,360,292,293,-1,360,293,361,-1,361,293,294,-1,361,294,362,-1,362,294,295,-1,362,295,363,-1,363,295,296,-1,363,296,364,-1,365,366,367,-1,368,297,369,-1,369,297,298,-1,369,298,370,-1,370,298,299,-1,370,299,371,-1,371,299,300,-1,371,300,372,-1,372,300,301,-1,372,301,373,-1,373,301,164,-1,373,164,374,-1,374,164,166,-1,374,166,167,-1,375,303,376,-1,376,303,302,-1,376,302,377,-1,378,379,380,-1,380,379,377,-1,380,377,381,-1,381,377,302,-1,381,302,382,-1,382,302,304,-1,382,304,383,-1,126,384,127,-1,127,384,385,-1,127,385,386,-1,386,385,387,-1,386,387,388,-1,388,387,389,-1,388,389,390,-1,390,389,391,-1,390,391,392,-1,392,391,393,-1,392,393,394,-1,394,393,395,-1,394,395,396,-1,396,395,29,-1,397,312,398,-1,398,312,311,-1,398,311,399,-1,400,401,402,-1,402,401,399,-1,402,399,403,-1,403,399,311,-1,403,311,404,-1,404,311,313,-1,404,313,405,-1,406,321,407,-1,407,321,320,-1,407,320,408,-1,409,410,411,-1,411,410,408,-1,411,408,412,-1,412,408,320,-1,412,320,413,-1,413,320,322,-1,413,322,414,-1,105,415,106,-1,106,415,416,-1,106,416,417,-1,417,416,418,-1,417,418,419,-1,419,418,420,-1,419,420,421,-1,421,420,422,-1,421,422,423,-1,423,422,424,-1,423,424,425,-1,425,424,426,-1,425,426,427,-1,427,426,428,-1,415,101,416,-1,416,101,103,-1,416,103,418,-1,418,103,429,-1,418,429,420,-1,420,429,430,-1,420,430,422,-1,422,430,431,-1,422,431,424,-1,424,431,432,-1,424,432,426,-1,426,432,433,-1,426,433,428,-1,428,433,434,-1,428,434,435,-1,435,434,436,-1,437,137,438,-1,438,137,139,-1,438,139,439,-1,439,139,440,-1,439,440,441,-1,441,440,442,-1,441,442,443,-1,443,442,444,-1,443,444,445,-1,445,444,446,-1,445,446,447,-1,447,446,448,-1,447,448,449,-1,449,448,20,-1,450,330,451,-1,451,330,329,-1,451,329,452,-1,453,454,455,-1,455,454,452,-1,455,452,456,-1,456,452,329,-1,456,329,457,-1,457,329,331,-1,457,331,458,-1,90,459,91,-1,91,459,460,-1,91,460,461,-1,461,460,462,-1,461,462,463,-1,463,462,464,-1,463,464,465,-1,465,464,466,-1,465,466,467,-1,467,466,468,-1,467,468,469,-1,469,468,470,-1,469,470,471,-1,471,470,17,-1,472,339,473,-1,473,339,338,-1,473,338,474,-1,475,476,477,-1,477,476,474,-1,477,474,478,-1,478,474,338,-1,478,338,479,-1,479,338,340,-1,479,340,480,-1,75,481,76,-1,76,481,482,-1,76,482,483,-1,483,482,484,-1,483,484,485,-1,485,484,486,-1,485,486,487,-1,487,486,488,-1,487,488,489,-1,489,488,490,-1,489,490,491,-1,491,490,492,-1,491,492,493,-1,493,492,494,-1,495,348,496,-1,496,348,347,-1,496,347,497,-1,498,499,500,-1,500,499,497,-1,500,497,501,-1,501,497,347,-1,501,347,502,-1,502,347,349,-1,502,349,503,-1,63,504,64,-1,64,504,505,-1,64,505,506,-1,506,505,507,-1,506,507,508,-1,508,507,509,-1,508,509,510,-1,510,509,511,-1,510,511,512,-1,512,511,513,-1,512,513,514,-1,514,513,515,-1,514,515,516,-1,516,515,8,-1,517,357,518,-1,518,357,356,-1,518,356,519,-1,520,521,522,-1,522,521,519,-1,522,519,523,-1,523,519,356,-1,523,356,524,-1,524,356,358,-1,524,358,525,-1,526,366,527,-1,527,366,365,-1,527,365,528,-1,529,530,531,-1,531,530,528,-1,531,528,532,-1,532,528,365,-1,532,365,533,-1,533,365,367,-1,533,367,534,-1,37,129,38,-1,38,129,535,-1,38,535,536,-1,536,535,537,-1,536,537,538,-1,538,537,539,-1,538,539,540,-1,540,539,541,-1,540,541,542,-1,542,541,543,-1,542,543,544,-1,544,543,32,-1,544,32,545,-1,545,32,31,-1,545,31,546,-1,129,547,535,-1,535,547,548,-1,535,548,537,-1,537,548,549,-1,537,549,539,-1,539,549,550,-1,539,550,541,-1,541,550,551,-1,541,551,543,-1,543,551,552,-1,543,552,32,-1,32,552,553,-1,32,553,30,-1,554,555,556,-1,547,557,548,-1,548,557,558,-1,548,558,549,-1,549,558,559,-1,549,559,550,-1,550,559,560,-1,550,560,551,-1,551,560,554,-1,551,554,552,-1,552,554,556,-1,552,556,553,-1,557,383,558,-1,558,383,304,-1,558,304,559,-1,559,304,303,-1,559,303,560,-1,560,303,375,-1,560,375,554,-1,554,375,561,-1,554,561,555,-1,379,562,377,-1,377,562,563,-1,377,563,376,-1,376,563,564,-1,376,564,375,-1,375,564,565,-1,375,565,561,-1,566,378,396,-1,396,378,380,-1,396,380,394,-1,394,380,381,-1,394,381,392,-1,392,381,382,-1,392,382,390,-1,390,382,383,-1,390,383,388,-1,388,383,557,-1,388,557,386,-1,386,557,547,-1,386,547,127,-1,127,547,129,-1,127,129,125,-1,125,129,128,-1,29,28,396,-1,396,28,567,-1,396,567,566,-1,568,27,310,-1,310,27,29,-1,310,29,309,-1,309,29,395,-1,309,395,308,-1,308,395,393,-1,308,393,307,-1,307,393,391,-1,307,391,306,-1,306,391,389,-1,306,389,305,-1,305,389,387,-1,305,387,124,-1,124,387,385,-1,124,385,122,-1,122,385,384,-1,173,405,174,-1,174,405,313,-1,174,313,219,-1,219,313,312,-1,219,312,254,-1,254,312,397,-1,254,397,310,-1,310,397,569,-1,310,569,568,-1,401,570,399,-1,399,570,571,-1,399,571,398,-1,398,571,572,-1,398,572,397,-1,397,572,573,-1,397,573,569,-1,25,400,26,-1,26,400,402,-1,26,402,574,-1,574,402,403,-1,574,403,575,-1,575,403,404,-1,575,404,576,-1,576,404,405,-1,576,405,577,-1,577,405,173,-1,577,173,578,-1,578,173,171,-1,578,171,115,-1,115,171,118,-1,115,118,113,-1,113,118,117,-1,22,24,23,-1,23,24,26,-1,23,26,579,-1,579,26,574,-1,579,574,580,-1,580,574,575,-1,580,575,581,-1,581,575,576,-1,581,576,582,-1,582,576,577,-1,582,577,583,-1,583,577,578,-1,583,578,584,-1,584,578,115,-1,584,115,585,-1,585,115,114,-1,586,21,319,-1,319,21,23,-1,319,23,318,-1,318,23,579,-1,318,579,317,-1,317,579,580,-1,317,580,316,-1,316,580,581,-1,316,581,315,-1,315,581,582,-1,315,582,314,-1,314,582,583,-1,314,583,112,-1,112,583,584,-1,112,584,110,-1,110,584,585,-1,180,414,181,-1,181,414,322,-1,181,322,223,-1,223,322,321,-1,223,321,261,-1,261,321,406,-1,261,406,319,-1,319,406,587,-1,319,587,586,-1,410,588,408,-1,408,588,589,-1,408,589,407,-1,407,589,590,-1,407,590,406,-1,406,590,591,-1,406,591,587,-1,175,136,176,-1,176,136,106,-1,176,106,178,-1,178,106,417,-1,178,417,180,-1,180,417,419,-1,180,419,414,-1,414,419,421,-1,414,421,413,-1,413,421,423,-1,413,423,412,-1,412,423,425,-1,412,425,411,-1,411,425,427,-1,411,427,409,-1,435,592,428,-1,428,592,593,-1,428,593,427,-1,427,593,594,-1,427,594,409,-1,595,436,449,-1,449,436,434,-1,449,434,447,-1,447,434,433,-1,447,433,445,-1,445,433,432,-1,445,432,443,-1,443,432,431,-1,443,431,441,-1,441,431,430,-1,441,430,439,-1,439,430,429,-1,439,429,438,-1,438,429,103,-1,438,103,437,-1,437,103,102,-1,20,19,449,-1,449,19,596,-1,449,596,595,-1,597,18,328,-1,328,18,20,-1,328,20,327,-1,327,20,448,-1,327,448,326,-1,326,448,446,-1,326,446,325,-1,325,446,444,-1,325,444,324,-1,324,444,442,-1,324,442,323,-1,323,442,440,-1,323,440,100,-1,100,440,139,-1,100,139,98,-1,98,139,138,-1,185,458,186,-1,186,458,331,-1,186,331,227,-1,227,331,330,-1,227,330,268,-1,268,330,450,-1,268,450,328,-1,328,450,598,-1,328,598,597,-1,454,599,452,-1,452,599,600,-1,452,600,451,-1,451,600,601,-1,451,601,450,-1,450,601,602,-1,450,602,598,-1,603,453,471,-1,471,453,455,-1,471,455,469,-1,469,455,456,-1,469,456,467,-1,467,456,457,-1,467,457,465,-1,465,457,458,-1,465,458,463,-1,463,458,185,-1,463,185,461,-1,461,185,183,-1,461,183,91,-1,91,183,94,-1,91,94,89,-1,89,94,93,-1,17,16,471,-1,471,16,604,-1,471,604,603,-1,605,15,337,-1,337,15,17,-1,337,17,336,-1,336,17,470,-1,336,470,335,-1,335,470,468,-1,335,468,334,-1,334,468,466,-1,334,466,333,-1,333,466,464,-1,333,464,332,-1,332,464,462,-1,332,462,88,-1,88,462,460,-1,88,460,86,-1,86,460,459,-1,190,480,191,-1,191,480,340,-1,191,340,231,-1,231,340,339,-1,231,339,275,-1,275,339,472,-1,275,472,337,-1,337,472,606,-1,337,606,605,-1,476,607,474,-1,474,607,608,-1,474,608,473,-1,473,608,609,-1,473,609,472,-1,472,609,610,-1,472,610,606,-1,13,475,14,-1,14,475,477,-1,14,477,611,-1,611,477,478,-1,611,478,612,-1,612,478,479,-1,612,479,613,-1,613,479,480,-1,613,480,614,-1,614,480,190,-1,614,190,615,-1,615,190,188,-1,615,188,79,-1,79,188,82,-1,79,82,77,-1,77,82,81,-1,10,12,11,-1,11,12,14,-1,11,14,616,-1,616,14,611,-1,616,611,617,-1,617,611,612,-1,617,612,618,-1,618,612,613,-1,618,613,619,-1,619,613,614,-1,619,614,620,-1,620,614,615,-1,620,615,621,-1,621,615,79,-1,621,79,622,-1,622,79,78,-1,622,74,621,-1,621,74,76,-1,621,76,620,-1,620,76,483,-1,620,483,619,-1,619,483,485,-1,619,485,618,-1,618,485,487,-1,618,487,617,-1,617,487,489,-1,617,489,616,-1,616,489,491,-1,616,491,11,-1,11,491,493,-1,11,493,9,-1,623,624,625,-1,625,624,494,-1,625,494,626,-1,626,494,492,-1,626,492,627,-1,627,492,490,-1,627,490,628,-1,628,490,488,-1,628,488,629,-1,629,488,486,-1,629,486,630,-1,630,486,484,-1,630,484,148,-1,148,484,482,-1,148,482,146,-1,146,482,481,-1,624,631,494,-1,494,631,632,-1,494,632,493,-1,493,632,633,-1,493,633,9,-1,634,623,346,-1,346,623,625,-1,346,625,345,-1,345,625,626,-1,345,626,344,-1,344,626,627,-1,344,627,343,-1,343,627,628,-1,343,628,342,-1,342,628,629,-1,342,629,341,-1,341,629,630,-1,341,630,73,-1,73,630,148,-1,73,148,71,-1,71,148,147,-1,197,503,198,-1,198,503,349,-1,198,349,235,-1,235,349,348,-1,235,348,282,-1,282,348,495,-1,282,495,346,-1,346,495,635,-1,346,635,634,-1,499,636,497,-1,497,636,637,-1,497,637,496,-1,496,637,638,-1,496,638,495,-1,495,638,639,-1,495,639,635,-1,640,498,516,-1,516,498,500,-1,516,500,514,-1,514,500,501,-1,514,501,512,-1,512,501,502,-1,512,502,510,-1,510,502,503,-1,510,503,508,-1,508,503,197,-1,508,197,506,-1,506,197,195,-1,506,195,64,-1,64,195,67,-1,64,67,62,-1,62,67,66,-1,8,7,516,-1,516,7,641,-1,516,641,640,-1,642,6,355,-1,355,6,8,-1,355,8,354,-1,354,8,515,-1,354,515,353,-1,353,515,513,-1,353,513,352,-1,352,513,511,-1,352,511,351,-1,351,511,509,-1,351,509,350,-1,350,509,507,-1,350,507,61,-1,61,507,505,-1,61,505,59,-1,59,505,504,-1,202,525,203,-1,203,525,358,-1,203,358,239,-1,239,358,357,-1,239,357,289,-1,289,357,517,-1,289,517,355,-1,355,517,643,-1,355,643,642,-1,521,644,519,-1,519,644,645,-1,519,645,518,-1,518,645,646,-1,518,646,517,-1,517,646,647,-1,517,647,643,-1,4,520,5,-1,5,520,522,-1,5,522,648,-1,648,522,523,-1,648,523,649,-1,649,523,524,-1,649,524,650,-1,650,524,525,-1,650,525,651,-1,651,525,202,-1,651,202,652,-1,652,202,200,-1,652,200,52,-1,52,200,55,-1,52,55,50,-1,50,55,54,-1,1,3,2,-1,2,3,5,-1,2,5,653,-1,653,5,648,-1,653,648,654,-1,654,648,649,-1,654,649,655,-1,655,649,650,-1,655,650,656,-1,656,650,651,-1,656,651,657,-1,657,651,652,-1,657,652,658,-1,658,652,52,-1,658,52,659,-1,659,52,51,-1,660,0,364,-1,364,0,2,-1,364,2,363,-1,363,2,653,-1,363,653,362,-1,362,653,654,-1,362,654,361,-1,361,654,655,-1,361,655,360,-1,360,655,656,-1,360,656,359,-1,359,656,657,-1,359,657,49,-1,49,657,658,-1,49,658,47,-1,47,658,659,-1,209,534,210,-1,210,534,367,-1,210,367,243,-1,243,367,366,-1,243,366,296,-1,296,366,526,-1,296,526,364,-1,364,526,661,-1,364,661,660,-1,530,662,528,-1,528,662,663,-1,528,663,527,-1,527,663,664,-1,527,664,526,-1,526,664,665,-1,526,665,661,-1,666,529,368,-1,368,529,531,-1,368,531,297,-1,297,531,532,-1,297,532,244,-1,244,532,533,-1,244,533,211,-1,211,533,534,-1,211,534,168,-1,168,534,209,-1,168,209,35,-1,35,209,207,-1,35,207,33,-1,33,207,205,-1,33,205,156,-1,156,205,204,-1,667,668,669,-1,167,40,374,-1,374,40,670,-1,374,670,373,-1,373,670,671,-1,373,671,372,-1,372,671,672,-1,372,672,371,-1,371,672,673,-1,371,673,370,-1,370,673,674,-1,370,674,369,-1,369,674,667,-1,369,667,368,-1,368,667,669,-1,368,669,666,-1,36,38,40,-1,40,38,536,-1,40,536,670,-1,670,536,538,-1,670,538,671,-1,671,538,540,-1,671,540,672,-1,672,540,542,-1,672,542,673,-1,673,542,544,-1,673,544,674,-1,674,544,545,-1,674,545,667,-1,667,545,546,-1,667,546,668,-1,675,676,677,-1,677,676,678,-1,679,680,681,-1,682,683,679,-1,679,683,684,-1,678,685,677,-1,677,685,686,-1,677,686,687,-1,688,689,679,-1,679,689,690,-1,679,690,682,-1,684,691,679,-1,679,691,692,-1,679,692,693,-1,687,694,677,-1,677,694,695,-1,677,695,696,-1,696,697,677,-1,677,697,698,-1,677,698,679,-1,699,700,701,-1,702,703,679,-1,679,703,704,-1,679,704,705,-1,705,706,679,-1,679,706,707,-1,679,707,680,-1,693,708,679,-1,679,708,709,-1,679,709,677,-1,702,710,703,-1,703,710,699,-1,703,699,711,-1,711,699,701,-1,681,712,679,-1,679,712,713,-1,679,713,714,-1,714,715,679,-1,679,715,716,-1,679,716,717,-1,717,718,679,-1,679,718,719,-1,679,719,688,-1,720,78,721,-1,721,78,77,-1,721,77,722,-1,722,77,81,-1,722,81,723,-1,723,81,80,-1,723,80,724,-1,724,80,84,-1,724,84,725,-1,725,84,83,-1,725,83,726,-1,726,83,144,-1,726,144,727,-1,727,144,143,-1,727,143,728,-1,728,143,269,-1,728,269,729,-1,729,269,87,-1,729,87,730,-1,730,87,86,-1,730,86,731,-1,731,86,459,-1,731,459,732,-1,732,459,90,-1,732,90,733,-1,733,90,89,-1,733,89,734,-1,734,89,93,-1,734,93,735,-1,735,93,92,-1,735,92,736,-1,736,92,96,-1,736,96,737,-1,737,96,95,-1,737,95,738,-1,738,95,141,-1,738,141,739,-1,739,141,140,-1,739,140,740,-1,740,140,262,-1,740,262,741,-1,741,262,99,-1,741,99,742,-1,742,99,98,-1,742,98,743,-1,743,98,138,-1,743,138,744,-1,744,138,137,-1,744,137,745,-1,745,137,437,-1,745,437,746,-1,746,437,102,-1,746,102,747,-1,747,102,101,-1,747,101,748,-1,748,101,415,-1,748,415,749,-1,749,415,105,-1,749,105,750,-1,750,105,104,-1,750,104,751,-1,751,104,136,-1,751,136,752,-1,752,136,175,-1,752,175,753,-1,753,175,108,-1,753,108,754,-1,754,108,107,-1,754,107,755,-1,755,107,134,-1,755,134,756,-1,756,134,133,-1,756,133,757,-1,757,133,255,-1,757,255,758,-1,758,255,111,-1,758,111,759,-1,759,111,110,-1,759,110,760,-1,760,110,585,-1,760,585,761,-1,761,585,114,-1,761,114,762,-1,762,114,113,-1,762,113,763,-1,763,113,117,-1,763,117,764,-1,764,117,116,-1,764,116,765,-1,765,116,120,-1,765,120,766,-1,766,120,119,-1,766,119,767,-1,767,119,131,-1,767,131,768,-1,768,131,130,-1,768,130,769,-1,769,130,248,-1,769,248,770,-1,770,248,123,-1,770,123,771,-1,771,123,122,-1,771,122,772,-1,772,122,384,-1,772,384,773,-1,773,384,126,-1,773,126,774,-1,774,126,125,-1,774,125,775,-1,775,125,128,-1,775,128,776,-1,776,128,37,-1,776,37,777,-1,777,37,36,-1,777,36,778,-1,778,36,39,-1,778,39,779,-1,779,39,167,-1,779,167,780,-1,780,167,166,-1,780,166,781,-1,781,166,165,-1,781,165,782,-1,782,165,42,-1,782,42,783,-1,783,42,41,-1,783,41,784,-1,784,41,215,-1,784,215,785,-1,785,215,163,-1,785,163,786,-1,786,163,162,-1,786,162,787,-1,787,162,158,-1,787,158,788,-1,788,158,159,-1,788,159,789,-1,789,159,160,-1,789,160,790,-1,790,160,157,-1,790,157,791,-1,791,157,156,-1,791,156,792,-1,792,156,204,-1,792,204,793,-1,793,204,45,-1,793,45,794,-1,794,45,44,-1,794,44,795,-1,795,44,154,-1,795,154,796,-1,796,154,153,-1,796,153,797,-1,797,153,290,-1,797,290,798,-1,798,290,48,-1,798,48,799,-1,799,48,47,-1,799,47,800,-1,800,47,659,-1,800,659,801,-1,801,659,51,-1,801,51,802,-1,802,51,50,-1,802,50,803,-1,803,50,54,-1,803,54,804,-1,804,54,53,-1,804,53,805,-1,805,53,57,-1,805,57,806,-1,806,57,56,-1,806,56,807,-1,807,56,151,-1,807,151,808,-1,808,151,150,-1,808,150,809,-1,809,150,283,-1,809,283,810,-1,810,283,60,-1,810,60,811,-1,811,60,59,-1,811,59,812,-1,812,59,504,-1,812,504,813,-1,813,504,63,-1,813,63,814,-1,814,63,62,-1,814,62,815,-1,815,62,66,-1,815,66,816,-1,816,66,65,-1,816,65,817,-1,817,65,192,-1,817,192,818,-1,818,192,69,-1,818,69,819,-1,819,69,68,-1,819,68,820,-1,820,68,149,-1,820,149,821,-1,821,149,276,-1,821,276,822,-1,822,276,72,-1,822,72,823,-1,823,72,71,-1,823,71,824,-1,824,71,147,-1,824,147,825,-1,825,147,146,-1,825,146,826,-1,826,146,481,-1,826,481,827,-1,827,481,75,-1,827,75,828,-1,828,75,74,-1,828,74,829,-1,829,74,622,-1,829,622,720,-1,720,622,78,-1,
        ]
    }
}
Shape{
    appearance Appearance {
        material  Material 	{
            diffuseColor 0.25098039215686274 0.25098039215686274 0.25098039215686274
            specularColor 0.12549019607843137 0.12549019607843137 0.12549019607843137
            ambientIntensity 0.251
            transparency 0.0
            shininess 0.5
        }
    }
    geometry IndexedFaceSet {
        ccw TRUE
        solid FALSE
        coord DEF co Coordinate {
            point [
                1.0433 0.7224 0.0197, 0.7283 1.0374 0.0197, 1.0433 0.7224 0.3346, 0.7283 1.0374 0.3346, 0.7283 -1.0492 0.0197, 1.0433 -0.7343 0.0197, 0.7283 -1.0492 0.3346, 1.0433 -0.7343 0.3346, 0.1575 0.1713 0.0197, 1.0433 0.1713 0.0197, 0.1575 0.1713 0.0984, 1.0433 0.1713 0.0984, 0.1575 -0.1831 0.0984, 1.0433 -0.1831 0.0984, 0.1575 -0.1831 0.0197, 1.0433 -0.1831 0.0197, -0.1575 0.1713 0.0984, -1.0433 0.1713 0.0984, -0.1575 0.1713 0.0197, -1.0433 0.1713 0.0197, -0.1575 -0.1831 0.0197, -1.0433 -0.1831 0.0197, -0.1575 -0.1831 0.0984, -1.0433 -0.1831 0.0984
            ]
        }
        coordIndex [
            0,1,2,-1,2,1,3,-1,4,5,6,-1,6,5,7,-1,8,9,10,-1,10,9,11,-1,12,13,14,-1,14,13,15,-1,10,12,8,-1,8,12,14,-1,16,17,18,-1,18,17,19,-1,20,21,22,-1,22,21,23,-1,22,16,20,-1,20,16,18,-1,
        ]
    }
}
Shape{
    appearance Appearance {
        material  Material 	{
            diffuseColor 1.0 1.0 1.0
            specularColor 0.5019607843137255 0.5019607843137255 0.5019607843137255
            ambientIntensity 1.0
            transparency 0.0
            shininess 0.5
        }
    }
    geometry IndexedFaceSet {
        ccw TRUE
        solid FALSE
        coord DEF co Coordinate {
            point [
                -1.0433 0.1417 0.0984, -1.122 0.1417 0.0984, -1.0433 -0.1535 0.0984, -1.122 -0.1535 0.0984, -0.2559 0.1417 0.0984, -0.2559 0.1417 0.0, -1.122 0.1417 0.0, -1.122 -0.1535 0.0, -0.2559 -0.1535 0.0, -0.2559 -0.1535 0.0984, 1.122 -0.1535 0.0984, 1.122 0.1417 0.0984, 1.0433 -0.1535 0.0984, 1.0433 0.1417 0.0984, 0.2559 0.1417 0.0, 0.2559 0.1417 0.0984, 1.122 0.1417 0.0, 0.2559 -0.1535 0.0, 0.2559 -0.1535 0.0984, 1.122 -0.1535 0.0, 0.974 0.128 2.1063, 0.9659 0.1832 2.1063, 0.9646 0.1829 2.1165, 0.902 0.3859 2.1063, 0.8715 0.4515 2.1063, 0.8703 0.4509 2.1165, 0.8401 0.505 2.1063, 0.8233 0.5335 2.1063, 0.8222 0.5327 2.1165, 0.7633 0.6151 2.1063, 0.7043 0.6816 2.1063, 0.7034 0.6807 2.1165, 0.671 0.7126 2.1063, 0.6347 0.7464 2.1063, 0.6338 0.7453 2.1165, 0.4524 0.8671 2.1063, 0.3931 0.8964 2.1063, 0.3925 0.8952 2.1165, 0.2002 0.9572 2.1063, 0.1186 0.9712 2.1063, 0.1185 0.9698 2.1165, 0.0671 0.9749 2.1063, 0.0238 0.9781 2.1063, 0.0238 0.9767 2.1165, -0.0672 0.9759 2.1063, -0.0713 0.9758 2.1063, -0.0712 0.9744 2.1165, -0.2 0.9567 2.1063, -0.2586 0.9438 2.1063, -0.2582 0.9425 2.1165, -0.4525 0.8674 2.1063, -0.5193 0.8302 2.1063, -0.5186 0.829 2.1165, -0.567 0.7973 2.1063, -0.5976 0.7762 2.1063, -0.5968 0.7751 2.1165, -0.6717 0.7133 2.1063, -0.7367 0.6468 2.1063, -0.7357 0.6459 2.1165, -0.7626 0.6145 2.1063, -0.7963 0.5726 2.1063, -0.7952 0.5718 2.1165, -0.9019 0.3859 2.1063, -0.9285 0.3208 2.1063, -0.9272 0.3203 2.1165, -0.9747 0.1281 2.1063, -0.9831 0.0416 2.1063, -0.9818 0.0416 2.1165, -0.9831 -0.0059 2.1063, -0.9831 -0.0535 2.1063, -0.9818 -0.0534 2.1165, -0.9468 -0.2712 2.1063, -0.9285 -0.3326 2.1063, -0.9272 -0.3321 2.1165, -0.8405 -0.517 2.1063, -0.7963 -0.5844 2.1063, -0.7952 -0.5837 2.1165, -0.7626 -0.6264 2.1063, -0.7367 -0.6586 2.1063, -0.7357 -0.6577 2.1165, -0.6717 -0.7252 2.1063, -0.6703 -0.7266 2.1063, -0.6694 -0.7257 2.1165, -0.567 -0.8091 2.1063, -0.5193 -0.842 2.1063, -0.5186 -0.8409 2.1165, -0.3294 -0.9326 2.1063, -0.2586 -0.9556 2.1063, -0.2582 -0.9543 2.1165, -0.2 -0.9685 2.1063, -0.1657 -0.9761 2.1063, -0.1655 -0.9748 2.1165, -0.0672 -0.9877 2.1063, 0.0238 -0.9899 2.1063, 0.0238 -0.9885 2.1165, 0.0671 -0.9867 2.1063, 0.1186 -0.983 2.1063, 0.1185 -0.9817 2.1165, 0.3293 -0.9325 2.1063, 0.3931 -0.9083 2.1063, 0.3925 -0.907 2.1165, 0.5673 -0.8097 2.1063, 0.6347 -0.7582 2.1063, 0.6338 -0.7572 2.1165, 0.671 -0.7244 2.1063, 0.7043 -0.6934 2.1063, 0.7034 -0.6925 2.1165, 0.8401 -0.5168 2.1063, 0.8715 -0.4633 2.1063, 0.8703 -0.4627 2.1165, 0.9471 -0.2713 2.1063, 0.9659 -0.195 2.1063, 0.9646 -0.1948 2.1165, 0.974 -0.1398 2.1063, 0.9797 -0.1009 2.1063, 0.9783 -0.1008 2.1165, -0.4605 0.8192 2.1457, -0.4188 0.8411 2.1457, -0.4233 0.8502 2.1443, -0.5653 0.7506 2.1457, -0.4986 0.7967 2.1457, -0.5039 0.8054 2.1443, -0.6602 0.6689 2.1457, -0.6435 0.686 2.1457, -0.6504 0.6935 2.1443, -0.8148 0.4725 2.1457, -0.8145 0.4731 2.1457, -0.8232 0.4783 2.1443, -0.87 0.3601 2.1457, -0.8569 0.3923 2.1457, -0.8661 0.3966 2.1443, -0.911 0.2417 2.1457, -0.8913 0.3077 2.1457, -0.9009 0.3111 2.1443, -0.9361 0.1191 2.1457, -0.935 0.1306 2.1457, -0.945 0.1321 2.1443, -0.9361 -0.1309 2.1457, -0.9438 -0.0516 2.1457, -0.954 -0.0521 2.1443, -0.911 -0.2536 2.1457, -0.9174 -0.232 2.1457, -0.9273 -0.2345 2.1443, -0.8148 -0.4843 2.1457, -0.8569 -0.4041 2.1457, -0.8661 -0.4084 2.1443, -0.7436 -0.5873 2.1457, -0.7644 -0.5613 2.1457, -0.7727 -0.5673 2.1443, -0.6602 -0.6807 2.1457, -0.7073 -0.6325 2.1457, -0.7149 -0.6392 2.1443, -0.5653 -0.7625 2.1457, -0.5737 -0.7567 2.1457, -0.5799 -0.7648 2.1443, -0.4986 -0.8086 2.1457, -0.8913 -0.3195 2.1457, -0.9438 0.0397 2.1457, -0.7073 0.6207 2.1457, 0.8751 -0.3622 2.1457, 0.8367 -0.445 2.1457, 0.8846 -0.3661 2.1443, 0.8457 -0.4498 2.1443, 0.8934 -0.3696 2.1404, 0.8541 -0.4542 2.1404, 0.9009 -0.3727 2.1341, 0.8613 -0.458 2.1341, 0.9067 -0.3751 2.126, 0.8668 -0.4609 2.126, 0.9103 -0.3766 2.1165, 0.7367 -0.5976 2.1457, 0.6762 -0.6659 2.1457, 0.7446 -0.604 2.1443, 0.6834 -0.673 2.1443, 0.752 -0.6099 2.1404, 0.6902 -0.6797 2.1404, 0.7584 -0.615 2.1341, 0.6961 -0.6854 2.1341, 0.7633 -0.6189 2.126, 0.7006 -0.6897 2.126, 0.7663 -0.6214 2.1165, 0.4592 -0.8317 2.1457, 0.3774 -0.8722 2.1457, 0.4641 -0.8406 2.1443, 0.3814 -0.8815 2.1443, 0.4688 -0.8489 2.1404, 0.3852 -0.8902 2.1404, 0.4727 -0.856 2.1341, 0.3885 -0.8977 2.1341, 0.4758 -0.8615 2.126, 0.391 -0.9034 2.126, 0.4777 -0.8649 2.1165, 0.2039 -0.9285 2.1457, 0.1139 -0.9439 2.1457, 0.2061 -0.9385 2.1443, 0.1151 -0.954 2.1443, 0.2081 -0.9478 2.1404, 0.1163 -0.9634 2.1404, 0.2099 -0.9557 2.1341, 0.1172 -0.9715 2.1341, 0.2112 -0.9618 2.126, 0.118 -0.9777 2.126, 0.2121 -0.9657 2.1165, -0.4188 -0.8529 2.1457, -0.4605 -0.831 2.1457, -0.4233 -0.8621 2.1443, -0.5039 -0.8172 2.1443, -0.4275 -0.8706 2.1404, -0.5089 -0.8253 2.1404, -0.4311 -0.8779 2.1341, -0.5132 -0.8322 2.1341, -0.4339 -0.8835 2.126, -0.5165 -0.8375 2.126, -0.4356 -0.887 2.1165, -0.87 -0.3719 2.1457, -0.9009 -0.3229 2.1443, -0.8747 -0.4124 2.1404, -0.9099 -0.3261 2.1404, -0.8821 -0.4158 2.1341, -0.9176 -0.3288 2.1341, -0.8878 -0.4185 2.126, -0.9235 -0.3308 2.126, -0.8914 -0.4201 2.1165, -0.935 -0.1424 2.1457, -0.945 -0.1439 2.1443, -0.9544 -0.1453 2.1404, -0.9634 -0.0525 2.1404, -0.9625 -0.1465 2.1341, -0.9716 -0.0529 2.1341, -0.9687 -0.1474 2.126, -0.9778 -0.0532 2.126, -0.9726 -0.1479 2.1165, -0.9174 0.2202 2.1457, -0.9273 0.2227 2.1443, -0.9365 0.2249 2.1404, -0.9099 0.3142 2.1404, -0.9445 0.2269 2.1341, -0.9176 0.3169 2.1341, -0.9505 0.2284 2.126, -0.9235 0.319 2.126, -0.9543 0.2293 2.1165, -0.7644 0.5495 2.1457, -0.7727 0.5555 2.1443, -0.8314 0.4831 2.1404, -0.7804 0.561 2.1404, -0.8385 0.4872 2.1341, -0.7869 0.5658 2.1341, -0.8438 0.4904 2.126, -0.792 0.5695 2.126, -0.8472 0.4924 2.1165, -0.3351 0.8776 2.1457, -0.2482 0.9058 2.1457, -0.3387 0.8871 2.1443, -0.2509 0.9156 2.1443, -0.342 0.896 2.1404, -0.2534 0.9248 2.1404, -0.3449 0.9036 2.1341, -0.2555 0.9326 2.1341, -0.3472 0.9094 2.126, -0.2572 0.9387 2.126, -0.3485 0.9131 2.1165, 0.292 0.8927 2.1457, 0.3774 0.8604 2.1457, 0.2951 0.9024 2.1443, 0.3814 0.8697 2.1443, 0.2981 0.9114 2.1404, 0.3852 0.8784 2.1404, 0.3006 0.9192 2.1341, 0.3885 0.8859 2.1341, 0.3025 0.9252 2.126, 0.391 0.8916 2.126, 0.3037 0.9289 2.1165, 0.5368 0.7717 2.1457, 0.6093 0.7163 2.1457, 0.5425 0.7801 2.1443, 0.6159 0.7241 2.1443, 0.5479 0.7879 2.1404, 0.622 0.7313 2.1404, 0.5526 0.7946 2.1341, 0.6273 0.7376 2.1341, 0.5561 0.7998 2.126, 0.6313 0.7423 2.126, 0.5584 0.803 2.1165, 0.9054 0.2643 2.1457, 0.9273 0.1756 2.1457, 0.9152 0.2672 2.1443, 0.9373 0.1776 2.1443, 0.9243 0.2699 2.1404, 0.9466 0.1794 2.1404, 0.9321 0.2722 2.1341, 0.9546 0.181 2.1341, 0.9381 0.274 2.126, 0.9607 0.1822 2.126, 0.9419 0.2751 2.1165, 0.9449 -0.0059 2.1457, 0.9405 -0.0971 2.1457, 0.9551 -0.0059 2.1443, 0.9506 -0.0981 2.1443, 0.9646 -0.0059 2.1404, 0.9601 -0.099 2.1404, 0.9727 -0.0059 2.1341, 0.9682 -0.0998 2.1341, 0.979 -0.0059 2.126, 0.9744 -0.1004 2.126, 0.9829 -0.0059 2.1165, 0.9843 -0.0059 2.1063, 0.9273 -0.1874 2.1457, 0.9373 -0.1894 2.1443, 0.9466 -0.1912 2.1404, 0.9546 -0.1928 2.1341, 0.9607 -0.194 2.126, 0.9432 -0.2874 2.1063, 0.9419 -0.287 2.1165, 0.9381 -0.2858 2.126, 0.9321 -0.2841 2.1341, 0.9243 -0.2817 2.1404, 0.9152 -0.279 2.1443, 0.9054 -0.2761 2.1457, 0.9116 -0.3771 2.1063, 0.902 -0.3977 2.1063, 0.8233 -0.5453 2.1063, 0.8222 -0.5446 2.1165, 0.8189 -0.5424 2.126, 0.8137 -0.539 2.1341, 0.8068 -0.5345 2.1404, 0.7989 -0.5293 2.1443, 0.7904 -0.5237 2.1457, 0.7674 -0.6222 2.1063, 0.7633 -0.6269 2.1063, 0.6093 -0.7281 2.1457, 0.6159 -0.7359 2.1443, 0.622 -0.7431 2.1404, 0.6273 -0.7494 2.1341, 0.6313 -0.7542 2.126, 0.5591 -0.8159 2.1063, 0.5584 -0.8148 2.1165, 0.5561 -0.8116 2.126, 0.5526 -0.8064 2.1341, 0.5479 -0.7997 2.1404, 0.5425 -0.7919 2.1443, 0.5368 -0.7835 2.1457, 0.4783 -0.8661 2.1063, 0.4524 -0.8789 2.1063, 0.3042 -0.942 2.1063, 0.3037 -0.9407 2.1165, 0.3025 -0.937 2.126, 0.3006 -0.931 2.1341, 0.2981 -0.9233 2.1404, 0.2951 -0.9142 2.1443, 0.292 -0.9045 2.1457, 0.2124 -0.967 2.1063, 0.2002 -0.9691 2.1063, 0.0237 -0.9846 2.126, 0.0235 -0.9783 2.1341, 0.0233 -0.9702 2.1404, 0.0231 -0.9607 2.1443, 0.0228 -0.9505 2.1457, -0.0713 -0.9876 2.1063, -0.0712 -0.9862 2.1165, -0.0709 -0.9823 2.126, -0.0705 -0.9761 2.1341, -0.0699 -0.9679 2.1404, -0.0692 -0.9585 2.1443, -0.0684 -0.9483 2.1457, -0.1591 -0.9373 2.1457, -0.1608 -0.9473 2.1443, -0.1624 -0.9567 2.1404, -0.1638 -0.9647 2.1341, -0.1648 -0.9709 2.126, -0.2482 -0.9176 2.1457, -0.2509 -0.9274 2.1443, -0.2534 -0.9366 2.1404, -0.2555 -0.9445 2.1341, -0.2572 -0.9505 2.126, -0.349 -0.9262 2.1063, -0.3485 -0.9249 2.1165, -0.3472 -0.9213 2.126, -0.3449 -0.9154 2.1341, -0.342 -0.9078 2.1404, -0.3387 -0.8989 2.1443, -0.3351 -0.8894 2.1457, -0.4362 -0.8882 2.1063, -0.4525 -0.8792 2.1063, -0.5976 -0.788 2.1063, -0.5968 -0.7869 2.1165, -0.5944 -0.7838 2.126, -0.5906 -0.7788 2.1341, -0.5856 -0.7723 2.1404, -0.6435 -0.6978 2.1457, -0.6504 -0.7053 2.1443, -0.6569 -0.7122 2.1404, -0.6624 -0.7182 2.1341, -0.6667 -0.7228 2.126, -0.7328 -0.6551 2.126, -0.7281 -0.6509 2.1341, -0.722 -0.6455 2.1404, -0.7804 -0.5729 2.1404, -0.7869 -0.5777 2.1341, -0.792 -0.5813 2.126, -0.8484 -0.5049 2.1063, -0.8472 -0.5042 2.1165, -0.8438 -0.5022 2.126, -0.8385 -0.499 2.1341, -0.8314 -0.4949 2.1404, -0.8232 -0.4901 2.1443, -0.8145 -0.4849 2.1457, -0.8926 -0.4207 2.1063, -0.9019 -0.3977 2.1063, -0.9557 -0.2415 2.1063, -0.9543 -0.2411 2.1165, -0.9505 -0.2402 2.126, -0.9445 -0.2387 2.1341, -0.9365 -0.2367 2.1404, -0.9739 -0.1481 2.1063, -0.9747 -0.1399 2.1063, -0.9438 -0.0059 2.1457, -0.954 0.0402 2.1443, -0.9634 0.0407 2.1404, -0.9716 0.0411 2.1341, -0.9778 0.0414 2.126, -0.9739 0.1363 2.1063, -0.9726 0.1361 2.1165, -0.9687 0.1355 2.126, -0.9625 0.1346 2.1341, -0.9544 0.1335 2.1404, -0.9557 0.2296 2.1063, -0.9468 0.2593 2.1063, -0.8926 0.4089 2.1063, -0.8914 0.4083 2.1165, -0.8878 0.4066 2.126, -0.8821 0.404 2.1341, -0.8747 0.4006 2.1404, -0.8484 0.4931 2.1063, -0.8405 0.5052 2.1063, -0.7328 0.6433 2.126, -0.7281 0.6391 2.1341, -0.722 0.6337 2.1404, -0.7149 0.6274 2.1443, -0.7436 0.5755 2.1457, -0.6703 0.7148 2.1063, -0.6694 0.7138 2.1165, -0.6667 0.711 2.126, -0.6624 0.7064 2.1341, -0.6569 0.7004 2.1404, -0.5737 0.7449 2.1457, -0.5799 0.753 2.1443, -0.5856 0.7605 2.1404, -0.5906 0.767 2.1341, -0.5944 0.772 2.126, -0.5089 0.8135 2.1404, -0.5132 0.8204 2.1341, -0.5165 0.8257 2.126, -0.4362 0.8764 2.1063, -0.4356 0.8752 2.1165, -0.4339 0.8717 2.126, -0.4311 0.8661 2.1341, -0.4275 0.8588 2.1404, -0.349 0.9144 2.1063, -0.3294 0.9208 2.1063, -0.1657 0.9643 2.1063, -0.1655 0.963 2.1165, -0.1648 0.9591 2.126, -0.1638 0.9529 2.1341, -0.1624 0.9449 2.1404, -0.1608 0.9355 2.1443, -0.1591 0.9255 2.1457, -0.0684 0.9365 2.1457, -0.0692 0.9467 2.1443, -0.0699 0.9561 2.1404, -0.0705 0.9643 2.1341, -0.0709 0.9705 2.126, 0.0237 0.9728 2.126, 0.0235 0.9665 2.1341, 0.0233 0.9584 2.1404, 0.0231 0.9489 2.1443, 0.0228 0.9387 2.1457, 0.1139 0.9321 2.1457, 0.1151 0.9422 2.1443, 0.1163 0.9516 2.1404, 0.1172 0.9597 2.1341, 0.118 0.9659 2.126, 0.2124 0.9552 2.1063, 0.2121 0.9538 2.1165, 0.2112 0.95 2.126, 0.2099 0.9439 2.1341, 0.2081 0.9359 2.1404, 0.2061 0.9267 2.1443, 0.2039 0.9167 2.1457, 0.3042 0.9302 2.1063, 0.3293 0.9206 2.1063, 0.4783 0.8543 2.1063, 0.4777 0.8531 2.1165, 0.4758 0.8497 2.126, 0.4727 0.8442 2.1341, 0.4688 0.8371 2.1404, 0.4641 0.8288 2.1443, 0.4592 0.8199 2.1457, 0.5591 0.8041 2.1063, 0.5673 0.7978 2.1063, 0.7006 0.6779 2.126, 0.6961 0.6735 2.1341, 0.6902 0.6679 2.1404, 0.6834 0.6612 2.1443, 0.6762 0.6541 2.1457, 0.7674 0.6104 2.1063, 0.7663 0.6096 2.1165, 0.7633 0.6071 2.126, 0.7584 0.6032 2.1341, 0.752 0.5981 2.1404, 0.7446 0.5921 2.1443, 0.7367 0.5858 2.1457, 0.7904 0.5119 2.1457, 0.7989 0.5175 2.1443, 0.8068 0.5227 2.1404, 0.8137 0.5272 2.1341, 0.8189 0.5306 2.126, 0.8367 0.4332 2.1457, 0.8457 0.4379 2.1443, 0.8541 0.4423 2.1404, 0.8613 0.4461 2.1341, 0.8668 0.449 2.126, 0.9116 0.3652 2.1063, 0.9103 0.3647 2.1165, 0.9067 0.3633 2.126, 0.9009 0.3609 2.1341, 0.8934 0.3578 2.1404, 0.8846 0.3542 2.1443, 0.8751 0.3504 2.1457, 0.9432 0.2755 2.1063, 0.9471 0.2595 2.1063, 0.9797 0.0891 2.1063, 0.9783 0.089 2.1165, 0.9744 0.0886 2.126, 0.9682 0.088 2.1341, 0.9601 0.0872 2.1404, 0.9506 0.0863 2.1443, 0.9405 0.0853 2.1457
            ]
        }
        coordIndex [
            0,1,2,-1,2,1,3,-1,4,5,0,-1,0,5,6,-1,0,6,1,-1,7,3,6,-1,6,3,1,-1,8,9,7,-1,7,9,2,-1,7,2,3,-1,5,4,8,-1,8,4,9,-1,6,5,7,-1,7,5,8,-1,10,11,12,-1,12,11,13,-1,14,15,16,-1,16,15,13,-1,16,13,11,-1,17,18,14,-1,14,18,15,-1,18,17,12,-1,12,17,19,-1,12,19,10,-1,16,11,19,-1,19,11,10,-1,14,16,17,-1,17,16,19,-1,20,21,22,-1,23,24,25,-1,26,27,28,-1,29,30,31,-1,32,33,34,-1,35,36,37,-1,38,39,40,-1,41,42,43,-1,44,45,46,-1,47,48,49,-1,50,51,52,-1,53,54,55,-1,56,57,58,-1,59,60,61,-1,62,63,64,-1,65,66,67,-1,68,69,70,-1,71,72,73,-1,74,75,76,-1,77,78,79,-1,80,81,82,-1,83,84,85,-1,86,87,88,-1,89,90,91,-1,92,93,94,-1,95,96,97,-1,98,99,100,-1,101,102,103,-1,104,105,106,-1,107,108,109,-1,110,111,112,-1,113,114,115,-1,116,117,118,-1,119,120,121,-1,122,123,124,-1,125,126,127,-1,128,129,130,-1,131,132,133,-1,134,135,136,-1,137,138,139,-1,140,141,142,-1,143,144,145,-1,146,147,148,-1,149,150,151,-1,152,153,154,-1,152,154,155,-1,140,142,156,-1,134,136,157,-1,122,124,158,-1,159,160,161,-1,161,160,162,-1,161,162,163,-1,163,162,164,-1,163,164,165,-1,165,164,166,-1,165,166,167,-1,167,166,168,-1,167,168,169,-1,169,168,109,-1,170,171,172,-1,172,171,173,-1,172,173,174,-1,174,173,175,-1,174,175,176,-1,176,175,177,-1,176,177,178,-1,178,177,179,-1,178,179,180,-1,180,179,106,-1,181,182,183,-1,183,182,184,-1,183,184,185,-1,185,184,186,-1,185,186,187,-1,187,186,188,-1,187,188,189,-1,189,188,190,-1,189,190,191,-1,191,190,100,-1,192,193,194,-1,194,193,195,-1,194,195,196,-1,196,195,197,-1,196,197,198,-1,198,197,199,-1,198,199,200,-1,200,199,201,-1,200,201,202,-1,202,201,97,-1,203,204,205,-1,205,204,206,-1,205,206,207,-1,207,206,208,-1,207,208,209,-1,209,208,210,-1,209,210,211,-1,211,210,212,-1,211,212,213,-1,213,212,85,-1,144,214,145,-1,145,214,215,-1,145,215,216,-1,216,215,217,-1,216,217,218,-1,218,217,219,-1,218,219,220,-1,220,219,221,-1,220,221,222,-1,222,221,73,-1,223,137,224,-1,224,137,139,-1,224,139,225,-1,225,139,226,-1,225,226,227,-1,227,226,228,-1,227,228,229,-1,229,228,230,-1,229,230,231,-1,231,230,70,-1,232,131,233,-1,233,131,133,-1,233,133,234,-1,234,133,235,-1,234,235,236,-1,236,235,237,-1,236,237,238,-1,238,237,239,-1,238,239,240,-1,240,239,64,-1,126,241,127,-1,127,241,242,-1,127,242,243,-1,243,242,244,-1,243,244,245,-1,245,244,246,-1,245,246,247,-1,247,246,248,-1,247,248,249,-1,249,248,61,-1,250,251,252,-1,252,251,253,-1,252,253,254,-1,254,253,255,-1,254,255,256,-1,256,255,257,-1,256,257,258,-1,258,257,259,-1,258,259,260,-1,260,259,49,-1,261,262,263,-1,263,262,264,-1,263,264,265,-1,265,264,266,-1,265,266,267,-1,267,266,268,-1,267,268,269,-1,269,268,270,-1,269,270,271,-1,271,270,37,-1,272,273,274,-1,274,273,275,-1,274,275,276,-1,276,275,277,-1,276,277,278,-1,278,277,279,-1,278,279,280,-1,280,279,281,-1,280,281,282,-1,282,281,34,-1,283,284,285,-1,285,284,286,-1,285,286,287,-1,287,286,288,-1,287,288,289,-1,289,288,290,-1,289,290,291,-1,291,290,292,-1,291,292,293,-1,293,292,22,-1,294,295,296,-1,296,295,297,-1,296,297,298,-1,298,297,299,-1,298,299,300,-1,300,299,301,-1,300,301,302,-1,302,301,303,-1,302,303,304,-1,304,303,115,-1,304,115,305,-1,305,115,114,-1,295,306,297,-1,297,306,307,-1,297,307,299,-1,299,307,308,-1,299,308,301,-1,301,308,309,-1,301,309,303,-1,303,309,310,-1,303,310,115,-1,115,310,112,-1,115,112,113,-1,113,112,111,-1,311,110,312,-1,312,110,112,-1,312,112,313,-1,313,112,310,-1,313,310,314,-1,314,310,309,-1,314,309,315,-1,315,309,308,-1,315,308,316,-1,316,308,307,-1,316,307,317,-1,317,307,306,-1,317,159,316,-1,316,159,161,-1,316,161,315,-1,315,161,163,-1,315,163,314,-1,314,163,165,-1,314,165,313,-1,313,165,167,-1,313,167,312,-1,312,167,169,-1,312,169,311,-1,311,169,318,-1,109,108,169,-1,169,108,319,-1,169,319,318,-1,320,107,321,-1,321,107,109,-1,321,109,322,-1,322,109,168,-1,322,168,323,-1,323,168,166,-1,323,166,324,-1,324,166,164,-1,324,164,325,-1,325,164,162,-1,325,162,326,-1,326,162,160,-1,326,170,325,-1,325,170,172,-1,325,172,324,-1,324,172,174,-1,324,174,323,-1,323,174,176,-1,323,176,322,-1,322,176,178,-1,322,178,321,-1,321,178,180,-1,321,180,320,-1,320,180,327,-1,106,105,180,-1,180,105,328,-1,180,328,327,-1,171,329,173,-1,173,329,330,-1,173,330,175,-1,175,330,331,-1,175,331,177,-1,177,331,332,-1,177,332,179,-1,179,332,333,-1,179,333,106,-1,106,333,103,-1,106,103,104,-1,104,103,102,-1,334,101,335,-1,335,101,103,-1,335,103,336,-1,336,103,333,-1,336,333,337,-1,337,333,332,-1,337,332,338,-1,338,332,331,-1,338,331,339,-1,339,331,330,-1,339,330,340,-1,340,330,329,-1,340,181,339,-1,339,181,183,-1,339,183,338,-1,338,183,185,-1,338,185,337,-1,337,185,187,-1,337,187,336,-1,336,187,189,-1,336,189,335,-1,335,189,191,-1,335,191,334,-1,334,191,341,-1,100,99,191,-1,191,99,342,-1,191,342,341,-1,343,98,344,-1,344,98,100,-1,344,100,345,-1,345,100,190,-1,345,190,346,-1,346,190,188,-1,346,188,347,-1,347,188,186,-1,347,186,348,-1,348,186,184,-1,348,184,349,-1,349,184,182,-1,349,192,348,-1,348,192,194,-1,348,194,347,-1,347,194,196,-1,347,196,346,-1,346,196,198,-1,346,198,345,-1,345,198,200,-1,345,200,344,-1,344,200,202,-1,344,202,343,-1,343,202,350,-1,97,96,202,-1,202,96,351,-1,202,351,350,-1,93,95,94,-1,94,95,97,-1,94,97,352,-1,352,97,201,-1,352,201,353,-1,353,201,199,-1,353,199,354,-1,354,199,197,-1,354,197,355,-1,355,197,195,-1,355,195,356,-1,356,195,193,-1,357,92,358,-1,358,92,94,-1,358,94,359,-1,359,94,352,-1,359,352,360,-1,360,352,353,-1,360,353,361,-1,361,353,354,-1,361,354,362,-1,362,354,355,-1,362,355,363,-1,363,355,356,-1,363,364,362,-1,362,364,365,-1,362,365,361,-1,361,365,366,-1,361,366,360,-1,360,366,367,-1,360,367,359,-1,359,367,368,-1,359,368,358,-1,358,368,91,-1,358,91,357,-1,357,91,90,-1,364,369,365,-1,365,369,370,-1,365,370,366,-1,366,370,371,-1,366,371,367,-1,367,371,372,-1,367,372,368,-1,368,372,373,-1,368,373,91,-1,91,373,88,-1,91,88,89,-1,89,88,87,-1,374,86,375,-1,375,86,88,-1,375,88,376,-1,376,88,373,-1,376,373,377,-1,377,373,372,-1,377,372,378,-1,378,372,371,-1,378,371,379,-1,379,371,370,-1,379,370,380,-1,380,370,369,-1,380,203,379,-1,379,203,205,-1,379,205,378,-1,378,205,207,-1,378,207,377,-1,377,207,209,-1,377,209,376,-1,376,209,211,-1,376,211,375,-1,375,211,213,-1,375,213,374,-1,374,213,381,-1,85,84,213,-1,213,84,382,-1,213,382,381,-1,383,83,384,-1,384,83,85,-1,384,85,385,-1,385,85,212,-1,385,212,386,-1,386,212,210,-1,386,210,387,-1,387,210,208,-1,387,208,154,-1,154,208,206,-1,154,206,155,-1,155,206,204,-1,153,388,154,-1,154,388,389,-1,154,389,387,-1,387,389,390,-1,387,390,386,-1,386,390,391,-1,386,391,385,-1,385,391,392,-1,385,392,384,-1,384,392,82,-1,384,82,383,-1,383,82,81,-1,78,80,79,-1,79,80,82,-1,79,82,393,-1,393,82,392,-1,393,392,394,-1,394,392,391,-1,394,391,395,-1,395,391,390,-1,395,390,151,-1,151,390,389,-1,151,389,149,-1,149,389,388,-1,150,146,151,-1,151,146,148,-1,151,148,395,-1,395,148,396,-1,395,396,394,-1,394,396,397,-1,394,397,393,-1,393,397,398,-1,393,398,79,-1,79,398,76,-1,79,76,77,-1,77,76,75,-1,399,74,400,-1,400,74,76,-1,400,76,401,-1,401,76,398,-1,401,398,402,-1,402,398,397,-1,402,397,403,-1,403,397,396,-1,403,396,404,-1,404,396,148,-1,404,148,405,-1,405,148,147,-1,405,143,404,-1,404,143,145,-1,404,145,403,-1,403,145,216,-1,403,216,402,-1,402,216,218,-1,402,218,401,-1,401,218,220,-1,401,220,400,-1,400,220,222,-1,400,222,399,-1,399,222,406,-1,73,72,222,-1,222,72,407,-1,222,407,406,-1,408,71,409,-1,409,71,73,-1,409,73,410,-1,410,73,221,-1,410,221,411,-1,411,221,219,-1,411,219,412,-1,412,219,217,-1,412,217,142,-1,142,217,215,-1,142,215,156,-1,156,215,214,-1,141,223,142,-1,142,223,224,-1,142,224,412,-1,412,224,225,-1,412,225,411,-1,411,225,227,-1,411,227,410,-1,410,227,229,-1,410,229,409,-1,409,229,231,-1,409,231,408,-1,408,231,413,-1,70,69,231,-1,231,69,414,-1,231,414,413,-1,138,415,139,-1,139,415,416,-1,139,416,226,-1,226,416,417,-1,226,417,228,-1,228,417,418,-1,228,418,230,-1,230,418,419,-1,230,419,70,-1,70,419,67,-1,70,67,68,-1,68,67,66,-1,420,65,421,-1,421,65,67,-1,421,67,422,-1,422,67,419,-1,422,419,423,-1,423,419,418,-1,423,418,424,-1,424,418,417,-1,424,417,136,-1,136,417,416,-1,136,416,157,-1,157,416,415,-1,135,232,136,-1,136,232,233,-1,136,233,424,-1,424,233,234,-1,424,234,423,-1,423,234,236,-1,423,236,422,-1,422,236,238,-1,422,238,421,-1,421,238,240,-1,421,240,420,-1,420,240,425,-1,64,63,240,-1,240,63,426,-1,240,426,425,-1,427,62,428,-1,428,62,64,-1,428,64,429,-1,429,64,239,-1,429,239,430,-1,430,239,237,-1,430,237,431,-1,431,237,235,-1,431,235,130,-1,130,235,133,-1,130,133,128,-1,128,133,132,-1,129,125,130,-1,130,125,127,-1,130,127,431,-1,431,127,243,-1,431,243,430,-1,430,243,245,-1,430,245,429,-1,429,245,247,-1,429,247,428,-1,428,247,249,-1,428,249,427,-1,427,249,432,-1,61,60,249,-1,249,60,433,-1,249,433,432,-1,57,59,58,-1,58,59,61,-1,58,61,434,-1,434,61,248,-1,434,248,435,-1,435,248,246,-1,435,246,436,-1,436,246,244,-1,436,244,437,-1,437,244,242,-1,437,242,438,-1,438,242,241,-1,439,56,440,-1,440,56,58,-1,440,58,441,-1,441,58,434,-1,441,434,442,-1,442,434,435,-1,442,435,443,-1,443,435,436,-1,443,436,124,-1,124,436,437,-1,124,437,158,-1,158,437,438,-1,123,444,124,-1,124,444,445,-1,124,445,443,-1,443,445,446,-1,443,446,442,-1,442,446,447,-1,442,447,441,-1,441,447,448,-1,441,448,440,-1,440,448,55,-1,440,55,439,-1,439,55,54,-1,444,119,445,-1,445,119,121,-1,445,121,446,-1,446,121,449,-1,446,449,447,-1,447,449,450,-1,447,450,448,-1,448,450,451,-1,448,451,55,-1,55,451,52,-1,55,52,53,-1,53,52,51,-1,452,50,453,-1,453,50,52,-1,453,52,454,-1,454,52,451,-1,454,451,455,-1,455,451,450,-1,455,450,456,-1,456,450,449,-1,456,449,118,-1,118,449,121,-1,118,121,116,-1,116,121,120,-1,117,250,118,-1,118,250,252,-1,118,252,456,-1,456,252,254,-1,456,254,455,-1,455,254,256,-1,455,256,454,-1,454,256,258,-1,454,258,453,-1,453,258,260,-1,453,260,452,-1,452,260,457,-1,49,48,260,-1,260,48,458,-1,260,458,457,-1,459,47,460,-1,460,47,49,-1,460,49,461,-1,461,49,259,-1,461,259,462,-1,462,259,257,-1,462,257,463,-1,463,257,255,-1,463,255,464,-1,464,255,253,-1,464,253,465,-1,465,253,251,-1,465,466,464,-1,464,466,467,-1,464,467,463,-1,463,467,468,-1,463,468,462,-1,462,468,469,-1,462,469,461,-1,461,469,470,-1,461,470,460,-1,460,470,46,-1,460,46,459,-1,459,46,45,-1,42,44,43,-1,43,44,46,-1,43,46,471,-1,471,46,470,-1,471,470,472,-1,472,470,469,-1,472,469,473,-1,473,469,468,-1,473,468,474,-1,474,468,467,-1,474,467,475,-1,475,467,466,-1,475,476,474,-1,474,476,477,-1,474,477,473,-1,473,477,478,-1,473,478,472,-1,472,478,479,-1,472,479,471,-1,471,479,480,-1,471,480,43,-1,43,480,40,-1,43,40,41,-1,41,40,39,-1,481,38,482,-1,482,38,40,-1,482,40,483,-1,483,40,480,-1,483,480,484,-1,484,480,479,-1,484,479,485,-1,485,479,478,-1,485,478,486,-1,486,478,477,-1,486,477,487,-1,487,477,476,-1,487,261,486,-1,486,261,263,-1,486,263,485,-1,485,263,265,-1,485,265,484,-1,484,265,267,-1,484,267,483,-1,483,267,269,-1,483,269,482,-1,482,269,271,-1,482,271,481,-1,481,271,488,-1,37,36,271,-1,271,36,489,-1,271,489,488,-1,490,35,491,-1,491,35,37,-1,491,37,492,-1,492,37,270,-1,492,270,493,-1,493,270,268,-1,493,268,494,-1,494,268,266,-1,494,266,495,-1,495,266,264,-1,495,264,496,-1,496,264,262,-1,496,272,495,-1,495,272,274,-1,495,274,494,-1,494,274,276,-1,494,276,493,-1,493,276,278,-1,493,278,492,-1,492,278,280,-1,492,280,491,-1,491,280,282,-1,491,282,490,-1,490,282,497,-1,34,33,282,-1,282,33,498,-1,282,498,497,-1,30,32,31,-1,31,32,34,-1,31,34,499,-1,499,34,281,-1,499,281,500,-1,500,281,279,-1,500,279,501,-1,501,279,277,-1,501,277,502,-1,502,277,275,-1,502,275,503,-1,503,275,273,-1,504,29,505,-1,505,29,31,-1,505,31,506,-1,506,31,499,-1,506,499,507,-1,507,499,500,-1,507,500,508,-1,508,500,501,-1,508,501,509,-1,509,501,502,-1,509,502,510,-1,510,502,503,-1,510,511,509,-1,509,511,512,-1,509,512,508,-1,508,512,513,-1,508,513,507,-1,507,513,514,-1,507,514,506,-1,506,514,515,-1,506,515,505,-1,505,515,28,-1,505,28,504,-1,504,28,27,-1,511,516,512,-1,512,516,517,-1,512,517,513,-1,513,517,518,-1,513,518,514,-1,514,518,519,-1,514,519,515,-1,515,519,520,-1,515,520,28,-1,28,520,25,-1,28,25,26,-1,26,25,24,-1,521,23,522,-1,522,23,25,-1,522,25,523,-1,523,25,520,-1,523,520,524,-1,524,520,519,-1,524,519,525,-1,525,519,518,-1,525,518,526,-1,526,518,517,-1,526,517,527,-1,527,517,516,-1,527,283,526,-1,526,283,285,-1,526,285,525,-1,525,285,287,-1,525,287,524,-1,524,287,289,-1,524,289,523,-1,523,289,291,-1,523,291,522,-1,522,291,293,-1,522,293,521,-1,521,293,528,-1,22,21,293,-1,293,21,529,-1,293,529,528,-1,530,20,531,-1,531,20,22,-1,531,22,532,-1,532,22,292,-1,532,292,533,-1,533,292,290,-1,533,290,534,-1,534,290,288,-1,534,288,535,-1,535,288,286,-1,535,286,536,-1,536,286,284,-1,536,294,535,-1,535,294,296,-1,535,296,534,-1,534,296,298,-1,534,298,533,-1,533,298,300,-1,533,300,532,-1,532,300,302,-1,532,302,531,-1,531,302,304,-1,531,304,530,-1,530,304,305,-1,
        ]
    }
}
Shape{
    appearance Appearance {
        material  Material 	{
            diffuseColor 0.0 0.0 0.0
            specularColor 0.0 0.0 0.0
            ambientIntensity 0.0
            transparency 0.0
            shininess 0.5
        }
    }
    geometry IndexedFaceSet {
        ccw TRUE
        solid FALSE
        coord DEF co Coordinate {
            point [
                -0.5653 0.7506 2.1457, -0.5656 0.751 2.1453, -0.4986 0.7967 2.1457, -0.4605 0.8192 2.1453, -0.4605 0.8192 2.1457, -0.5737 0.7449 2.1457, -0.6435 0.686 2.1457, -0.6608 0.6695 2.1453, -0.8145 0.4731 2.1457, -0.8148 0.4725 2.1453, -0.7444 0.5761 2.1453, -0.7644 0.5495 2.1457, -0.6602 0.6689 2.1457, -0.7073 0.6207 2.1457, -0.7436 0.5755 2.1457, -0.911 0.2417 2.1457, -0.9118 0.242 2.1453, -0.8913 0.3077 2.1457, -0.871 0.3604 2.1453, -0.8148 0.4725 2.1457, -0.8569 0.3923 2.1457, -0.87 0.3601 2.1457, -0.9174 0.2202 2.1457, -0.935 0.1306 2.1457, -0.9366 0.1191 2.1453, -0.9361 -0.1309 2.1457, -0.9366 -0.1309 2.1453, -0.9449 -0.0059 2.1453, -0.9438 -0.0516 2.1457, -0.9361 0.1191 2.1457, -0.9438 0.0397 2.1457, -0.9438 -0.0059 2.1457, -0.935 -0.1424 2.1457, -0.9174 -0.232 2.1457, -0.9118 -0.2538 2.1453, -0.8148 -0.4843 2.1457, -0.8148 -0.4843 2.1453, -0.871 -0.3723 2.1453, -0.8569 -0.4041 2.1457, -0.911 -0.2536 2.1457, -0.8913 -0.3195 2.1457, -0.87 -0.3719 2.1457, -0.6602 -0.6807 2.1457, -0.6608 -0.6813 2.1453, -0.7073 -0.6325 2.1457, -0.7444 -0.5879 2.1453, -0.8145 -0.4849 2.1457, -0.7644 -0.5613 2.1457, -0.7436 -0.5873 2.1457, -0.4605 -0.831 2.1457, -0.4605 -0.831 2.1453, -0.4986 -0.8086 2.1457, -0.5656 -0.7628 2.1453, -0.6435 -0.6978 2.1457, -0.5737 -0.7567 2.1457, -0.5653 -0.7625 2.1457, -0.213 -0.3823 0.0201, -0.2591 -0.5004 0.0201, -0.213 -0.3823 0.0197, -0.2591 -0.5004 0.0197, -0.2418 -0.5004 0.0201, -0.2418 -0.5004 0.0197, -0.2298 -0.4673 0.0201, -0.2298 -0.4673 0.0197, -0.181 -0.4673 0.0201, -0.181 -0.4673 0.0197, -0.1698 -0.5004 0.0201, -0.1698 -0.5004 0.0197, -0.1525 -0.5004 0.0201, -0.1525 -0.5004 0.0197, -0.1971 -0.3823 0.0201, -0.1971 -0.3823 0.0197, -0.185 -0.4543 0.0201, -0.2245 -0.4543 0.0201, -0.2027 -0.405 0.0201, -0.2038 -0.4009 0.0201, -0.2045 -0.3967 0.0201, -0.2049 -0.3967 0.0201, -0.2057 -0.4009 0.0201, -0.2067 -0.405 0.0201, -0.185 -0.4543 0.0197, -0.2245 -0.4543 0.0197, -0.2027 -0.405 0.0197, -0.2038 -0.4009 0.0197, -0.2045 -0.3967 0.0197, -0.2049 -0.3967 0.0197, -0.2057 -0.4009 0.0197, -0.2067 -0.405 0.0197, -0.0809 -0.5004 0.0201, -0.0488 -0.5004 0.0201, -0.0809 -0.5004 0.0197, -0.0488 -0.5004 0.0197, -0.0488 -0.3823 0.0201, -0.0488 -0.3823 0.0197, -0.0821 -0.3823 0.0201, -0.0821 -0.3823 0.0197, -0.1438 -0.4399 0.0201, -0.1438 -0.4399 0.0197, -0.143 -0.4288 0.0197, -0.143 -0.4288 0.0201, -0.1398 -0.4171 0.0197, -0.1398 -0.4171 0.0201, -0.1343 -0.407 0.0197, -0.1343 -0.407 0.0201, -0.126 -0.3977 0.0197, -0.126 -0.3977 0.0201, -0.1258 -0.3976 0.0197, -0.1258 -0.3976 0.0201, -0.113 -0.389 0.0197, -0.113 -0.389 0.0201, -0.0992 -0.3841 0.0197, -0.0992 -0.3841 0.0201, -0.0955 -0.4991 0.0197, -0.0955 -0.4991 0.0201, -0.1091 -0.4951 0.0197, -0.1091 -0.4951 0.0201, -0.1215 -0.4879 0.0197, -0.1215 -0.4879 0.0201, -0.1312 -0.4786 0.0197, -0.1312 -0.4786 0.0201, -0.1379 -0.468 0.0197, -0.1379 -0.468 0.0201, -0.1422 -0.4557 0.0197, -0.1422 -0.4557 0.0201, -0.1201 -0.4118 0.0201, -0.1144 -0.4057 0.0201, -0.1058 -0.4002 0.0201, -0.096 -0.3968 0.0201, -0.082 -0.3953 0.0201, -0.0646 -0.3953 0.0201, -0.0646 -0.4875 0.0201, -0.0814 -0.4875 0.0201, -0.0939 -0.4863 0.0201, -0.1038 -0.4832 0.0201, -0.1118 -0.4784 0.0201, -0.1185 -0.4719 0.0201, -0.1235 -0.4637 0.0201, -0.1269 -0.4526 0.0201, -0.128 -0.4402 0.0201, -0.127 -0.4285 0.0201, -0.1242 -0.4191 0.0201, -0.082 -0.3953 0.0197, -0.0646 -0.3953 0.0197, -0.096 -0.3968 0.0197, -0.1058 -0.4002 0.0197, -0.1144 -0.4057 0.0197, -0.1201 -0.4118 0.0197, -0.1242 -0.4191 0.0197, -0.127 -0.4285 0.0197, -0.128 -0.4402 0.0197, -0.1269 -0.4526 0.0197, -0.1235 -0.4637 0.0197, -0.1185 -0.4719 0.0197, -0.1118 -0.4784 0.0197, -0.1038 -0.4832 0.0197, -0.0939 -0.4863 0.0197, -0.0814 -0.4875 0.0197, -0.0646 -0.4875 0.0197, -0.0257 -0.4875 0.0201, -0.0257 -0.5004 0.0201, -0.0257 -0.4875 0.0197, -0.0257 -0.5004 0.0197, 0.0376 -0.5004 0.0201, 0.0376 -0.5004 0.0197, 0.0376 -0.3823 0.0201, 0.0376 -0.3823 0.0197, -0.0229 -0.3823 0.0201, -0.0229 -0.3823 0.0197, -0.0229 -0.3953 0.0201, -0.0229 -0.3953 0.0197, 0.0218 -0.3953 0.0201, 0.0218 -0.3953 0.0197, 0.0218 -0.4342 0.0201, 0.0218 -0.4342 0.0197, -0.02 -0.4342 0.0201, -0.02 -0.4342 0.0197, -0.02 -0.4471 0.0201, -0.02 -0.4471 0.0197, 0.0218 -0.4471 0.0201, 0.0218 -0.4471 0.0197, 0.0218 -0.4875 0.0201, 0.0218 -0.4875 0.0197, 0.0607 -0.4813 0.0201, 0.0607 -0.4943 0.0201, 0.0607 -0.4813 0.0197, 0.0607 -0.4943 0.0197, 0.0733 -0.4995 0.0201, 0.0932 -0.5019 0.0201, 0.0932 -0.5019 0.0197, 0.09 -0.5018 0.0197, 0.09 -0.5018 0.0201, 0.0852 -0.5011 0.0197, 0.0733 -0.4995 0.0197, 0.1001 -0.5011 0.0197, 0.1077 -0.5004 0.0201, 0.1077 -0.5004 0.0197, 0.1192 -0.4964 0.0201, 0.1192 -0.4964 0.0197, 0.1287 -0.4903 0.0201, 0.1287 -0.4903 0.0197, 0.1376 -0.481 0.0201, 0.1376 -0.481 0.0197, 0.1439 -0.4698 0.0201, 0.1439 -0.4698 0.0197, 0.1474 -0.4573 0.0201, 0.1474 -0.4573 0.0197, 0.1486 -0.4436 0.0201, 0.1486 -0.4436 0.0197, 0.0885 -0.3809 0.0201, 0.0885 -0.3809 0.0197, 0.1003 -0.3818 0.0197, 0.1003 -0.3818 0.0201, 0.1135 -0.3857 0.0197, 0.1135 -0.3857 0.0201, 0.1247 -0.3921 0.0197, 0.1247 -0.3921 0.0201, 0.1354 -0.4024 0.0197, 0.1354 -0.4024 0.0201, 0.1423 -0.4134 0.0197, 0.1423 -0.4134 0.0201, 0.1469 -0.4268 0.0197, 0.1469 -0.4268 0.0201, 0.0607 -0.3855 0.0201, 0.0607 -0.3855 0.0197, 0.0743 -0.3818 0.0197, 0.0743 -0.3818 0.0201, 0.0607 -0.4014 0.0201, 0.0607 -0.4014 0.0197, 0.0883 -0.3938 0.0201, 0.0883 -0.3938 0.0197, 0.074 -0.3957 0.0197, 0.074 -0.3957 0.0201, 0.1327 -0.4426 0.0201, 0.1327 -0.4426 0.0197, 0.1321 -0.4334 0.0197, 0.1321 -0.4334 0.0201, 0.129 -0.4208 0.0197, 0.129 -0.4208 0.0201, 0.1241 -0.4117 0.0197, 0.1241 -0.4117 0.0201, 0.117 -0.4038 0.0197, 0.117 -0.4038 0.0201, 0.1088 -0.3983 0.0197, 0.1088 -0.3983 0.0201, 0.1 -0.3951 0.0197, 0.1 -0.3951 0.0201, 0.091 -0.4889 0.0201, 0.091 -0.4889 0.0197, 0.102 -0.4877 0.0197, 0.102 -0.4877 0.0201, 0.1106 -0.4845 0.0197, 0.1106 -0.4845 0.0201, 0.1179 -0.4796 0.0197, 0.1179 -0.4796 0.0201, 0.1234 -0.4738 0.0197, 0.1234 -0.4738 0.0201, 0.1283 -0.4656 0.0197, 0.1283 -0.4656 0.0201, 0.1315 -0.4554 0.0197, 0.1315 -0.4554 0.0201, 0.0628 -0.4825 0.0197, 0.0628 -0.4825 0.0201, 0.0753 -0.4872 0.0197, 0.0753 -0.4872 0.0201, 0.1586 -0.4875 0.0201, 0.1586 -0.5004 0.0201, 0.1586 -0.4875 0.0197, 0.1586 -0.5004 0.0197, 0.2191 -0.5004 0.0201, 0.2191 -0.5004 0.0197, 0.2191 -0.3823 0.0201, 0.2191 -0.3823 0.0197, 0.2033 -0.3823 0.0201, 0.2033 -0.3823 0.0197, 0.2033 -0.4875 0.0201, 0.2033 -0.4875 0.0197
            ]
        }
        coordIndex [
            0,1,2,-1,2,1,3,-1,2,3,4,-1,0,5,1,-1,1,5,6,-1,1,6,7,-1,8,9,10,-1,8,10,11,-1,6,12,7,-1,7,12,13,-1,7,13,10,-1,10,13,14,-1,10,14,11,-1,15,16,17,-1,17,16,18,-1,8,19,9,-1,9,19,20,-1,9,20,18,-1,18,20,21,-1,18,21,17,-1,15,22,16,-1,16,22,23,-1,16,23,24,-1,25,26,27,-1,25,27,28,-1,23,29,24,-1,24,29,30,-1,24,30,27,-1,27,30,31,-1,27,31,28,-1,25,32,26,-1,26,32,33,-1,26,33,34,-1,35,36,37,-1,35,37,38,-1,33,39,34,-1,34,39,40,-1,34,40,37,-1,37,40,41,-1,37,41,38,-1,42,43,44,-1,44,43,45,-1,35,46,36,-1,36,46,47,-1,36,47,45,-1,45,47,48,-1,45,48,44,-1,49,50,51,-1,51,50,52,-1,42,53,43,-1,43,53,54,-1,43,54,52,-1,52,54,55,-1,52,55,51,-1,3,50,4,-1,4,50,49,-1,3,1,50,-1,50,1,7,-1,50,7,10,-1,10,9,50,-1,50,9,18,-1,50,18,16,-1,16,24,50,-1,50,24,27,-1,50,27,52,-1,26,34,45,-1,45,34,37,-1,45,37,36,-1,26,45,27,-1,27,45,43,-1,27,43,52,-1,56,57,58,-1,58,57,59,-1,57,60,59,-1,59,60,61,-1,60,62,61,-1,61,62,63,-1,62,64,63,-1,63,64,65,-1,64,66,65,-1,65,66,67,-1,66,68,67,-1,67,68,69,-1,68,70,69,-1,69,70,71,-1,70,56,71,-1,71,56,58,-1,72,64,73,-1,73,64,62,-1,74,70,72,-1,72,70,68,-1,72,68,64,-1,64,68,66,-1,74,75,70,-1,70,75,76,-1,70,76,56,-1,56,76,77,-1,56,77,78,-1,78,79,56,-1,56,79,73,-1,56,73,57,-1,57,73,62,-1,57,62,60,-1,72,73,80,-1,80,73,81,-1,74,72,82,-1,82,72,80,-1,74,82,83,-1,74,83,75,-1,75,83,84,-1,75,84,76,-1,77,76,85,-1,85,76,84,-1,77,85,86,-1,77,86,78,-1,78,86,87,-1,78,87,79,-1,73,79,81,-1,81,79,87,-1,88,89,90,-1,90,89,91,-1,89,92,91,-1,91,92,93,-1,92,94,93,-1,93,94,95,-1,96,97,98,-1,96,98,99,-1,99,98,100,-1,99,100,101,-1,101,100,102,-1,101,102,103,-1,103,102,104,-1,103,104,105,-1,105,104,106,-1,105,106,107,-1,107,106,108,-1,107,108,109,-1,109,108,110,-1,109,110,111,-1,111,110,95,-1,111,95,94,-1,88,90,112,-1,88,112,113,-1,113,112,114,-1,113,114,115,-1,115,114,116,-1,115,116,117,-1,117,116,118,-1,117,118,119,-1,119,118,120,-1,119,120,121,-1,121,120,122,-1,121,122,123,-1,123,122,97,-1,123,97,96,-1,101,103,124,-1,124,103,105,-1,124,105,125,-1,125,105,107,-1,125,107,126,-1,126,107,109,-1,126,109,127,-1,127,109,111,-1,127,111,128,-1,128,111,94,-1,128,94,129,-1,129,94,92,-1,129,92,130,-1,130,92,89,-1,130,89,131,-1,131,89,88,-1,131,88,132,-1,132,88,113,-1,132,113,133,-1,133,113,115,-1,133,115,134,-1,134,115,117,-1,134,117,135,-1,135,117,119,-1,135,119,136,-1,136,119,121,-1,136,121,137,-1,137,121,123,-1,137,123,138,-1,138,123,96,-1,138,96,139,-1,139,96,99,-1,139,99,140,-1,140,99,101,-1,140,101,124,-1,128,129,141,-1,141,129,142,-1,128,141,143,-1,128,143,127,-1,127,143,144,-1,127,144,126,-1,126,144,145,-1,126,145,125,-1,125,145,146,-1,125,146,124,-1,124,146,147,-1,124,147,140,-1,140,147,148,-1,140,148,139,-1,139,148,149,-1,139,149,138,-1,138,149,150,-1,138,150,137,-1,137,150,151,-1,137,151,136,-1,136,151,152,-1,136,152,135,-1,135,152,153,-1,135,153,134,-1,134,153,154,-1,134,154,133,-1,133,154,155,-1,133,155,132,-1,132,155,156,-1,132,156,131,-1,130,131,157,-1,157,131,156,-1,129,130,142,-1,142,130,157,-1,158,159,160,-1,160,159,161,-1,159,162,161,-1,161,162,163,-1,162,164,163,-1,163,164,165,-1,164,166,165,-1,165,166,167,-1,166,168,167,-1,167,168,169,-1,168,170,169,-1,169,170,171,-1,170,172,171,-1,171,172,173,-1,172,174,173,-1,173,174,175,-1,174,176,175,-1,175,176,177,-1,176,178,177,-1,177,178,179,-1,178,180,179,-1,179,180,181,-1,180,158,181,-1,181,158,160,-1,162,159,158,-1,158,180,162,-1,162,180,178,-1,162,178,164,-1,168,166,170,-1,170,166,164,-1,170,164,172,-1,172,164,178,-1,172,178,174,-1,174,178,176,-1,182,183,184,-1,184,183,185,-1,185,183,186,-1,187,188,189,-1,187,189,190,-1,190,189,191,-1,190,191,186,-1,186,191,192,-1,186,192,185,-1,188,187,193,-1,193,187,194,-1,193,194,195,-1,195,194,196,-1,195,196,197,-1,197,196,198,-1,197,198,199,-1,199,198,200,-1,199,200,201,-1,201,200,202,-1,201,202,203,-1,203,202,204,-1,203,204,205,-1,205,204,206,-1,205,206,207,-1,208,209,210,-1,208,210,211,-1,211,210,212,-1,211,212,213,-1,213,212,214,-1,213,214,215,-1,215,214,216,-1,215,216,217,-1,217,216,218,-1,217,218,219,-1,219,218,220,-1,219,220,221,-1,221,220,207,-1,221,207,206,-1,222,223,224,-1,222,224,225,-1,225,224,209,-1,225,209,208,-1,222,226,223,-1,223,226,227,-1,228,229,230,-1,228,230,231,-1,231,230,227,-1,231,227,226,-1,232,233,234,-1,232,234,235,-1,235,234,236,-1,235,236,237,-1,237,236,238,-1,237,238,239,-1,239,238,240,-1,239,240,241,-1,241,240,242,-1,241,242,243,-1,243,242,244,-1,243,244,245,-1,245,244,229,-1,245,229,228,-1,246,247,248,-1,246,248,249,-1,249,248,250,-1,249,250,251,-1,251,250,252,-1,251,252,253,-1,253,252,254,-1,253,254,255,-1,255,254,256,-1,255,256,257,-1,257,256,258,-1,257,258,259,-1,259,258,233,-1,259,233,232,-1,182,184,260,-1,182,260,261,-1,261,260,262,-1,261,262,263,-1,263,262,247,-1,263,247,246,-1,249,187,246,-1,246,187,190,-1,246,190,263,-1,263,190,186,-1,263,186,261,-1,261,186,183,-1,261,183,182,-1,226,222,231,-1,231,222,225,-1,231,225,228,-1,228,225,208,-1,228,208,245,-1,245,208,211,-1,245,211,243,-1,243,211,213,-1,243,213,241,-1,241,213,215,-1,241,215,239,-1,239,215,217,-1,239,217,237,-1,237,217,219,-1,237,219,235,-1,235,219,221,-1,235,221,232,-1,232,221,206,-1,232,206,259,-1,259,206,204,-1,259,204,257,-1,257,204,202,-1,257,202,255,-1,255,202,200,-1,255,200,253,-1,253,200,198,-1,253,198,251,-1,251,198,196,-1,251,196,249,-1,249,196,194,-1,249,194,187,-1,264,265,266,-1,266,265,267,-1,265,268,267,-1,267,268,269,-1,268,270,269,-1,269,270,271,-1,270,272,271,-1,271,272,273,-1,272,274,273,-1,273,274,275,-1,274,264,275,-1,275,264,266,-1,272,270,274,-1,274,270,268,-1,274,268,264,-1,264,268,265,-1,
        ]
    }
}
Shape{
    appearance Appearance {
        material  Material 	{
            diffuseColor 0.25098039215686274 0.25098039215686274 0.25098039215686274
            specularColor 0.12549019607843137 0.12549019607843137 0.12549019607843137
            ambientIntensity 0.251
            transparency 0.0
            shininess 0.5
        }
    }
    geometry IndexedFaceSet {
        ccw TRUE
        solid FALSE
        coord DEF co Coordinate {
            point [
                -0.185 -0.4543 0.0197, -0.2245 -0.4543 0.0197, -0.2027 -0.405 0.0197, -0.2067 -0.405 0.0197, -0.2038 -0.4009 0.0197, -0.2057 -0.4009 0.0197, -0.2045 -0.3967 0.0197, -0.2049 -0.3967 0.0197, -0.0646 -0.3953 0.0197, -0.0646 -0.4875 0.0197, -0.082 -0.3953 0.0197, -0.0814 -0.4875 0.0197, -0.0939 -0.4863 0.0197, -0.128 -0.4402 0.0197, -0.127 -0.4285 0.0197, -0.1242 -0.4191 0.0197, -0.096 -0.3968 0.0197, -0.1038 -0.4832 0.0197, -0.1118 -0.4784 0.0197, -0.1185 -0.4719 0.0197, -0.1235 -0.4637 0.0197, -0.1269 -0.4526 0.0197, -0.1201 -0.4118 0.0197, -0.1144 -0.4057 0.0197, -0.1058 -0.4002 0.0197
            ]
        }
        coordIndex [
            0,1,2,-1,2,1,3,-1,2,3,4,-1,4,3,5,-1,4,5,6,-1,6,5,7,-1,8,9,10,-1,10,9,11,-1,10,11,12,-1,13,14,10,-1,10,14,15,-1,10,15,16,-1,12,17,10,-1,10,17,18,-1,10,18,19,-1,19,20,10,-1,10,20,21,-1,10,21,13,-1,22,23,15,-1,15,23,24,-1,15,24,16,-1,
        ]
    }
}