%TF.GenerationSoftware,KiCad,Pcbnew,10.0.6*%
%TF.CreationDate,2026-09-07T19:52:13+08:00*%
%TF.ProjectId,sms_forwarder_ml307a,736d735f-666f-4727-9761-726465725f6d,rev?*%
%TF.SameCoordinates,Original*%
%TF.FileFunction,Copper,L1,Top*%
%TF.FilePolarity,Positive*%
%FSLAX46Y46*%
G04 Gerber Fmt 4.6, Leading zero omitted, Abs format (unit mm)*
G04 Created by KiCad (PCBNEW 10.0.6) date 2026-09-07 19:52:13*
%MOMM*%
%LPD*%
G01*
G04 APERTURE LIST*
G04 Aperture macros list*
%AMRoundRect*
0 Rectangle with rounded corners*
0 $1 Rounding radius*
0 $2 $3 $4 $5 $6 $7 $8 $9 X,Y pos of 4 corners*
0 Add a 4 corners polygon primitive as box body*
4,1,4,$2,$3,$4,$5,$6,$7,$8,$9,$2,$3,0*
0 Add four circle primitives for the rounded corners*
1,1,$1+$1,$2,$3*
1,1,$1+$1,$4,$5*
1,1,$1+$1,$6,$7*
1,1,$1+$1,$8,$9*
0 Add four rect primitives between the rounded corners*
20,1,$1+$1,$2,$3,$4,$5,0*
20,1,$1+$1,$4,$5,$6,$7,0*
20,1,$1+$1,$6,$7,$8,$9,0*
20,1,$1+$1,$8,$9,$2,$3,0*%
G04 Aperture macros list end*
%TA.AperFunction,SMDPad,CuDef*%
%ADD10RoundRect,0.140000X-0.140000X-0.170000X0.140000X-0.170000X0.140000X0.170000X-0.140000X0.170000X0*%
%TD*%
%TA.AperFunction,SMDPad,CuDef*%
%ADD11RoundRect,0.135000X0.185000X-0.135000X0.185000X0.135000X-0.185000X0.135000X-0.185000X-0.135000X0*%
%TD*%
%TA.AperFunction,SMDPad,CuDef*%
%ADD12RoundRect,0.135000X-0.135000X-0.185000X0.135000X-0.185000X0.135000X0.185000X-0.135000X0.185000X0*%
%TD*%
%TA.AperFunction,SMDPad,CuDef*%
%ADD13RoundRect,0.140000X0.170000X-0.140000X0.170000X0.140000X-0.170000X0.140000X-0.170000X-0.140000X0*%
%TD*%
%TA.AperFunction,SMDPad,CuDef*%
%ADD14R,1.000000X1.250000*%
%TD*%
%TA.AperFunction,SMDPad,CuDef*%
%ADD15RoundRect,0.250000X0.475000X-0.250000X0.475000X0.250000X-0.475000X0.250000X-0.475000X-0.250000X0*%
%TD*%
%TA.AperFunction,SMDPad,CuDef*%
%ADD16RoundRect,0.225000X0.250000X-0.225000X0.250000X0.225000X-0.250000X0.225000X-0.250000X-0.225000X0*%
%TD*%
%TA.AperFunction,ComponentPad*%
%ADD17C,1.600000*%
%TD*%
%TA.AperFunction,ComponentPad*%
%ADD18C,3.400000*%
%TD*%
%TA.AperFunction,SMDPad,CuDef*%
%ADD19R,2.200000X1.100000*%
%TD*%
%TA.AperFunction,SMDPad,CuDef*%
%ADD20R,1.500000X1.100000*%
%TD*%
%TA.AperFunction,SMDPad,CuDef*%
%ADD21R,1.190000X1.728000*%
%TD*%
%TA.AperFunction,SMDPad,CuDef*%
%ADD22R,1.100000X2.200000*%
%TD*%
%TA.AperFunction,SMDPad,CuDef*%
%ADD23R,1.100000X1.500000*%
%TD*%
%TA.AperFunction,SMDPad,CuDef*%
%ADD24RoundRect,0.218750X0.256250X-0.218750X0.256250X0.218750X-0.256250X0.218750X-0.256250X-0.218750X0*%
%TD*%
%TA.AperFunction,SMDPad,CuDef*%
%ADD25RoundRect,0.250000X0.300000X-0.300000X0.300000X0.300000X-0.300000X0.300000X-0.300000X-0.300000X0*%
%TD*%
%TA.AperFunction,SMDPad,CuDef*%
%ADD26R,0.700000X1.800000*%
%TD*%
%TA.AperFunction,SMDPad,CuDef*%
%ADD27R,1.800000X0.700000*%
%TD*%
%TA.AperFunction,SMDPad,CuDef*%
%ADD28R,0.700000X1.000000*%
%TD*%
%TA.AperFunction,SMDPad,CuDef*%
%ADD29R,1.000000X0.700000*%
%TD*%
%TA.AperFunction,SMDPad,CuDef*%
%ADD30R,1.300000X1.300000*%
%TD*%
%TA.AperFunction,SMDPad,CuDef*%
%ADD31R,0.980000X2.860000*%
%TD*%
%TA.AperFunction,SMDPad,CuDef*%
%ADD32O,0.574000X2.038000*%
%TD*%
%TA.AperFunction,ComponentPad*%
%ADD33C,0.700000*%
%TD*%
%TA.AperFunction,SMDPad,CuDef*%
%ADD34R,2.000000X2.000000*%
%TD*%
%TA.AperFunction,SMDPad,CuDef*%
%ADD35R,3.200000X2.400000*%
%TD*%
%TA.AperFunction,SMDPad,CuDef*%
%ADD36R,0.622000X1.105000*%
%TD*%
%TA.AperFunction,SMDPad,CuDef*%
%ADD37O,0.905000X0.280000*%
%TD*%
%TA.AperFunction,ViaPad*%
%ADD38C,0.800000*%
%TD*%
%TA.AperFunction,ViaPad*%
%ADD39C,0.600000*%
%TD*%
%TA.AperFunction,ViaPad*%
%ADD40C,1.000000*%
%TD*%
%TA.AperFunction,Conductor*%
%ADD41C,0.800000*%
%TD*%
%TA.AperFunction,Conductor*%
%ADD42C,0.150000*%
%TD*%
%TA.AperFunction,Conductor*%
%ADD43C,0.250000*%
%TD*%
%TA.AperFunction,Conductor*%
%ADD44C,0.200000*%
%TD*%
%TA.AperFunction,Conductor*%
%ADD45C,0.380000*%
%TD*%
%TA.AperFunction,Conductor*%
%ADD46C,0.699800*%
%TD*%
%TA.AperFunction,Conductor*%
%ADD47C,1.500000*%
%TD*%
%TA.AperFunction,Conductor*%
%ADD48C,0.560800*%
%TD*%
%TA.AperFunction,Conductor*%
%ADD49C,0.540800*%
%TD*%
G04 APERTURE END LIST*
D10*
%TO.P,C10,1*%
%TO.N,+5V*%
X107520000Y-105000000D03*
%TO.P,C10,2*%
%TO.N,GND*%
X108480000Y-105000000D03*
%TD*%
D11*
%TO.P,R5,1*%
%TO.N,+3V3*%
X101000000Y-108510000D03*
%TO.P,R5,2*%
%TO.N,LED_A*%
X101000000Y-107490000D03*
%TD*%
%TO.P,R12,1*%
%TO.N,SIM_VCC_M*%
X128000000Y-79510000D03*
%TO.P,R12,2*%
%TO.N,SIM_VCC*%
X128000000Y-78490000D03*
%TD*%
D10*
%TO.P,C16,1*%
%TO.N,+3V3*%
X129520000Y-75000000D03*
%TO.P,C16,2*%
%TO.N,GND*%
X130480000Y-75000000D03*
%TD*%
%TO.P,C8,1*%
%TO.N,BUCK_BS*%
X100320000Y-100000000D03*
%TO.P,C8,2*%
%TO.N,BUCK_LX*%
X101280000Y-100000000D03*
%TD*%
D12*
%TO.P,R2,1*%
%TO.N,BUCK_FB*%
X111490000Y-98000000D03*
%TO.P,R2,2*%
%TO.N,GND*%
X112510000Y-98000000D03*
%TD*%
D13*
%TO.P,C19,1*%
%TO.N,SIM_DATA*%
X122000000Y-88480000D03*
%TO.P,C19,2*%
%TO.N,GND*%
X122000000Y-87520000D03*
%TD*%
D10*
%TO.P,C25,1*%
%TO.N,GNSS_CONN*%
X106020000Y-80500000D03*
%TO.P,C25,2*%
%TO.N,GND*%
X106980000Y-80500000D03*
%TD*%
D14*
%TO.P,SW2,1*%
%TO.N,ESP_BOOT*%
X100500000Y-123875000D03*
%TO.P,SW2,2*%
%TO.N,GND*%
X100500000Y-116125000D03*
%TD*%
D15*
%TO.P,C3,1*%
%TO.N,+3V8_MODEM*%
X109500000Y-89450000D03*
%TO.P,C3,2*%
%TO.N,GND*%
X109500000Y-87550000D03*
%TD*%
D12*
%TO.P,R3,1*%
%TO.N,+3V3*%
X108490000Y-113000000D03*
%TO.P,R3,2*%
%TO.N,ESP_EN*%
X109510000Y-113000000D03*
%TD*%
D10*
%TO.P,C7,1*%
%TO.N,+3V8_MODEM*%
X108520000Y-100000000D03*
%TO.P,C7,2*%
%TO.N,BUCK_FB*%
X109480000Y-100000000D03*
%TD*%
D13*
%TO.P,C14,1*%
%TO.N,+3V3*%
X132000000Y-121980000D03*
%TO.P,C14,2*%
%TO.N,GND*%
X132000000Y-121020000D03*
%TD*%
D12*
%TO.P,R15,1*%
%TO.N,GNSS_CONN*%
X104990000Y-82500000D03*
%TO.P,R15,2*%
%TO.N,GNSS_ANT*%
X106010000Y-82500000D03*
%TD*%
D14*
%TO.P,SW1,1*%
%TO.N,ESP_EN*%
X105000000Y-123875000D03*
%TO.P,SW1,2*%
%TO.N,GND*%
X105000000Y-116125000D03*
%TD*%
D11*
%TO.P,R11,1*%
%TO.N,SIM_CLK_M*%
X126000000Y-79510000D03*
%TO.P,R11,2*%
%TO.N,SIM_CLK*%
X126000000Y-78490000D03*
%TD*%
D16*
%TO.P,C11,1*%
%TO.N,+5V*%
X126000000Y-116775000D03*
%TO.P,C11,2*%
%TO.N,GND*%
X126000000Y-115225000D03*
%TD*%
D11*
%TO.P,R9,1*%
%TO.N,SIM_DATA_M*%
X122000000Y-79510000D03*
%TO.P,R9,2*%
%TO.N,SIM_DATA*%
X122000000Y-78490000D03*
%TD*%
D10*
%TO.P,C15,1*%
%TO.N,ESP_EN*%
X108520000Y-115000000D03*
%TO.P,C15,2*%
%TO.N,GND*%
X109480000Y-115000000D03*
%TD*%
D12*
%TO.P,R4,1*%
%TO.N,+3V3*%
X104490000Y-110000000D03*
%TO.P,R4,2*%
%TO.N,ESP_BOOT*%
X105510000Y-110000000D03*
%TD*%
D11*
%TO.P,R16,1*%
%TO.N,USB_DM_PRE*%
X113000000Y-119510000D03*
%TO.P,R16,2*%
%TO.N,USB_DM*%
X113000000Y-118490000D03*
%TD*%
D16*
%TO.P,C12,1*%
%TO.N,+3V3*%
X132000000Y-119275000D03*
%TO.P,C12,2*%
%TO.N,GND*%
X132000000Y-117725000D03*
%TD*%
D11*
%TO.P,R14,1*%
%TO.N,LTE_CONN*%
X110000000Y-57510000D03*
%TO.P,R14,2*%
%TO.N,LTE_ANT*%
X110000000Y-56490000D03*
%TD*%
D15*
%TO.P,C2,1*%
%TO.N,+5V*%
X110000000Y-108950000D03*
%TO.P,C2,2*%
%TO.N,GND*%
X110000000Y-107050000D03*
%TD*%
D12*
%TO.P,R8,1*%
%TO.N,MODEM_EN*%
X107490000Y-111000000D03*
%TO.P,R8,2*%
%TO.N,GND*%
X108510000Y-111000000D03*
%TD*%
D17*
%TO.P,J1,1*%
%TO.N,+5V_RAW*%
X120500000Y-125500000D03*
%TO.P,J1,2*%
%TO.N,USB_CONN_DM*%
X118000000Y-125500000D03*
%TO.P,J1,3*%
%TO.N,USB_CONN_DP*%
X116000000Y-125500000D03*
%TO.P,J1,4*%
%TO.N,GND*%
X113500000Y-125500000D03*
D18*
%TO.P,J1,MH1*%
X123000000Y-127500000D03*
%TO.P,J1,MH2*%
X111000000Y-127500000D03*
%TD*%
D13*
%TO.P,C13,1*%
%TO.N,+5V*%
X126000000Y-119480000D03*
%TO.P,C13,2*%
%TO.N,GND*%
X126000000Y-118520000D03*
%TD*%
D11*
%TO.P,R13,1*%
%TO.N,SIM_VCC*%
X131000000Y-87510000D03*
%TO.P,R13,2*%
%TO.N,SIM_DATA*%
X131000000Y-86490000D03*
%TD*%
D19*
%TO.P,J3,1*%
%TO.N,GND*%
X110620000Y-51500000D03*
D20*
%TO.P,J3,2*%
%TO.N,LTE_CONN*%
X109380000Y-53000000D03*
D19*
%TO.P,J3,3*%
%TO.N,GND*%
X110620000Y-54500000D03*
%TD*%
D10*
%TO.P,C18,1*%
%TO.N,+1V8_MODEM*%
X129520000Y-61000000D03*
%TO.P,C18,2*%
%TO.N,GND*%
X130480000Y-61000000D03*
%TD*%
D13*
%TO.P,C23,1*%
%TO.N,LTE_CONN*%
X108500000Y-58480000D03*
%TO.P,C23,2*%
%TO.N,GND*%
X108500000Y-57520000D03*
%TD*%
D21*
%TO.P,F1,1*%
%TO.N,+5V_RAW*%
X126050000Y-127000000D03*
%TO.P,F1,2*%
%TO.N,+5V*%
X128950000Y-127000000D03*
%TD*%
D22*
%TO.P,J4,1*%
%TO.N,GND*%
X100000000Y-81880000D03*
D23*
%TO.P,J4,2*%
%TO.N,GNSS_CONN*%
X101500000Y-83120000D03*
D22*
%TO.P,J4,3*%
%TO.N,GND*%
X103000000Y-81880000D03*
%TD*%
D24*
%TO.P,D2,1*%
%TO.N,LED_CTRL*%
X101000000Y-106287500D03*
%TO.P,D2,2*%
%TO.N,LED_A*%
X101000000Y-104712500D03*
%TD*%
D25*
%TO.P,D1,1*%
%TO.N,GND*%
X133000000Y-128400000D03*
%TO.P,D1,2*%
%TO.N,+5V*%
X133000000Y-125600000D03*
%TD*%
D11*
%TO.P,R17,1*%
%TO.N,USB_DP_PRE*%
X121000000Y-119510000D03*
%TO.P,R17,2*%
%TO.N,USB_DP*%
X121000000Y-118490000D03*
%TD*%
D26*
%TO.P,U2,1*%
%TO.N,GND*%
X110400000Y-76500000D03*
%TO.P,U2,2*%
%TO.N,GNSS_ANT*%
X111500000Y-76500000D03*
%TO.P,U2,3*%
%TO.N,N/C*%
X112600000Y-76500000D03*
%TO.P,U2,4*%
X113700000Y-76500000D03*
%TO.P,U2,5*%
X114800000Y-76500000D03*
%TO.P,U2,6*%
X115900000Y-76500000D03*
%TO.P,U2,7*%
%TO.N,MODEM_PWRKEY*%
X117000000Y-76500000D03*
%TO.P,U2,8*%
%TO.N,N/C*%
X118100000Y-76500000D03*
%TO.P,U2,9*%
X119200000Y-76500000D03*
%TO.P,U2,10*%
%TO.N,GND*%
X120300000Y-76500000D03*
%TO.P,U2,11*%
%TO.N,SIM_DATA_M*%
X121400000Y-76500000D03*
%TO.P,U2,12*%
%TO.N,SIM_RST_M*%
X122500000Y-76500000D03*
%TO.P,U2,13*%
%TO.N,SIM_CLK_M*%
X123600000Y-76500000D03*
D27*
%TO.P,U2,14*%
%TO.N,SIM_VCC_M*%
X125450000Y-73400000D03*
%TO.P,U2,15*%
%TO.N,N/C*%
X125450000Y-72300000D03*
%TO.P,U2,16*%
X125450000Y-71200000D03*
%TO.P,U2,17*%
%TO.N,MODEM_RX_1V8*%
X125450000Y-70100000D03*
%TO.P,U2,18*%
%TO.N,MODEM_TX_1V8*%
X125450000Y-69000000D03*
%TO.P,U2,19*%
%TO.N,N/C*%
X125450000Y-67900000D03*
%TO.P,U2,20*%
X125450000Y-66800000D03*
%TO.P,U2,21*%
X125450000Y-65700000D03*
%TO.P,U2,22*%
X125450000Y-64600000D03*
D26*
%TO.P,U2,23*%
X123600000Y-61500000D03*
%TO.P,U2,24*%
%TO.N,+1V8_MODEM*%
X122500000Y-61500000D03*
%TO.P,U2,25*%
%TO.N,N/C*%
X121400000Y-61500000D03*
%TO.P,U2,26*%
X120300000Y-61500000D03*
%TO.P,U2,27*%
%TO.N,GND*%
X119200000Y-61500000D03*
%TO.P,U2,28*%
%TO.N,N/C*%
X118100000Y-61500000D03*
%TO.P,U2,29*%
X117000000Y-61500000D03*
%TO.P,U2,30*%
X115900000Y-61500000D03*
%TO.P,U2,31*%
X114800000Y-61500000D03*
%TO.P,U2,32*%
X113700000Y-61500000D03*
%TO.P,U2,33*%
X112600000Y-61500000D03*
%TO.P,U2,34*%
%TO.N,GND*%
X111500000Y-61500000D03*
%TO.P,U2,35*%
%TO.N,LTE_ANT*%
X110400000Y-61500000D03*
D27*
%TO.P,U2,36*%
%TO.N,GND*%
X108550000Y-64600000D03*
%TO.P,U2,37*%
X108550000Y-65700000D03*
%TO.P,U2,38*%
%TO.N,N/C*%
X108550000Y-66800000D03*
%TO.P,U2,39*%
X108550000Y-67900000D03*
%TO.P,U2,40*%
%TO.N,GND*%
X108550000Y-69000000D03*
%TO.P,U2,41*%
X108550000Y-70100000D03*
%TO.P,U2,42*%
%TO.N,+3V8_MODEM*%
X108550000Y-71200000D03*
%TO.P,U2,43*%
X108550000Y-72300000D03*
%TO.P,U2,44*%
%TO.N,N/C*%
X108550000Y-73400000D03*
D28*
%TO.P,U2,45*%
%TO.N,GND*%
X112200000Y-74000000D03*
%TO.P,U2,46*%
X113400000Y-74000000D03*
%TO.P,U2,47*%
X114600000Y-74000000D03*
%TO.P,U2,48*%
X115800000Y-74000000D03*
%TO.P,U2,49*%
%TO.N,N/C*%
X117000000Y-74000000D03*
%TO.P,U2,50*%
X118200000Y-74000000D03*
%TO.P,U2,51*%
X119400000Y-74000000D03*
%TO.P,U2,52*%
X120600000Y-74000000D03*
%TO.P,U2,53*%
X121800000Y-74000000D03*
D29*
%TO.P,U2,54*%
X122950000Y-71400000D03*
%TO.P,U2,55*%
X122950000Y-70200000D03*
%TO.P,U2,56*%
X122950000Y-69000000D03*
%TO.P,U2,57*%
X122950000Y-67800000D03*
%TO.P,U2,58*%
X122950000Y-66600000D03*
D28*
%TO.P,U2,59*%
X121800000Y-64000000D03*
%TO.P,U2,60*%
X120600000Y-64000000D03*
%TO.P,U2,61*%
X119400000Y-64000000D03*
%TO.P,U2,62*%
X118200000Y-64000000D03*
%TO.P,U2,63*%
X117000000Y-64000000D03*
%TO.P,U2,64*%
X115800000Y-64000000D03*
%TO.P,U2,65*%
X114600000Y-64000000D03*
%TO.P,U2,66*%
X113400000Y-64000000D03*
%TO.P,U2,67*%
X112200000Y-64000000D03*
D29*
%TO.P,U2,68*%
X111050000Y-66600000D03*
%TO.P,U2,69*%
X111050000Y-67800000D03*
%TO.P,U2,70*%
%TO.N,GND*%
X111050000Y-69000000D03*
%TO.P,U2,71*%
X111050000Y-70200000D03*
%TO.P,U2,72*%
X111050000Y-71400000D03*
D28*
%TO.P,U2,73*%
X112800000Y-72200000D03*
%TO.P,U2,74*%
%TO.N,N/C*%
X114000000Y-72200000D03*
%TO.P,U2,75*%
X115200000Y-72200000D03*
%TO.P,U2,76*%
X116400000Y-72200000D03*
%TO.P,U2,77*%
X117600000Y-72200000D03*
%TO.P,U2,78*%
X118800000Y-72200000D03*
%TO.P,U2,79*%
X120000000Y-72200000D03*
%TO.P,U2,80*%
X121200000Y-72200000D03*
%TO.P,U2,81*%
X121200000Y-65800000D03*
%TO.P,U2,82*%
X120000000Y-65800000D03*
%TO.P,U2,83*%
X118800000Y-65800000D03*
%TO.P,U2,84*%
X117600000Y-65800000D03*
%TO.P,U2,85*%
X116400000Y-65800000D03*
%TO.P,U2,86*%
X115200000Y-65800000D03*
%TO.P,U2,87*%
X114000000Y-65800000D03*
%TO.P,U2,88*%
%TO.N,GND*%
X112800000Y-65800000D03*
D30*
%TO.P,U2,89*%
X115200000Y-69900000D03*
%TO.P,U2,90*%
X117000000Y-69900000D03*
%TO.P,U2,91*%
X118800000Y-69900000D03*
%TO.P,U2,92*%
X118800000Y-68100000D03*
%TO.P,U2,93*%
X117000000Y-68100000D03*
%TO.P,U2,94*%
X115200000Y-68100000D03*
%TD*%
D31*
%TO.P,C5,1*%
%TO.N,+3V8_MODEM*%
X102500000Y-69520000D03*
%TO.P,C5,2*%
%TO.N,GND*%
X102500000Y-65480000D03*
%TD*%
D13*
%TO.P,C20,1*%
%TO.N,SIM_RST*%
X124000000Y-88480000D03*
%TO.P,C20,2*%
%TO.N,GND*%
X124000000Y-87520000D03*
%TD*%
D10*
%TO.P,C9,1*%
%TO.N,BUCK_SS*%
X107520000Y-108000000D03*
%TO.P,C9,2*%
%TO.N,GND*%
X108480000Y-108000000D03*
%TD*%
%TO.P,C17,1*%
%TO.N,+1V8_MODEM*%
X131520000Y-75000000D03*
%TO.P,C17,2*%
%TO.N,GND*%
X132480000Y-75000000D03*
%TD*%
D31*
%TO.P,C6,1*%
%TO.N,+3V8_MODEM*%
X102500000Y-77520000D03*
%TO.P,C6,2*%
%TO.N,GND*%
X102500000Y-73480000D03*
%TD*%
D13*
%TO.P,C22,1*%
%TO.N,SIM_VCC*%
X128000000Y-88480000D03*
%TO.P,C22,2*%
%TO.N,GND*%
X128000000Y-87520000D03*
%TD*%
D15*
%TO.P,C4,1*%
%TO.N,+3V8_MODEM*%
X109500000Y-93450000D03*
%TO.P,C4,2*%
%TO.N,GND*%
X109500000Y-91550000D03*
%TD*%
%TO.P,C1,1*%
%TO.N,+5V*%
X110000000Y-104950000D03*
%TO.P,C1,2*%
%TO.N,GND*%
X110000000Y-103050000D03*
%TD*%
D32*
%TO.P,U3,1*%
%TO.N,BUCK_BS*%
X106400000Y-102230000D03*
%TO.P,U3,2*%
%TO.N,BUCK_LX*%
X105130000Y-102230000D03*
%TO.P,U3,3*%
%TO.N,MODEM_EN*%
X103870000Y-102230000D03*
%TO.P,U3,4*%
%TO.N,BUCK_SS*%
X102600000Y-102230000D03*
%TO.P,U3,5*%
%TO.N,BUCK_FB*%
X102600000Y-107770000D03*
%TO.P,U3,6*%
%TO.N,+5V*%
X103870000Y-107770000D03*
%TO.P,U3,7*%
X105130000Y-107770000D03*
%TO.P,U3,8*%
X106400000Y-107770000D03*
D33*
%TO.P,U3,9*%
%TO.N,GND*%
X105000000Y-105500000D03*
X105000000Y-104500000D03*
D34*
X104500000Y-105000000D03*
D33*
X104000000Y-105500000D03*
X104000000Y-104500000D03*
%TD*%
D35*
%TO.P,L1,1*%
%TO.N,BUCK_LX*%
X104500000Y-96000000D03*
%TO.P,L1,2*%
%TO.N,+3V8_MODEM*%
X104500000Y-90000000D03*
%TD*%
D12*
%TO.P,R7,1*%
%TO.N,MODEM_PWRKEY*%
X116490000Y-79500000D03*
%TO.P,R7,2*%
%TO.N,GND*%
X117510000Y-79500000D03*
%TD*%
D13*
%TO.P,C24,1*%
%TO.N,LTE_ANT*%
X111500000Y-58480000D03*
%TO.P,C24,2*%
%TO.N,GND*%
X111500000Y-57520000D03*
%TD*%
D10*
%TO.P,C26,1*%
%TO.N,GNSS_ANT*%
X106020000Y-84500000D03*
%TO.P,C26,2*%
%TO.N,GND*%
X106980000Y-84500000D03*
%TD*%
D12*
%TO.P,R18,1*%
%TO.N,LEVEL_OE*%
X131490000Y-77000000D03*
%TO.P,R18,2*%
%TO.N,GND*%
X132510000Y-77000000D03*
%TD*%
D11*
%TO.P,R10,1*%
%TO.N,SIM_RST_M*%
X124000000Y-79510000D03*
%TO.P,R10,2*%
%TO.N,SIM_RST*%
X124000000Y-78490000D03*
%TD*%
D13*
%TO.P,C21,1*%
%TO.N,SIM_CLK*%
X126000000Y-88480000D03*
%TO.P,C21,2*%
%TO.N,GND*%
X126000000Y-87520000D03*
%TD*%
D12*
%TO.P,R1,1*%
%TO.N,+3V8_MODEM*%
X108490000Y-98000000D03*
%TO.P,R1,2*%
%TO.N,BUCK_FB*%
X109510000Y-98000000D03*
%TD*%
D36*
%TO.P,U4,1*%
%TO.N,+5V*%
X130950000Y-122200000D03*
%TO.P,U4,2*%
%TO.N,GND*%
X130000000Y-122200000D03*
%TO.P,U4,3*%
%TO.N,+5V*%
X129050000Y-122200000D03*
%TO.P,U4,4*%
%TO.N,N/C*%
X129050000Y-124800000D03*
%TO.P,U4,5*%
%TO.N,+3V3*%
X130950000Y-124800000D03*
%TD*%
D12*
%TO.P,R6,1*%
%TO.N,+1V8_MODEM*%
X129490000Y-77000000D03*
%TO.P,R6,2*%
%TO.N,LEVEL_OE*%
X130510000Y-77000000D03*
%TD*%
D37*
%TO.P,U5,1*%
%TO.N,MODEM_TX_1V8*%
X131400000Y-72750000D03*
%TO.P,U5,2*%
%TO.N,GND*%
X131400000Y-72250000D03*
%TO.P,U5,3*%
%TO.N,+3V3*%
X131400000Y-71750000D03*
%TO.P,U5,4*%
%TO.N,ESP_RX_3V3*%
X131400000Y-71250000D03*
%TO.P,U5,5*%
%TO.N,ESP_TX_3V3*%
X128600000Y-71250000D03*
%TO.P,U5,6*%
%TO.N,LEVEL_OE*%
X128600000Y-71750000D03*
%TO.P,U5,7*%
%TO.N,+1V8_MODEM*%
X128600000Y-72250000D03*
%TO.P,U5,8*%
%TO.N,MODEM_RX_1V8*%
X128600000Y-72750000D03*
%TD*%
D38*
%TO.N,+5V*%
X118642900Y-119135000D03*
X112078800Y-116982900D03*
D39*
%TO.N,GND*%
X124900000Y-84000000D03*
X130000000Y-55000000D03*
X120000000Y-85000000D03*
X125000000Y-90000000D03*
X100000000Y-95000000D03*
X130480000Y-74200000D03*
X115000000Y-55000000D03*
X115000000Y-90000000D03*
X100000000Y-105000000D03*
X115000000Y-50000000D03*
X135500000Y-94000000D03*
X100000000Y-80000000D03*
X110000000Y-75000000D03*
X135500000Y-82000000D03*
X125000000Y-60000000D03*
X135500000Y-58000000D03*
X135500000Y-100000000D03*
X108480000Y-105800000D03*
X135500000Y-70000000D03*
X135500000Y-64000000D03*
X98500000Y-58000000D03*
X105000000Y-55000000D03*
X135000000Y-120000000D03*
X135000000Y-65000000D03*
X135000000Y-95000000D03*
X135500000Y-88000000D03*
X98500000Y-70000000D03*
X130000000Y-90000000D03*
X100000000Y-90000000D03*
X135000000Y-75000000D03*
X108000000Y-48000000D03*
X100000000Y-55000000D03*
X100000000Y-85000000D03*
X100000000Y-65000000D03*
X118000000Y-48000000D03*
X135500000Y-118000000D03*
X98500000Y-64000000D03*
X135000000Y-55000000D03*
X120000000Y-60000000D03*
X120000000Y-70000000D03*
X98500000Y-76000000D03*
X115000000Y-121000000D03*
X133000000Y-48000000D03*
X110000000Y-95000000D03*
X98500000Y-88000000D03*
X125000000Y-55000000D03*
X98500000Y-106000000D03*
X98500000Y-126000000D03*
X135000000Y-125000000D03*
X100000000Y-75000000D03*
X115000000Y-85000000D03*
X135000000Y-80000000D03*
X113000000Y-48000000D03*
X128000000Y-48000000D03*
X115000000Y-95000000D03*
X128000000Y-86720000D03*
X110000000Y-120000000D03*
X100000000Y-60000000D03*
X123000000Y-48000000D03*
X135500000Y-52000000D03*
X126000000Y-86720000D03*
X130000000Y-60000000D03*
X135000000Y-60000000D03*
X110000000Y-65000000D03*
X100000000Y-70000000D03*
X105000000Y-60000000D03*
X124000000Y-86720000D03*
X110000000Y-50000000D03*
X98500000Y-82000000D03*
X105000000Y-50000000D03*
X103000000Y-48000000D03*
X135000000Y-50000000D03*
X105000000Y-65000000D03*
X110800000Y-107050000D03*
X118910000Y-79400000D03*
X130000000Y-121300000D03*
X130000000Y-50000000D03*
X135000000Y-90000000D03*
X110000000Y-125000000D03*
X120000000Y-50000000D03*
X98500000Y-112000000D03*
X135000000Y-85000000D03*
X115000000Y-80000000D03*
X135500000Y-76000000D03*
X135500000Y-126000000D03*
X100000000Y-50000000D03*
X110000000Y-80000000D03*
X120000000Y-90000000D03*
X120000000Y-55000000D03*
X132200000Y-72250000D03*
X98500000Y-94000000D03*
X98500000Y-100000000D03*
X98500000Y-52000000D03*
X115000000Y-60000000D03*
X125000000Y-50000000D03*
%TO.N,+3V3*%
X110572200Y-113366000D03*
X120386000Y-113589500D03*
X129955500Y-123500000D03*
%TO.N,SIM_VCC*%
X127064300Y-82819800D03*
%TO.N,BUCK_FB*%
X102575700Y-104050100D03*
X109480000Y-101463700D03*
%TO.N,SIM_DATA*%
X121521800Y-85095700D03*
X130622900Y-85718500D03*
%TO.N,ESP_BOOT*%
X106640200Y-110351100D03*
X103968700Y-111609800D03*
D40*
%TO.N,+3V8_MODEM*%
X104252300Y-79286900D03*
X104078800Y-87673700D03*
D39*
%TO.N,ESP_EN*%
X110086600Y-114366800D03*
%TO.N,SIM_CLK*%
X125197600Y-79986800D03*
%TO.N,USB_DM_PRE*%
X115564800Y-117053900D03*
%TO.N,USB_DM*%
X115397500Y-108687700D03*
%TO.N,MODEM_EN*%
X107968300Y-109357800D03*
X103276400Y-100984600D03*
%TO.N,LED_CTRL*%
X101963800Y-106287500D03*
X113199600Y-105736700D03*
%TO.N,USB_DP_PRE*%
X122032000Y-119233300D03*
%TO.N,USB_DP*%
X116450300Y-105136700D03*
%TO.N,MODEM_TX_1V8*%
X124652600Y-74248700D03*
X131003100Y-73514600D03*
%TO.N,SIM_RST*%
X124467400Y-82281800D03*
%TO.N,LEVEL_OE*%
X132059300Y-75995000D03*
X129815900Y-71864100D03*
%TO.N,ESP_RX_3V3*%
X115800000Y-71125000D03*
X130777600Y-70600600D03*
%TO.N,ESP_TX_3V3*%
X130049100Y-69902800D03*
%TD*%
%TO.N,+5V*%
D41*
X105130000Y-107770000D02*
X103870000Y-107770000D01*
X108933400Y-104054900D02*
X109828500Y-104950000D01*
X129631800Y-120351300D02*
X130328800Y-120351300D01*
X130328800Y-120351300D02*
X130950000Y-120972500D01*
X109828500Y-104950000D02*
X110000000Y-104950000D01*
X106400000Y-106120000D02*
X106400000Y-107770000D01*
X133000000Y-125600000D02*
X131600000Y-127000000D01*
X129050000Y-121047400D02*
X129050000Y-120933100D01*
X107520000Y-105000000D02*
X107520000Y-104523900D01*
X129050000Y-122200000D02*
X129050000Y-121047400D01*
X107520000Y-104523900D02*
X107989000Y-104054900D01*
X106400000Y-107770000D02*
X105130000Y-107770000D01*
X128135300Y-120696900D02*
X128135300Y-121047400D01*
X112078800Y-110154400D02*
X110874400Y-108950000D01*
X126000000Y-119480000D02*
X126918400Y-119480000D01*
X111736500Y-106686500D02*
X111736500Y-108087900D01*
X129050000Y-120933100D02*
X129631800Y-120351300D01*
X126918400Y-119480000D02*
X126918400Y-117693400D01*
X107520000Y-105000000D02*
X106400000Y-106120000D01*
X128135300Y-121047400D02*
X128135300Y-126185300D01*
X107989000Y-104054900D02*
X108933400Y-104054900D01*
X126918400Y-119480000D02*
X128135300Y-120696900D01*
X110000000Y-104950000D02*
X111736500Y-106686500D01*
X126000000Y-119480000D02*
X125099300Y-120380700D01*
X128135300Y-126185300D02*
X128950000Y-127000000D01*
X130950000Y-120972500D02*
X130950000Y-122200000D01*
X111736500Y-108087900D02*
X110874400Y-108950000D01*
X112078800Y-116982900D02*
X112078800Y-110154400D01*
X110874400Y-108950000D02*
X110000000Y-108950000D01*
X126918400Y-117693400D02*
X126000000Y-116775000D01*
X129050000Y-121047400D02*
X128135300Y-121047400D01*
X131600000Y-127000000D02*
X128950000Y-127000000D01*
X125099300Y-120380700D02*
X119888600Y-120380700D01*
X119888600Y-120380700D02*
X118642900Y-119135000D01*
%TO.N,GND*%
D42*
X124000000Y-87520000D02*
X124000000Y-86720000D01*
X126000000Y-87520000D02*
X126000000Y-86720000D01*
X131400000Y-72250000D02*
X132200000Y-72250000D01*
X110000000Y-107050000D02*
X110800000Y-107050000D01*
X128000000Y-87520000D02*
X128000000Y-86720000D01*
X130480000Y-75000000D02*
X130480000Y-74200000D01*
X108480000Y-105000000D02*
X108480000Y-105800000D01*
X130000000Y-122200000D02*
X130000000Y-121300000D01*
%TO.N,+3V3*%
D43*
X132025400Y-121980000D02*
X132000000Y-121980000D01*
X132809100Y-81345400D02*
X128866900Y-77403200D01*
X132000000Y-122827000D02*
X130950000Y-123877000D01*
X110572200Y-113000000D02*
X110572200Y-113366000D01*
X130642400Y-71921700D02*
X130642400Y-71750000D01*
X132645000Y-119920000D02*
X132645000Y-121360400D01*
X132809100Y-118465900D02*
X132809100Y-81345400D01*
X128866900Y-77403200D02*
X128866900Y-75653100D01*
X130950000Y-123877000D02*
X130332500Y-123877000D01*
X102490000Y-110000000D02*
X101000000Y-108510000D01*
X130950000Y-124800000D02*
X130950000Y-123942400D01*
X107490000Y-113000000D02*
X104490000Y-110000000D01*
X132000000Y-119275000D02*
X132645000Y-119920000D01*
X132645000Y-121360400D02*
X132025400Y-121980000D01*
X132000000Y-121980000D02*
X132000000Y-122827000D01*
X104490000Y-110000000D02*
X102490000Y-110000000D01*
X130950000Y-123877000D02*
X130950000Y-123942400D01*
X108490000Y-113000000D02*
X109147600Y-112342400D01*
X129520000Y-75000000D02*
X129520000Y-73044100D01*
X130332500Y-123877000D02*
X129955500Y-123500000D01*
X131400000Y-71750000D02*
X130642400Y-71750000D01*
X109914600Y-112342400D02*
X110572200Y-113000000D01*
X132000000Y-119275000D02*
X132809100Y-118465900D01*
X129520000Y-73044100D02*
X130642400Y-71921700D01*
X128866900Y-75653100D02*
X129520000Y-75000000D01*
X108490000Y-113000000D02*
X107490000Y-113000000D01*
X109147600Y-112342400D02*
X109914600Y-112342400D01*
%TO.N,LED_A*%
D44*
X100195700Y-105894800D02*
X101000000Y-105090500D01*
X101000000Y-105090500D02*
X101000000Y-104712500D01*
X101000000Y-107490000D02*
X100195700Y-106685700D01*
X100195700Y-106685700D02*
X100195700Y-105894800D01*
%TO.N,SIM_VCC_M*%
X128000000Y-79510000D02*
X126630100Y-78140100D01*
X125450000Y-73400000D02*
X126630100Y-73400000D01*
X126630100Y-78140100D02*
X126630100Y-73400000D01*
%TO.N,SIM_VCC*%
X128000000Y-88480000D02*
X128290400Y-88480000D01*
X129729700Y-87040700D02*
X129729700Y-83900900D01*
X129729700Y-87040700D02*
X130199000Y-87510000D01*
X128290400Y-88480000D02*
X129729700Y-87040700D01*
X128648600Y-79138600D02*
X128648600Y-82819800D01*
X128000000Y-78490000D02*
X128648600Y-79138600D01*
X128648600Y-82819800D02*
X127064300Y-82819800D01*
X129729700Y-83900900D02*
X128648600Y-82819800D01*
X130199000Y-87510000D02*
X131000000Y-87510000D01*
%TO.N,BUCK_BS*%
X106400000Y-103529100D02*
X104865400Y-103529100D01*
X103570400Y-100364900D02*
X102996600Y-100364900D01*
X102726600Y-100634900D02*
X100954900Y-100634900D01*
X106400000Y-102230000D02*
X106400000Y-103529100D01*
X104500000Y-103163700D02*
X104500000Y-101294500D01*
X104500000Y-101294500D02*
X103570400Y-100364900D01*
X104865400Y-103529100D02*
X104500000Y-103163700D01*
X100954900Y-100634900D02*
X100320000Y-100000000D01*
X102996600Y-100364900D02*
X102726600Y-100634900D01*
%TO.N,BUCK_LX*%
X104500000Y-96740000D02*
X101280000Y-99960000D01*
X105130000Y-102230000D02*
X105130000Y-98110100D01*
X104500000Y-96740000D02*
X104500000Y-97480100D01*
X101280000Y-99960000D02*
X101280000Y-100000000D01*
X104500000Y-96000000D02*
X104500000Y-96740000D01*
X105130000Y-98110100D02*
X104500000Y-97480100D01*
%TO.N,BUCK_FB*%
X109480000Y-98030000D02*
X109480000Y-100000000D01*
X109510000Y-98000000D02*
X109480000Y-98030000D01*
X102600000Y-107770000D02*
X102600000Y-104074400D01*
X111490000Y-98000000D02*
X109510000Y-98000000D01*
X109480000Y-101463700D02*
X109480000Y-100000000D01*
X102600000Y-104074400D02*
X102575700Y-104050100D01*
%TO.N,SIM_DATA*%
X131000000Y-86095600D02*
X131000000Y-86490000D01*
X122000000Y-88480000D02*
X121365800Y-87845800D01*
X121521800Y-85095700D02*
X122647000Y-83970500D01*
X122647000Y-83970500D02*
X122647000Y-79137000D01*
X130622900Y-85718500D02*
X131000000Y-86095600D01*
X122647000Y-79137000D02*
X122000000Y-78490000D01*
X121365800Y-85251700D02*
X121521800Y-85095700D01*
X121365800Y-87845800D02*
X121365800Y-85251700D01*
%TO.N,GNSS_CONN*%
D45*
X104069800Y-83420200D02*
X104990000Y-82500000D01*
X104990000Y-82500000D02*
X104990000Y-81530000D01*
X104990000Y-81530000D02*
X106020000Y-80500000D01*
X101800200Y-83420200D02*
X104069800Y-83420200D01*
X101500000Y-83120000D02*
X101800200Y-83420200D01*
%TO.N,ESP_BOOT*%
D44*
X100500000Y-123875000D02*
X101280100Y-123875000D01*
X105861100Y-110351100D02*
X105510000Y-110000000D01*
X103968700Y-121186400D02*
X101280100Y-123875000D01*
X106640200Y-110351100D02*
X105861100Y-110351100D01*
X103968700Y-111609800D02*
X103968700Y-121186400D01*
%TO.N,+3V8_MODEM*%
D46*
X108550000Y-71200000D02*
X108550000Y-71475000D01*
D47*
X109500000Y-89450000D02*
X108950000Y-90000000D01*
D48*
X108038500Y-99518500D02*
X108520000Y-100000000D01*
D47*
X107740300Y-92330400D02*
X108859900Y-93450000D01*
X102500000Y-77520000D02*
X103990100Y-77520000D01*
X104252300Y-77520000D02*
X103990100Y-77520000D01*
X107740300Y-90000000D02*
X107740300Y-92330400D01*
X108038500Y-99518500D02*
X108038400Y-99518400D01*
X105945100Y-71475000D02*
X105945100Y-75827200D01*
D49*
X108239300Y-97749300D02*
X108490000Y-98000000D01*
D47*
X108550000Y-71475000D02*
X105945100Y-71475000D01*
D46*
X108550000Y-71475000D02*
X108550000Y-72300000D01*
D47*
X104205000Y-87799900D02*
X104500000Y-87799900D01*
X108038400Y-99518400D02*
X108038400Y-98451600D01*
X108859900Y-93450000D02*
X109500000Y-93450000D01*
X104078800Y-87673700D02*
X104205000Y-87799900D01*
X105945100Y-75827200D02*
X104252300Y-77520000D01*
D49*
X108038400Y-98451600D02*
X108490000Y-98000000D01*
D47*
X107740300Y-90000000D02*
X104500000Y-90000000D01*
X105945100Y-71475000D02*
X103990100Y-69520000D01*
X108859900Y-93450000D02*
X108239300Y-94070600D01*
X108950000Y-90000000D02*
X107740300Y-90000000D01*
X104500000Y-90000000D02*
X104500000Y-87799900D01*
X108239300Y-94070600D02*
X108239300Y-97749300D01*
X104252300Y-77520000D02*
X104252300Y-79286900D01*
X102500000Y-69520000D02*
X103990100Y-69520000D01*
%TO.N,ESP_EN*%
D44*
X109466700Y-114053300D02*
X109510000Y-114053300D01*
X109773100Y-114053300D02*
X110086600Y-114366800D01*
X105000000Y-123875000D02*
X105780100Y-123875000D01*
X105780100Y-117739900D02*
X108520000Y-115000000D01*
X109510000Y-114053300D02*
X109773100Y-114053300D01*
X109510000Y-114053300D02*
X109510000Y-113000000D01*
X108520000Y-115000000D02*
X109466700Y-114053300D01*
X105780100Y-123875000D02*
X105780100Y-117739900D01*
%TO.N,GNSS_ANT*%
D45*
X111500000Y-77840100D02*
X110947400Y-77840100D01*
X106020000Y-82500000D02*
X106010000Y-82500000D01*
X106287500Y-82500000D02*
X106020000Y-82500000D01*
X110947400Y-77840100D02*
X106287500Y-82500000D01*
X111500000Y-76500000D02*
X111500000Y-77840100D01*
X106020000Y-82500000D02*
X106020000Y-84500000D01*
%TO.N,SIM_CLK_M*%
D44*
X123600000Y-77680100D02*
X124170100Y-77680100D01*
X123600000Y-76500000D02*
X123600000Y-77680100D01*
X124170100Y-77680100D02*
X126000000Y-79510000D01*
%TO.N,SIM_CLK*%
X126634400Y-79124400D02*
X126000000Y-78490000D01*
X126634400Y-80092900D02*
X126484200Y-80243100D01*
X126634400Y-83210200D02*
X126634400Y-87845600D01*
X126634400Y-80092900D02*
X126634400Y-79124400D01*
X126634400Y-80092900D02*
X125303700Y-80092900D01*
X126484200Y-83060000D02*
X126634400Y-83210200D01*
X125303700Y-80092900D02*
X125197600Y-79986800D01*
X126634400Y-87845600D02*
X126000000Y-88480000D01*
X126484200Y-80243100D02*
X126484200Y-83060000D01*
%TO.N,SIM_DATA_M*%
X121342000Y-78852000D02*
X122000000Y-79510000D01*
X121400000Y-77680100D02*
X121342000Y-77738100D01*
X121400000Y-76500000D02*
X121400000Y-77680100D01*
X121342000Y-77738100D02*
X121342000Y-78852000D01*
%TO.N,USB_DM_PRE*%
X115564800Y-117053900D02*
X113108700Y-119510000D01*
X113108700Y-119510000D02*
X113000000Y-119510000D01*
%TO.N,USB_DM*%
X113000000Y-111085200D02*
X113000000Y-118490000D01*
X115397500Y-108687700D02*
X113000000Y-111085200D01*
%TO.N,LTE_CONN*%
D45*
X109706500Y-57445200D02*
X108671700Y-58480000D01*
X109048200Y-53331800D02*
X109048200Y-56786900D01*
X109935200Y-57445200D02*
X110000000Y-57510000D01*
X109048200Y-56786900D02*
X109706500Y-57445200D01*
X108671700Y-58480000D02*
X108500000Y-58480000D01*
X109380000Y-53000000D02*
X109048200Y-53331800D01*
X109706500Y-57445200D02*
X109935200Y-57445200D01*
%TO.N,LTE_ANT*%
X112301400Y-57954700D02*
X112301400Y-57160300D01*
X110400000Y-61500000D02*
X110400000Y-59580000D01*
X111500000Y-58480000D02*
X111776100Y-58480000D01*
X110400000Y-59580000D02*
X111500000Y-58480000D01*
X111776100Y-58480000D02*
X112301400Y-57954700D01*
X112301400Y-57160300D02*
X111631100Y-56490000D01*
X111631100Y-56490000D02*
X110000000Y-56490000D01*
%TO.N,MODEM_EN*%
D44*
X107968300Y-109357800D02*
X107968300Y-110521700D01*
X103276400Y-100984600D02*
X103870000Y-101578200D01*
X107968300Y-110521700D02*
X107490000Y-111000000D01*
X103870000Y-101578200D02*
X103870000Y-102230000D01*
%TO.N,+5V_RAW*%
D41*
X120500000Y-125500000D02*
X120889800Y-125110200D01*
X120889800Y-125110200D02*
X124160200Y-125110200D01*
X124160200Y-125110200D02*
X126050000Y-127000000D01*
%TO.N,+1V8_MODEM*%
D43*
X130007500Y-64982500D02*
X130007500Y-68853200D01*
X131520000Y-75000000D02*
X131520000Y-74970000D01*
X127799200Y-71922700D02*
X128126500Y-72250000D01*
X130007500Y-68853200D02*
X127799200Y-71061500D01*
X127799200Y-71061500D02*
X127799200Y-71922700D01*
X127772500Y-62747500D02*
X122542400Y-62747500D01*
X122500000Y-61500000D02*
X122500000Y-62705100D01*
X128126500Y-72250000D02*
X128600000Y-72250000D01*
X132877000Y-73613000D02*
X132877000Y-71722700D01*
X127772500Y-62747500D02*
X130007500Y-64982500D01*
X132877000Y-71722700D02*
X130007500Y-68853200D01*
X131490000Y-75000000D02*
X131520000Y-75000000D01*
X129490000Y-77000000D02*
X131490000Y-75000000D01*
X129520000Y-61000000D02*
X127772500Y-62747500D01*
X131520000Y-74970000D02*
X132877000Y-73613000D01*
X122542400Y-62747500D02*
X122500000Y-62705100D01*
%TO.N,LED_CTRL*%
D44*
X101000000Y-106287500D02*
X101963800Y-106287500D01*
%TO.N,USB_DP_PRE*%
X121276700Y-119233300D02*
X121000000Y-119510000D01*
X122032000Y-119233300D02*
X121276700Y-119233300D01*
%TO.N,USB_DP*%
X121000000Y-109686400D02*
X121000000Y-118490000D01*
X116450300Y-105136700D02*
X121000000Y-109686400D01*
%TO.N,MODEM_PWRKEY*%
X117000000Y-76500000D02*
X117000000Y-78990000D01*
X117000000Y-78990000D02*
X116490000Y-79500000D01*
%TO.N,SIM_RST_M*%
X122500000Y-76500000D02*
X122500000Y-78010000D01*
X122500000Y-78010000D02*
X124000000Y-79510000D01*
%TO.N,MODEM_RX_1V8*%
X127010300Y-70480200D02*
X127010300Y-71892900D01*
X126630100Y-70100000D02*
X127010300Y-70480200D01*
X125450000Y-70100000D02*
X126630100Y-70100000D01*
X127010300Y-71892900D02*
X127867400Y-72750000D01*
X128600000Y-72750000D02*
X127867400Y-72750000D01*
%TO.N,MODEM_TX_1V8*%
X125450000Y-69000000D02*
X124269900Y-69000000D01*
X124249800Y-73845900D02*
X124652600Y-74248700D01*
X131003100Y-73259600D02*
X131003000Y-73259600D01*
X131400000Y-72750000D02*
X130667400Y-72750000D01*
X124269900Y-69000000D02*
X124249800Y-69020100D01*
X131003000Y-73259600D02*
X130667400Y-72924000D01*
X131003100Y-73514600D02*
X131003100Y-73259600D01*
X124249800Y-69020100D02*
X124249800Y-73845900D01*
X130667400Y-72924000D02*
X130667400Y-72750000D01*
%TO.N,SIM_RST*%
X124000000Y-78490000D02*
X124617500Y-79107500D01*
X123349400Y-87829400D02*
X123349400Y-83399800D01*
X124617500Y-82131700D02*
X124467400Y-82281800D01*
X124617500Y-79107500D02*
X124617500Y-82131700D01*
X124000000Y-88480000D02*
X123349400Y-87829400D01*
X123349400Y-83399800D02*
X124467400Y-82281800D01*
%TO.N,BUCK_SS*%
X103167500Y-102797500D02*
X103167500Y-108651200D01*
X103614800Y-109098500D02*
X106689800Y-109098500D01*
X102600000Y-102230000D02*
X103167500Y-102797500D01*
X106689800Y-109098500D02*
X107520000Y-108268300D01*
X103167500Y-108651200D02*
X103614800Y-109098500D01*
X107520000Y-108268300D02*
X107520000Y-108000000D01*
%TO.N,LEVEL_OE*%
X129701800Y-71750000D02*
X129815900Y-71864100D01*
X128600000Y-71750000D02*
X129701800Y-71750000D01*
X130510000Y-77000000D02*
X131490000Y-77000000D01*
X132059300Y-75995000D02*
X131490000Y-76564300D01*
X131490000Y-76564300D02*
X131490000Y-77000000D01*
%TO.N,ESP_RX_3V3*%
X130667400Y-71250000D02*
X130667400Y-70710800D01*
X131400000Y-71250000D02*
X130667400Y-71250000D01*
X130667400Y-70710800D02*
X130777600Y-70600600D01*
%TO.N,ESP_TX_3V3*%
X129332600Y-71250000D02*
X129332600Y-70619300D01*
X128600000Y-71250000D02*
X129332600Y-71250000D01*
X129332600Y-70619300D02*
X130049100Y-69902800D01*
%TD*%
%TA.AperFunction,Conductor*%
%TO.N,GND*%
G36*
X134814360Y-46522174D02*
G01*
X136477826Y-48185640D01*
X136499500Y-48237966D01*
X136499500Y-101426000D01*
X136477826Y-101478326D01*
X136425500Y-101500000D01*
X133208600Y-101500000D01*
X133156274Y-101478326D01*
X133134600Y-101426000D01*
X133134600Y-81394224D01*
X133134601Y-81394211D01*
X133134601Y-81302545D01*
X133134600Y-81302544D01*
X133112419Y-81219764D01*
X133112417Y-81219759D01*
X133088025Y-81177511D01*
X133088024Y-81177510D01*
X133069565Y-81145538D01*
X133006383Y-81082356D01*
X133006372Y-81082346D01*
X129570853Y-77646826D01*
X129549179Y-77594500D01*
X129570853Y-77542174D01*
X129623179Y-77520500D01*
X129664314Y-77520500D01*
X129664316Y-77520500D01*
X129713173Y-77514068D01*
X129820404Y-77464065D01*
X129904065Y-77380404D01*
X129932933Y-77318495D01*
X129974690Y-77280232D01*
X130031273Y-77282702D01*
X130067066Y-77318495D01*
X130070376Y-77325593D01*
X130095933Y-77380402D01*
X130095935Y-77380404D01*
X130179596Y-77464065D01*
X130286827Y-77514068D01*
X130335684Y-77520500D01*
X130335686Y-77520500D01*
X130684314Y-77520500D01*
X130684316Y-77520500D01*
X130733173Y-77514068D01*
X130840404Y-77464065D01*
X130924065Y-77380404D01*
X130932933Y-77361385D01*
X130974690Y-77323123D01*
X131031274Y-77325593D01*
X131067066Y-77361385D01*
X131075935Y-77380404D01*
X131159596Y-77464065D01*
X131266827Y-77514068D01*
X131315684Y-77520500D01*
X131315686Y-77520500D01*
X131664314Y-77520500D01*
X131664316Y-77520500D01*
X131713173Y-77514068D01*
X131820404Y-77464065D01*
X131904065Y-77380404D01*
X131954068Y-77273173D01*
X131960500Y-77224316D01*
X131960500Y-76775684D01*
X131954068Y-76726827D01*
X131911845Y-76636282D01*
X131909376Y-76579700D01*
X131926585Y-76552684D01*
X131962096Y-76517173D01*
X132014422Y-76495500D01*
X132125194Y-76495500D01*
X132125194Y-76495499D01*
X132252486Y-76461392D01*
X132366614Y-76395500D01*
X132459800Y-76302314D01*
X132525692Y-76188186D01*
X132559799Y-76060894D01*
X132559800Y-76060894D01*
X132559800Y-75929106D01*
X132559799Y-75929105D01*
X132558897Y-75925740D01*
X132525692Y-75801814D01*
X132459800Y-75687686D01*
X132366614Y-75594500D01*
X132341936Y-75580252D01*
X132252490Y-75528610D01*
X132252481Y-75528606D01*
X132125194Y-75494500D01*
X132125192Y-75494500D01*
X131995692Y-75494500D01*
X131943366Y-75472826D01*
X131921692Y-75420500D01*
X131940750Y-75374488D01*
X131939510Y-75373620D01*
X131943220Y-75368319D01*
X131943224Y-75368316D01*
X131993972Y-75259487D01*
X132000500Y-75209901D01*
X132000499Y-74980477D01*
X132022172Y-74928153D01*
X133076859Y-73873466D01*
X133076862Y-73873465D01*
X133137465Y-73812862D01*
X133170837Y-73755060D01*
X133180318Y-73738639D01*
X133202500Y-73655853D01*
X133202500Y-73570147D01*
X133202500Y-71679847D01*
X133190219Y-71634012D01*
X133188670Y-71628232D01*
X133180319Y-71597064D01*
X133180317Y-71597059D01*
X133155482Y-71554044D01*
X133137467Y-71522841D01*
X133137466Y-71522840D01*
X133137465Y-71522838D01*
X133076862Y-71462235D01*
X133076861Y-71462234D01*
X133074283Y-71459656D01*
X133074272Y-71459646D01*
X130354674Y-68740047D01*
X130333000Y-68687721D01*
X130333000Y-64939645D01*
X130332999Y-64939644D01*
X130310819Y-64856866D01*
X130310818Y-64856862D01*
X130267965Y-64782638D01*
X130207362Y-64722035D01*
X128285152Y-62799825D01*
X128263478Y-62747499D01*
X128285150Y-62695176D01*
X129448153Y-61532172D01*
X129500479Y-61510499D01*
X129699900Y-61510499D01*
X129749487Y-61503972D01*
X129858316Y-61453224D01*
X129943224Y-61368316D01*
X129993972Y-61259487D01*
X130000500Y-61209901D01*
X130000499Y-60790100D01*
X129993972Y-60740513D01*
X129943224Y-60631684D01*
X129858316Y-60546776D01*
X129749487Y-60496028D01*
X129749485Y-60496027D01*
X129712955Y-60491218D01*
X129699901Y-60489500D01*
X129699899Y-60489500D01*
X129340100Y-60489500D01*
X129290514Y-60496027D01*
X129290512Y-60496028D01*
X129181683Y-60546776D01*
X129096776Y-60631683D01*
X129046027Y-60740514D01*
X129039500Y-60790100D01*
X129039500Y-60989520D01*
X129017826Y-61041846D01*
X127659347Y-62400326D01*
X127607021Y-62422000D01*
X124224500Y-62422000D01*
X124172174Y-62400326D01*
X124150500Y-62348000D01*
X124150500Y-60580253D01*
X124143841Y-60546776D01*
X124138867Y-60521769D01*
X124094552Y-60455448D01*
X124040602Y-60419399D01*
X124028232Y-60411133D01*
X124028233Y-60411133D01*
X123998989Y-60405316D01*
X123969748Y-60399500D01*
X123230252Y-60399500D01*
X123201010Y-60405316D01*
X123171767Y-60411133D01*
X123105449Y-60455447D01*
X123102326Y-60458571D01*
X123050000Y-60480245D01*
X122997674Y-60458571D01*
X122994554Y-60455451D01*
X122994552Y-60455448D01*
X122940602Y-60419399D01*
X122928232Y-60411133D01*
X122928233Y-60411133D01*
X122898989Y-60405316D01*
X122869748Y-60399500D01*
X122130252Y-60399500D01*
X122101010Y-60405316D01*
X122071767Y-60411133D01*
X122005449Y-60455447D01*
X122002326Y-60458571D01*
X121950000Y-60480245D01*
X121897674Y-60458571D01*
X121894554Y-60455451D01*
X121894552Y-60455448D01*
X121840602Y-60419399D01*
X121828232Y-60411133D01*
X121828233Y-60411133D01*
X121798989Y-60405316D01*
X121769748Y-60399500D01*
X121030252Y-60399500D01*
X121001010Y-60405316D01*
X120971767Y-60411133D01*
X120905449Y-60455447D01*
X120902326Y-60458571D01*
X120850000Y-60480245D01*
X120797674Y-60458571D01*
X120794554Y-60455451D01*
X120794552Y-60455448D01*
X120740602Y-60419399D01*
X120728232Y-60411133D01*
X120728233Y-60411133D01*
X120698989Y-60405316D01*
X120669748Y-60399500D01*
X119930252Y-60399500D01*
X119901010Y-60405316D01*
X119871767Y-60411133D01*
X119805449Y-60455447D01*
X119805447Y-60455449D01*
X119761133Y-60521767D01*
X119761133Y-60521769D01*
X119749500Y-60580252D01*
X119749500Y-62419748D01*
X119750480Y-62424674D01*
X119761133Y-62478232D01*
X119788879Y-62519755D01*
X119805448Y-62544552D01*
X119849560Y-62574027D01*
X119871767Y-62588866D01*
X119871768Y-62588866D01*
X119871769Y-62588867D01*
X119930252Y-62600500D01*
X119930254Y-62600500D01*
X120669746Y-62600500D01*
X120669748Y-62600500D01*
X120728231Y-62588867D01*
X120794552Y-62544552D01*
X120794556Y-62544545D01*
X120797674Y-62541429D01*
X120850000Y-62519755D01*
X120902326Y-62541429D01*
X120905445Y-62544548D01*
X120905448Y-62544552D01*
X120949560Y-62574027D01*
X120971767Y-62588866D01*
X120971768Y-62588866D01*
X120971769Y-62588867D01*
X121030252Y-62600500D01*
X121030254Y-62600500D01*
X121769746Y-62600500D01*
X121769748Y-62600500D01*
X121828231Y-62588867D01*
X121894552Y-62544552D01*
X121894556Y-62544545D01*
X121897674Y-62541429D01*
X121950000Y-62519755D01*
X122002326Y-62541429D01*
X122005445Y-62544548D01*
X122005448Y-62544552D01*
X122049560Y-62574027D01*
X122071767Y-62588866D01*
X122071769Y-62588867D01*
X122114936Y-62597453D01*
X122162028Y-62628918D01*
X122174500Y-62670031D01*
X122174500Y-62747953D01*
X122196682Y-62830739D01*
X122221162Y-62873139D01*
X122239535Y-62904962D01*
X122281935Y-62947362D01*
X122342538Y-63007965D01*
X122416762Y-63050818D01*
X122416763Y-63050818D01*
X122416765Y-63050819D01*
X122458154Y-63061909D01*
X122499544Y-63073000D01*
X122499545Y-63073001D01*
X122499547Y-63073001D01*
X122589783Y-63073001D01*
X122589799Y-63073000D01*
X127607021Y-63073000D01*
X127659347Y-63094674D01*
X129660326Y-65095653D01*
X129682000Y-65147979D01*
X129682000Y-68687721D01*
X129660326Y-68740047D01*
X127538732Y-70861641D01*
X127495882Y-70935859D01*
X127495880Y-70935864D01*
X127486739Y-70969977D01*
X127486740Y-70969978D01*
X127473700Y-71018646D01*
X127473700Y-71752677D01*
X127452026Y-71805003D01*
X127399700Y-71826677D01*
X127347374Y-71805003D01*
X127332474Y-71790103D01*
X127310800Y-71737777D01*
X127310800Y-70440636D01*
X127310799Y-70440635D01*
X127290322Y-70364214D01*
X127290320Y-70364209D01*
X127250759Y-70295688D01*
X126814611Y-69859540D01*
X126746090Y-69819979D01*
X126746085Y-69819977D01*
X126669664Y-69799500D01*
X126669662Y-69799500D01*
X126624390Y-69799500D01*
X126572064Y-69777826D01*
X126551245Y-69733810D01*
X126551209Y-69733818D01*
X126551180Y-69733672D01*
X126550747Y-69732757D01*
X126550500Y-69730256D01*
X126550500Y-69730252D01*
X126538867Y-69671769D01*
X126494552Y-69605448D01*
X126494548Y-69605445D01*
X126491429Y-69602326D01*
X126469755Y-69550000D01*
X126491429Y-69497674D01*
X126494545Y-69494556D01*
X126494552Y-69494552D01*
X126538867Y-69428231D01*
X126550500Y-69369748D01*
X126550500Y-68630252D01*
X126538867Y-68571769D01*
X126494552Y-68505448D01*
X126494548Y-68505445D01*
X126491429Y-68502326D01*
X126469755Y-68450000D01*
X126491429Y-68397674D01*
X126494545Y-68394556D01*
X126494552Y-68394552D01*
X126538867Y-68328231D01*
X126550500Y-68269748D01*
X126550500Y-67530252D01*
X126538867Y-67471769D01*
X126494552Y-67405448D01*
X126494548Y-67405445D01*
X126491429Y-67402326D01*
X126469755Y-67350000D01*
X126491429Y-67297674D01*
X126494545Y-67294556D01*
X126494552Y-67294552D01*
X126538867Y-67228231D01*
X126550500Y-67169748D01*
X126550500Y-66430252D01*
X126538867Y-66371769D01*
X126494552Y-66305448D01*
X126494548Y-66305445D01*
X126491429Y-66302326D01*
X126469755Y-66250000D01*
X126491429Y-66197674D01*
X126494545Y-66194556D01*
X126494552Y-66194552D01*
X126538867Y-66128231D01*
X126550500Y-66069748D01*
X126550500Y-65330252D01*
X126538867Y-65271769D01*
X126494552Y-65205448D01*
X126494548Y-65205445D01*
X126491429Y-65202326D01*
X126469755Y-65150000D01*
X126491429Y-65097674D01*
X126494545Y-65094556D01*
X126494552Y-65094552D01*
X126538867Y-65028231D01*
X126550500Y-64969748D01*
X126550500Y-64230252D01*
X126538867Y-64171769D01*
X126494552Y-64105448D01*
X126472343Y-64090608D01*
X126428232Y-64061133D01*
X126428233Y-64061133D01*
X126398989Y-64055316D01*
X126369748Y-64049500D01*
X124530252Y-64049500D01*
X124501010Y-64055316D01*
X124471767Y-64061133D01*
X124405449Y-64105447D01*
X124405447Y-64105449D01*
X124361133Y-64171767D01*
X124349500Y-64230253D01*
X124349500Y-64969746D01*
X124361133Y-65028232D01*
X124390608Y-65072343D01*
X124405448Y-65094552D01*
X124405451Y-65094554D01*
X124408571Y-65097674D01*
X124430245Y-65150000D01*
X124408571Y-65202326D01*
X124405447Y-65205449D01*
X124361133Y-65271767D01*
X124349500Y-65330253D01*
X124349500Y-66069746D01*
X124361133Y-66128232D01*
X124390223Y-66171767D01*
X124405448Y-66194552D01*
X124405451Y-66194554D01*
X124408571Y-66197674D01*
X124430245Y-66250000D01*
X124408571Y-66302326D01*
X124405447Y-66305449D01*
X124361133Y-66371767D01*
X124349500Y-66430253D01*
X124349500Y-67169746D01*
X124361133Y-67228232D01*
X124383118Y-67261133D01*
X124405448Y-67294552D01*
X124405451Y-67294554D01*
X124408571Y-67297674D01*
X124430245Y-67350000D01*
X124408571Y-67402326D01*
X124405447Y-67405449D01*
X124361133Y-67471767D01*
X124361133Y-67471769D01*
X124349500Y-67530252D01*
X124349500Y-68269748D01*
X124354434Y-68294551D01*
X124361133Y-68328232D01*
X124376013Y-68350500D01*
X124405448Y-68394552D01*
X124405451Y-68394554D01*
X124408571Y-68397674D01*
X124430245Y-68450000D01*
X124408571Y-68502326D01*
X124405447Y-68505449D01*
X124361133Y-68571767D01*
X124349499Y-68630256D01*
X124349253Y-68632757D01*
X124348853Y-68633504D01*
X124348791Y-68633818D01*
X124348695Y-68633799D01*
X124322552Y-68682705D01*
X124275610Y-68699500D01*
X124230338Y-68699500D01*
X124153912Y-68719978D01*
X124153911Y-68719978D01*
X124153909Y-68719979D01*
X124153907Y-68719980D01*
X124085392Y-68759537D01*
X124065288Y-68779641D01*
X124009340Y-68835588D01*
X123969779Y-68904109D01*
X123969777Y-68904114D01*
X123949300Y-68980535D01*
X123949300Y-73885464D01*
X123969778Y-73961888D01*
X124000498Y-74015098D01*
X124000499Y-74015098D01*
X124000500Y-74015100D01*
X124009340Y-74030411D01*
X124130426Y-74151497D01*
X124152100Y-74203822D01*
X124152100Y-74314594D01*
X124186206Y-74441881D01*
X124186210Y-74441890D01*
X124217466Y-74496027D01*
X124252100Y-74556014D01*
X124345286Y-74649200D01*
X124459414Y-74715092D01*
X124586705Y-74749199D01*
X124586706Y-74749200D01*
X124586708Y-74749200D01*
X124718494Y-74749200D01*
X124718494Y-74749199D01*
X124845786Y-74715092D01*
X124959914Y-74649200D01*
X125053100Y-74556014D01*
X125118992Y-74441886D01*
X125153099Y-74314594D01*
X125153100Y-74314594D01*
X125153100Y-74182806D01*
X125153099Y-74182805D01*
X125118992Y-74055515D01*
X125117873Y-74052812D01*
X125117873Y-74051338D01*
X125117737Y-74050830D01*
X125117873Y-74050793D01*
X125117879Y-73996175D01*
X125157931Y-73956130D01*
X125186243Y-73950500D01*
X126255600Y-73950500D01*
X126307926Y-73972174D01*
X126329600Y-74024500D01*
X126329600Y-77948980D01*
X126307926Y-78001306D01*
X126255600Y-78022980D01*
X126245942Y-78022347D01*
X126239796Y-78021538D01*
X126224316Y-78019500D01*
X125775684Y-78019500D01*
X125764318Y-78020996D01*
X125726828Y-78025931D01*
X125619595Y-78075935D01*
X125535935Y-78159595D01*
X125485931Y-78266828D01*
X125479500Y-78315685D01*
X125479500Y-78385877D01*
X125457826Y-78438203D01*
X125405500Y-78459877D01*
X125353174Y-78438203D01*
X124354610Y-77439639D01*
X124323120Y-77421459D01*
X124286090Y-77400079D01*
X124286085Y-77400077D01*
X124205347Y-77378443D01*
X124160414Y-77343964D01*
X124150500Y-77306965D01*
X124150500Y-75580253D01*
X124140936Y-75532173D01*
X124138867Y-75521769D01*
X124135136Y-75516186D01*
X124120646Y-75494500D01*
X124094552Y-75455448D01*
X124063131Y-75434453D01*
X124028232Y-75411133D01*
X124028233Y-75411133D01*
X123998989Y-75405316D01*
X123969748Y-75399500D01*
X123230252Y-75399500D01*
X123201010Y-75405316D01*
X123171767Y-75411133D01*
X123105449Y-75455447D01*
X123102326Y-75458571D01*
X123050000Y-75480245D01*
X122997674Y-75458571D01*
X122994554Y-75455451D01*
X122994552Y-75455448D01*
X122963131Y-75434453D01*
X122928232Y-75411133D01*
X122928233Y-75411133D01*
X122898989Y-75405316D01*
X122869748Y-75399500D01*
X122130252Y-75399500D01*
X122101010Y-75405316D01*
X122071767Y-75411133D01*
X122005449Y-75455447D01*
X122002326Y-75458571D01*
X121950000Y-75480245D01*
X121897674Y-75458571D01*
X121894554Y-75455451D01*
X121894552Y-75455448D01*
X121863131Y-75434453D01*
X121828232Y-75411133D01*
X121828233Y-75411133D01*
X121798989Y-75405316D01*
X121769748Y-75399500D01*
X121030252Y-75399500D01*
X121001010Y-75405316D01*
X120971767Y-75411133D01*
X120905449Y-75455447D01*
X120905447Y-75455449D01*
X120861133Y-75521767D01*
X120853377Y-75560757D01*
X120849500Y-75580252D01*
X120849500Y-77419748D01*
X120858315Y-77464064D01*
X120861133Y-77478231D01*
X120861133Y-77478232D01*
X120867401Y-77487612D01*
X120905448Y-77544552D01*
X120931879Y-77562213D01*
X120971765Y-77588865D01*
X120971766Y-77588865D01*
X120971769Y-77588867D01*
X120988380Y-77592171D01*
X121035470Y-77623633D01*
X121046522Y-77679182D01*
X121045422Y-77683900D01*
X121041500Y-77698537D01*
X121041500Y-78891564D01*
X121061977Y-78967985D01*
X121061979Y-78967990D01*
X121097527Y-79029561D01*
X121097528Y-79029562D01*
X121101540Y-79036511D01*
X121101541Y-79036512D01*
X121457826Y-79392797D01*
X121479500Y-79445123D01*
X121479500Y-79684314D01*
X121485931Y-79733171D01*
X121504584Y-79773173D01*
X121535935Y-79840404D01*
X121619596Y-79924065D01*
X121726827Y-79974068D01*
X121775684Y-79980500D01*
X121775686Y-79980500D01*
X122224314Y-79980500D01*
X122224316Y-79980500D01*
X122262841Y-79975428D01*
X122317549Y-79990087D01*
X122345867Y-80039136D01*
X122346500Y-80048795D01*
X122346500Y-83815376D01*
X122324826Y-83867702D01*
X121619002Y-84573526D01*
X121566676Y-84595200D01*
X121455906Y-84595200D01*
X121328618Y-84629306D01*
X121328609Y-84629310D01*
X121214485Y-84695200D01*
X121121300Y-84788385D01*
X121055410Y-84902509D01*
X121055406Y-84902518D01*
X121021300Y-85029805D01*
X121021300Y-85029808D01*
X121021300Y-85161592D01*
X121045554Y-85252110D01*
X121055409Y-85288889D01*
X121057265Y-85293369D01*
X121056662Y-85293618D01*
X121065300Y-85325847D01*
X121065300Y-87885364D01*
X121085777Y-87961785D01*
X121085779Y-87961790D01*
X121107552Y-87999501D01*
X121125340Y-88030311D01*
X121467826Y-88372797D01*
X121489500Y-88425123D01*
X121489500Y-88659899D01*
X121496027Y-88709485D01*
X121496028Y-88709487D01*
X121546776Y-88818316D01*
X121631684Y-88903224D01*
X121740513Y-88953972D01*
X121790099Y-88960500D01*
X122209900Y-88960499D01*
X122259487Y-88953972D01*
X122368316Y-88903224D01*
X122453224Y-88818316D01*
X122503972Y-88709487D01*
X122510500Y-88659901D01*
X122510499Y-88300100D01*
X122503972Y-88250513D01*
X122453224Y-88141684D01*
X122368316Y-88056776D01*
X122259487Y-88006028D01*
X122259485Y-88006027D01*
X122222955Y-88001218D01*
X122209901Y-87999500D01*
X122209899Y-87999500D01*
X121975123Y-87999500D01*
X121922797Y-87977826D01*
X121687974Y-87743003D01*
X121666300Y-87690677D01*
X121666300Y-85631703D01*
X121687974Y-85579377D01*
X121711988Y-85563333D01*
X121714974Y-85562095D01*
X121714986Y-85562092D01*
X121829114Y-85496200D01*
X121922300Y-85403014D01*
X121988192Y-85288886D01*
X122022299Y-85161594D01*
X122022300Y-85161594D01*
X122022300Y-85050822D01*
X122043974Y-84998496D01*
X122447270Y-84595200D01*
X122887460Y-84155011D01*
X122910814Y-84114559D01*
X122955747Y-84080082D01*
X123011900Y-84087474D01*
X123046378Y-84132407D01*
X123048900Y-84151560D01*
X123048900Y-87868964D01*
X123069377Y-87945385D01*
X123069379Y-87945390D01*
X123104389Y-88006028D01*
X123104390Y-88006030D01*
X123108937Y-88013907D01*
X123108941Y-88013912D01*
X123467826Y-88372797D01*
X123489500Y-88425123D01*
X123489500Y-88659899D01*
X123496027Y-88709485D01*
X123496028Y-88709487D01*
X123546776Y-88818316D01*
X123631684Y-88903224D01*
X123740513Y-88953972D01*
X123790099Y-88960500D01*
X124209900Y-88960499D01*
X124259487Y-88953972D01*
X124368316Y-88903224D01*
X124453224Y-88818316D01*
X124503972Y-88709487D01*
X124510500Y-88659901D01*
X124510499Y-88300100D01*
X124503972Y-88250513D01*
X124453224Y-88141684D01*
X124368316Y-88056776D01*
X124259487Y-88006028D01*
X124259485Y-88006027D01*
X124222955Y-88001218D01*
X124209901Y-87999500D01*
X124209899Y-87999500D01*
X123975123Y-87999500D01*
X123922797Y-87977826D01*
X123671574Y-87726603D01*
X123649900Y-87674277D01*
X123649900Y-83554922D01*
X123671573Y-83502597D01*
X124370196Y-82803973D01*
X124422522Y-82782300D01*
X124533294Y-82782300D01*
X124533294Y-82782299D01*
X124660586Y-82748192D01*
X124774714Y-82682300D01*
X124867900Y-82589114D01*
X124933792Y-82474986D01*
X124967899Y-82347694D01*
X124967900Y-82347694D01*
X124967900Y-82215906D01*
X124967899Y-82215905D01*
X124933793Y-82088618D01*
X124933792Y-82088614D01*
X124927913Y-82078431D01*
X124918000Y-82041433D01*
X124918000Y-80526476D01*
X124939674Y-80474150D01*
X124992000Y-80452476D01*
X125011147Y-80454996D01*
X125131708Y-80487300D01*
X125131709Y-80487300D01*
X125263494Y-80487300D01*
X125263494Y-80487299D01*
X125390786Y-80453192D01*
X125477177Y-80403313D01*
X125514177Y-80393400D01*
X126109700Y-80393400D01*
X126162026Y-80415074D01*
X126183700Y-80467400D01*
X126183700Y-83099564D01*
X126204177Y-83175985D01*
X126204179Y-83175990D01*
X126226865Y-83215283D01*
X126226866Y-83215285D01*
X126226869Y-83215289D01*
X126243740Y-83244511D01*
X126243741Y-83244512D01*
X126312226Y-83312997D01*
X126333900Y-83365323D01*
X126333900Y-87690476D01*
X126312226Y-87742802D01*
X126077201Y-87977826D01*
X126024875Y-87999500D01*
X125790100Y-87999500D01*
X125740514Y-88006027D01*
X125740512Y-88006028D01*
X125631683Y-88056776D01*
X125546776Y-88141683D01*
X125496027Y-88250514D01*
X125489500Y-88300100D01*
X125489500Y-88659899D01*
X125496027Y-88709485D01*
X125496028Y-88709487D01*
X125546776Y-88818316D01*
X125631684Y-88903224D01*
X125740513Y-88953972D01*
X125790099Y-88960500D01*
X126209900Y-88960499D01*
X126259487Y-88953972D01*
X126368316Y-88903224D01*
X126453224Y-88818316D01*
X126503972Y-88709487D01*
X126510500Y-88659901D01*
X126510499Y-88425121D01*
X126532172Y-88372797D01*
X126874860Y-88030111D01*
X126888764Y-88006028D01*
X126914421Y-87961589D01*
X126934899Y-87885164D01*
X126934900Y-87885164D01*
X126934900Y-83394300D01*
X126956574Y-83341974D01*
X127008900Y-83320300D01*
X127130194Y-83320300D01*
X127130194Y-83320299D01*
X127257486Y-83286192D01*
X127371614Y-83220300D01*
X127449940Y-83141974D01*
X127502266Y-83120300D01*
X128493477Y-83120300D01*
X128545803Y-83141974D01*
X129407526Y-84003697D01*
X129429200Y-84056023D01*
X129429200Y-86885576D01*
X129407526Y-86937902D01*
X128350625Y-87994802D01*
X128298299Y-88016476D01*
X128267026Y-88009543D01*
X128259488Y-88006028D01*
X128242958Y-88003852D01*
X128209901Y-87999500D01*
X128209899Y-87999500D01*
X127790100Y-87999500D01*
X127740514Y-88006027D01*
X127740512Y-88006028D01*
X127631683Y-88056776D01*
X127546776Y-88141683D01*
X127496027Y-88250514D01*
X127489500Y-88300100D01*
X127489500Y-88659899D01*
X127496027Y-88709485D01*
X127496028Y-88709487D01*
X127546776Y-88818316D01*
X127631684Y-88903224D01*
X127740513Y-88953972D01*
X127790099Y-88960500D01*
X128209900Y-88960499D01*
X128259487Y-88953972D01*
X128368316Y-88903224D01*
X128453224Y-88818316D01*
X128503972Y-88709487D01*
X128503972Y-88709480D01*
X128505555Y-88704054D01*
X128507807Y-88704710D01*
X128524478Y-88670892D01*
X128530860Y-88664511D01*
X129677376Y-87517994D01*
X129729699Y-87496322D01*
X129782025Y-87517996D01*
X129958540Y-87694511D01*
X130014489Y-87750460D01*
X130083011Y-87790021D01*
X130083012Y-87790021D01*
X130083014Y-87790022D01*
X130121224Y-87800260D01*
X130159435Y-87810499D01*
X130159436Y-87810500D01*
X130159438Y-87810500D01*
X130476474Y-87810500D01*
X130528800Y-87832174D01*
X130534506Y-87838975D01*
X130535935Y-87840404D01*
X130619596Y-87924065D01*
X130726827Y-87974068D01*
X130775684Y-87980500D01*
X130775686Y-87980500D01*
X131224314Y-87980500D01*
X131224316Y-87980500D01*
X131273173Y-87974068D01*
X131380404Y-87924065D01*
X131464065Y-87840404D01*
X131514068Y-87733173D01*
X131520500Y-87684316D01*
X131520500Y-87335684D01*
X131514068Y-87286827D01*
X131464065Y-87179596D01*
X131380404Y-87095935D01*
X131380402Y-87095933D01*
X131334886Y-87074709D01*
X131318495Y-87067066D01*
X131280232Y-87025310D01*
X131282702Y-86968727D01*
X131318495Y-86932933D01*
X131380404Y-86904065D01*
X131464065Y-86820404D01*
X131514068Y-86713173D01*
X131520500Y-86664316D01*
X131520500Y-86315684D01*
X131514068Y-86266827D01*
X131464065Y-86159596D01*
X131380404Y-86075935D01*
X131326455Y-86050777D01*
X131288192Y-86009019D01*
X131286252Y-86002864D01*
X131280022Y-85979614D01*
X131280020Y-85979609D01*
X131269420Y-85961249D01*
X131240460Y-85911089D01*
X131184511Y-85855140D01*
X131145074Y-85815703D01*
X131123400Y-85763377D01*
X131123400Y-85652606D01*
X131123399Y-85652605D01*
X131117798Y-85631703D01*
X131089292Y-85525314D01*
X131023400Y-85411186D01*
X130930214Y-85318000D01*
X130879794Y-85288890D01*
X130816090Y-85252110D01*
X130816081Y-85252106D01*
X130688794Y-85218000D01*
X130688792Y-85218000D01*
X130557008Y-85218000D01*
X130557006Y-85218000D01*
X130429718Y-85252106D01*
X130429709Y-85252110D01*
X130315585Y-85318000D01*
X130222400Y-85411185D01*
X130168286Y-85504913D01*
X130123352Y-85539392D01*
X130067200Y-85531999D01*
X130032721Y-85487065D01*
X130030200Y-85467913D01*
X130030200Y-83861335D01*
X130009722Y-83784914D01*
X130009720Y-83784909D01*
X129970159Y-83716388D01*
X128970774Y-82717003D01*
X128949100Y-82664677D01*
X128949100Y-79099036D01*
X128949099Y-79099035D01*
X128945294Y-79084836D01*
X128938090Y-79057950D01*
X128928622Y-79022614D01*
X128928620Y-79022609D01*
X128900965Y-78974709D01*
X128889060Y-78954089D01*
X128833111Y-78898140D01*
X128542174Y-78607203D01*
X128520500Y-78554877D01*
X128520500Y-78315685D01*
X128518735Y-78302274D01*
X128514068Y-78266827D01*
X128464065Y-78159596D01*
X128380404Y-78075935D01*
X128273173Y-78025932D01*
X128273171Y-78025931D01*
X128237178Y-78021193D01*
X128224316Y-78019500D01*
X127775684Y-78019500D01*
X127764318Y-78020996D01*
X127726828Y-78025931D01*
X127619595Y-78075935D01*
X127535935Y-78159595D01*
X127485931Y-78266828D01*
X127479500Y-78315685D01*
X127479500Y-78385877D01*
X127457826Y-78438203D01*
X127405500Y-78459877D01*
X127353174Y-78438203D01*
X126952274Y-78037303D01*
X126930600Y-77984977D01*
X126930600Y-73360436D01*
X126930599Y-73360435D01*
X126929262Y-73355447D01*
X126920142Y-73321409D01*
X126910122Y-73284014D01*
X126910120Y-73284009D01*
X126870559Y-73215488D01*
X126814611Y-73159540D01*
X126746090Y-73119979D01*
X126746085Y-73119977D01*
X126669664Y-73099500D01*
X126669662Y-73099500D01*
X126624390Y-73099500D01*
X126572064Y-73077826D01*
X126551245Y-73033810D01*
X126551209Y-73033818D01*
X126551180Y-73033672D01*
X126550747Y-73032757D01*
X126550500Y-73030256D01*
X126550500Y-73030252D01*
X126538867Y-72971769D01*
X126494552Y-72905448D01*
X126494548Y-72905445D01*
X126491429Y-72902326D01*
X126469755Y-72850000D01*
X126491429Y-72797674D01*
X126494545Y-72794556D01*
X126494552Y-72794552D01*
X126538867Y-72728231D01*
X126550500Y-72669748D01*
X126550500Y-71930252D01*
X126538867Y-71871769D01*
X126494552Y-71805448D01*
X126494548Y-71805445D01*
X126491429Y-71802326D01*
X126469755Y-71750000D01*
X126491429Y-71697674D01*
X126494545Y-71694556D01*
X126494552Y-71694552D01*
X126538867Y-71628231D01*
X126550500Y-71569748D01*
X126550500Y-70830252D01*
X126538867Y-70771769D01*
X126530259Y-70758887D01*
X126505676Y-70722096D01*
X126494552Y-70705448D01*
X126494548Y-70705445D01*
X126491429Y-70702326D01*
X126469755Y-70650000D01*
X126491429Y-70597674D01*
X126494545Y-70594556D01*
X126494552Y-70594552D01*
X126526621Y-70546557D01*
X126573711Y-70515093D01*
X126629260Y-70526142D01*
X126640474Y-70535345D01*
X126688126Y-70582997D01*
X126709800Y-70635323D01*
X126709800Y-71932464D01*
X126730277Y-72008885D01*
X126730279Y-72008890D01*
X126754094Y-72050138D01*
X126769840Y-72077411D01*
X127626940Y-72934511D01*
X127682889Y-72990460D01*
X127751411Y-73030021D01*
X127751412Y-73030021D01*
X127751414Y-73030022D01*
X127765036Y-73033672D01*
X127827835Y-73050499D01*
X127827836Y-73050500D01*
X127827838Y-73050500D01*
X128107154Y-73050500D01*
X128144155Y-73060415D01*
X128156067Y-73067293D01*
X128156075Y-73067296D01*
X128195373Y-73077826D01*
X128242669Y-73090499D01*
X128242670Y-73090500D01*
X128242672Y-73090500D01*
X128957330Y-73090500D01*
X128957330Y-73090499D01*
X129018200Y-73074188D01*
X129043925Y-73067296D01*
X129043925Y-73067295D01*
X129043928Y-73067295D01*
X129083501Y-73044447D01*
X129139653Y-73037056D01*
X129184586Y-73071534D01*
X129194500Y-73108534D01*
X129194500Y-74503308D01*
X129172826Y-74555634D01*
X129096776Y-74631683D01*
X129046027Y-74740514D01*
X129039500Y-74790100D01*
X129039500Y-74989520D01*
X129017826Y-75041846D01*
X128606433Y-75453239D01*
X128563584Y-75527456D01*
X128563580Y-75527465D01*
X128550756Y-75575324D01*
X128550757Y-75575325D01*
X128549437Y-75580252D01*
X128541400Y-75610247D01*
X128541400Y-77360347D01*
X128541400Y-77446053D01*
X128561148Y-77519755D01*
X128563583Y-77528841D01*
X128563584Y-77528843D01*
X128606432Y-77603058D01*
X128606433Y-77603059D01*
X128606435Y-77603062D01*
X130573673Y-79570299D01*
X132461926Y-81458552D01*
X132483600Y-81510878D01*
X132483600Y-101426000D01*
X132461926Y-101478326D01*
X132409600Y-101500000D01*
X128300000Y-101500000D01*
X128300000Y-116500000D01*
X132409600Y-116500000D01*
X132461926Y-116521674D01*
X132483600Y-116574000D01*
X132483600Y-118300421D01*
X132461926Y-118352747D01*
X132211847Y-118602826D01*
X132159521Y-118624500D01*
X131716511Y-118624500D01*
X131616874Y-118640280D01*
X131616873Y-118640281D01*
X131496780Y-118701471D01*
X131401471Y-118796780D01*
X131340281Y-118916873D01*
X131340280Y-118916874D01*
X131324500Y-119016511D01*
X131324500Y-119533488D01*
X131340280Y-119633125D01*
X131340281Y-119633126D01*
X131401472Y-119753220D01*
X131496780Y-119848528D01*
X131616874Y-119909719D01*
X131716511Y-119925500D01*
X131716512Y-119925500D01*
X132159522Y-119925500D01*
X132211848Y-119947174D01*
X132297826Y-120033152D01*
X132319500Y-120085478D01*
X132319500Y-121194921D01*
X132297826Y-121247247D01*
X132067246Y-121477826D01*
X132014920Y-121499500D01*
X131790100Y-121499500D01*
X131740514Y-121506027D01*
X131740509Y-121506029D01*
X131655773Y-121545542D01*
X131599190Y-121548012D01*
X131557433Y-121509748D01*
X131550500Y-121478475D01*
X131550500Y-120893441D01*
X131550499Y-120893440D01*
X131541865Y-120861219D01*
X131509577Y-120740716D01*
X131430520Y-120603784D01*
X131318716Y-120491980D01*
X131316137Y-120489401D01*
X131316126Y-120489391D01*
X130813540Y-119986805D01*
X130813538Y-119986802D01*
X130697516Y-119870780D01*
X130593107Y-119810500D01*
X130593106Y-119810498D01*
X130560586Y-119791723D01*
X130560581Y-119791721D01*
X130407859Y-119750799D01*
X130407857Y-119750799D01*
X130249743Y-119750799D01*
X130245213Y-119750799D01*
X130245197Y-119750800D01*
X129552739Y-119750800D01*
X129543711Y-119753219D01*
X129400018Y-119791721D01*
X129263083Y-119870780D01*
X128753506Y-120380358D01*
X128701180Y-120402032D01*
X128648854Y-120380358D01*
X128637094Y-120365032D01*
X128615819Y-120328183D01*
X128501437Y-120213801D01*
X128501426Y-120213791D01*
X127540574Y-119252939D01*
X127518900Y-119200613D01*
X127518900Y-117778429D01*
X127518901Y-117778416D01*
X127518901Y-117614341D01*
X127518900Y-117614340D01*
X127477978Y-117461618D01*
X127469639Y-117447174D01*
X127398920Y-117324684D01*
X126697174Y-116622938D01*
X126675500Y-116570612D01*
X126675500Y-116516511D01*
X126659719Y-116416874D01*
X126659718Y-116416873D01*
X126598528Y-116296780D01*
X126503219Y-116201471D01*
X126383126Y-116140281D01*
X126383125Y-116140280D01*
X126283489Y-116124500D01*
X126283488Y-116124500D01*
X125716512Y-116124500D01*
X125716511Y-116124500D01*
X125616874Y-116140280D01*
X125616873Y-116140281D01*
X125496780Y-116201471D01*
X125401471Y-116296780D01*
X125340281Y-116416873D01*
X125340280Y-116416874D01*
X125324500Y-116516511D01*
X125324500Y-117033488D01*
X125340280Y-117133125D01*
X125340281Y-117133126D01*
X125398348Y-117247090D01*
X125401472Y-117253220D01*
X125496780Y-117348528D01*
X125616874Y-117409719D01*
X125716511Y-117425500D01*
X125716512Y-117425500D01*
X125770613Y-117425500D01*
X125822939Y-117447174D01*
X126296226Y-117920461D01*
X126317900Y-117972787D01*
X126317900Y-118805500D01*
X126296226Y-118857826D01*
X126243900Y-118879500D01*
X126079057Y-118879500D01*
X125920943Y-118879500D01*
X125802912Y-118911126D01*
X125768211Y-118920424D01*
X125746779Y-118932799D01*
X125746778Y-118932800D01*
X125631283Y-118999480D01*
X125519478Y-119111286D01*
X124872239Y-119758526D01*
X124819913Y-119780200D01*
X122361914Y-119780200D01*
X122309588Y-119758526D01*
X122287914Y-119706200D01*
X122309588Y-119653874D01*
X122324913Y-119642115D01*
X122331987Y-119638030D01*
X122339314Y-119633800D01*
X122432500Y-119540614D01*
X122498392Y-119426486D01*
X122532499Y-119299194D01*
X122532500Y-119299194D01*
X122532500Y-119167406D01*
X122532499Y-119167405D01*
X122502632Y-119055940D01*
X122498392Y-119040114D01*
X122432500Y-118925986D01*
X122339314Y-118832800D01*
X122329727Y-118827265D01*
X122225190Y-118766910D01*
X122225181Y-118766906D01*
X122097894Y-118732800D01*
X122097892Y-118732800D01*
X121966108Y-118732800D01*
X121966106Y-118732800D01*
X121838818Y-118766906D01*
X121838809Y-118766910D01*
X121724685Y-118832800D01*
X121646360Y-118911126D01*
X121594034Y-118932800D01*
X121527517Y-118932800D01*
X121475191Y-118911126D01*
X121453517Y-118858800D01*
X121463461Y-118827265D01*
X121461329Y-118826271D01*
X121487333Y-118770505D01*
X121514068Y-118713173D01*
X121520500Y-118664316D01*
X121520500Y-118315684D01*
X121514068Y-118266827D01*
X121464065Y-118159596D01*
X121380404Y-118075935D01*
X121380403Y-118075934D01*
X121343225Y-118058597D01*
X121304962Y-118016839D01*
X121300500Y-117991531D01*
X121300500Y-109646836D01*
X121300499Y-109646835D01*
X121280022Y-109570414D01*
X121280020Y-109570409D01*
X121252159Y-109522153D01*
X121240460Y-109501889D01*
X121184511Y-109445940D01*
X116972474Y-105233903D01*
X116950800Y-105181577D01*
X116950800Y-105070806D01*
X116950799Y-105070805D01*
X116916693Y-104943518D01*
X116916692Y-104943514D01*
X116850800Y-104829386D01*
X116757614Y-104736200D01*
X116730615Y-104720612D01*
X116643490Y-104670310D01*
X116643481Y-104670306D01*
X116516194Y-104636200D01*
X116516192Y-104636200D01*
X116384408Y-104636200D01*
X116384406Y-104636200D01*
X116257118Y-104670306D01*
X116257109Y-104670310D01*
X116142985Y-104736200D01*
X116049800Y-104829385D01*
X115983910Y-104943509D01*
X115983906Y-104943518D01*
X115949800Y-105070805D01*
X115949800Y-105202594D01*
X115983906Y-105329881D01*
X115983910Y-105329890D01*
X116008323Y-105372174D01*
X116049800Y-105444014D01*
X116142986Y-105537200D01*
X116257114Y-105603092D01*
X116384405Y-105637199D01*
X116384406Y-105637200D01*
X116495177Y-105637200D01*
X116547503Y-105658874D01*
X120677826Y-109789197D01*
X120699500Y-109841523D01*
X120699500Y-113064399D01*
X120677826Y-113116725D01*
X120625500Y-113138399D01*
X120588501Y-113128486D01*
X120579188Y-113123109D01*
X120579181Y-113123106D01*
X120451894Y-113089000D01*
X120451892Y-113089000D01*
X120320108Y-113089000D01*
X120320106Y-113089000D01*
X120192818Y-113123106D01*
X120192809Y-113123110D01*
X120078685Y-113189000D01*
X119985500Y-113282185D01*
X119919610Y-113396309D01*
X119919606Y-113396318D01*
X119885500Y-113523605D01*
X119885500Y-113655394D01*
X119919606Y-113782681D01*
X119919610Y-113782690D01*
X119967998Y-113866500D01*
X119985500Y-113896814D01*
X120078686Y-113990000D01*
X120192814Y-114055892D01*
X120320105Y-114089999D01*
X120320106Y-114090000D01*
X120320108Y-114090000D01*
X120451894Y-114090000D01*
X120451894Y-114089999D01*
X120579186Y-114055892D01*
X120579190Y-114055889D01*
X120579194Y-114055888D01*
X120588498Y-114050516D01*
X120644650Y-114043121D01*
X120689584Y-114077598D01*
X120699500Y-114114600D01*
X120699500Y-117991531D01*
X120677826Y-118043857D01*
X120656775Y-118058597D01*
X120619596Y-118075934D01*
X120535935Y-118159595D01*
X120485931Y-118266828D01*
X120481509Y-118300421D01*
X120479500Y-118315684D01*
X120479500Y-118664316D01*
X120480851Y-118674580D01*
X120485931Y-118713171D01*
X120485932Y-118713173D01*
X120535935Y-118820404D01*
X120619596Y-118904065D01*
X120681504Y-118932933D01*
X120719767Y-118974691D01*
X120717297Y-119031274D01*
X120681504Y-119067066D01*
X120653531Y-119080110D01*
X120619595Y-119095935D01*
X120535935Y-119179595D01*
X120485931Y-119286828D01*
X120480346Y-119329253D01*
X120479500Y-119335684D01*
X120479500Y-119684316D01*
X120481109Y-119696541D01*
X120466452Y-119751247D01*
X120417404Y-119779567D01*
X120407743Y-119780200D01*
X120167987Y-119780200D01*
X120115661Y-119758526D01*
X119127640Y-118770505D01*
X119127638Y-118770502D01*
X119011616Y-118654480D01*
X118902598Y-118591539D01*
X118902598Y-118591538D01*
X118902596Y-118591538D01*
X118874685Y-118575423D01*
X118874683Y-118575422D01*
X118874681Y-118575421D01*
X118721959Y-118534499D01*
X118721957Y-118534499D01*
X118563843Y-118534499D01*
X118563841Y-118534499D01*
X118411118Y-118575421D01*
X118411111Y-118575424D01*
X118383203Y-118591538D01*
X118383202Y-118591539D01*
X118274183Y-118654480D01*
X118162380Y-118766283D01*
X118112260Y-118853095D01*
X118083323Y-118903213D01*
X118083321Y-118903218D01*
X118042399Y-119055940D01*
X118042399Y-119214059D01*
X118083321Y-119366781D01*
X118083323Y-119366786D01*
X118109202Y-119411609D01*
X118109205Y-119411613D01*
X118162380Y-119503716D01*
X118278399Y-119619735D01*
X118278405Y-119619740D01*
X119405491Y-120746826D01*
X119405496Y-120746832D01*
X119408080Y-120749416D01*
X119519884Y-120861220D01*
X119598101Y-120906378D01*
X119656815Y-120940277D01*
X119656816Y-120940277D01*
X119656818Y-120940278D01*
X119733179Y-120960739D01*
X119809540Y-120981200D01*
X119809541Y-120981201D01*
X119809543Y-120981201D01*
X119972187Y-120981201D01*
X119972203Y-120981200D01*
X125015697Y-120981200D01*
X125015713Y-120981201D01*
X125020243Y-120981201D01*
X125178359Y-120981201D01*
X125178359Y-120981200D01*
X125331085Y-120940277D01*
X125389799Y-120906378D01*
X125468016Y-120861220D01*
X125579820Y-120749416D01*
X125579821Y-120749413D01*
X126227061Y-120102174D01*
X126279387Y-120080500D01*
X126639013Y-120080500D01*
X126691339Y-120102174D01*
X127513126Y-120923961D01*
X127534800Y-120976287D01*
X127534800Y-126101696D01*
X127534799Y-126101714D01*
X127534799Y-126264359D01*
X127575721Y-126417081D01*
X127575723Y-126417086D01*
X127601684Y-126462051D01*
X127654780Y-126554016D01*
X127770799Y-126670035D01*
X127770805Y-126670040D01*
X128132826Y-127032061D01*
X128154500Y-127084387D01*
X128154500Y-127883748D01*
X128162255Y-127922736D01*
X128166133Y-127942232D01*
X128195608Y-127986343D01*
X128210448Y-128008552D01*
X128250769Y-128035494D01*
X128276767Y-128052866D01*
X128276768Y-128052866D01*
X128276769Y-128052867D01*
X128335252Y-128064500D01*
X128335254Y-128064500D01*
X129564746Y-128064500D01*
X129564748Y-128064500D01*
X129623231Y-128052867D01*
X129689552Y-128008552D01*
X129733867Y-127942231D01*
X129745500Y-127883748D01*
X129745500Y-127674500D01*
X129767174Y-127622174D01*
X129819500Y-127600500D01*
X131516397Y-127600500D01*
X131516413Y-127600501D01*
X131520943Y-127600501D01*
X131679059Y-127600501D01*
X131679059Y-127600500D01*
X131831785Y-127559577D01*
X131881904Y-127530639D01*
X131968716Y-127480520D01*
X132080520Y-127368716D01*
X132080521Y-127368713D01*
X133077061Y-126372174D01*
X133129387Y-126350500D01*
X133354258Y-126350500D01*
X133354266Y-126350500D01*
X133384699Y-126347646D01*
X133512882Y-126302793D01*
X133622150Y-126222150D01*
X133702793Y-126112882D01*
X133747646Y-125984699D01*
X133750500Y-125954266D01*
X133750500Y-125245734D01*
X133747646Y-125215301D01*
X133702793Y-125087118D01*
X133657750Y-125026086D01*
X133622153Y-124977853D01*
X133622146Y-124977846D01*
X133512883Y-124897207D01*
X133512881Y-124897206D01*
X133384704Y-124852355D01*
X133384705Y-124852355D01*
X133384700Y-124852354D01*
X133384699Y-124852354D01*
X133354266Y-124849500D01*
X132645734Y-124849500D01*
X132615301Y-124852354D01*
X132615299Y-124852354D01*
X132615295Y-124852355D01*
X132487118Y-124897206D01*
X132487116Y-124897207D01*
X132377853Y-124977846D01*
X132377846Y-124977853D01*
X132297207Y-125087116D01*
X132297206Y-125087118D01*
X132252355Y-125215295D01*
X132252354Y-125215299D01*
X132252354Y-125215301D01*
X132249500Y-125245734D01*
X132249500Y-125245740D01*
X132249500Y-125470613D01*
X132227826Y-125522939D01*
X131372939Y-126377826D01*
X131320613Y-126399500D01*
X129819500Y-126399500D01*
X129767174Y-126377826D01*
X129745500Y-126325500D01*
X129745500Y-126116253D01*
X129744830Y-126112883D01*
X129733867Y-126057769D01*
X129689552Y-125991448D01*
X129663311Y-125973914D01*
X129623232Y-125947133D01*
X129623233Y-125947133D01*
X129593989Y-125941316D01*
X129564748Y-125935500D01*
X129564746Y-125935500D01*
X128809800Y-125935500D01*
X128757474Y-125913826D01*
X128735800Y-125861500D01*
X128735800Y-125627000D01*
X128757474Y-125574674D01*
X128809800Y-125553000D01*
X129380746Y-125553000D01*
X129380748Y-125553000D01*
X129439231Y-125541367D01*
X129505552Y-125497052D01*
X129549867Y-125430731D01*
X129561500Y-125372248D01*
X129561500Y-124227752D01*
X129549867Y-124169269D01*
X129505552Y-124102948D01*
X129483343Y-124088108D01*
X129439232Y-124058633D01*
X129439233Y-124058633D01*
X129409989Y-124052816D01*
X129380748Y-124047000D01*
X129380746Y-124047000D01*
X128809800Y-124047000D01*
X128757474Y-124025326D01*
X128735800Y-123973000D01*
X128735800Y-123027000D01*
X128757474Y-122974674D01*
X128809800Y-122953000D01*
X129380746Y-122953000D01*
X129380748Y-122953000D01*
X129439231Y-122941367D01*
X129505552Y-122897052D01*
X129549867Y-122830731D01*
X129561500Y-122772248D01*
X129561500Y-122534884D01*
X129571414Y-122497884D01*
X129609576Y-122431785D01*
X129609577Y-122431784D01*
X129650499Y-122279059D01*
X129650500Y-122279059D01*
X129650500Y-121212487D01*
X129672174Y-121160161D01*
X129858861Y-120973474D01*
X129911187Y-120951800D01*
X130049413Y-120951800D01*
X130101739Y-120973474D01*
X130327826Y-121199561D01*
X130349500Y-121251887D01*
X130349500Y-122279059D01*
X130390421Y-122431780D01*
X130390423Y-122431785D01*
X130428586Y-122497884D01*
X130438500Y-122534884D01*
X130438500Y-122772246D01*
X130450133Y-122830732D01*
X130476272Y-122869850D01*
X130494448Y-122897052D01*
X130538560Y-122926527D01*
X130560767Y-122941366D01*
X130560768Y-122941366D01*
X130560769Y-122941367D01*
X130619252Y-122953000D01*
X130619254Y-122953000D01*
X131235021Y-122953000D01*
X131287347Y-122974674D01*
X131309021Y-123027000D01*
X131287347Y-123079326D01*
X130836847Y-123529826D01*
X130784521Y-123551500D01*
X130530000Y-123551500D01*
X130477674Y-123529826D01*
X130456000Y-123477500D01*
X130456000Y-123434106D01*
X130455999Y-123434105D01*
X130421893Y-123306818D01*
X130421892Y-123306814D01*
X130356000Y-123192686D01*
X130262814Y-123099500D01*
X130176212Y-123049500D01*
X130148690Y-123033610D01*
X130148681Y-123033606D01*
X130021394Y-122999500D01*
X130021392Y-122999500D01*
X129889608Y-122999500D01*
X129889606Y-122999500D01*
X129762318Y-123033606D01*
X129762309Y-123033610D01*
X129648185Y-123099500D01*
X129555000Y-123192685D01*
X129489110Y-123306809D01*
X129489106Y-123306818D01*
X129455000Y-123434105D01*
X129455000Y-123565894D01*
X129489106Y-123693181D01*
X129489107Y-123693184D01*
X129489108Y-123693186D01*
X129555000Y-123807314D01*
X129648186Y-123900500D01*
X129762314Y-123966392D01*
X129889605Y-124000499D01*
X129889606Y-124000500D01*
X129889608Y-124000500D01*
X129965022Y-124000500D01*
X130017348Y-124022174D01*
X130069446Y-124074272D01*
X130069451Y-124074278D01*
X130072035Y-124076862D01*
X130132638Y-124137465D01*
X130198517Y-124175500D01*
X130206862Y-124180318D01*
X130206864Y-124180318D01*
X130206865Y-124180319D01*
X130248255Y-124191409D01*
X130289645Y-124202500D01*
X130289646Y-124202501D01*
X130364500Y-124202501D01*
X130416826Y-124224175D01*
X130438500Y-124276501D01*
X130438500Y-125372248D01*
X130444311Y-125401460D01*
X130450133Y-125430732D01*
X130476782Y-125470613D01*
X130494448Y-125497052D01*
X130533190Y-125522939D01*
X130560767Y-125541366D01*
X130560768Y-125541366D01*
X130560769Y-125541367D01*
X130619252Y-125553000D01*
X130619254Y-125553000D01*
X131280746Y-125553000D01*
X131280748Y-125553000D01*
X131339231Y-125541367D01*
X131405552Y-125497052D01*
X131449867Y-125430731D01*
X131461500Y-125372248D01*
X131461500Y-124227752D01*
X131449867Y-124169269D01*
X131405552Y-124102948D01*
X131347940Y-124064452D01*
X131316476Y-124017359D01*
X131327526Y-123961810D01*
X131336723Y-123950603D01*
X132260465Y-123026862D01*
X132303318Y-122952639D01*
X132325500Y-122869853D01*
X132325500Y-122784147D01*
X132325500Y-122470332D01*
X132347174Y-122418006D01*
X132368232Y-122403262D01*
X132368316Y-122403224D01*
X132453224Y-122318316D01*
X132503972Y-122209487D01*
X132510500Y-122159901D01*
X132510499Y-121985877D01*
X132532172Y-121933553D01*
X132844859Y-121620866D01*
X132844862Y-121620865D01*
X132905465Y-121560262D01*
X132938555Y-121502948D01*
X132948318Y-121486039D01*
X132970500Y-121403255D01*
X132970501Y-121403255D01*
X132970501Y-121313018D01*
X132970500Y-121313000D01*
X132970500Y-119968824D01*
X132970501Y-119968811D01*
X132970501Y-119877145D01*
X132970500Y-119877144D01*
X132948319Y-119794364D01*
X132948318Y-119794362D01*
X132948318Y-119794361D01*
X132914334Y-119735500D01*
X132905465Y-119720138D01*
X132844862Y-119659535D01*
X132842283Y-119656956D01*
X132842272Y-119656946D01*
X132697174Y-119511847D01*
X132675500Y-119459521D01*
X132675500Y-119090478D01*
X132697173Y-119038153D01*
X133069565Y-118665762D01*
X133112418Y-118591539D01*
X133134600Y-118508753D01*
X133134600Y-118423047D01*
X133134600Y-116574000D01*
X133156274Y-116521674D01*
X133208600Y-116500000D01*
X136425500Y-116500000D01*
X136477826Y-116521674D01*
X136499500Y-116574000D01*
X136499500Y-127762034D01*
X136477826Y-127814360D01*
X134814360Y-129477826D01*
X134762034Y-129499500D01*
X99237966Y-129499500D01*
X99185640Y-129477826D01*
X97522174Y-127814360D01*
X97500500Y-127762034D01*
X97500500Y-127606082D01*
X113999500Y-127606082D01*
X113999500Y-127753918D01*
X114007212Y-127792686D01*
X114028340Y-127898907D01*
X114028343Y-127898917D01*
X114084915Y-128035494D01*
X114105227Y-128065892D01*
X114167049Y-128158416D01*
X114271584Y-128262951D01*
X114394505Y-128345084D01*
X114531087Y-128401658D01*
X114676082Y-128430500D01*
X114676084Y-128430500D01*
X114823916Y-128430500D01*
X114823918Y-128430500D01*
X114968913Y-128401658D01*
X115105495Y-128345084D01*
X115228416Y-128262951D01*
X115332951Y-128158416D01*
X115415084Y-128035495D01*
X115471658Y-127898913D01*
X115500500Y-127753918D01*
X115500500Y-127606082D01*
X118499500Y-127606082D01*
X118499500Y-127753918D01*
X118507212Y-127792686D01*
X118528340Y-127898907D01*
X118528343Y-127898917D01*
X118584915Y-128035494D01*
X118605227Y-128065892D01*
X118667049Y-128158416D01*
X118771584Y-128262951D01*
X118894505Y-128345084D01*
X119031087Y-128401658D01*
X119176082Y-128430500D01*
X119176084Y-128430500D01*
X119323916Y-128430500D01*
X119323918Y-128430500D01*
X119468913Y-128401658D01*
X119605495Y-128345084D01*
X119728416Y-128262951D01*
X119832951Y-128158416D01*
X119915084Y-128035495D01*
X119971658Y-127898913D01*
X120000500Y-127753918D01*
X120000500Y-127606082D01*
X119971658Y-127461087D01*
X119915084Y-127324505D01*
X119832951Y-127201584D01*
X119728416Y-127097049D01*
X119631155Y-127032061D01*
X119605494Y-127014915D01*
X119468917Y-126958343D01*
X119468907Y-126958340D01*
X119371811Y-126939026D01*
X119323918Y-126929500D01*
X119176082Y-126929500D01*
X119134977Y-126937676D01*
X119031092Y-126958340D01*
X119031082Y-126958343D01*
X118894505Y-127014915D01*
X118771584Y-127097048D01*
X118771583Y-127097050D01*
X118667050Y-127201583D01*
X118667048Y-127201584D01*
X118584915Y-127324505D01*
X118528343Y-127461082D01*
X118528340Y-127461092D01*
X118508750Y-127559578D01*
X118499500Y-127606082D01*
X115500500Y-127606082D01*
X115471658Y-127461087D01*
X115415084Y-127324505D01*
X115332951Y-127201584D01*
X115228416Y-127097049D01*
X115131155Y-127032061D01*
X115105494Y-127014915D01*
X114968917Y-126958343D01*
X114968907Y-126958340D01*
X114871811Y-126939026D01*
X114823918Y-126929500D01*
X114676082Y-126929500D01*
X114634977Y-126937676D01*
X114531092Y-126958340D01*
X114531082Y-126958343D01*
X114394505Y-127014915D01*
X114271584Y-127097048D01*
X114271583Y-127097050D01*
X114167050Y-127201583D01*
X114167048Y-127201584D01*
X114084915Y-127324505D01*
X114028343Y-127461082D01*
X114028340Y-127461092D01*
X114008750Y-127559578D01*
X113999500Y-127606082D01*
X97500500Y-127606082D01*
X97500500Y-125401460D01*
X114999500Y-125401460D01*
X114999500Y-125598539D01*
X115037947Y-125791829D01*
X115037950Y-125791839D01*
X115113367Y-125973913D01*
X115208476Y-126116253D01*
X115222861Y-126137782D01*
X115362218Y-126277139D01*
X115526086Y-126386632D01*
X115708165Y-126462051D01*
X115901459Y-126500500D01*
X115901461Y-126500500D01*
X116098539Y-126500500D01*
X116098541Y-126500500D01*
X116291835Y-126462051D01*
X116473914Y-126386632D01*
X116637782Y-126277139D01*
X116777139Y-126137782D01*
X116886632Y-125973914D01*
X116931633Y-125865270D01*
X116971681Y-125825222D01*
X117028318Y-125825222D01*
X117068367Y-125865270D01*
X117068367Y-125865271D01*
X117113367Y-125973913D01*
X117208476Y-126116253D01*
X117222861Y-126137782D01*
X117362218Y-126277139D01*
X117526086Y-126386632D01*
X117708165Y-126462051D01*
X117901459Y-126500500D01*
X117901461Y-126500500D01*
X118098539Y-126500500D01*
X118098541Y-126500500D01*
X118291835Y-126462051D01*
X118473914Y-126386632D01*
X118637782Y-126277139D01*
X118777139Y-126137782D01*
X118886632Y-125973914D01*
X118962051Y-125791835D01*
X119000500Y-125598541D01*
X119000500Y-125401460D01*
X119499500Y-125401460D01*
X119499500Y-125598539D01*
X119537947Y-125791829D01*
X119537950Y-125791839D01*
X119613367Y-125973913D01*
X119708476Y-126116253D01*
X119722861Y-126137782D01*
X119862218Y-126277139D01*
X120026086Y-126386632D01*
X120208165Y-126462051D01*
X120401459Y-126500500D01*
X120401461Y-126500500D01*
X120598539Y-126500500D01*
X120598541Y-126500500D01*
X120791835Y-126462051D01*
X120973914Y-126386632D01*
X121137782Y-126277139D01*
X121277139Y-126137782D01*
X121386632Y-125973914D01*
X121462051Y-125791835D01*
X121466342Y-125770262D01*
X121497808Y-125723171D01*
X121538920Y-125710700D01*
X123880813Y-125710700D01*
X123933139Y-125732374D01*
X125232826Y-127032061D01*
X125254500Y-127084387D01*
X125254500Y-127883748D01*
X125262255Y-127922736D01*
X125266133Y-127942232D01*
X125295608Y-127986343D01*
X125310448Y-128008552D01*
X125350769Y-128035494D01*
X125376767Y-128052866D01*
X125376768Y-128052866D01*
X125376769Y-128052867D01*
X125435252Y-128064500D01*
X125435254Y-128064500D01*
X126664746Y-128064500D01*
X126664748Y-128064500D01*
X126723231Y-128052867D01*
X126789552Y-128008552D01*
X126833867Y-127942231D01*
X126845500Y-127883748D01*
X126845500Y-126116252D01*
X126833867Y-126057769D01*
X126789552Y-125991448D01*
X126763311Y-125973914D01*
X126723232Y-125947133D01*
X126723233Y-125947133D01*
X126693989Y-125941316D01*
X126664748Y-125935500D01*
X126664746Y-125935500D01*
X125865388Y-125935500D01*
X125813062Y-125913826D01*
X124644940Y-124745705D01*
X124644938Y-124745702D01*
X124528916Y-124629680D01*
X124439803Y-124578231D01*
X124391986Y-124550623D01*
X124391981Y-124550621D01*
X124239259Y-124509699D01*
X124239257Y-124509699D01*
X124081143Y-124509699D01*
X124076613Y-124509699D01*
X124076597Y-124509700D01*
X120810740Y-124509700D01*
X120773245Y-124519747D01*
X120773238Y-124519749D01*
X120758838Y-124523606D01*
X120725256Y-124524704D01*
X120598541Y-124499500D01*
X120401459Y-124499500D01*
X120350186Y-124509699D01*
X120208170Y-124537947D01*
X120208160Y-124537950D01*
X120026086Y-124613367D01*
X119862218Y-124722860D01*
X119862217Y-124722862D01*
X119722862Y-124862217D01*
X119722860Y-124862218D01*
X119613367Y-125026086D01*
X119537950Y-125208160D01*
X119537947Y-125208170D01*
X119505850Y-125369535D01*
X119505311Y-125372248D01*
X119499500Y-125401460D01*
X119000500Y-125401460D01*
X119000500Y-125401459D01*
X118962051Y-125208165D01*
X118886632Y-125026086D01*
X118777139Y-124862218D01*
X118637782Y-124722861D01*
X118604317Y-124700500D01*
X118473913Y-124613367D01*
X118291839Y-124537950D01*
X118291829Y-124537947D01*
X118149814Y-124509699D01*
X118098541Y-124499500D01*
X117901459Y-124499500D01*
X117850186Y-124509699D01*
X117708170Y-124537947D01*
X117708160Y-124537950D01*
X117526086Y-124613367D01*
X117362218Y-124722860D01*
X117362217Y-124722862D01*
X117222862Y-124862217D01*
X117222860Y-124862218D01*
X117113367Y-125026086D01*
X117068367Y-125134728D01*
X117028319Y-125174777D01*
X116971682Y-125174777D01*
X116931633Y-125134729D01*
X116931633Y-125134728D01*
X116886632Y-125026086D01*
X116777139Y-124862218D01*
X116637781Y-124722860D01*
X116473913Y-124613367D01*
X116291839Y-124537950D01*
X116291829Y-124537947D01*
X116149814Y-124509699D01*
X116098541Y-124499500D01*
X115901459Y-124499500D01*
X115850186Y-124509699D01*
X115708170Y-124537947D01*
X115708160Y-124537950D01*
X115526086Y-124613367D01*
X115362218Y-124722860D01*
X115362217Y-124722862D01*
X115222862Y-124862217D01*
X115222860Y-124862218D01*
X115113367Y-125026086D01*
X115037950Y-125208160D01*
X115037947Y-125208170D01*
X115005850Y-125369535D01*
X115005311Y-125372248D01*
X114999500Y-125401460D01*
X97500500Y-125401460D01*
X97500500Y-123230252D01*
X99799500Y-123230252D01*
X99799500Y-124519748D01*
X99811133Y-124578231D01*
X99811133Y-124578232D01*
X99834611Y-124613368D01*
X99855448Y-124644552D01*
X99899560Y-124674027D01*
X99921767Y-124688866D01*
X99921768Y-124688866D01*
X99921769Y-124688867D01*
X99980252Y-124700500D01*
X99980254Y-124700500D01*
X101019746Y-124700500D01*
X101019748Y-124700500D01*
X101078231Y-124688867D01*
X101144552Y-124644552D01*
X101188867Y-124578231D01*
X101200500Y-124519748D01*
X101200500Y-124249500D01*
X101222174Y-124197174D01*
X101274500Y-124175500D01*
X101319664Y-124175500D01*
X101319664Y-124175499D01*
X101396089Y-124155021D01*
X101464611Y-124115460D01*
X101520560Y-124059511D01*
X104209160Y-121370911D01*
X104248722Y-121302388D01*
X104269200Y-121225962D01*
X104269200Y-121146838D01*
X104269200Y-112047766D01*
X104290874Y-111995440D01*
X104369200Y-111917114D01*
X104435092Y-111802986D01*
X104469199Y-111675694D01*
X104469200Y-111675694D01*
X104469200Y-111543906D01*
X104469199Y-111543905D01*
X104435093Y-111416618D01*
X104435092Y-111416614D01*
X104369200Y-111302486D01*
X104276014Y-111209300D01*
X104161890Y-111143410D01*
X104161881Y-111143406D01*
X104034594Y-111109300D01*
X104034592Y-111109300D01*
X103902808Y-111109300D01*
X103902806Y-111109300D01*
X103775518Y-111143406D01*
X103775509Y-111143410D01*
X103661385Y-111209300D01*
X103568200Y-111302485D01*
X103502310Y-111416609D01*
X103502306Y-111416618D01*
X103468200Y-111543905D01*
X103468200Y-111675694D01*
X103502306Y-111802981D01*
X103502310Y-111802990D01*
X103568200Y-111917114D01*
X103646526Y-111995440D01*
X103668200Y-112047766D01*
X103668200Y-121031277D01*
X103646526Y-121083603D01*
X101326826Y-123403303D01*
X101274500Y-123424977D01*
X101222174Y-123403303D01*
X101200500Y-123350977D01*
X101200500Y-123230253D01*
X101200500Y-123230252D01*
X101188867Y-123171769D01*
X101144552Y-123105448D01*
X101122343Y-123090608D01*
X101078232Y-123061133D01*
X101078233Y-123061133D01*
X101048989Y-123055316D01*
X101019748Y-123049500D01*
X99980252Y-123049500D01*
X99951010Y-123055316D01*
X99921767Y-123061133D01*
X99855449Y-123105447D01*
X99855447Y-123105449D01*
X99811133Y-123171767D01*
X99806972Y-123192686D01*
X99799500Y-123230252D01*
X97500500Y-123230252D01*
X97500500Y-99790100D01*
X99839500Y-99790100D01*
X99839500Y-100209899D01*
X99846027Y-100259485D01*
X99846028Y-100259487D01*
X99896776Y-100368316D01*
X99981684Y-100453224D01*
X100090513Y-100503972D01*
X100140099Y-100510500D01*
X100374876Y-100510499D01*
X100427202Y-100532173D01*
X100714440Y-100819411D01*
X100770389Y-100875360D01*
X100838911Y-100914921D01*
X100838912Y-100914921D01*
X100838914Y-100914922D01*
X100877124Y-100925160D01*
X100915335Y-100935399D01*
X100915336Y-100935400D01*
X102323279Y-100935400D01*
X102375605Y-100957074D01*
X102397279Y-101009400D01*
X102375605Y-101061726D01*
X102360279Y-101073486D01*
X102300671Y-101107900D01*
X102209900Y-101198671D01*
X102145722Y-101309830D01*
X102145720Y-101309835D01*
X102112500Y-101433816D01*
X102112500Y-103026183D01*
X102145720Y-103150164D01*
X102145722Y-103150169D01*
X102209900Y-103261328D01*
X102209901Y-103261329D01*
X102209903Y-103261332D01*
X102300668Y-103352097D01*
X102300670Y-103352098D01*
X102300671Y-103352099D01*
X102411830Y-103416277D01*
X102411832Y-103416278D01*
X102442841Y-103424586D01*
X102487774Y-103459065D01*
X102495167Y-103515217D01*
X102460688Y-103560151D01*
X102442841Y-103567543D01*
X102382518Y-103583706D01*
X102382509Y-103583710D01*
X102268385Y-103649600D01*
X102175200Y-103742785D01*
X102109310Y-103856909D01*
X102109306Y-103856918D01*
X102075200Y-103984205D01*
X102075200Y-104115994D01*
X102109306Y-104243281D01*
X102109310Y-104243290D01*
X102175200Y-104357414D01*
X102268387Y-104450601D01*
X102270544Y-104452256D01*
X102271230Y-104453444D01*
X102271816Y-104454030D01*
X102271659Y-104454186D01*
X102298866Y-104501303D01*
X102299500Y-104510967D01*
X102299500Y-105775216D01*
X102277826Y-105827542D01*
X102225500Y-105849216D01*
X102188501Y-105839302D01*
X102156994Y-105821111D01*
X102156981Y-105821106D01*
X102029694Y-105787000D01*
X102029692Y-105787000D01*
X101897908Y-105787000D01*
X101897906Y-105787000D01*
X101770618Y-105821106D01*
X101770605Y-105821111D01*
X101706780Y-105857961D01*
X101650628Y-105865353D01*
X101605695Y-105830874D01*
X101603845Y-105827467D01*
X101599658Y-105819249D01*
X101505749Y-105725340D01*
X101387420Y-105665049D01*
X101387420Y-105665048D01*
X101289247Y-105649500D01*
X101289246Y-105649500D01*
X101044623Y-105649500D01*
X100992297Y-105627826D01*
X100970623Y-105575500D01*
X100992297Y-105523174D01*
X101143297Y-105372174D01*
X101195623Y-105350500D01*
X101289247Y-105350500D01*
X101387420Y-105334951D01*
X101505751Y-105274658D01*
X101599658Y-105180751D01*
X101659951Y-105062420D01*
X101675500Y-104964246D01*
X101675500Y-104460754D01*
X101659951Y-104362580D01*
X101624046Y-104292113D01*
X101599659Y-104244250D01*
X101505749Y-104150340D01*
X101387420Y-104090049D01*
X101387420Y-104090048D01*
X101289247Y-104074500D01*
X101289246Y-104074500D01*
X100710754Y-104074500D01*
X100710753Y-104074500D01*
X100612579Y-104090048D01*
X100612579Y-104090049D01*
X100494250Y-104150340D01*
X100400340Y-104244250D01*
X100340049Y-104362579D01*
X100340048Y-104362579D01*
X100324500Y-104460753D01*
X100324500Y-104964246D01*
X100340049Y-105062420D01*
X100402986Y-105185941D01*
X100400778Y-105187065D01*
X100411943Y-105233610D01*
X100391182Y-105274346D01*
X100011189Y-105654340D01*
X99955240Y-105710288D01*
X99915679Y-105778809D01*
X99915677Y-105778814D01*
X99895200Y-105855235D01*
X99895200Y-106725264D01*
X99915677Y-106801685D01*
X99915679Y-106801690D01*
X99943370Y-106849652D01*
X99943371Y-106849654D01*
X99943374Y-106849658D01*
X99955240Y-106870211D01*
X99955241Y-106870212D01*
X100457826Y-107372797D01*
X100479500Y-107425123D01*
X100479500Y-107664314D01*
X100485931Y-107713171D01*
X100485932Y-107713173D01*
X100535935Y-107820404D01*
X100619596Y-107904065D01*
X100681504Y-107932933D01*
X100719767Y-107974691D01*
X100717297Y-108031274D01*
X100681504Y-108067066D01*
X100653531Y-108080110D01*
X100619595Y-108095935D01*
X100535935Y-108179595D01*
X100485931Y-108286828D01*
X100481607Y-108319681D01*
X100479500Y-108335684D01*
X100479500Y-108684316D01*
X100481193Y-108697178D01*
X100485931Y-108733171D01*
X100498998Y-108761192D01*
X100535935Y-108840404D01*
X100619596Y-108924065D01*
X100726827Y-108974068D01*
X100775684Y-108980500D01*
X100979521Y-108980500D01*
X101031847Y-109002174D01*
X102290138Y-110260465D01*
X102364361Y-110303318D01*
X102447147Y-110325500D01*
X104003189Y-110325500D01*
X104055515Y-110347174D01*
X104070255Y-110368225D01*
X104075933Y-110380401D01*
X104075935Y-110380404D01*
X104159596Y-110464065D01*
X104266827Y-110514068D01*
X104315684Y-110520500D01*
X104519521Y-110520500D01*
X104571847Y-110542174D01*
X107226946Y-113197272D01*
X107226951Y-113197278D01*
X107290138Y-113260465D01*
X107304953Y-113269018D01*
X107304955Y-113269021D01*
X107304956Y-113269020D01*
X107358797Y-113300106D01*
X107364361Y-113303318D01*
X107364362Y-113303318D01*
X107364364Y-113303319D01*
X107405754Y-113314409D01*
X107447144Y-113325500D01*
X107447145Y-113325501D01*
X107447147Y-113325501D01*
X107537383Y-113325501D01*
X107537399Y-113325500D01*
X108003189Y-113325500D01*
X108055515Y-113347174D01*
X108070255Y-113368225D01*
X108075933Y-113380401D01*
X108075934Y-113380402D01*
X108075935Y-113380404D01*
X108159596Y-113464065D01*
X108266827Y-113514068D01*
X108315684Y-113520500D01*
X108315686Y-113520500D01*
X108664314Y-113520500D01*
X108664316Y-113520500D01*
X108713173Y-113514068D01*
X108820404Y-113464065D01*
X108904065Y-113380404D01*
X108932933Y-113318495D01*
X108974690Y-113280232D01*
X109031273Y-113282702D01*
X109067067Y-113318496D01*
X109095933Y-113380402D01*
X109184174Y-113468643D01*
X109182599Y-113470217D01*
X109208375Y-113510674D01*
X109209500Y-113523526D01*
X109209500Y-113854876D01*
X109187826Y-113907202D01*
X108627201Y-114467826D01*
X108574875Y-114489500D01*
X108340100Y-114489500D01*
X108290514Y-114496027D01*
X108290512Y-114496028D01*
X108181683Y-114546776D01*
X108096776Y-114631683D01*
X108046027Y-114740514D01*
X108039500Y-114790100D01*
X108039500Y-115024876D01*
X108017826Y-115077202D01*
X105595589Y-117499440D01*
X105539640Y-117555388D01*
X105500079Y-117623909D01*
X105500077Y-117623914D01*
X105479600Y-117700335D01*
X105479600Y-122975500D01*
X105457926Y-123027826D01*
X105405600Y-123049500D01*
X104480252Y-123049500D01*
X104451010Y-123055316D01*
X104421767Y-123061133D01*
X104355449Y-123105447D01*
X104355447Y-123105449D01*
X104311133Y-123171767D01*
X104306972Y-123192686D01*
X104299500Y-123230252D01*
X104299500Y-124519748D01*
X104311133Y-124578231D01*
X104311133Y-124578232D01*
X104334611Y-124613368D01*
X104355448Y-124644552D01*
X104399560Y-124674027D01*
X104421767Y-124688866D01*
X104421768Y-124688866D01*
X104421769Y-124688867D01*
X104480252Y-124700500D01*
X104480254Y-124700500D01*
X105519746Y-124700500D01*
X105519748Y-124700500D01*
X105578231Y-124688867D01*
X105644552Y-124644552D01*
X105688867Y-124578231D01*
X105700500Y-124519748D01*
X105700500Y-124249500D01*
X105722174Y-124197174D01*
X105774500Y-124175500D01*
X105819664Y-124175500D01*
X105819664Y-124175499D01*
X105896089Y-124155021D01*
X105964611Y-124115460D01*
X106020560Y-124059511D01*
X106060121Y-123990989D01*
X106080599Y-123914564D01*
X106080600Y-123914564D01*
X106080600Y-117895022D01*
X106102273Y-117842697D01*
X108412797Y-115532172D01*
X108465123Y-115510499D01*
X108699900Y-115510499D01*
X108749487Y-115503972D01*
X108858316Y-115453224D01*
X108943224Y-115368316D01*
X108993972Y-115259487D01*
X109000500Y-115209901D01*
X109000499Y-114975121D01*
X109022172Y-114922797D01*
X109479869Y-114465101D01*
X109532194Y-114443428D01*
X109584520Y-114465102D01*
X109603672Y-114498275D01*
X109620206Y-114559981D01*
X109620207Y-114559984D01*
X109620208Y-114559986D01*
X109686100Y-114674114D01*
X109779286Y-114767300D01*
X109893414Y-114833192D01*
X110020705Y-114867299D01*
X110020706Y-114867300D01*
X110020708Y-114867300D01*
X110152494Y-114867300D01*
X110152494Y-114867299D01*
X110279786Y-114833192D01*
X110393914Y-114767300D01*
X110487100Y-114674114D01*
X110552992Y-114559986D01*
X110587099Y-114432694D01*
X110587100Y-114432694D01*
X110587100Y-114300906D01*
X110587099Y-114300905D01*
X110552993Y-114173618D01*
X110552992Y-114173614D01*
X110487100Y-114059486D01*
X110411728Y-113984114D01*
X110390054Y-113931788D01*
X110411728Y-113879462D01*
X110464054Y-113857788D01*
X110483204Y-113860309D01*
X110497471Y-113864132D01*
X110506307Y-113866500D01*
X110506308Y-113866500D01*
X110638094Y-113866500D01*
X110638094Y-113866499D01*
X110765386Y-113832392D01*
X110879514Y-113766500D01*
X110972700Y-113673314D01*
X111038592Y-113559186D01*
X111072699Y-113431894D01*
X111072700Y-113431894D01*
X111072700Y-113300106D01*
X111072699Y-113300105D01*
X111067897Y-113282185D01*
X111038592Y-113172814D01*
X110972700Y-113058686D01*
X110919374Y-113005360D01*
X110901236Y-112961572D01*
X110898333Y-112961955D01*
X110897700Y-112957149D01*
X110897700Y-112957147D01*
X110882283Y-112899608D01*
X110875518Y-112874361D01*
X110841528Y-112815489D01*
X110841528Y-112815488D01*
X110832668Y-112800142D01*
X110832666Y-112800140D01*
X110832665Y-112800138D01*
X110772062Y-112739535D01*
X110772061Y-112739534D01*
X110769483Y-112736956D01*
X110769472Y-112736946D01*
X110490352Y-112457826D01*
X110114462Y-112081935D01*
X110114459Y-112081933D01*
X110114458Y-112081932D01*
X110040243Y-112039084D01*
X110040241Y-112039083D01*
X110040240Y-112039082D01*
X110040239Y-112039082D01*
X109957453Y-112016900D01*
X109190453Y-112016900D01*
X109104747Y-112016900D01*
X109021961Y-112039082D01*
X109021960Y-112039082D01*
X109021958Y-112039083D01*
X109021956Y-112039084D01*
X108984849Y-112060507D01*
X108984850Y-112060508D01*
X108947740Y-112081933D01*
X108947737Y-112081935D01*
X108887134Y-112142537D01*
X108887135Y-112142538D01*
X108571847Y-112457826D01*
X108519521Y-112479500D01*
X108315684Y-112479500D01*
X108304318Y-112480996D01*
X108266828Y-112485931D01*
X108159595Y-112535935D01*
X108075935Y-112619595D01*
X108075933Y-112619598D01*
X108070255Y-112631775D01*
X108028497Y-112670038D01*
X108003189Y-112674500D01*
X107655478Y-112674500D01*
X107603152Y-112652826D01*
X105716826Y-110766499D01*
X105695152Y-110714173D01*
X105716826Y-110661847D01*
X105769152Y-110640173D01*
X105788303Y-110642694D01*
X105806341Y-110647528D01*
X105821537Y-110651600D01*
X105821538Y-110651600D01*
X106202234Y-110651600D01*
X106254560Y-110673274D01*
X106332886Y-110751600D01*
X106447014Y-110817492D01*
X106574305Y-110851599D01*
X106574306Y-110851600D01*
X106574308Y-110851600D01*
X106706094Y-110851600D01*
X106706094Y-110851599D01*
X106833386Y-110817492D01*
X106908502Y-110774123D01*
X106964652Y-110766731D01*
X107009586Y-110801209D01*
X107019500Y-110838210D01*
X107019500Y-111224314D01*
X107025931Y-111273171D01*
X107039601Y-111302486D01*
X107075935Y-111380404D01*
X107159596Y-111464065D01*
X107266827Y-111514068D01*
X107315684Y-111520500D01*
X107315686Y-111520500D01*
X107664314Y-111520500D01*
X107664316Y-111520500D01*
X107713173Y-111514068D01*
X107820404Y-111464065D01*
X107904065Y-111380404D01*
X107954068Y-111273173D01*
X107960500Y-111224316D01*
X107960500Y-110985123D01*
X107982174Y-110932797D01*
X108076761Y-110838210D01*
X108208760Y-110706211D01*
X108236355Y-110658414D01*
X108248321Y-110637689D01*
X108268799Y-110561264D01*
X108268800Y-110561264D01*
X108268800Y-109795766D01*
X108290474Y-109743440D01*
X108316617Y-109717297D01*
X108368800Y-109665114D01*
X108434692Y-109550986D01*
X108468799Y-109423694D01*
X108468800Y-109423694D01*
X108468800Y-109291906D01*
X108468799Y-109291905D01*
X108441011Y-109188199D01*
X108434692Y-109164614D01*
X108368800Y-109050486D01*
X108275614Y-108957300D01*
X108262970Y-108950000D01*
X108161490Y-108891410D01*
X108161481Y-108891406D01*
X108034194Y-108857300D01*
X108034192Y-108857300D01*
X107902408Y-108857300D01*
X107902406Y-108857300D01*
X107775118Y-108891406D01*
X107775109Y-108891410D01*
X107660985Y-108957300D01*
X107567800Y-109050485D01*
X107501910Y-109164609D01*
X107501906Y-109164618D01*
X107467800Y-109291905D01*
X107467800Y-109423694D01*
X107501906Y-109550981D01*
X107501910Y-109550990D01*
X107567800Y-109665114D01*
X107646126Y-109743440D01*
X107667800Y-109795766D01*
X107667800Y-110366577D01*
X107646126Y-110418903D01*
X107607203Y-110457826D01*
X107554877Y-110479500D01*
X107315684Y-110479500D01*
X107304318Y-110480996D01*
X107266828Y-110485931D01*
X107266825Y-110485932D01*
X107245024Y-110496098D01*
X107188441Y-110498566D01*
X107146685Y-110460301D01*
X107140768Y-110421842D01*
X107140700Y-110421842D01*
X107140700Y-110421398D01*
X107140387Y-110419364D01*
X107140698Y-110416995D01*
X107140700Y-110416992D01*
X107140700Y-110285208D01*
X107140700Y-110285206D01*
X107140699Y-110285205D01*
X107106593Y-110157918D01*
X107106592Y-110157914D01*
X107040700Y-110043786D01*
X106947514Y-109950600D01*
X106899039Y-109922613D01*
X106833390Y-109884710D01*
X106833381Y-109884706D01*
X106706094Y-109850600D01*
X106706092Y-109850600D01*
X106574308Y-109850600D01*
X106574306Y-109850600D01*
X106447018Y-109884706D01*
X106447009Y-109884710D01*
X106332885Y-109950600D01*
X106254560Y-110028926D01*
X106202234Y-110050600D01*
X106054500Y-110050600D01*
X106002174Y-110028926D01*
X105980500Y-109976600D01*
X105980500Y-109775685D01*
X105974068Y-109726828D01*
X105974068Y-109726827D01*
X105924065Y-109619596D01*
X105840404Y-109535935D01*
X105840403Y-109535934D01*
X105837094Y-109533617D01*
X105806663Y-109485849D01*
X105818922Y-109430555D01*
X105866690Y-109400124D01*
X105879539Y-109399000D01*
X106729364Y-109399000D01*
X106729364Y-109398999D01*
X106805789Y-109378521D01*
X106874311Y-109338960D01*
X106930260Y-109283011D01*
X107685446Y-108527824D01*
X107728111Y-108506785D01*
X107749487Y-108503972D01*
X107858316Y-108453224D01*
X107943224Y-108368316D01*
X107993972Y-108259487D01*
X108000500Y-108209901D01*
X108000499Y-107790100D01*
X107993972Y-107740513D01*
X107943224Y-107631684D01*
X107858316Y-107546776D01*
X107749487Y-107496028D01*
X107749485Y-107496027D01*
X107712955Y-107491218D01*
X107699901Y-107489500D01*
X107699899Y-107489500D01*
X107340100Y-107489500D01*
X107290514Y-107496027D01*
X107290512Y-107496028D01*
X107181683Y-107546776D01*
X107126826Y-107601634D01*
X107074500Y-107623308D01*
X107022174Y-107601634D01*
X107000500Y-107549308D01*
X107000500Y-106399386D01*
X107022173Y-106347061D01*
X107888713Y-105480521D01*
X107888716Y-105480520D01*
X108000520Y-105368716D01*
X108066597Y-105254266D01*
X108079577Y-105231785D01*
X108120499Y-105079060D01*
X108120500Y-105079060D01*
X108120500Y-104803287D01*
X108142174Y-104750961D01*
X108216061Y-104677074D01*
X108268387Y-104655400D01*
X108654013Y-104655400D01*
X108706339Y-104677074D01*
X109052826Y-105023561D01*
X109074500Y-105075887D01*
X109074500Y-105254266D01*
X109077354Y-105284699D01*
X109077354Y-105284701D01*
X109077355Y-105284704D01*
X109122206Y-105412881D01*
X109122207Y-105412883D01*
X109202846Y-105522146D01*
X109202853Y-105522153D01*
X109312116Y-105602792D01*
X109312118Y-105602793D01*
X109440295Y-105647644D01*
X109440301Y-105647646D01*
X109470734Y-105650500D01*
X109820613Y-105650500D01*
X109872939Y-105672174D01*
X111114326Y-106913561D01*
X111136000Y-106965887D01*
X111136000Y-107808512D01*
X111114326Y-107860838D01*
X110713408Y-108261755D01*
X110661082Y-108283429D01*
X110636642Y-108279277D01*
X110559701Y-108252354D01*
X110552090Y-108251640D01*
X110529266Y-108249500D01*
X109470734Y-108249500D01*
X109440301Y-108252354D01*
X109440299Y-108252354D01*
X109440295Y-108252355D01*
X109312118Y-108297206D01*
X109312116Y-108297207D01*
X109202853Y-108377846D01*
X109202846Y-108377853D01*
X109122207Y-108487116D01*
X109122206Y-108487118D01*
X109077355Y-108615295D01*
X109077354Y-108615299D01*
X109077354Y-108615301D01*
X109074500Y-108645734D01*
X109074500Y-109254266D01*
X109077354Y-109284699D01*
X109077354Y-109284701D01*
X109077355Y-109284704D01*
X109122206Y-109412881D01*
X109122207Y-109412883D01*
X109202846Y-109522146D01*
X109202853Y-109522153D01*
X109312116Y-109602792D01*
X109312118Y-109602793D01*
X109440295Y-109647644D01*
X109440301Y-109647646D01*
X109470734Y-109650500D01*
X109470741Y-109650500D01*
X110529260Y-109650500D01*
X110529266Y-109650500D01*
X110559699Y-109647646D01*
X110636642Y-109620722D01*
X110693189Y-109623897D01*
X110713408Y-109638243D01*
X111456626Y-110381461D01*
X111478300Y-110433787D01*
X111478300Y-117061959D01*
X111519221Y-117214679D01*
X111519222Y-117214681D01*
X111519223Y-117214684D01*
X111598280Y-117351616D01*
X111710084Y-117463420D01*
X111847016Y-117542477D01*
X111999740Y-117583399D01*
X111999741Y-117583400D01*
X111999743Y-117583400D01*
X112157859Y-117583400D01*
X112157859Y-117583399D01*
X112310584Y-117542477D01*
X112447516Y-117463420D01*
X112559320Y-117351616D01*
X112561413Y-117347989D01*
X112606344Y-117313510D01*
X112662497Y-117320900D01*
X112696978Y-117365832D01*
X112699500Y-117384988D01*
X112699500Y-117991531D01*
X112677826Y-118043857D01*
X112656775Y-118058597D01*
X112619596Y-118075934D01*
X112535935Y-118159595D01*
X112485931Y-118266828D01*
X112481509Y-118300421D01*
X112479500Y-118315684D01*
X112479500Y-118664316D01*
X112480851Y-118674580D01*
X112485931Y-118713171D01*
X112485932Y-118713173D01*
X112535935Y-118820404D01*
X112619596Y-118904065D01*
X112681504Y-118932933D01*
X112719767Y-118974691D01*
X112717297Y-119031274D01*
X112681504Y-119067066D01*
X112653531Y-119080110D01*
X112619595Y-119095935D01*
X112535935Y-119179595D01*
X112485931Y-119286828D01*
X112479500Y-119335685D01*
X112479500Y-119684314D01*
X112485931Y-119733171D01*
X112521990Y-119810500D01*
X112535935Y-119840404D01*
X112619596Y-119924065D01*
X112726827Y-119974068D01*
X112775684Y-119980500D01*
X112775686Y-119980500D01*
X113224314Y-119980500D01*
X113224316Y-119980500D01*
X113273173Y-119974068D01*
X113380404Y-119924065D01*
X113464065Y-119840404D01*
X113514068Y-119733173D01*
X113520500Y-119684316D01*
X113520500Y-119553822D01*
X113542173Y-119501497D01*
X115467596Y-117576073D01*
X115519922Y-117554400D01*
X115630694Y-117554400D01*
X115630694Y-117554399D01*
X115757986Y-117520292D01*
X115872114Y-117454400D01*
X115965300Y-117361214D01*
X116031192Y-117247086D01*
X116065299Y-117119794D01*
X116065300Y-117119794D01*
X116065300Y-116988006D01*
X116065299Y-116988005D01*
X116031193Y-116860718D01*
X116031192Y-116860714D01*
X115965300Y-116746586D01*
X115872114Y-116653400D01*
X115757990Y-116587510D01*
X115757981Y-116587506D01*
X115630694Y-116553400D01*
X115630692Y-116553400D01*
X115498908Y-116553400D01*
X115498906Y-116553400D01*
X115371618Y-116587506D01*
X115371609Y-116587510D01*
X115257485Y-116653400D01*
X115164300Y-116746585D01*
X115098410Y-116860709D01*
X115098406Y-116860718D01*
X115064300Y-116988005D01*
X115064300Y-117098776D01*
X115042626Y-117151102D01*
X113646826Y-118546902D01*
X113594500Y-118568576D01*
X113542174Y-118546902D01*
X113520500Y-118494576D01*
X113520500Y-118315685D01*
X113514068Y-118266828D01*
X113514068Y-118266827D01*
X113464065Y-118159596D01*
X113380404Y-118075935D01*
X113380403Y-118075934D01*
X113343225Y-118058597D01*
X113304962Y-118016839D01*
X113300500Y-117991531D01*
X113300500Y-111240322D01*
X113322173Y-111187997D01*
X115300296Y-109209873D01*
X115352622Y-109188200D01*
X115463394Y-109188200D01*
X115463394Y-109188199D01*
X115590686Y-109154092D01*
X115704814Y-109088200D01*
X115798000Y-108995014D01*
X115863892Y-108880886D01*
X115897999Y-108753594D01*
X115898000Y-108753594D01*
X115898000Y-108621806D01*
X115897999Y-108621805D01*
X115884164Y-108570173D01*
X115863892Y-108494514D01*
X115798000Y-108380386D01*
X115704814Y-108287200D01*
X115656814Y-108259487D01*
X115590690Y-108221310D01*
X115590681Y-108221306D01*
X115463394Y-108187200D01*
X115463392Y-108187200D01*
X115331608Y-108187200D01*
X115331606Y-108187200D01*
X115204318Y-108221306D01*
X115204309Y-108221310D01*
X115090185Y-108287200D01*
X114997000Y-108380385D01*
X114931110Y-108494509D01*
X114931106Y-108494518D01*
X114897000Y-108621805D01*
X114897000Y-108732576D01*
X114875326Y-108784902D01*
X112815489Y-110844740D01*
X112805626Y-110854603D01*
X112753300Y-110876277D01*
X112700974Y-110854603D01*
X112679300Y-110802277D01*
X112679300Y-110239428D01*
X112679301Y-110239415D01*
X112679301Y-110075341D01*
X112679300Y-110075340D01*
X112638378Y-109922618D01*
X112638376Y-109922613D01*
X112581552Y-109824192D01*
X112559320Y-109785684D01*
X112447516Y-109673880D01*
X112444937Y-109671301D01*
X112444926Y-109671291D01*
X111775961Y-109002326D01*
X111754287Y-108950000D01*
X111775961Y-108897674D01*
X111949635Y-108724000D01*
X112217020Y-108456616D01*
X112296077Y-108319684D01*
X112337000Y-108166959D01*
X112337001Y-108166959D01*
X112337001Y-108004313D01*
X112337000Y-108004295D01*
X112337000Y-106771528D01*
X112337001Y-106771515D01*
X112337001Y-106607441D01*
X112337000Y-106607440D01*
X112296078Y-106454718D01*
X112296076Y-106454713D01*
X112229977Y-106340227D01*
X112217020Y-106317784D01*
X112105216Y-106205980D01*
X112102637Y-106203401D01*
X112102626Y-106203391D01*
X111570040Y-105670805D01*
X112699100Y-105670805D01*
X112699100Y-105802594D01*
X112733206Y-105929881D01*
X112733207Y-105929884D01*
X112733208Y-105929886D01*
X112799100Y-106044014D01*
X112892286Y-106137200D01*
X113006414Y-106203092D01*
X113133705Y-106237199D01*
X113133706Y-106237200D01*
X113133708Y-106237200D01*
X113265494Y-106237200D01*
X113265494Y-106237199D01*
X113392786Y-106203092D01*
X113506914Y-106137200D01*
X113600100Y-106044014D01*
X113665992Y-105929886D01*
X113700099Y-105802594D01*
X113700100Y-105802594D01*
X113700100Y-105670806D01*
X113700099Y-105670805D01*
X113698556Y-105665048D01*
X113665992Y-105543514D01*
X113600100Y-105429386D01*
X113506914Y-105336200D01*
X113417712Y-105284699D01*
X113392790Y-105270310D01*
X113392781Y-105270306D01*
X113265494Y-105236200D01*
X113265492Y-105236200D01*
X113133708Y-105236200D01*
X113133706Y-105236200D01*
X113006418Y-105270306D01*
X113006409Y-105270310D01*
X112892285Y-105336200D01*
X112799100Y-105429385D01*
X112733210Y-105543509D01*
X112733206Y-105543518D01*
X112699100Y-105670805D01*
X111570040Y-105670805D01*
X110947174Y-105047939D01*
X110925500Y-104995613D01*
X110925500Y-104645740D01*
X110925500Y-104645734D01*
X110922646Y-104615301D01*
X110920411Y-104608915D01*
X110877793Y-104487118D01*
X110877792Y-104487116D01*
X110797153Y-104377853D01*
X110797146Y-104377846D01*
X110687883Y-104297207D01*
X110687881Y-104297206D01*
X110559704Y-104252355D01*
X110559705Y-104252355D01*
X110559700Y-104252354D01*
X110559699Y-104252354D01*
X110529266Y-104249500D01*
X110529260Y-104249500D01*
X110007888Y-104249500D01*
X109955562Y-104227826D01*
X109418140Y-103690405D01*
X109418138Y-103690402D01*
X109302115Y-103574379D01*
X109215304Y-103524260D01*
X109215302Y-103524259D01*
X109165188Y-103495324D01*
X109165181Y-103495321D01*
X109012459Y-103454399D01*
X109012457Y-103454399D01*
X108854343Y-103454399D01*
X108849813Y-103454399D01*
X108849797Y-103454400D01*
X108068057Y-103454400D01*
X107909943Y-103454400D01*
X107757215Y-103495323D01*
X107757214Y-103495323D01*
X107757212Y-103495324D01*
X107707095Y-103524260D01*
X107620283Y-103574380D01*
X107039480Y-104155183D01*
X107010900Y-104204687D01*
X106960423Y-104292113D01*
X106960421Y-104292118D01*
X106919499Y-104444840D01*
X106919499Y-104608915D01*
X106919500Y-104608928D01*
X106919500Y-104720612D01*
X106897826Y-104772938D01*
X105919480Y-105751283D01*
X105869360Y-105838095D01*
X105840423Y-105888213D01*
X105840421Y-105888218D01*
X105799499Y-106040940D01*
X105799499Y-106205015D01*
X105799500Y-106205028D01*
X105799500Y-107095500D01*
X105777826Y-107147826D01*
X105725500Y-107169500D01*
X105691500Y-107169500D01*
X105639174Y-107147826D01*
X105617500Y-107095500D01*
X105617500Y-106973817D01*
X105617499Y-106973816D01*
X105615374Y-106965887D01*
X105584278Y-106849832D01*
X105556483Y-106801690D01*
X105520099Y-106738671D01*
X105520098Y-106738670D01*
X105520097Y-106738668D01*
X105429332Y-106647903D01*
X105429329Y-106647901D01*
X105429328Y-106647900D01*
X105318169Y-106583722D01*
X105318164Y-106583720D01*
X105194183Y-106550500D01*
X105194181Y-106550500D01*
X105065819Y-106550500D01*
X105065817Y-106550500D01*
X104941835Y-106583720D01*
X104941830Y-106583722D01*
X104830671Y-106647900D01*
X104739900Y-106738671D01*
X104675722Y-106849830D01*
X104675720Y-106849835D01*
X104642500Y-106973816D01*
X104642500Y-107095500D01*
X104620826Y-107147826D01*
X104568500Y-107169500D01*
X104431500Y-107169500D01*
X104379174Y-107147826D01*
X104357500Y-107095500D01*
X104357500Y-106973817D01*
X104357499Y-106973816D01*
X104355374Y-106965887D01*
X104324278Y-106849832D01*
X104296483Y-106801690D01*
X104260099Y-106738671D01*
X104260098Y-106738670D01*
X104260097Y-106738668D01*
X104169332Y-106647903D01*
X104169329Y-106647901D01*
X104169328Y-106647900D01*
X104058169Y-106583722D01*
X104058164Y-106583720D01*
X103934183Y-106550500D01*
X103934181Y-106550500D01*
X103805819Y-106550500D01*
X103805817Y-106550500D01*
X103681835Y-106583720D01*
X103681830Y-106583722D01*
X103579000Y-106643092D01*
X103522847Y-106650485D01*
X103477914Y-106616006D01*
X103468000Y-106579006D01*
X103468000Y-103420993D01*
X103489674Y-103368667D01*
X103542000Y-103346993D01*
X103578998Y-103356906D01*
X103681832Y-103416278D01*
X103681833Y-103416278D01*
X103681835Y-103416279D01*
X103712838Y-103424586D01*
X103805816Y-103449499D01*
X103805817Y-103449500D01*
X103805819Y-103449500D01*
X103934183Y-103449500D01*
X103934183Y-103449499D01*
X104058168Y-103416278D01*
X104169332Y-103352097D01*
X104169338Y-103352090D01*
X104171077Y-103350757D01*
X104172153Y-103350468D01*
X104173533Y-103349672D01*
X104173746Y-103350041D01*
X104225782Y-103336090D01*
X104268461Y-103357132D01*
X104680889Y-103769560D01*
X104749412Y-103809122D01*
X104825838Y-103829600D01*
X104825840Y-103829600D01*
X106439564Y-103829600D01*
X106439564Y-103829599D01*
X106515989Y-103809121D01*
X106584511Y-103769560D01*
X106640460Y-103713611D01*
X106680021Y-103645089D01*
X106700499Y-103568664D01*
X106700500Y-103568664D01*
X106700500Y-103381580D01*
X106722173Y-103329255D01*
X106790097Y-103261332D01*
X106854278Y-103150168D01*
X106887499Y-103026183D01*
X106887500Y-103026183D01*
X106887500Y-101433817D01*
X106887499Y-101433816D01*
X106854279Y-101309835D01*
X106854277Y-101309830D01*
X106790099Y-101198671D01*
X106790098Y-101198670D01*
X106790097Y-101198668D01*
X106699332Y-101107903D01*
X106699329Y-101107901D01*
X106699328Y-101107900D01*
X106588169Y-101043722D01*
X106588164Y-101043720D01*
X106464183Y-101010500D01*
X106464181Y-101010500D01*
X106335819Y-101010500D01*
X106335817Y-101010500D01*
X106211835Y-101043720D01*
X106211830Y-101043722D01*
X106100671Y-101107900D01*
X106009900Y-101198671D01*
X105945722Y-101309830D01*
X105945720Y-101309835D01*
X105912500Y-101433816D01*
X105912500Y-101433819D01*
X105912500Y-103026181D01*
X105912501Y-103026183D01*
X105941778Y-103135447D01*
X105934385Y-103191600D01*
X105889452Y-103226079D01*
X105870299Y-103228600D01*
X105659701Y-103228600D01*
X105607375Y-103206926D01*
X105585701Y-103154600D01*
X105588222Y-103135447D01*
X105617499Y-103026183D01*
X105617500Y-103026181D01*
X105617500Y-101433819D01*
X105617500Y-101433817D01*
X105617499Y-101433816D01*
X105584279Y-101309835D01*
X105584277Y-101309830D01*
X105520099Y-101198671D01*
X105520098Y-101198670D01*
X105520097Y-101198668D01*
X105452174Y-101130745D01*
X105430500Y-101078419D01*
X105430500Y-98070539D01*
X105430500Y-98070538D01*
X105429975Y-98068578D01*
X105410022Y-97994112D01*
X105410021Y-97994110D01*
X105370462Y-97925592D01*
X105370461Y-97925591D01*
X105370460Y-97925589D01*
X104971697Y-97526826D01*
X104950023Y-97474500D01*
X104971697Y-97422174D01*
X105024023Y-97400500D01*
X106119746Y-97400500D01*
X106119748Y-97400500D01*
X106178231Y-97388867D01*
X106244552Y-97344552D01*
X106288867Y-97278231D01*
X106300500Y-97219748D01*
X106300500Y-94780252D01*
X106288867Y-94721769D01*
X106244552Y-94655448D01*
X106222343Y-94640608D01*
X106178232Y-94611133D01*
X106178233Y-94611133D01*
X106148989Y-94605316D01*
X106119748Y-94599500D01*
X102880252Y-94599500D01*
X102851010Y-94605316D01*
X102821767Y-94611133D01*
X102755449Y-94655447D01*
X102755447Y-94655449D01*
X102711133Y-94721767D01*
X102699500Y-94780253D01*
X102699500Y-97219746D01*
X102711133Y-97278232D01*
X102740608Y-97322343D01*
X102755448Y-97344552D01*
X102799560Y-97374027D01*
X102821767Y-97388866D01*
X102821768Y-97388866D01*
X102821769Y-97388867D01*
X102880252Y-97400500D01*
X103235877Y-97400500D01*
X103288203Y-97422174D01*
X103309877Y-97474500D01*
X103288203Y-97526826D01*
X101347201Y-99467826D01*
X101294875Y-99489500D01*
X101100100Y-99489500D01*
X101050514Y-99496027D01*
X101050512Y-99496028D01*
X100941683Y-99546776D01*
X100852326Y-99636134D01*
X100800000Y-99657808D01*
X100747674Y-99636134D01*
X100658316Y-99546776D01*
X100573580Y-99507263D01*
X100549487Y-99496028D01*
X100549485Y-99496027D01*
X100512955Y-99491218D01*
X100499901Y-99489500D01*
X100499899Y-99489500D01*
X100140100Y-99489500D01*
X100090514Y-99496027D01*
X100090512Y-99496028D01*
X99981683Y-99546776D01*
X99896776Y-99631683D01*
X99846027Y-99740514D01*
X99840359Y-99783572D01*
X99840000Y-99786305D01*
X99839500Y-99790100D01*
X97500500Y-99790100D01*
X97500500Y-88775326D01*
X102649500Y-88775326D01*
X102649500Y-91224674D01*
X102664034Y-91297740D01*
X102719399Y-91380601D01*
X102802260Y-91435966D01*
X102875326Y-91450500D01*
X102875328Y-91450500D01*
X106124672Y-91450500D01*
X106124674Y-91450500D01*
X106197740Y-91435966D01*
X106280601Y-91380601D01*
X106335966Y-91297740D01*
X106350500Y-91224674D01*
X106350500Y-91074500D01*
X106372174Y-91022174D01*
X106424500Y-91000500D01*
X106665800Y-91000500D01*
X106718126Y-91022174D01*
X106739800Y-91074500D01*
X106739800Y-92428941D01*
X106751537Y-92487947D01*
X106778247Y-92622229D01*
X106778250Y-92622239D01*
X106853667Y-92804313D01*
X106963160Y-92968181D01*
X107106733Y-93111754D01*
X107106739Y-93111759D01*
X107405453Y-93410474D01*
X107427127Y-93462800D01*
X107414656Y-93503912D01*
X107352668Y-93596685D01*
X107299338Y-93725435D01*
X107277250Y-93778758D01*
X107277248Y-93778764D01*
X107258024Y-93875412D01*
X107238800Y-93972059D01*
X107238800Y-97824985D01*
X107226329Y-97866097D01*
X107151767Y-97977686D01*
X107076350Y-98159760D01*
X107076347Y-98159770D01*
X107037900Y-98353060D01*
X107037900Y-99616938D01*
X107076347Y-99810230D01*
X107076349Y-99810237D01*
X107098438Y-99863564D01*
X107151767Y-99992313D01*
X107240052Y-100124440D01*
X107261261Y-100156182D01*
X107345100Y-100240021D01*
X107400718Y-100295639D01*
X107564585Y-100405131D01*
X107746664Y-100480551D01*
X107939959Y-100519000D01*
X107939961Y-100519000D01*
X108137036Y-100519000D01*
X108137040Y-100519000D01*
X108160607Y-100514311D01*
X108208638Y-100520954D01*
X108257825Y-100546017D01*
X108349265Y-100560500D01*
X108690734Y-100560499D01*
X108782175Y-100546017D01*
X108892391Y-100489859D01*
X108979859Y-100402391D01*
X108979859Y-100402390D01*
X108983029Y-100399221D01*
X109035355Y-100377547D01*
X109087681Y-100399221D01*
X109141683Y-100453223D01*
X109146986Y-100456936D01*
X109144938Y-100459860D01*
X109175020Y-100492643D01*
X109179500Y-100518000D01*
X109179500Y-101025734D01*
X109157826Y-101078060D01*
X109079500Y-101156385D01*
X109013610Y-101270509D01*
X109013606Y-101270518D01*
X108979500Y-101397805D01*
X108979500Y-101529594D01*
X109013606Y-101656881D01*
X109013607Y-101656884D01*
X109013608Y-101656886D01*
X109079500Y-101771014D01*
X109172686Y-101864200D01*
X109286814Y-101930092D01*
X109414105Y-101964199D01*
X109414106Y-101964200D01*
X109414108Y-101964200D01*
X109545894Y-101964200D01*
X109545894Y-101964199D01*
X109673186Y-101930092D01*
X109787314Y-101864200D01*
X109880500Y-101771014D01*
X109946392Y-101656886D01*
X109980499Y-101529594D01*
X109980500Y-101529594D01*
X109980500Y-101397806D01*
X109980499Y-101397805D01*
X109956926Y-101309830D01*
X109946392Y-101270514D01*
X109880500Y-101156386D01*
X109802174Y-101078060D01*
X109780500Y-101025734D01*
X109780500Y-100518000D01*
X109802174Y-100465674D01*
X109813556Y-100457710D01*
X109813014Y-100456936D01*
X109818311Y-100453225D01*
X109818316Y-100453224D01*
X109903224Y-100368316D01*
X109953972Y-100259487D01*
X109960500Y-100209901D01*
X109960499Y-99790100D01*
X109953972Y-99740513D01*
X109903224Y-99631684D01*
X109818316Y-99546776D01*
X109813013Y-99543063D01*
X109815048Y-99540156D01*
X109784947Y-99507263D01*
X109780500Y-99481998D01*
X109780500Y-98539141D01*
X109802174Y-98486815D01*
X109823226Y-98472074D01*
X109840404Y-98464065D01*
X109924065Y-98380404D01*
X109941401Y-98343227D01*
X109983158Y-98304963D01*
X110008468Y-98300500D01*
X110991532Y-98300500D01*
X111043858Y-98322174D01*
X111058599Y-98343227D01*
X111075933Y-98380402D01*
X111075935Y-98380404D01*
X111159596Y-98464065D01*
X111266827Y-98514068D01*
X111315684Y-98520500D01*
X111315686Y-98520500D01*
X111664314Y-98520500D01*
X111664316Y-98520500D01*
X111713173Y-98514068D01*
X111820404Y-98464065D01*
X111904065Y-98380404D01*
X111954068Y-98273173D01*
X111960500Y-98224316D01*
X111960500Y-97775684D01*
X111954068Y-97726827D01*
X111904065Y-97619596D01*
X111820404Y-97535935D01*
X111713173Y-97485932D01*
X111713171Y-97485931D01*
X111676538Y-97481109D01*
X111664316Y-97479500D01*
X111315684Y-97479500D01*
X111304318Y-97480996D01*
X111266828Y-97485931D01*
X111159595Y-97535935D01*
X111075935Y-97619595D01*
X111075935Y-97619596D01*
X111058599Y-97656773D01*
X111016842Y-97695037D01*
X110991532Y-97699500D01*
X110008468Y-97699500D01*
X109956142Y-97677826D01*
X109941401Y-97656773D01*
X109924065Y-97619596D01*
X109840404Y-97535935D01*
X109820870Y-97526826D01*
X109733173Y-97485932D01*
X109733171Y-97485931D01*
X109696538Y-97481109D01*
X109684316Y-97479500D01*
X109335684Y-97479500D01*
X109335682Y-97479500D01*
X109323456Y-97481109D01*
X109268749Y-97466448D01*
X109240433Y-97417398D01*
X109239800Y-97407742D01*
X109239800Y-94524500D01*
X109261474Y-94472174D01*
X109313800Y-94450500D01*
X109598539Y-94450500D01*
X109598541Y-94450500D01*
X109791835Y-94412051D01*
X109973914Y-94336632D01*
X110137782Y-94227139D01*
X110228679Y-94136240D01*
X110236649Y-94129333D01*
X110332546Y-94057546D01*
X110418796Y-93942331D01*
X110469091Y-93807483D01*
X110475500Y-93747873D01*
X110475499Y-93681509D01*
X110476921Y-93667073D01*
X110500500Y-93548540D01*
X110500500Y-93351460D01*
X110476921Y-93232920D01*
X110475499Y-93218483D01*
X110475499Y-93152126D01*
X110471159Y-93111754D01*
X110469091Y-93092517D01*
X110469090Y-93092514D01*
X110418797Y-92957670D01*
X110418796Y-92957669D01*
X110332546Y-92842454D01*
X110236658Y-92770672D01*
X110228679Y-92763758D01*
X110137781Y-92672860D01*
X109973913Y-92563367D01*
X109791839Y-92487950D01*
X109791829Y-92487947D01*
X109662388Y-92462200D01*
X109598541Y-92449500D01*
X109598539Y-92449500D01*
X109304973Y-92449500D01*
X109252647Y-92427826D01*
X108762474Y-91937653D01*
X108740800Y-91885327D01*
X108740800Y-91074500D01*
X108762474Y-91022174D01*
X108814800Y-91000500D01*
X109048540Y-91000500D01*
X109048541Y-91000500D01*
X109145188Y-90981275D01*
X109221768Y-90966042D01*
X109241827Y-90962053D01*
X109241828Y-90962052D01*
X109241836Y-90962051D01*
X109295165Y-90939961D01*
X109423914Y-90886632D01*
X109587782Y-90777139D01*
X109727139Y-90637782D01*
X109727140Y-90637779D01*
X110228686Y-90136233D01*
X110236649Y-90129333D01*
X110332546Y-90057546D01*
X110418796Y-89942331D01*
X110469091Y-89807483D01*
X110475500Y-89747873D01*
X110475499Y-89681510D01*
X110476921Y-89667074D01*
X110500500Y-89548540D01*
X110500500Y-89351460D01*
X110476921Y-89232919D01*
X110475499Y-89218483D01*
X110475499Y-89152126D01*
X110473955Y-89137766D01*
X110469091Y-89092517D01*
X110434398Y-88999500D01*
X110418797Y-88957670D01*
X110418796Y-88957669D01*
X110410300Y-88946320D01*
X110332546Y-88842454D01*
X110236654Y-88770669D01*
X110228675Y-88763755D01*
X110137780Y-88672860D01*
X110057769Y-88619399D01*
X109973914Y-88563369D01*
X109973911Y-88563367D01*
X109973910Y-88563367D01*
X109791835Y-88487949D01*
X109791829Y-88487947D01*
X109662387Y-88462200D01*
X109598540Y-88449500D01*
X109401459Y-88449500D01*
X109346662Y-88460399D01*
X109208169Y-88487947D01*
X109208163Y-88487949D01*
X109026088Y-88563367D01*
X108862218Y-88672860D01*
X108771320Y-88763758D01*
X108763341Y-88770671D01*
X108667457Y-88842450D01*
X108667450Y-88842457D01*
X108595670Y-88938342D01*
X108588758Y-88946320D01*
X108557254Y-88977825D01*
X108504928Y-88999500D01*
X106424500Y-88999500D01*
X106372174Y-88977826D01*
X106350500Y-88925500D01*
X106350500Y-88775327D01*
X106349574Y-88770671D01*
X106335966Y-88702260D01*
X106280601Y-88619399D01*
X106197740Y-88564034D01*
X106124674Y-88549500D01*
X106124672Y-88549500D01*
X105574500Y-88549500D01*
X105522174Y-88527826D01*
X105500500Y-88475500D01*
X105500500Y-87701360D01*
X105497109Y-87684314D01*
X105462051Y-87508065D01*
X105386632Y-87325986D01*
X105277139Y-87162118D01*
X105137782Y-87022761D01*
X105065841Y-86974691D01*
X104973913Y-86913267D01*
X104791839Y-86837850D01*
X104791829Y-86837847D01*
X104662388Y-86812100D01*
X104598541Y-86799400D01*
X104598539Y-86799400D01*
X104593617Y-86799400D01*
X104556297Y-86788080D01*
X104555922Y-86788783D01*
X104552719Y-86787071D01*
X104370636Y-86711649D01*
X104370630Y-86711647D01*
X104241186Y-86685899D01*
X104177340Y-86673200D01*
X103980260Y-86673200D01*
X103925463Y-86684099D01*
X103786969Y-86711647D01*
X103786963Y-86711649D01*
X103604889Y-86787067D01*
X103441019Y-86896560D01*
X103441018Y-86896562D01*
X103301662Y-87035918D01*
X103301660Y-87035919D01*
X103192167Y-87199789D01*
X103116749Y-87381863D01*
X103116747Y-87381869D01*
X103084649Y-87543236D01*
X103078300Y-87575160D01*
X103078300Y-87772240D01*
X103090222Y-87832174D01*
X103116747Y-87965530D01*
X103116749Y-87965536D01*
X103189712Y-88141684D01*
X103192169Y-88147614D01*
X103260923Y-88250512D01*
X103301660Y-88311480D01*
X103301662Y-88311482D01*
X103413353Y-88423174D01*
X103435027Y-88475500D01*
X103413353Y-88527826D01*
X103361027Y-88549500D01*
X102875326Y-88549500D01*
X102826615Y-88559189D01*
X102802259Y-88564034D01*
X102719399Y-88619398D01*
X102719398Y-88619399D01*
X102664034Y-88702259D01*
X102662597Y-88709485D01*
X102649500Y-88775326D01*
X97500500Y-88775326D01*
X97500500Y-82345326D01*
X100699500Y-82345326D01*
X100699500Y-83894674D01*
X100714034Y-83967740D01*
X100769399Y-84050601D01*
X100852260Y-84105966D01*
X100925326Y-84120500D01*
X100925328Y-84120500D01*
X102074672Y-84120500D01*
X102074674Y-84120500D01*
X102147740Y-84105966D01*
X102230601Y-84050601D01*
X102285966Y-83967740D01*
X102295410Y-83920263D01*
X102326876Y-83873171D01*
X102367988Y-83860700D01*
X104127791Y-83860700D01*
X104127793Y-83860700D01*
X104239827Y-83830681D01*
X104340273Y-83772688D01*
X105020788Y-83092174D01*
X105073114Y-83070500D01*
X105161576Y-83070500D01*
X105161582Y-83070500D01*
X105236518Y-83059582D01*
X105352102Y-83003076D01*
X105443076Y-82912102D01*
X105443076Y-82912101D01*
X105447412Y-82907766D01*
X105449993Y-82910347D01*
X105487816Y-82886735D01*
X105542996Y-82899498D01*
X105551926Y-82908428D01*
X105552588Y-82907766D01*
X105557826Y-82913004D01*
X105558762Y-82915264D01*
X105560227Y-82916729D01*
X105560489Y-82917096D01*
X105559741Y-82917629D01*
X105579500Y-82965330D01*
X105579500Y-84047598D01*
X105561391Y-84091316D01*
X105563565Y-84092896D01*
X105560143Y-84097605D01*
X105503982Y-84207827D01*
X105503982Y-84207829D01*
X105489500Y-84299263D01*
X105489500Y-84700734D01*
X105503983Y-84792175D01*
X105503983Y-84792177D01*
X105560141Y-84902391D01*
X105647609Y-84989859D01*
X105757825Y-85046017D01*
X105849265Y-85060500D01*
X106190734Y-85060499D01*
X106282175Y-85046017D01*
X106392391Y-84989859D01*
X106479859Y-84902391D01*
X106536017Y-84792175D01*
X106550500Y-84700735D01*
X106550499Y-84299266D01*
X106536017Y-84207825D01*
X106536016Y-84207823D01*
X106536016Y-84207822D01*
X106506887Y-84150654D01*
X106479859Y-84097609D01*
X106479858Y-84097608D01*
X106476435Y-84092896D01*
X106478608Y-84091316D01*
X106460500Y-84047598D01*
X106460500Y-82951487D01*
X106482174Y-82899161D01*
X106497501Y-82887401D01*
X106498655Y-82886735D01*
X106557973Y-82852488D01*
X111108187Y-78302274D01*
X111160513Y-78280600D01*
X111557991Y-78280600D01*
X111557993Y-78280600D01*
X111670027Y-78250581D01*
X111770473Y-78192588D01*
X111852488Y-78110573D01*
X111910481Y-78010127D01*
X111940500Y-77898093D01*
X111940500Y-77680357D01*
X111962174Y-77628031D01*
X111973381Y-77618833D01*
X112030601Y-77580601D01*
X112030603Y-77580597D01*
X112035755Y-77575447D01*
X112037455Y-77577147D01*
X112076330Y-77551168D01*
X112131878Y-77562212D01*
X112131884Y-77562216D01*
X112131885Y-77562217D01*
X112171767Y-77588866D01*
X112171768Y-77588866D01*
X112171769Y-77588867D01*
X112230252Y-77600500D01*
X112230254Y-77600500D01*
X112969746Y-77600500D01*
X112969748Y-77600500D01*
X113028231Y-77588867D01*
X113094552Y-77544552D01*
X113094556Y-77544545D01*
X113097674Y-77541429D01*
X113150000Y-77519755D01*
X113202326Y-77541429D01*
X113205445Y-77544548D01*
X113205448Y-77544552D01*
X113249560Y-77574027D01*
X113271767Y-77588866D01*
X113271768Y-77588866D01*
X113271769Y-77588867D01*
X113330252Y-77600500D01*
X113330254Y-77600500D01*
X114069746Y-77600500D01*
X114069748Y-77600500D01*
X114128231Y-77588867D01*
X114194552Y-77544552D01*
X114194556Y-77544545D01*
X114197674Y-77541429D01*
X114250000Y-77519755D01*
X114302326Y-77541429D01*
X114305445Y-77544548D01*
X114305448Y-77544552D01*
X114349560Y-77574027D01*
X114371767Y-77588866D01*
X114371768Y-77588866D01*
X114371769Y-77588867D01*
X114430252Y-77600500D01*
X114430254Y-77600500D01*
X115169746Y-77600500D01*
X115169748Y-77600500D01*
X115228231Y-77588867D01*
X115294552Y-77544552D01*
X115294556Y-77544545D01*
X115297674Y-77541429D01*
X115350000Y-77519755D01*
X115402326Y-77541429D01*
X115405445Y-77544548D01*
X115405448Y-77544552D01*
X115449560Y-77574027D01*
X115471767Y-77588866D01*
X115471768Y-77588866D01*
X115471769Y-77588867D01*
X115530252Y-77600500D01*
X115530254Y-77600500D01*
X116269746Y-77600500D01*
X116269748Y-77600500D01*
X116328231Y-77588867D01*
X116394552Y-77544552D01*
X116394556Y-77544545D01*
X116397674Y-77541429D01*
X116450000Y-77519755D01*
X116502326Y-77541429D01*
X116505445Y-77544548D01*
X116505448Y-77544552D01*
X116549560Y-77574027D01*
X116571767Y-77588866D01*
X116571768Y-77588866D01*
X116571769Y-77588867D01*
X116630252Y-77600500D01*
X116630262Y-77600500D01*
X116632745Y-77600745D01*
X116633491Y-77601144D01*
X116633818Y-77601209D01*
X116633798Y-77601307D01*
X116682698Y-77627438D01*
X116699500Y-77674389D01*
X116699500Y-78834877D01*
X116677826Y-78887203D01*
X116607203Y-78957826D01*
X116554877Y-78979500D01*
X116315684Y-78979500D01*
X116304318Y-78980996D01*
X116266828Y-78985931D01*
X116159595Y-79035935D01*
X116075935Y-79119595D01*
X116025931Y-79226828D01*
X116019500Y-79275685D01*
X116019500Y-79724314D01*
X116025931Y-79773171D01*
X116025932Y-79773173D01*
X116075935Y-79880404D01*
X116159596Y-79964065D01*
X116266827Y-80014068D01*
X116315684Y-80020500D01*
X116315686Y-80020500D01*
X116664314Y-80020500D01*
X116664316Y-80020500D01*
X116713173Y-80014068D01*
X116820404Y-79964065D01*
X116904065Y-79880404D01*
X116954068Y-79773173D01*
X116960500Y-79724316D01*
X116960500Y-79485123D01*
X116982174Y-79432797D01*
X117029532Y-79385439D01*
X117240460Y-79174511D01*
X117253168Y-79152500D01*
X117280021Y-79105989D01*
X117300500Y-79029562D01*
X117300500Y-77674389D01*
X117322174Y-77622063D01*
X117366189Y-77601248D01*
X117366182Y-77601209D01*
X117366340Y-77601177D01*
X117367255Y-77600745D01*
X117369737Y-77600500D01*
X117369748Y-77600500D01*
X117428231Y-77588867D01*
X117494552Y-77544552D01*
X117494556Y-77544545D01*
X117497674Y-77541429D01*
X117550000Y-77519755D01*
X117602326Y-77541429D01*
X117605445Y-77544548D01*
X117605448Y-77544552D01*
X117649560Y-77574027D01*
X117671767Y-77588866D01*
X117671768Y-77588866D01*
X117671769Y-77588867D01*
X117730252Y-77600500D01*
X117730254Y-77600500D01*
X118469746Y-77600500D01*
X118469748Y-77600500D01*
X118528231Y-77588867D01*
X118594552Y-77544552D01*
X118594556Y-77544545D01*
X118597674Y-77541429D01*
X118650000Y-77519755D01*
X118702326Y-77541429D01*
X118705445Y-77544548D01*
X118705448Y-77544552D01*
X118749560Y-77574027D01*
X118771767Y-77588866D01*
X118771768Y-77588866D01*
X118771769Y-77588867D01*
X118830252Y-77600500D01*
X118830254Y-77600500D01*
X119569746Y-77600500D01*
X119569748Y-77600500D01*
X119628231Y-77588867D01*
X119694552Y-77544552D01*
X119738867Y-77478231D01*
X119750500Y-77419748D01*
X119750500Y-75580252D01*
X119738867Y-75521769D01*
X119735136Y-75516186D01*
X119720646Y-75494500D01*
X119694552Y-75455448D01*
X119663131Y-75434453D01*
X119628232Y-75411133D01*
X119628233Y-75411133D01*
X119598989Y-75405316D01*
X119569748Y-75399500D01*
X118830252Y-75399500D01*
X118801010Y-75405316D01*
X118771767Y-75411133D01*
X118705449Y-75455447D01*
X118702326Y-75458571D01*
X118650000Y-75480245D01*
X118597674Y-75458571D01*
X118594554Y-75455451D01*
X118594552Y-75455448D01*
X118563131Y-75434453D01*
X118528232Y-75411133D01*
X118528233Y-75411133D01*
X118498989Y-75405316D01*
X118469748Y-75399500D01*
X117730252Y-75399500D01*
X117701010Y-75405316D01*
X117671767Y-75411133D01*
X117605449Y-75455447D01*
X117602326Y-75458571D01*
X117550000Y-75480245D01*
X117497674Y-75458571D01*
X117494554Y-75455451D01*
X117494552Y-75455448D01*
X117463131Y-75434453D01*
X117428232Y-75411133D01*
X117428233Y-75411133D01*
X117398989Y-75405316D01*
X117369748Y-75399500D01*
X116630252Y-75399500D01*
X116601010Y-75405316D01*
X116571767Y-75411133D01*
X116505449Y-75455447D01*
X116502326Y-75458571D01*
X116450000Y-75480245D01*
X116397674Y-75458571D01*
X116394554Y-75455451D01*
X116394552Y-75455448D01*
X116363131Y-75434453D01*
X116328232Y-75411133D01*
X116328233Y-75411133D01*
X116298989Y-75405316D01*
X116269748Y-75399500D01*
X115530252Y-75399500D01*
X115501010Y-75405316D01*
X115471767Y-75411133D01*
X115405449Y-75455447D01*
X115402326Y-75458571D01*
X115350000Y-75480245D01*
X115297674Y-75458571D01*
X115294554Y-75455451D01*
X115294552Y-75455448D01*
X115263131Y-75434453D01*
X115228232Y-75411133D01*
X115228233Y-75411133D01*
X115198989Y-75405316D01*
X115169748Y-75399500D01*
X114430252Y-75399500D01*
X114401010Y-75405316D01*
X114371767Y-75411133D01*
X114305449Y-75455447D01*
X114302326Y-75458571D01*
X114250000Y-75480245D01*
X114197674Y-75458571D01*
X114194554Y-75455451D01*
X114194552Y-75455448D01*
X114163131Y-75434453D01*
X114128232Y-75411133D01*
X114128233Y-75411133D01*
X114098989Y-75405316D01*
X114069748Y-75399500D01*
X113330252Y-75399500D01*
X113301010Y-75405316D01*
X113271767Y-75411133D01*
X113205449Y-75455447D01*
X113202326Y-75458571D01*
X113150000Y-75480245D01*
X113097674Y-75458571D01*
X113094554Y-75455451D01*
X113094552Y-75455448D01*
X113063131Y-75434453D01*
X113028232Y-75411133D01*
X113028233Y-75411133D01*
X112998989Y-75405316D01*
X112969748Y-75399500D01*
X112230252Y-75399500D01*
X112201010Y-75405316D01*
X112171767Y-75411133D01*
X112131884Y-75437783D01*
X112076336Y-75448832D01*
X112037454Y-75422853D01*
X112035755Y-75424553D01*
X112030600Y-75419398D01*
X111947740Y-75364034D01*
X111874674Y-75349500D01*
X111125326Y-75349500D01*
X111076615Y-75359189D01*
X111052259Y-75364034D01*
X110969399Y-75419398D01*
X110969398Y-75419399D01*
X110914034Y-75502259D01*
X110899500Y-75575326D01*
X110899500Y-77340113D01*
X110877826Y-77392439D01*
X110844653Y-77411591D01*
X110777377Y-77429617D01*
X110777368Y-77429621D01*
X110693176Y-77478229D01*
X110693175Y-77478231D01*
X110688822Y-77480744D01*
X110676928Y-77487611D01*
X106254494Y-81910043D01*
X106202168Y-81931717D01*
X106191505Y-81930945D01*
X106181588Y-81929500D01*
X106181582Y-81929500D01*
X105838418Y-81929500D01*
X105838413Y-81929500D01*
X105763481Y-81940418D01*
X105647897Y-81996924D01*
X105556826Y-82087996D01*
X105504500Y-82109670D01*
X105452174Y-82087996D01*
X105430500Y-82035670D01*
X105430500Y-81743112D01*
X105452173Y-81690787D01*
X106060787Y-81082172D01*
X106113113Y-81060499D01*
X106190735Y-81060499D01*
X106203236Y-81058518D01*
X106282175Y-81046017D01*
X106392391Y-80989859D01*
X106479859Y-80902391D01*
X106536017Y-80792175D01*
X106550500Y-80700735D01*
X106550499Y-80299266D01*
X106536017Y-80207825D01*
X106536016Y-80207823D01*
X106536016Y-80207822D01*
X106506887Y-80150654D01*
X106479859Y-80097609D01*
X106392391Y-80010141D01*
X106282175Y-79953983D01*
X106282172Y-79953982D01*
X106282171Y-79953982D01*
X106190736Y-79939500D01*
X105849265Y-79939500D01*
X105757824Y-79953983D01*
X105757822Y-79953983D01*
X105647608Y-80010141D01*
X105560142Y-80097607D01*
X105503982Y-80207827D01*
X105503982Y-80207829D01*
X105489500Y-80299263D01*
X105489500Y-80376886D01*
X105467826Y-80429212D01*
X104719527Y-81177512D01*
X104637509Y-81259530D01*
X104579521Y-81359968D01*
X104579520Y-81359970D01*
X104579519Y-81359972D01*
X104579519Y-81359973D01*
X104549500Y-81472007D01*
X104549500Y-81472009D01*
X104549500Y-82046577D01*
X104538244Y-82081719D01*
X104539617Y-82082390D01*
X104536924Y-82087897D01*
X104536924Y-82087898D01*
X104536574Y-82088614D01*
X104480418Y-82203481D01*
X104469500Y-82278413D01*
X104469500Y-82366886D01*
X104447826Y-82419212D01*
X103909013Y-82958026D01*
X103856687Y-82979700D01*
X102374500Y-82979700D01*
X102322174Y-82958026D01*
X102300500Y-82905700D01*
X102300500Y-82345327D01*
X102287530Y-82280124D01*
X102285966Y-82272260D01*
X102230601Y-82189399D01*
X102147740Y-82134034D01*
X102074674Y-82119500D01*
X100925326Y-82119500D01*
X100876615Y-82129189D01*
X100852259Y-82134034D01*
X100769399Y-82189398D01*
X100769398Y-82189399D01*
X100714034Y-82272259D01*
X100714034Y-82272260D01*
X100699500Y-82345326D01*
X97500500Y-82345326D01*
X97500500Y-69421460D01*
X101499500Y-69421460D01*
X101499500Y-69618539D01*
X101537947Y-69811829D01*
X101537950Y-69811839D01*
X101613367Y-69993913D01*
X101722860Y-70157781D01*
X101737826Y-70172747D01*
X101759500Y-70225073D01*
X101759500Y-70974674D01*
X101774034Y-71047740D01*
X101829399Y-71130601D01*
X101912260Y-71185966D01*
X101985326Y-71200500D01*
X101985328Y-71200500D01*
X103014672Y-71200500D01*
X103014674Y-71200500D01*
X103087740Y-71185966D01*
X103170601Y-71130601D01*
X103225966Y-71047740D01*
X103240500Y-70974674D01*
X103240500Y-70594500D01*
X103262174Y-70542174D01*
X103314500Y-70520500D01*
X103545028Y-70520500D01*
X103597354Y-70542174D01*
X104922926Y-71867746D01*
X104944600Y-71920072D01*
X104944600Y-75382127D01*
X104922926Y-75434453D01*
X103859554Y-76497826D01*
X103807228Y-76519500D01*
X103314500Y-76519500D01*
X103262174Y-76497826D01*
X103240500Y-76445500D01*
X103240500Y-76065327D01*
X103239618Y-76060892D01*
X103225966Y-75992260D01*
X103170601Y-75909399D01*
X103087740Y-75854034D01*
X103014674Y-75839500D01*
X101985326Y-75839500D01*
X101936615Y-75849189D01*
X101912259Y-75854034D01*
X101829399Y-75909398D01*
X101829398Y-75909399D01*
X101774034Y-75992259D01*
X101759500Y-76065327D01*
X101759500Y-76814927D01*
X101737826Y-76867253D01*
X101722862Y-76882217D01*
X101722860Y-76882218D01*
X101613367Y-77046086D01*
X101537950Y-77228160D01*
X101537947Y-77228170D01*
X101503848Y-77399600D01*
X101499500Y-77421459D01*
X101499500Y-77618541D01*
X101510609Y-77674389D01*
X101537947Y-77811829D01*
X101537950Y-77811839D01*
X101613367Y-77993913D01*
X101722860Y-78157781D01*
X101737826Y-78172747D01*
X101759500Y-78225073D01*
X101759500Y-78974674D01*
X101769036Y-79022614D01*
X101774034Y-79047740D01*
X101808309Y-79099038D01*
X101829399Y-79130601D01*
X101912260Y-79185966D01*
X101985326Y-79200500D01*
X101985328Y-79200500D01*
X103014672Y-79200500D01*
X103014674Y-79200500D01*
X103087740Y-79185966D01*
X103136689Y-79153259D01*
X103192237Y-79142211D01*
X103239329Y-79173677D01*
X103251800Y-79214789D01*
X103251800Y-79385441D01*
X103261220Y-79432797D01*
X103290247Y-79578729D01*
X103290250Y-79578739D01*
X103365667Y-79760813D01*
X103474749Y-79924065D01*
X103475161Y-79924682D01*
X103614518Y-80064039D01*
X103778386Y-80173532D01*
X103960465Y-80248951D01*
X104153759Y-80287400D01*
X104153761Y-80287400D01*
X104350839Y-80287400D01*
X104350841Y-80287400D01*
X104544135Y-80248951D01*
X104726214Y-80173532D01*
X104890082Y-80064039D01*
X105029439Y-79924682D01*
X105138932Y-79760814D01*
X105214351Y-79578735D01*
X105252800Y-79385441D01*
X105252800Y-77965072D01*
X105274474Y-77912746D01*
X105962906Y-77224314D01*
X106722240Y-76464981D01*
X106779163Y-76379789D01*
X106831732Y-76301114D01*
X106838582Y-76284574D01*
X106878508Y-76188187D01*
X106878508Y-76188186D01*
X106878510Y-76188181D01*
X106907152Y-76119035D01*
X106939693Y-75955438D01*
X106945600Y-75925741D01*
X106945600Y-72549500D01*
X106967274Y-72497174D01*
X107019600Y-72475500D01*
X107325500Y-72475500D01*
X107377826Y-72497174D01*
X107399500Y-72549500D01*
X107399500Y-72674672D01*
X107414034Y-72747740D01*
X107469398Y-72830600D01*
X107474553Y-72835755D01*
X107472853Y-72837454D01*
X107498833Y-72876338D01*
X107487783Y-72931884D01*
X107461133Y-72971767D01*
X107449500Y-73030253D01*
X107449500Y-73769746D01*
X107461133Y-73828232D01*
X107490608Y-73872343D01*
X107505448Y-73894552D01*
X107536200Y-73915100D01*
X107571767Y-73938866D01*
X107571768Y-73938866D01*
X107571769Y-73938867D01*
X107630252Y-73950500D01*
X107630254Y-73950500D01*
X109469746Y-73950500D01*
X109469748Y-73950500D01*
X109528231Y-73938867D01*
X109594552Y-73894552D01*
X109638867Y-73828231D01*
X109650500Y-73769748D01*
X109650500Y-73480253D01*
X116449500Y-73480253D01*
X116449500Y-74519746D01*
X116461133Y-74578232D01*
X116490608Y-74622343D01*
X116505448Y-74644552D01*
X116549560Y-74674027D01*
X116571767Y-74688866D01*
X116571768Y-74688866D01*
X116571769Y-74688867D01*
X116630252Y-74700500D01*
X116630254Y-74700500D01*
X117369746Y-74700500D01*
X117369748Y-74700500D01*
X117428231Y-74688867D01*
X117494552Y-74644552D01*
X117525368Y-74598432D01*
X117538472Y-74578823D01*
X117585565Y-74547358D01*
X117641113Y-74558408D01*
X117661528Y-74578823D01*
X117689115Y-74620109D01*
X117705448Y-74644552D01*
X117749560Y-74674027D01*
X117771767Y-74688866D01*
X117771768Y-74688866D01*
X117771769Y-74688867D01*
X117830252Y-74700500D01*
X117830254Y-74700500D01*
X118569746Y-74700500D01*
X118569748Y-74700500D01*
X118628231Y-74688867D01*
X118694552Y-74644552D01*
X118725368Y-74598432D01*
X118738472Y-74578823D01*
X118785565Y-74547358D01*
X118841113Y-74558408D01*
X118861528Y-74578823D01*
X118889115Y-74620109D01*
X118905448Y-74644552D01*
X118949560Y-74674027D01*
X118971767Y-74688866D01*
X118971768Y-74688866D01*
X118971769Y-74688867D01*
X119030252Y-74700500D01*
X119030254Y-74700500D01*
X119769746Y-74700500D01*
X119769748Y-74700500D01*
X119828231Y-74688867D01*
X119894552Y-74644552D01*
X119925368Y-74598432D01*
X119938472Y-74578823D01*
X119985565Y-74547358D01*
X120041113Y-74558408D01*
X120061528Y-74578823D01*
X120089115Y-74620109D01*
X120105448Y-74644552D01*
X120149560Y-74674027D01*
X120171767Y-74688866D01*
X120171768Y-74688866D01*
X120171769Y-74688867D01*
X120230252Y-74700500D01*
X120230254Y-74700500D01*
X120969746Y-74700500D01*
X120969748Y-74700500D01*
X121028231Y-74688867D01*
X121094552Y-74644552D01*
X121125368Y-74598432D01*
X121138472Y-74578823D01*
X121185565Y-74547358D01*
X121241113Y-74558408D01*
X121261528Y-74578823D01*
X121289115Y-74620109D01*
X121305448Y-74644552D01*
X121349560Y-74674027D01*
X121371767Y-74688866D01*
X121371768Y-74688866D01*
X121371769Y-74688867D01*
X121430252Y-74700500D01*
X121430254Y-74700500D01*
X122169746Y-74700500D01*
X122169748Y-74700500D01*
X122228231Y-74688867D01*
X122294552Y-74644552D01*
X122338867Y-74578231D01*
X122350500Y-74519748D01*
X122350500Y-73480252D01*
X122338867Y-73421769D01*
X122338471Y-73421177D01*
X122297886Y-73360438D01*
X122294552Y-73355448D01*
X122272343Y-73340608D01*
X122228232Y-73311133D01*
X122228233Y-73311133D01*
X122198404Y-73305200D01*
X122169748Y-73299500D01*
X121430252Y-73299500D01*
X121401596Y-73305200D01*
X121371767Y-73311133D01*
X121305449Y-73355447D01*
X121305448Y-73355448D01*
X121261528Y-73421177D01*
X121214435Y-73452641D01*
X121158886Y-73441591D01*
X121138472Y-73421177D01*
X121122557Y-73397361D01*
X121094552Y-73355448D01*
X121072343Y-73340608D01*
X121028232Y-73311133D01*
X121028233Y-73311133D01*
X120998404Y-73305200D01*
X120969748Y-73299500D01*
X120230252Y-73299500D01*
X120201596Y-73305200D01*
X120171767Y-73311133D01*
X120105449Y-73355447D01*
X120105448Y-73355448D01*
X120061528Y-73421177D01*
X120014435Y-73452641D01*
X119958886Y-73441591D01*
X119938472Y-73421177D01*
X119922557Y-73397361D01*
X119894552Y-73355448D01*
X119872343Y-73340608D01*
X119828232Y-73311133D01*
X119828233Y-73311133D01*
X119798404Y-73305200D01*
X119769748Y-73299500D01*
X119030252Y-73299500D01*
X119001596Y-73305200D01*
X118971767Y-73311133D01*
X118905449Y-73355447D01*
X118905448Y-73355448D01*
X118861528Y-73421177D01*
X118814435Y-73452641D01*
X118758886Y-73441591D01*
X118738472Y-73421177D01*
X118722557Y-73397361D01*
X118694552Y-73355448D01*
X118672343Y-73340608D01*
X118628232Y-73311133D01*
X118628233Y-73311133D01*
X118598404Y-73305200D01*
X118569748Y-73299500D01*
X117830252Y-73299500D01*
X117801596Y-73305200D01*
X117771767Y-73311133D01*
X117705449Y-73355447D01*
X117705448Y-73355448D01*
X117661528Y-73421177D01*
X117614435Y-73452641D01*
X117558886Y-73441591D01*
X117538472Y-73421177D01*
X117522557Y-73397361D01*
X117494552Y-73355448D01*
X117472343Y-73340608D01*
X117428232Y-73311133D01*
X117428233Y-73311133D01*
X117398404Y-73305200D01*
X117369748Y-73299500D01*
X116630252Y-73299500D01*
X116601596Y-73305200D01*
X116571767Y-73311133D01*
X116505449Y-73355447D01*
X116505447Y-73355449D01*
X116461133Y-73421767D01*
X116449500Y-73480253D01*
X109650500Y-73480253D01*
X109650500Y-73030252D01*
X109638867Y-72971769D01*
X109630382Y-72959071D01*
X109612217Y-72931885D01*
X109601167Y-72876337D01*
X109627146Y-72837454D01*
X109625447Y-72835755D01*
X109630597Y-72830603D01*
X109630601Y-72830601D01*
X109685966Y-72747740D01*
X109700500Y-72674674D01*
X109700500Y-71925326D01*
X109685966Y-71852260D01*
X109645107Y-71791110D01*
X109642340Y-71777196D01*
X109634282Y-71765518D01*
X109637092Y-71750815D01*
X109634059Y-71735563D01*
X109644502Y-71709810D01*
X109644778Y-71709382D01*
X109664242Y-71680252D01*
X113449500Y-71680252D01*
X113449500Y-72719748D01*
X113454992Y-72747358D01*
X113461133Y-72778232D01*
X113490608Y-72822343D01*
X113505448Y-72844552D01*
X113530263Y-72861133D01*
X113571767Y-72888866D01*
X113571768Y-72888866D01*
X113571769Y-72888867D01*
X113630252Y-72900500D01*
X113630254Y-72900500D01*
X114369746Y-72900500D01*
X114369748Y-72900500D01*
X114428231Y-72888867D01*
X114494552Y-72844552D01*
X114527777Y-72794828D01*
X114538472Y-72778823D01*
X114585565Y-72747358D01*
X114641113Y-72758408D01*
X114661528Y-72778823D01*
X114689115Y-72820109D01*
X114705448Y-72844552D01*
X114730263Y-72861133D01*
X114771767Y-72888866D01*
X114771768Y-72888866D01*
X114771769Y-72888867D01*
X114830252Y-72900500D01*
X114830254Y-72900500D01*
X115569746Y-72900500D01*
X115569748Y-72900500D01*
X115628231Y-72888867D01*
X115694552Y-72844552D01*
X115727777Y-72794828D01*
X115738472Y-72778823D01*
X115785565Y-72747358D01*
X115841113Y-72758408D01*
X115861528Y-72778823D01*
X115889115Y-72820109D01*
X115905448Y-72844552D01*
X115930263Y-72861133D01*
X115971767Y-72888866D01*
X115971768Y-72888866D01*
X115971769Y-72888867D01*
X116030252Y-72900500D01*
X116030254Y-72900500D01*
X116769746Y-72900500D01*
X116769748Y-72900500D01*
X116828231Y-72888867D01*
X116894552Y-72844552D01*
X116927777Y-72794828D01*
X116938472Y-72778823D01*
X116985565Y-72747358D01*
X117041113Y-72758408D01*
X117061528Y-72778823D01*
X117089115Y-72820109D01*
X117105448Y-72844552D01*
X117130263Y-72861133D01*
X117171767Y-72888866D01*
X117171768Y-72888866D01*
X117171769Y-72888867D01*
X117230252Y-72900500D01*
X117230254Y-72900500D01*
X117969746Y-72900500D01*
X117969748Y-72900500D01*
X118028231Y-72888867D01*
X118094552Y-72844552D01*
X118127777Y-72794828D01*
X118138472Y-72778823D01*
X118185565Y-72747358D01*
X118241113Y-72758408D01*
X118261528Y-72778823D01*
X118289115Y-72820109D01*
X118305448Y-72844552D01*
X118330263Y-72861133D01*
X118371767Y-72888866D01*
X118371768Y-72888866D01*
X118371769Y-72888867D01*
X118430252Y-72900500D01*
X118430254Y-72900500D01*
X119169746Y-72900500D01*
X119169748Y-72900500D01*
X119228231Y-72888867D01*
X119294552Y-72844552D01*
X119327777Y-72794828D01*
X119338472Y-72778823D01*
X119385565Y-72747358D01*
X119441113Y-72758408D01*
X119461528Y-72778823D01*
X119489115Y-72820109D01*
X119505448Y-72844552D01*
X119530263Y-72861133D01*
X119571767Y-72888866D01*
X119571768Y-72888866D01*
X119571769Y-72888867D01*
X119630252Y-72900500D01*
X119630254Y-72900500D01*
X120369746Y-72900500D01*
X120369748Y-72900500D01*
X120428231Y-72888867D01*
X120494552Y-72844552D01*
X120527777Y-72794828D01*
X120538472Y-72778823D01*
X120585565Y-72747358D01*
X120641113Y-72758408D01*
X120661528Y-72778823D01*
X120689115Y-72820109D01*
X120705448Y-72844552D01*
X120730263Y-72861133D01*
X120771767Y-72888866D01*
X120771768Y-72888866D01*
X120771769Y-72888867D01*
X120830252Y-72900500D01*
X120830254Y-72900500D01*
X121569746Y-72900500D01*
X121569748Y-72900500D01*
X121628231Y-72888867D01*
X121694552Y-72844552D01*
X121738867Y-72778231D01*
X121750500Y-72719748D01*
X121750500Y-71680252D01*
X121738867Y-71621769D01*
X121738471Y-71621177D01*
X121714846Y-71585820D01*
X121694552Y-71555448D01*
X121666942Y-71536999D01*
X121628232Y-71511133D01*
X121628233Y-71511133D01*
X121598989Y-71505316D01*
X121569748Y-71499500D01*
X120830252Y-71499500D01*
X120801010Y-71505316D01*
X120771767Y-71511133D01*
X120705449Y-71555447D01*
X120705448Y-71555448D01*
X120661528Y-71621177D01*
X120614435Y-71652641D01*
X120558886Y-71641591D01*
X120538472Y-71621177D01*
X120514846Y-71585820D01*
X120494552Y-71555448D01*
X120466942Y-71536999D01*
X120428232Y-71511133D01*
X120428233Y-71511133D01*
X120398989Y-71505316D01*
X120369748Y-71499500D01*
X119630252Y-71499500D01*
X119601010Y-71505316D01*
X119571767Y-71511133D01*
X119505449Y-71555447D01*
X119505448Y-71555448D01*
X119461528Y-71621177D01*
X119414435Y-71652641D01*
X119358886Y-71641591D01*
X119338472Y-71621177D01*
X119314846Y-71585820D01*
X119294552Y-71555448D01*
X119266942Y-71536999D01*
X119228232Y-71511133D01*
X119228233Y-71511133D01*
X119198989Y-71505316D01*
X119169748Y-71499500D01*
X118430252Y-71499500D01*
X118401010Y-71505316D01*
X118371767Y-71511133D01*
X118305449Y-71555447D01*
X118305448Y-71555448D01*
X118261528Y-71621177D01*
X118214435Y-71652641D01*
X118158886Y-71641591D01*
X118138472Y-71621177D01*
X118114846Y-71585820D01*
X118094552Y-71555448D01*
X118066942Y-71536999D01*
X118028232Y-71511133D01*
X118028233Y-71511133D01*
X117998989Y-71505316D01*
X117969748Y-71499500D01*
X117230252Y-71499500D01*
X117201010Y-71505316D01*
X117171767Y-71511133D01*
X117105449Y-71555447D01*
X117105448Y-71555448D01*
X117061528Y-71621177D01*
X117014435Y-71652641D01*
X116958886Y-71641591D01*
X116938472Y-71621177D01*
X116914846Y-71585820D01*
X116894552Y-71555448D01*
X116866942Y-71536999D01*
X116828232Y-71511133D01*
X116828233Y-71511133D01*
X116798989Y-71505316D01*
X116769748Y-71499500D01*
X116769746Y-71499500D01*
X116289882Y-71499500D01*
X116237556Y-71477826D01*
X116215882Y-71425500D01*
X116225796Y-71388500D01*
X116240680Y-71362720D01*
X116266392Y-71318186D01*
X116300499Y-71190894D01*
X116300500Y-71190894D01*
X116300500Y-71059106D01*
X116300499Y-71059105D01*
X116289658Y-71018647D01*
X116266392Y-70931814D01*
X116200500Y-70817686D01*
X116107314Y-70724500D01*
X116006845Y-70666494D01*
X115993190Y-70658610D01*
X115993181Y-70658606D01*
X115865894Y-70624500D01*
X115865892Y-70624500D01*
X115734108Y-70624500D01*
X115734106Y-70624500D01*
X115606818Y-70658606D01*
X115606809Y-70658610D01*
X115492685Y-70724500D01*
X115399500Y-70817685D01*
X115333610Y-70931809D01*
X115333606Y-70931818D01*
X115299500Y-71059105D01*
X115299500Y-71190894D01*
X115333606Y-71318181D01*
X115333610Y-71318190D01*
X115374204Y-71388500D01*
X115381597Y-71444652D01*
X115347118Y-71489586D01*
X115310118Y-71499500D01*
X114830252Y-71499500D01*
X114801010Y-71505316D01*
X114771767Y-71511133D01*
X114705449Y-71555447D01*
X114705448Y-71555448D01*
X114661528Y-71621177D01*
X114614435Y-71652641D01*
X114558886Y-71641591D01*
X114538472Y-71621177D01*
X114514846Y-71585820D01*
X114494552Y-71555448D01*
X114466942Y-71536999D01*
X114428232Y-71511133D01*
X114428233Y-71511133D01*
X114398989Y-71505316D01*
X114369748Y-71499500D01*
X113630252Y-71499500D01*
X113601010Y-71505316D01*
X113571767Y-71511133D01*
X113505449Y-71555447D01*
X113505447Y-71555449D01*
X113461133Y-71621767D01*
X113455967Y-71647740D01*
X113449500Y-71680252D01*
X109664242Y-71680252D01*
X109685966Y-71647740D01*
X109700500Y-71574674D01*
X109700500Y-70825326D01*
X109685966Y-70752260D01*
X109630601Y-70669399D01*
X109626253Y-70666494D01*
X109547740Y-70614034D01*
X109474674Y-70599500D01*
X109474672Y-70599500D01*
X109063022Y-70599500D01*
X109027795Y-70588816D01*
X109027119Y-70590081D01*
X109023912Y-70588367D01*
X108841839Y-70512950D01*
X108841829Y-70512947D01*
X108712388Y-70487200D01*
X108648541Y-70474500D01*
X108648539Y-70474500D01*
X106390173Y-70474500D01*
X106337847Y-70452826D01*
X104771459Y-68886439D01*
X104771457Y-68886436D01*
X104627881Y-68742860D01*
X104587328Y-68715763D01*
X104464014Y-68633368D01*
X104464010Y-68633366D01*
X104464008Y-68633365D01*
X104464009Y-68633365D01*
X104315300Y-68571769D01*
X104315299Y-68571768D01*
X104281938Y-68557949D01*
X104281931Y-68557947D01*
X104185288Y-68538724D01*
X104185288Y-68538723D01*
X104104674Y-68522689D01*
X104088641Y-68519500D01*
X104088640Y-68519500D01*
X103314500Y-68519500D01*
X103262174Y-68497826D01*
X103240500Y-68445500D01*
X103240500Y-68065327D01*
X103240500Y-68065326D01*
X103225966Y-67992260D01*
X103170601Y-67909399D01*
X103087740Y-67854034D01*
X103014674Y-67839500D01*
X101985326Y-67839500D01*
X101936615Y-67849189D01*
X101912259Y-67854034D01*
X101829399Y-67909398D01*
X101829398Y-67909399D01*
X101774034Y-67992259D01*
X101759500Y-68065327D01*
X101759500Y-68814927D01*
X101737826Y-68867253D01*
X101722862Y-68882217D01*
X101722860Y-68882218D01*
X101613367Y-69046086D01*
X101537950Y-69228160D01*
X101537947Y-69228170D01*
X101499500Y-69421460D01*
X97500500Y-69421460D01*
X97500500Y-66430253D01*
X107449500Y-66430253D01*
X107449500Y-67169746D01*
X107461133Y-67228232D01*
X107483118Y-67261133D01*
X107505448Y-67294552D01*
X107505451Y-67294554D01*
X107508571Y-67297674D01*
X107530245Y-67350000D01*
X107508571Y-67402326D01*
X107505447Y-67405449D01*
X107461133Y-67471767D01*
X107461133Y-67471769D01*
X107449500Y-67530252D01*
X107449500Y-68269748D01*
X107454434Y-68294551D01*
X107461133Y-68328232D01*
X107476013Y-68350500D01*
X107505448Y-68394552D01*
X107535205Y-68414435D01*
X107571767Y-68438866D01*
X107571768Y-68438866D01*
X107571769Y-68438867D01*
X107630252Y-68450500D01*
X107630254Y-68450500D01*
X109469746Y-68450500D01*
X109469748Y-68450500D01*
X109528231Y-68438867D01*
X109594552Y-68394552D01*
X109638867Y-68328231D01*
X109650500Y-68269748D01*
X109650500Y-67530252D01*
X109638867Y-67471769D01*
X109594552Y-67405448D01*
X109594548Y-67405445D01*
X109591429Y-67402326D01*
X109569755Y-67350000D01*
X109591429Y-67297674D01*
X109594545Y-67294556D01*
X109594552Y-67294552D01*
X109638867Y-67228231D01*
X109650500Y-67169748D01*
X109650500Y-66430252D01*
X109638867Y-66371769D01*
X109594552Y-66305448D01*
X109568655Y-66288144D01*
X109568655Y-66288143D01*
X109528232Y-66261133D01*
X109528233Y-66261133D01*
X109498989Y-66255316D01*
X109469748Y-66249500D01*
X107630252Y-66249500D01*
X107601010Y-66255316D01*
X107571767Y-66261133D01*
X107505449Y-66305447D01*
X107505447Y-66305449D01*
X107461133Y-66371767D01*
X107449500Y-66430253D01*
X97500500Y-66430253D01*
X97500500Y-66230253D01*
X110349500Y-66230253D01*
X110349500Y-66969746D01*
X110361133Y-67028232D01*
X110390608Y-67072343D01*
X110405448Y-67094552D01*
X110447361Y-67122557D01*
X110471177Y-67138472D01*
X110502641Y-67185565D01*
X110491591Y-67241114D01*
X110471177Y-67261528D01*
X110405448Y-67305448D01*
X110405447Y-67305449D01*
X110361133Y-67371767D01*
X110349500Y-67430253D01*
X110349500Y-68169746D01*
X110361133Y-68228232D01*
X110388873Y-68269746D01*
X110405448Y-68294552D01*
X110449560Y-68324027D01*
X110471767Y-68338866D01*
X110471768Y-68338866D01*
X110471769Y-68338867D01*
X110530252Y-68350500D01*
X110530254Y-68350500D01*
X111569746Y-68350500D01*
X111569748Y-68350500D01*
X111628231Y-68338867D01*
X111694552Y-68294552D01*
X111738867Y-68228231D01*
X111750500Y-68169748D01*
X111750500Y-67430252D01*
X111738867Y-67371769D01*
X111694552Y-67305448D01*
X111670109Y-67289115D01*
X111628823Y-67261528D01*
X111597358Y-67214435D01*
X111608408Y-67158887D01*
X111628823Y-67138472D01*
X111648432Y-67125368D01*
X111694552Y-67094552D01*
X111738867Y-67028231D01*
X111750500Y-66969748D01*
X111750500Y-66230252D01*
X111738867Y-66171769D01*
X111694552Y-66105448D01*
X111672343Y-66090608D01*
X111628232Y-66061133D01*
X111628233Y-66061133D01*
X111598989Y-66055316D01*
X111569748Y-66049500D01*
X110530252Y-66049500D01*
X110501010Y-66055316D01*
X110471767Y-66061133D01*
X110405449Y-66105447D01*
X110405447Y-66105449D01*
X110361133Y-66171767D01*
X110349500Y-66230253D01*
X97500500Y-66230253D01*
X97500500Y-65280253D01*
X113449500Y-65280253D01*
X113449500Y-66319746D01*
X113461133Y-66378232D01*
X113490608Y-66422343D01*
X113505448Y-66444552D01*
X113549560Y-66474027D01*
X113571767Y-66488866D01*
X113571768Y-66488866D01*
X113571769Y-66488867D01*
X113630252Y-66500500D01*
X113630254Y-66500500D01*
X114369746Y-66500500D01*
X114369748Y-66500500D01*
X114428231Y-66488867D01*
X114494552Y-66444552D01*
X114525368Y-66398432D01*
X114538472Y-66378823D01*
X114585565Y-66347358D01*
X114641113Y-66358408D01*
X114661528Y-66378823D01*
X114689115Y-66420109D01*
X114705448Y-66444552D01*
X114749560Y-66474027D01*
X114771767Y-66488866D01*
X114771768Y-66488866D01*
X114771769Y-66488867D01*
X114830252Y-66500500D01*
X114830254Y-66500500D01*
X115569746Y-66500500D01*
X115569748Y-66500500D01*
X115628231Y-66488867D01*
X115694552Y-66444552D01*
X115725368Y-66398432D01*
X115738472Y-66378823D01*
X115785565Y-66347358D01*
X115841113Y-66358408D01*
X115861528Y-66378823D01*
X115889115Y-66420109D01*
X115905448Y-66444552D01*
X115949560Y-66474027D01*
X115971767Y-66488866D01*
X115971768Y-66488866D01*
X115971769Y-66488867D01*
X116030252Y-66500500D01*
X116030254Y-66500500D01*
X116769746Y-66500500D01*
X116769748Y-66500500D01*
X116828231Y-66488867D01*
X116894552Y-66444552D01*
X116925368Y-66398432D01*
X116938472Y-66378823D01*
X116985565Y-66347358D01*
X117041113Y-66358408D01*
X117061528Y-66378823D01*
X117089115Y-66420109D01*
X117105448Y-66444552D01*
X117149560Y-66474027D01*
X117171767Y-66488866D01*
X117171768Y-66488866D01*
X117171769Y-66488867D01*
X117230252Y-66500500D01*
X117230254Y-66500500D01*
X117969746Y-66500500D01*
X117969748Y-66500500D01*
X118028231Y-66488867D01*
X118094552Y-66444552D01*
X118125368Y-66398432D01*
X118138472Y-66378823D01*
X118185565Y-66347358D01*
X118241113Y-66358408D01*
X118261528Y-66378823D01*
X118289115Y-66420109D01*
X118305448Y-66444552D01*
X118349560Y-66474027D01*
X118371767Y-66488866D01*
X118371768Y-66488866D01*
X118371769Y-66488867D01*
X118430252Y-66500500D01*
X118430254Y-66500500D01*
X119169746Y-66500500D01*
X119169748Y-66500500D01*
X119228231Y-66488867D01*
X119294552Y-66444552D01*
X119325368Y-66398432D01*
X119338472Y-66378823D01*
X119385565Y-66347358D01*
X119441113Y-66358408D01*
X119461528Y-66378823D01*
X119489115Y-66420109D01*
X119505448Y-66444552D01*
X119549560Y-66474027D01*
X119571767Y-66488866D01*
X119571768Y-66488866D01*
X119571769Y-66488867D01*
X119630252Y-66500500D01*
X119630254Y-66500500D01*
X120369746Y-66500500D01*
X120369748Y-66500500D01*
X120428231Y-66488867D01*
X120494552Y-66444552D01*
X120525368Y-66398432D01*
X120538472Y-66378823D01*
X120585565Y-66347358D01*
X120641113Y-66358408D01*
X120661528Y-66378823D01*
X120689115Y-66420109D01*
X120705448Y-66444552D01*
X120749560Y-66474027D01*
X120771767Y-66488866D01*
X120771768Y-66488866D01*
X120771769Y-66488867D01*
X120830252Y-66500500D01*
X120830254Y-66500500D01*
X121569746Y-66500500D01*
X121569748Y-66500500D01*
X121628231Y-66488867D01*
X121694552Y-66444552D01*
X121738867Y-66378231D01*
X121750500Y-66319748D01*
X121750500Y-66230253D01*
X122249500Y-66230253D01*
X122249500Y-66969746D01*
X122261133Y-67028232D01*
X122290608Y-67072343D01*
X122305448Y-67094552D01*
X122347361Y-67122557D01*
X122371177Y-67138472D01*
X122402641Y-67185565D01*
X122391591Y-67241114D01*
X122371177Y-67261528D01*
X122305448Y-67305448D01*
X122305447Y-67305449D01*
X122261133Y-67371767D01*
X122249500Y-67430253D01*
X122249500Y-68169746D01*
X122261133Y-68228232D01*
X122288873Y-68269746D01*
X122305448Y-68294552D01*
X122347361Y-68322557D01*
X122371177Y-68338472D01*
X122402641Y-68385565D01*
X122391591Y-68441114D01*
X122371177Y-68461528D01*
X122305448Y-68505448D01*
X122305447Y-68505449D01*
X122261133Y-68571767D01*
X122249500Y-68630253D01*
X122249500Y-69369746D01*
X122261133Y-69428232D01*
X122290608Y-69472343D01*
X122305448Y-69494552D01*
X122347361Y-69522557D01*
X122371177Y-69538472D01*
X122402641Y-69585565D01*
X122391591Y-69641114D01*
X122371177Y-69661528D01*
X122305448Y-69705448D01*
X122305447Y-69705449D01*
X122261133Y-69771767D01*
X122261133Y-69771769D01*
X122249500Y-69830252D01*
X122249500Y-70569748D01*
X122254434Y-70594551D01*
X122261133Y-70628232D01*
X122281432Y-70658610D01*
X122305448Y-70694552D01*
X122346670Y-70722096D01*
X122371177Y-70738472D01*
X122402641Y-70785565D01*
X122391591Y-70841114D01*
X122371177Y-70861528D01*
X122305448Y-70905448D01*
X122305447Y-70905449D01*
X122261133Y-70971767D01*
X122260555Y-70974674D01*
X122249500Y-71030252D01*
X122249500Y-71769748D01*
X122253461Y-71789662D01*
X122261133Y-71828232D01*
X122290223Y-71871767D01*
X122305448Y-71894552D01*
X122343641Y-71920072D01*
X122371767Y-71938866D01*
X122371768Y-71938866D01*
X122371769Y-71938867D01*
X122430252Y-71950500D01*
X122430254Y-71950500D01*
X123469746Y-71950500D01*
X123469748Y-71950500D01*
X123528231Y-71938867D01*
X123594552Y-71894552D01*
X123638867Y-71828231D01*
X123650500Y-71769748D01*
X123650500Y-71030252D01*
X123638867Y-70971769D01*
X123637670Y-70969978D01*
X123624027Y-70949560D01*
X123594552Y-70905448D01*
X123568179Y-70887826D01*
X123528823Y-70861528D01*
X123497358Y-70814435D01*
X123508408Y-70758887D01*
X123528823Y-70738472D01*
X123553330Y-70722096D01*
X123594552Y-70694552D01*
X123638867Y-70628231D01*
X123650500Y-70569748D01*
X123650500Y-69830252D01*
X123638867Y-69771769D01*
X123594552Y-69705448D01*
X123544146Y-69671767D01*
X123528823Y-69661528D01*
X123497358Y-69614435D01*
X123508408Y-69558887D01*
X123528823Y-69538472D01*
X123548432Y-69525368D01*
X123594552Y-69494552D01*
X123638867Y-69428231D01*
X123650500Y-69369748D01*
X123650500Y-68630252D01*
X123638867Y-68571769D01*
X123594552Y-68505448D01*
X123570109Y-68489115D01*
X123528823Y-68461528D01*
X123497358Y-68414435D01*
X123508408Y-68358887D01*
X123528823Y-68338472D01*
X123548432Y-68325368D01*
X123594552Y-68294552D01*
X123638867Y-68228231D01*
X123650500Y-68169748D01*
X123650500Y-67430252D01*
X123638867Y-67371769D01*
X123594552Y-67305448D01*
X123570109Y-67289115D01*
X123528823Y-67261528D01*
X123497358Y-67214435D01*
X123508408Y-67158887D01*
X123528823Y-67138472D01*
X123548432Y-67125368D01*
X123594552Y-67094552D01*
X123638867Y-67028231D01*
X123650500Y-66969748D01*
X123650500Y-66230252D01*
X123638867Y-66171769D01*
X123594552Y-66105448D01*
X123572343Y-66090608D01*
X123528232Y-66061133D01*
X123528233Y-66061133D01*
X123498989Y-66055316D01*
X123469748Y-66049500D01*
X122430252Y-66049500D01*
X122401010Y-66055316D01*
X122371767Y-66061133D01*
X122305449Y-66105447D01*
X122305447Y-66105449D01*
X122261133Y-66171767D01*
X122249500Y-66230253D01*
X121750500Y-66230253D01*
X121750500Y-65280252D01*
X121738867Y-65221769D01*
X121738471Y-65221177D01*
X121724027Y-65199560D01*
X121694552Y-65155448D01*
X121669737Y-65138867D01*
X121628232Y-65111133D01*
X121628233Y-65111133D01*
X121598989Y-65105316D01*
X121569748Y-65099500D01*
X120830252Y-65099500D01*
X120801010Y-65105316D01*
X120771767Y-65111133D01*
X120705449Y-65155447D01*
X120705448Y-65155448D01*
X120661528Y-65221177D01*
X120614435Y-65252641D01*
X120558886Y-65241591D01*
X120538472Y-65221177D01*
X120522557Y-65197361D01*
X120494552Y-65155448D01*
X120469737Y-65138867D01*
X120428232Y-65111133D01*
X120428233Y-65111133D01*
X120398989Y-65105316D01*
X120369748Y-65099500D01*
X119630252Y-65099500D01*
X119601010Y-65105316D01*
X119571767Y-65111133D01*
X119505449Y-65155447D01*
X119505448Y-65155448D01*
X119461528Y-65221177D01*
X119414435Y-65252641D01*
X119358886Y-65241591D01*
X119338472Y-65221177D01*
X119322557Y-65197361D01*
X119294552Y-65155448D01*
X119269737Y-65138867D01*
X119228232Y-65111133D01*
X119228233Y-65111133D01*
X119198989Y-65105316D01*
X119169748Y-65099500D01*
X118430252Y-65099500D01*
X118401010Y-65105316D01*
X118371767Y-65111133D01*
X118305449Y-65155447D01*
X118305448Y-65155448D01*
X118261528Y-65221177D01*
X118214435Y-65252641D01*
X118158886Y-65241591D01*
X118138472Y-65221177D01*
X118122557Y-65197361D01*
X118094552Y-65155448D01*
X118069737Y-65138867D01*
X118028232Y-65111133D01*
X118028233Y-65111133D01*
X117998989Y-65105316D01*
X117969748Y-65099500D01*
X117230252Y-65099500D01*
X117201010Y-65105316D01*
X117171767Y-65111133D01*
X117105449Y-65155447D01*
X117105448Y-65155448D01*
X117061528Y-65221177D01*
X117014435Y-65252641D01*
X116958886Y-65241591D01*
X116938472Y-65221177D01*
X116922557Y-65197361D01*
X116894552Y-65155448D01*
X116869737Y-65138867D01*
X116828232Y-65111133D01*
X116828233Y-65111133D01*
X116798989Y-65105316D01*
X116769748Y-65099500D01*
X116030252Y-65099500D01*
X116001010Y-65105316D01*
X115971767Y-65111133D01*
X115905449Y-65155447D01*
X115905448Y-65155448D01*
X115861528Y-65221177D01*
X115814435Y-65252641D01*
X115758886Y-65241591D01*
X115738472Y-65221177D01*
X115722557Y-65197361D01*
X115694552Y-65155448D01*
X115669737Y-65138867D01*
X115628232Y-65111133D01*
X115628233Y-65111133D01*
X115598989Y-65105316D01*
X115569748Y-65099500D01*
X114830252Y-65099500D01*
X114801010Y-65105316D01*
X114771767Y-65111133D01*
X114705449Y-65155447D01*
X114705448Y-65155448D01*
X114661528Y-65221177D01*
X114614435Y-65252641D01*
X114558886Y-65241591D01*
X114538472Y-65221177D01*
X114522557Y-65197361D01*
X114494552Y-65155448D01*
X114469737Y-65138867D01*
X114428232Y-65111133D01*
X114428233Y-65111133D01*
X114398989Y-65105316D01*
X114369748Y-65099500D01*
X113630252Y-65099500D01*
X113601010Y-65105316D01*
X113571767Y-65111133D01*
X113505449Y-65155447D01*
X113505447Y-65155449D01*
X113461133Y-65221767D01*
X113449500Y-65280253D01*
X97500500Y-65280253D01*
X97500500Y-63480253D01*
X111649500Y-63480253D01*
X111649500Y-64519746D01*
X111661133Y-64578232D01*
X111690608Y-64622343D01*
X111705448Y-64644552D01*
X111749560Y-64674027D01*
X111771767Y-64688866D01*
X111771768Y-64688866D01*
X111771769Y-64688867D01*
X111830252Y-64700500D01*
X111830254Y-64700500D01*
X112569746Y-64700500D01*
X112569748Y-64700500D01*
X112628231Y-64688867D01*
X112694552Y-64644552D01*
X112725368Y-64598432D01*
X112738472Y-64578823D01*
X112785565Y-64547358D01*
X112841113Y-64558408D01*
X112861528Y-64578823D01*
X112889115Y-64620109D01*
X112905448Y-64644552D01*
X112949560Y-64674027D01*
X112971767Y-64688866D01*
X112971768Y-64688866D01*
X112971769Y-64688867D01*
X113030252Y-64700500D01*
X113030254Y-64700500D01*
X113769746Y-64700500D01*
X113769748Y-64700500D01*
X113828231Y-64688867D01*
X113894552Y-64644552D01*
X113925368Y-64598432D01*
X113938472Y-64578823D01*
X113985565Y-64547358D01*
X114041113Y-64558408D01*
X114061528Y-64578823D01*
X114089115Y-64620109D01*
X114105448Y-64644552D01*
X114149560Y-64674027D01*
X114171767Y-64688866D01*
X114171768Y-64688866D01*
X114171769Y-64688867D01*
X114230252Y-64700500D01*
X114230254Y-64700500D01*
X114969746Y-64700500D01*
X114969748Y-64700500D01*
X115028231Y-64688867D01*
X115094552Y-64644552D01*
X115125368Y-64598432D01*
X115138472Y-64578823D01*
X115185565Y-64547358D01*
X115241113Y-64558408D01*
X115261528Y-64578823D01*
X115289115Y-64620109D01*
X115305448Y-64644552D01*
X115349560Y-64674027D01*
X115371767Y-64688866D01*
X115371768Y-64688866D01*
X115371769Y-64688867D01*
X115430252Y-64700500D01*
X115430254Y-64700500D01*
X116169746Y-64700500D01*
X116169748Y-64700500D01*
X116228231Y-64688867D01*
X116294552Y-64644552D01*
X116325368Y-64598432D01*
X116338472Y-64578823D01*
X116385565Y-64547358D01*
X116441113Y-64558408D01*
X116461528Y-64578823D01*
X116489115Y-64620109D01*
X116505448Y-64644552D01*
X116549560Y-64674027D01*
X116571767Y-64688866D01*
X116571768Y-64688866D01*
X116571769Y-64688867D01*
X116630252Y-64700500D01*
X116630254Y-64700500D01*
X117369746Y-64700500D01*
X117369748Y-64700500D01*
X117428231Y-64688867D01*
X117494552Y-64644552D01*
X117525368Y-64598432D01*
X117538472Y-64578823D01*
X117585565Y-64547358D01*
X117641113Y-64558408D01*
X117661528Y-64578823D01*
X117689115Y-64620109D01*
X117705448Y-64644552D01*
X117749560Y-64674027D01*
X117771767Y-64688866D01*
X117771768Y-64688866D01*
X117771769Y-64688867D01*
X117830252Y-64700500D01*
X117830254Y-64700500D01*
X118569746Y-64700500D01*
X118569748Y-64700500D01*
X118628231Y-64688867D01*
X118694552Y-64644552D01*
X118725368Y-64598432D01*
X118738472Y-64578823D01*
X118785565Y-64547358D01*
X118841113Y-64558408D01*
X118861528Y-64578823D01*
X118889115Y-64620109D01*
X118905448Y-64644552D01*
X118949560Y-64674027D01*
X118971767Y-64688866D01*
X118971768Y-64688866D01*
X118971769Y-64688867D01*
X119030252Y-64700500D01*
X119030254Y-64700500D01*
X119769746Y-64700500D01*
X119769748Y-64700500D01*
X119828231Y-64688867D01*
X119894552Y-64644552D01*
X119925368Y-64598432D01*
X119938472Y-64578823D01*
X119985565Y-64547358D01*
X120041113Y-64558408D01*
X120061528Y-64578823D01*
X120089115Y-64620109D01*
X120105448Y-64644552D01*
X120149560Y-64674027D01*
X120171767Y-64688866D01*
X120171768Y-64688866D01*
X120171769Y-64688867D01*
X120230252Y-64700500D01*
X120230254Y-64700500D01*
X120969746Y-64700500D01*
X120969748Y-64700500D01*
X121028231Y-64688867D01*
X121094552Y-64644552D01*
X121125368Y-64598432D01*
X121138472Y-64578823D01*
X121185565Y-64547358D01*
X121241113Y-64558408D01*
X121261528Y-64578823D01*
X121289115Y-64620109D01*
X121305448Y-64644552D01*
X121349560Y-64674027D01*
X121371767Y-64688866D01*
X121371768Y-64688866D01*
X121371769Y-64688867D01*
X121430252Y-64700500D01*
X121430254Y-64700500D01*
X122169746Y-64700500D01*
X122169748Y-64700500D01*
X122228231Y-64688867D01*
X122294552Y-64644552D01*
X122338867Y-64578231D01*
X122350500Y-64519748D01*
X122350500Y-63480252D01*
X122338867Y-63421769D01*
X122338471Y-63421177D01*
X122324027Y-63399560D01*
X122294552Y-63355448D01*
X122272343Y-63340608D01*
X122228232Y-63311133D01*
X122228233Y-63311133D01*
X122198989Y-63305316D01*
X122169748Y-63299500D01*
X121430252Y-63299500D01*
X121401010Y-63305316D01*
X121371767Y-63311133D01*
X121305449Y-63355447D01*
X121305448Y-63355448D01*
X121261528Y-63421177D01*
X121214435Y-63452641D01*
X121158886Y-63441591D01*
X121138472Y-63421177D01*
X121122557Y-63397361D01*
X121094552Y-63355448D01*
X121072343Y-63340608D01*
X121028232Y-63311133D01*
X121028233Y-63311133D01*
X120998989Y-63305316D01*
X120969748Y-63299500D01*
X120230252Y-63299500D01*
X120201010Y-63305316D01*
X120171767Y-63311133D01*
X120105449Y-63355447D01*
X120105448Y-63355448D01*
X120061528Y-63421177D01*
X120014435Y-63452641D01*
X119958886Y-63441591D01*
X119938472Y-63421177D01*
X119922557Y-63397361D01*
X119894552Y-63355448D01*
X119872343Y-63340608D01*
X119828232Y-63311133D01*
X119828233Y-63311133D01*
X119798989Y-63305316D01*
X119769748Y-63299500D01*
X119030252Y-63299500D01*
X119001010Y-63305316D01*
X118971767Y-63311133D01*
X118905449Y-63355447D01*
X118905448Y-63355448D01*
X118861528Y-63421177D01*
X118814435Y-63452641D01*
X118758886Y-63441591D01*
X118738472Y-63421177D01*
X118722557Y-63397361D01*
X118694552Y-63355448D01*
X118672343Y-63340608D01*
X118628232Y-63311133D01*
X118628233Y-63311133D01*
X118598989Y-63305316D01*
X118569748Y-63299500D01*
X117830252Y-63299500D01*
X117801010Y-63305316D01*
X117771767Y-63311133D01*
X117705449Y-63355447D01*
X117705448Y-63355448D01*
X117661528Y-63421177D01*
X117614435Y-63452641D01*
X117558886Y-63441591D01*
X117538472Y-63421177D01*
X117522557Y-63397361D01*
X117494552Y-63355448D01*
X117472343Y-63340608D01*
X117428232Y-63311133D01*
X117428233Y-63311133D01*
X117398989Y-63305316D01*
X117369748Y-63299500D01*
X116630252Y-63299500D01*
X116601010Y-63305316D01*
X116571767Y-63311133D01*
X116505449Y-63355447D01*
X116505448Y-63355448D01*
X116461528Y-63421177D01*
X116414435Y-63452641D01*
X116358886Y-63441591D01*
X116338472Y-63421177D01*
X116322557Y-63397361D01*
X116294552Y-63355448D01*
X116272343Y-63340608D01*
X116228232Y-63311133D01*
X116228233Y-63311133D01*
X116198989Y-63305316D01*
X116169748Y-63299500D01*
X115430252Y-63299500D01*
X115401010Y-63305316D01*
X115371767Y-63311133D01*
X115305449Y-63355447D01*
X115305448Y-63355448D01*
X115261528Y-63421177D01*
X115214435Y-63452641D01*
X115158886Y-63441591D01*
X115138472Y-63421177D01*
X115122557Y-63397361D01*
X115094552Y-63355448D01*
X115072343Y-63340608D01*
X115028232Y-63311133D01*
X115028233Y-63311133D01*
X114998989Y-63305316D01*
X114969748Y-63299500D01*
X114230252Y-63299500D01*
X114201010Y-63305316D01*
X114171767Y-63311133D01*
X114105449Y-63355447D01*
X114105448Y-63355448D01*
X114061528Y-63421177D01*
X114014435Y-63452641D01*
X113958886Y-63441591D01*
X113938472Y-63421177D01*
X113922557Y-63397361D01*
X113894552Y-63355448D01*
X113872343Y-63340608D01*
X113828232Y-63311133D01*
X113828233Y-63311133D01*
X113798989Y-63305316D01*
X113769748Y-63299500D01*
X113030252Y-63299500D01*
X113001010Y-63305316D01*
X112971767Y-63311133D01*
X112905449Y-63355447D01*
X112905448Y-63355448D01*
X112861528Y-63421177D01*
X112814435Y-63452641D01*
X112758886Y-63441591D01*
X112738472Y-63421177D01*
X112722557Y-63397361D01*
X112694552Y-63355448D01*
X112672343Y-63340608D01*
X112628232Y-63311133D01*
X112628233Y-63311133D01*
X112598989Y-63305316D01*
X112569748Y-63299500D01*
X111830252Y-63299500D01*
X111801010Y-63305316D01*
X111771767Y-63311133D01*
X111705449Y-63355447D01*
X111705447Y-63355449D01*
X111661133Y-63421767D01*
X111649500Y-63480253D01*
X97500500Y-63480253D01*
X97500500Y-58309263D01*
X107939500Y-58309263D01*
X107939500Y-58650734D01*
X107953983Y-58742175D01*
X107953983Y-58742177D01*
X108000000Y-58832488D01*
X108010141Y-58852391D01*
X108097609Y-58939859D01*
X108207825Y-58996017D01*
X108299265Y-59010500D01*
X108700734Y-59010499D01*
X108792175Y-58996017D01*
X108902391Y-58939859D01*
X108989859Y-58852391D01*
X109046017Y-58742175D01*
X109046017Y-58742168D01*
X109047035Y-58739038D01*
X109065089Y-58709570D01*
X109722549Y-58052110D01*
X109774874Y-58030437D01*
X109776609Y-58030500D01*
X109778418Y-58030500D01*
X110221576Y-58030500D01*
X110221582Y-58030500D01*
X110296518Y-58019582D01*
X110412102Y-57963076D01*
X110503076Y-57872102D01*
X110559582Y-57756518D01*
X110570500Y-57681582D01*
X110570500Y-57338418D01*
X110559582Y-57263482D01*
X110503076Y-57147898D01*
X110412102Y-57056924D01*
X110412004Y-57056826D01*
X110390330Y-57004500D01*
X110412004Y-56952174D01*
X110464330Y-56930500D01*
X111417987Y-56930500D01*
X111470313Y-56952174D01*
X111839226Y-57321087D01*
X111860900Y-57373413D01*
X111860900Y-57741586D01*
X111839226Y-57793912D01*
X111705311Y-57927826D01*
X111652985Y-57949500D01*
X111299265Y-57949500D01*
X111207824Y-57963983D01*
X111207822Y-57963983D01*
X111097608Y-58020141D01*
X111010142Y-58107607D01*
X110953982Y-58217827D01*
X110953982Y-58217829D01*
X110939500Y-58309263D01*
X110939500Y-58386886D01*
X110917826Y-58439212D01*
X110129527Y-59227512D01*
X110047509Y-59309530D01*
X109989521Y-59409968D01*
X109989520Y-59409970D01*
X109989519Y-59409972D01*
X109989519Y-59409973D01*
X109959500Y-59522007D01*
X109959500Y-59522009D01*
X109959500Y-60319641D01*
X109937826Y-60371967D01*
X109926612Y-60381170D01*
X109869399Y-60419398D01*
X109869398Y-60419399D01*
X109814034Y-60502259D01*
X109799500Y-60575327D01*
X109799500Y-62424672D01*
X109814034Y-62497740D01*
X109843225Y-62541429D01*
X109869399Y-62580601D01*
X109952260Y-62635966D01*
X110025326Y-62650500D01*
X110025328Y-62650500D01*
X110774672Y-62650500D01*
X110774674Y-62650500D01*
X110847740Y-62635966D01*
X110930601Y-62580601D01*
X110985966Y-62497740D01*
X111000500Y-62424674D01*
X111000500Y-60580252D01*
X112049500Y-60580252D01*
X112049500Y-62419748D01*
X112050480Y-62424674D01*
X112061133Y-62478232D01*
X112088879Y-62519755D01*
X112105448Y-62544552D01*
X112149560Y-62574027D01*
X112171767Y-62588866D01*
X112171768Y-62588866D01*
X112171769Y-62588867D01*
X112230252Y-62600500D01*
X112230254Y-62600500D01*
X112969746Y-62600500D01*
X112969748Y-62600500D01*
X113028231Y-62588867D01*
X113094552Y-62544552D01*
X113094556Y-62544545D01*
X113097674Y-62541429D01*
X113150000Y-62519755D01*
X113202326Y-62541429D01*
X113205445Y-62544548D01*
X113205448Y-62544552D01*
X113249560Y-62574027D01*
X113271767Y-62588866D01*
X113271768Y-62588866D01*
X113271769Y-62588867D01*
X113330252Y-62600500D01*
X113330254Y-62600500D01*
X114069746Y-62600500D01*
X114069748Y-62600500D01*
X114128231Y-62588867D01*
X114194552Y-62544552D01*
X114194556Y-62544545D01*
X114197674Y-62541429D01*
X114250000Y-62519755D01*
X114302326Y-62541429D01*
X114305445Y-62544548D01*
X114305448Y-62544552D01*
X114349560Y-62574027D01*
X114371767Y-62588866D01*
X114371768Y-62588866D01*
X114371769Y-62588867D01*
X114430252Y-62600500D01*
X114430254Y-62600500D01*
X115169746Y-62600500D01*
X115169748Y-62600500D01*
X115228231Y-62588867D01*
X115294552Y-62544552D01*
X115294556Y-62544545D01*
X115297674Y-62541429D01*
X115350000Y-62519755D01*
X115402326Y-62541429D01*
X115405445Y-62544548D01*
X115405448Y-62544552D01*
X115449560Y-62574027D01*
X115471767Y-62588866D01*
X115471768Y-62588866D01*
X115471769Y-62588867D01*
X115530252Y-62600500D01*
X115530254Y-62600500D01*
X116269746Y-62600500D01*
X116269748Y-62600500D01*
X116328231Y-62588867D01*
X116394552Y-62544552D01*
X116394556Y-62544545D01*
X116397674Y-62541429D01*
X116450000Y-62519755D01*
X116502326Y-62541429D01*
X116505445Y-62544548D01*
X116505448Y-62544552D01*
X116549560Y-62574027D01*
X116571767Y-62588866D01*
X116571768Y-62588866D01*
X116571769Y-62588867D01*
X116630252Y-62600500D01*
X116630254Y-62600500D01*
X117369746Y-62600500D01*
X117369748Y-62600500D01*
X117428231Y-62588867D01*
X117494552Y-62544552D01*
X117494556Y-62544545D01*
X117497674Y-62541429D01*
X117550000Y-62519755D01*
X117602326Y-62541429D01*
X117605445Y-62544548D01*
X117605448Y-62544552D01*
X117649560Y-62574027D01*
X117671767Y-62588866D01*
X117671768Y-62588866D01*
X117671769Y-62588867D01*
X117730252Y-62600500D01*
X117730254Y-62600500D01*
X118469746Y-62600500D01*
X118469748Y-62600500D01*
X118528231Y-62588867D01*
X118594552Y-62544552D01*
X118638867Y-62478231D01*
X118650500Y-62419748D01*
X118650500Y-60580252D01*
X118638867Y-60521769D01*
X118594552Y-60455448D01*
X118540602Y-60419399D01*
X118528232Y-60411133D01*
X118528233Y-60411133D01*
X118498989Y-60405316D01*
X118469748Y-60399500D01*
X117730252Y-60399500D01*
X117701010Y-60405316D01*
X117671767Y-60411133D01*
X117605449Y-60455447D01*
X117602326Y-60458571D01*
X117550000Y-60480245D01*
X117497674Y-60458571D01*
X117494554Y-60455451D01*
X117494552Y-60455448D01*
X117440602Y-60419399D01*
X117428232Y-60411133D01*
X117428233Y-60411133D01*
X117398989Y-60405316D01*
X117369748Y-60399500D01*
X116630252Y-60399500D01*
X116601010Y-60405316D01*
X116571767Y-60411133D01*
X116505449Y-60455447D01*
X116502326Y-60458571D01*
X116450000Y-60480245D01*
X116397674Y-60458571D01*
X116394554Y-60455451D01*
X116394552Y-60455448D01*
X116340602Y-60419399D01*
X116328232Y-60411133D01*
X116328233Y-60411133D01*
X116298989Y-60405316D01*
X116269748Y-60399500D01*
X115530252Y-60399500D01*
X115501010Y-60405316D01*
X115471767Y-60411133D01*
X115405449Y-60455447D01*
X115402326Y-60458571D01*
X115350000Y-60480245D01*
X115297674Y-60458571D01*
X115294554Y-60455451D01*
X115294552Y-60455448D01*
X115240602Y-60419399D01*
X115228232Y-60411133D01*
X115228233Y-60411133D01*
X115198989Y-60405316D01*
X115169748Y-60399500D01*
X114430252Y-60399500D01*
X114401010Y-60405316D01*
X114371767Y-60411133D01*
X114305449Y-60455447D01*
X114302326Y-60458571D01*
X114250000Y-60480245D01*
X114197674Y-60458571D01*
X114194554Y-60455451D01*
X114194552Y-60455448D01*
X114140602Y-60419399D01*
X114128232Y-60411133D01*
X114128233Y-60411133D01*
X114098989Y-60405316D01*
X114069748Y-60399500D01*
X113330252Y-60399500D01*
X113301010Y-60405316D01*
X113271767Y-60411133D01*
X113205449Y-60455447D01*
X113202326Y-60458571D01*
X113150000Y-60480245D01*
X113097674Y-60458571D01*
X113094554Y-60455451D01*
X113094552Y-60455448D01*
X113040602Y-60419399D01*
X113028232Y-60411133D01*
X113028233Y-60411133D01*
X112998989Y-60405316D01*
X112969748Y-60399500D01*
X112230252Y-60399500D01*
X112201010Y-60405316D01*
X112171767Y-60411133D01*
X112105449Y-60455447D01*
X112105447Y-60455449D01*
X112061133Y-60521767D01*
X112061133Y-60521769D01*
X112049500Y-60580252D01*
X111000500Y-60580252D01*
X111000500Y-60575326D01*
X110985966Y-60502260D01*
X110930601Y-60419399D01*
X110930600Y-60419398D01*
X110873388Y-60381170D01*
X110841922Y-60334077D01*
X110840500Y-60319641D01*
X110840500Y-59793112D01*
X110862173Y-59740787D01*
X111570787Y-59032172D01*
X111623113Y-59010499D01*
X111700735Y-59010499D01*
X111713236Y-59008518D01*
X111792175Y-58996017D01*
X111902391Y-58939859D01*
X111952588Y-58889660D01*
X111967909Y-58877904D01*
X112046573Y-58832488D01*
X112653888Y-58225174D01*
X112711881Y-58124727D01*
X112741899Y-58012696D01*
X112741900Y-58012696D01*
X112741900Y-57102309D01*
X112741900Y-57102307D01*
X112711881Y-56990273D01*
X112677371Y-56930500D01*
X112653888Y-56889826D01*
X111901573Y-56137512D01*
X111901570Y-56137510D01*
X111901569Y-56137509D01*
X111801131Y-56079521D01*
X111801129Y-56079520D01*
X111801128Y-56079519D01*
X111801127Y-56079519D01*
X111689093Y-56049500D01*
X111689091Y-56049500D01*
X110453422Y-56049500D01*
X110418281Y-56038242D01*
X110417610Y-56039617D01*
X110412102Y-56036924D01*
X110296518Y-55980418D01*
X110221586Y-55969500D01*
X110221582Y-55969500D01*
X109778418Y-55969500D01*
X109778413Y-55969500D01*
X109703481Y-55980418D01*
X109664707Y-55999374D01*
X109595200Y-56033354D01*
X109538673Y-56036864D01*
X109496219Y-55999374D01*
X109488700Y-55966873D01*
X109488700Y-53874500D01*
X109510374Y-53822174D01*
X109562700Y-53800500D01*
X110154672Y-53800500D01*
X110154674Y-53800500D01*
X110227740Y-53785966D01*
X110310601Y-53730601D01*
X110365966Y-53647740D01*
X110380500Y-53574674D01*
X110380500Y-52425326D01*
X110365966Y-52352260D01*
X110310601Y-52269399D01*
X110227740Y-52214034D01*
X110154674Y-52199500D01*
X108605326Y-52199500D01*
X108556615Y-52209189D01*
X108532259Y-52214034D01*
X108449399Y-52269398D01*
X108449398Y-52269399D01*
X108394034Y-52352259D01*
X108394034Y-52352260D01*
X108379500Y-52425326D01*
X108379500Y-53574674D01*
X108394034Y-53647740D01*
X108449399Y-53730601D01*
X108532260Y-53785966D01*
X108548137Y-53789124D01*
X108595227Y-53820586D01*
X108607700Y-53861701D01*
X108607700Y-56728907D01*
X108607700Y-56844893D01*
X108637719Y-56956927D01*
X108637720Y-56956929D01*
X108637721Y-56956931D01*
X108695709Y-57057369D01*
X108695710Y-57057370D01*
X108695712Y-57057373D01*
X109031213Y-57392874D01*
X109052887Y-57445199D01*
X109031213Y-57497525D01*
X108600911Y-57927826D01*
X108548585Y-57949500D01*
X108299265Y-57949500D01*
X108207824Y-57963983D01*
X108207822Y-57963983D01*
X108097608Y-58020141D01*
X108010142Y-58107607D01*
X107953982Y-58217827D01*
X107953982Y-58217829D01*
X107939500Y-58309263D01*
X97500500Y-58309263D01*
X97500500Y-48237966D01*
X97522174Y-48185640D01*
X99185640Y-46522174D01*
X99237966Y-46500500D01*
X134762034Y-46500500D01*
X134814360Y-46522174D01*
G37*
%TD.AperFunction*%
%TA.AperFunction,Conductor*%
G36*
X132099354Y-71408947D02*
G01*
X132114681Y-71420707D01*
X132529826Y-71835852D01*
X132551500Y-71888178D01*
X132551500Y-73447520D01*
X132529826Y-73499846D01*
X131561845Y-74467826D01*
X131509519Y-74489500D01*
X131340100Y-74489500D01*
X131290514Y-74496027D01*
X131290512Y-74496028D01*
X131181683Y-74546776D01*
X131096776Y-74631683D01*
X131046027Y-74740514D01*
X131039500Y-74790100D01*
X131039500Y-74959520D01*
X131017826Y-75011846D01*
X129571847Y-76457826D01*
X129519521Y-76479500D01*
X129315683Y-76479500D01*
X129276057Y-76484716D01*
X129221350Y-76470056D01*
X129193033Y-76421006D01*
X129192400Y-76411349D01*
X129192400Y-75818578D01*
X129214073Y-75766253D01*
X129448153Y-75532172D01*
X129500479Y-75510499D01*
X129699900Y-75510499D01*
X129749487Y-75503972D01*
X129858316Y-75453224D01*
X129943224Y-75368316D01*
X129993972Y-75259487D01*
X130000500Y-75209901D01*
X130000499Y-74790100D01*
X129993972Y-74740513D01*
X129943224Y-74631684D01*
X129867174Y-74555634D01*
X129845500Y-74503308D01*
X129845500Y-73209578D01*
X129867173Y-73157253D01*
X130240574Y-72783851D01*
X130292900Y-72762178D01*
X130345226Y-72783852D01*
X130366900Y-72836178D01*
X130366900Y-72963564D01*
X130387377Y-73039985D01*
X130387379Y-73039990D01*
X130409224Y-73077826D01*
X130421738Y-73099500D01*
X130424965Y-73105091D01*
X130426939Y-73108510D01*
X130534306Y-73215877D01*
X130555980Y-73268203D01*
X130546068Y-73305200D01*
X130536710Y-73321409D01*
X130536706Y-73321418D01*
X130502600Y-73448705D01*
X130502600Y-73580494D01*
X130536706Y-73707781D01*
X130536707Y-73707784D01*
X130536708Y-73707786D01*
X130602600Y-73821914D01*
X130695786Y-73915100D01*
X130809914Y-73980992D01*
X130937205Y-74015099D01*
X130937206Y-74015100D01*
X130937208Y-74015100D01*
X131068994Y-74015100D01*
X131068994Y-74015099D01*
X131196286Y-73980992D01*
X131310414Y-73915100D01*
X131403600Y-73821914D01*
X131469492Y-73707786D01*
X131503599Y-73580494D01*
X131503600Y-73580494D01*
X131503600Y-73448706D01*
X131503599Y-73448705D01*
X131503281Y-73447520D01*
X131469492Y-73321414D01*
X131403600Y-73207286D01*
X131403599Y-73207285D01*
X131401175Y-73203086D01*
X131403278Y-73201871D01*
X131390677Y-73154842D01*
X131418995Y-73105792D01*
X131464044Y-73090500D01*
X131757330Y-73090500D01*
X131757330Y-73090499D01*
X131843928Y-73067295D01*
X131921572Y-73022468D01*
X131984968Y-72959072D01*
X132029795Y-72881428D01*
X132052999Y-72794830D01*
X132053000Y-72794830D01*
X132053000Y-72705170D01*
X132052999Y-72705169D01*
X132050595Y-72696199D01*
X132029795Y-72618572D01*
X131984968Y-72540928D01*
X131921572Y-72477532D01*
X131921571Y-72477531D01*
X131855845Y-72439585D01*
X131843928Y-72432705D01*
X131843927Y-72432704D01*
X131757330Y-72409500D01*
X131757328Y-72409500D01*
X131042672Y-72409500D01*
X131042670Y-72409500D01*
X130956075Y-72432703D01*
X130956067Y-72432706D01*
X130944155Y-72439585D01*
X130907154Y-72449500D01*
X130753578Y-72449500D01*
X130701252Y-72427826D01*
X130679578Y-72375500D01*
X130701252Y-72323174D01*
X130902865Y-72121562D01*
X130908097Y-72112498D01*
X130953031Y-72078021D01*
X130972183Y-72075500D01*
X130976952Y-72075500D01*
X130996103Y-72078021D01*
X131020111Y-72084454D01*
X131042671Y-72090500D01*
X131042672Y-72090500D01*
X131757330Y-72090500D01*
X131757330Y-72090499D01*
X131843928Y-72067295D01*
X131921572Y-72022468D01*
X131984968Y-71959072D01*
X132029795Y-71881428D01*
X132052999Y-71794830D01*
X132053000Y-71794830D01*
X132053000Y-71705170D01*
X132052999Y-71705169D01*
X132046322Y-71680252D01*
X132029795Y-71618572D01*
X132010886Y-71585820D01*
X131982700Y-71536999D01*
X131975308Y-71480847D01*
X131982700Y-71463001D01*
X131998269Y-71436034D01*
X132043202Y-71401555D01*
X132099354Y-71408947D01*
G37*
%TD.AperFunction*%
%TD*%
M02*
