%TF.GenerationSoftware,KiCad,Pcbnew,10.0.6*%
%TF.CreationDate,2026-09-07T19:52:13+08:00*%
%TF.ProjectId,sms_forwarder_ml307a,736d735f-666f-4727-9761-726465725f6d,rev?*%
%TF.SameCoordinates,Original*%
%TF.FileFunction,Paste,Top*%
%TF.FilePolarity,Positive*%
%FSLAX46Y46*%
G04 Gerber Fmt 4.6, Leading zero omitted, Abs format (unit mm)*
G04 Created by KiCad (PCBNEW 10.0.6) date 2026-09-07 19:52:13*
%MOMM*%
%LPD*%
G01*
G04 APERTURE LIST*
G04 Aperture macros list*
%AMRoundRect*
0 Rectangle with rounded corners*
0 $1 Rounding radius*
0 $2 $3 $4 $5 $6 $7 $8 $9 X,Y pos of 4 corners*
0 Add a 4 corners polygon primitive as box body*
4,1,4,$2,$3,$4,$5,$6,$7,$8,$9,$2,$3,0*
0 Add four circle primitives for the rounded corners*
1,1,$1+$1,$2,$3*
1,1,$1+$1,$4,$5*
1,1,$1+$1,$6,$7*
1,1,$1+$1,$8,$9*
0 Add four rect primitives between the rounded corners*
20,1,$1+$1,$2,$3,$4,$5,0*
20,1,$1+$1,$4,$5,$6,$7,0*
20,1,$1+$1,$6,$7,$8,$9,0*
20,1,$1+$1,$8,$9,$2,$3,0*%
G04 Aperture macros list end*
%ADD10RoundRect,0.140000X-0.140000X-0.170000X0.140000X-0.170000X0.140000X0.170000X-0.140000X0.170000X0*%
%ADD11RoundRect,0.135000X0.185000X-0.135000X0.185000X0.135000X-0.185000X0.135000X-0.185000X-0.135000X0*%
%ADD12RoundRect,0.135000X-0.135000X-0.185000X0.135000X-0.185000X0.135000X0.185000X-0.135000X0.185000X0*%
%ADD13RoundRect,0.140000X0.170000X-0.140000X0.170000X0.140000X-0.170000X0.140000X-0.170000X-0.140000X0*%
%ADD14R,1.000000X1.250000*%
%ADD15RoundRect,0.250000X0.475000X-0.250000X0.475000X0.250000X-0.475000X0.250000X-0.475000X-0.250000X0*%
%ADD16RoundRect,0.225000X0.250000X-0.225000X0.250000X0.225000X-0.250000X0.225000X-0.250000X-0.225000X0*%
%ADD17R,2.200000X1.100000*%
%ADD18R,1.500000X1.100000*%
%ADD19R,1.190000X1.728000*%
%ADD20R,1.100000X2.200000*%
%ADD21R,1.100000X1.500000*%
%ADD22RoundRect,0.218750X0.256250X-0.218750X0.256250X0.218750X-0.256250X0.218750X-0.256250X-0.218750X0*%
%ADD23RoundRect,0.250000X0.300000X-0.300000X0.300000X0.300000X-0.300000X0.300000X-0.300000X-0.300000X0*%
%ADD24R,0.700000X1.800000*%
%ADD25R,1.800000X0.700000*%
%ADD26R,0.700000X1.000000*%
%ADD27R,1.000000X0.700000*%
%ADD28R,1.300000X1.300000*%
%ADD29R,0.980000X2.860000*%
%ADD30O,0.574000X2.038000*%
%ADD31R,2.000000X2.000000*%
%ADD32R,3.200000X2.400000*%
%ADD33R,0.622000X1.105000*%
%ADD34O,0.905000X0.280000*%
G04 APERTURE END LIST*
D10*
%TO.C,C10*%
X107520000Y-105000000D03*
X108480000Y-105000000D03*
%TD*%
D11*
%TO.C,R5*%
X101000000Y-108510000D03*
X101000000Y-107490000D03*
%TD*%
%TO.C,R12*%
X128000000Y-79510000D03*
X128000000Y-78490000D03*
%TD*%
D10*
%TO.C,C16*%
X129520000Y-75000000D03*
X130480000Y-75000000D03*
%TD*%
%TO.C,C8*%
X100320000Y-100000000D03*
X101280000Y-100000000D03*
%TD*%
D12*
%TO.C,R2*%
X111490000Y-98000000D03*
X112510000Y-98000000D03*
%TD*%
D13*
%TO.C,C19*%
X122000000Y-88480000D03*
X122000000Y-87520000D03*
%TD*%
D10*
%TO.C,C25*%
X106020000Y-80500000D03*
X106980000Y-80500000D03*
%TD*%
D14*
%TO.C,SW2*%
X100500000Y-123875000D03*
X100500000Y-116125000D03*
%TD*%
D15*
%TO.C,C3*%
X109500000Y-89450000D03*
X109500000Y-87550000D03*
%TD*%
D12*
%TO.C,R3*%
X108490000Y-113000000D03*
X109510000Y-113000000D03*
%TD*%
D10*
%TO.C,C7*%
X108520000Y-100000000D03*
X109480000Y-100000000D03*
%TD*%
D13*
%TO.C,C14*%
X132000000Y-121980000D03*
X132000000Y-121020000D03*
%TD*%
D12*
%TO.C,R15*%
X104990000Y-82500000D03*
X106010000Y-82500000D03*
%TD*%
D14*
%TO.C,SW1*%
X105000000Y-123875000D03*
X105000000Y-116125000D03*
%TD*%
D11*
%TO.C,R11*%
X126000000Y-79510000D03*
X126000000Y-78490000D03*
%TD*%
D16*
%TO.C,C11*%
X126000000Y-116775000D03*
X126000000Y-115225000D03*
%TD*%
D11*
%TO.C,R9*%
X122000000Y-79510000D03*
X122000000Y-78490000D03*
%TD*%
D10*
%TO.C,C15*%
X108520000Y-115000000D03*
X109480000Y-115000000D03*
%TD*%
D12*
%TO.C,R4*%
X104490000Y-110000000D03*
X105510000Y-110000000D03*
%TD*%
D11*
%TO.C,R16*%
X113000000Y-119510000D03*
X113000000Y-118490000D03*
%TD*%
D16*
%TO.C,C12*%
X132000000Y-119275000D03*
X132000000Y-117725000D03*
%TD*%
D11*
%TO.C,R14*%
X110000000Y-57510000D03*
X110000000Y-56490000D03*
%TD*%
D15*
%TO.C,C2*%
X110000000Y-108950000D03*
X110000000Y-107050000D03*
%TD*%
D12*
%TO.C,R8*%
X107490000Y-111000000D03*
X108510000Y-111000000D03*
%TD*%
D13*
%TO.C,C13*%
X126000000Y-119480000D03*
X126000000Y-118520000D03*
%TD*%
D11*
%TO.C,R13*%
X131000000Y-87510000D03*
X131000000Y-86490000D03*
%TD*%
D17*
%TO.C,J3*%
X110620000Y-51500000D03*
D18*
X109380000Y-53000000D03*
D17*
X110620000Y-54500000D03*
%TD*%
D10*
%TO.C,C18*%
X129520000Y-61000000D03*
X130480000Y-61000000D03*
%TD*%
D13*
%TO.C,C23*%
X108500000Y-58480000D03*
X108500000Y-57520000D03*
%TD*%
D19*
%TO.C,F1*%
X126050000Y-127000000D03*
X128950000Y-127000000D03*
%TD*%
D20*
%TO.C,J4*%
X100000000Y-81880000D03*
D21*
X101500000Y-83120000D03*
D20*
X103000000Y-81880000D03*
%TD*%
D22*
%TO.C,D2*%
X101000000Y-106287500D03*
X101000000Y-104712500D03*
%TD*%
D23*
%TO.C,D1*%
X133000000Y-128400000D03*
X133000000Y-125600000D03*
%TD*%
D11*
%TO.C,R17*%
X121000000Y-119510000D03*
X121000000Y-118490000D03*
%TD*%
D24*
%TO.C,U2*%
X110400000Y-76500000D03*
X111500000Y-76500000D03*
X112600000Y-76500000D03*
X113700000Y-76500000D03*
X114800000Y-76500000D03*
X115900000Y-76500000D03*
X117000000Y-76500000D03*
X118100000Y-76500000D03*
X119200000Y-76500000D03*
X120300000Y-76500000D03*
X121400000Y-76500000D03*
X122500000Y-76500000D03*
X123600000Y-76500000D03*
D25*
X125450000Y-73400000D03*
X125450000Y-72300000D03*
X125450000Y-71200000D03*
X125450000Y-70100000D03*
X125450000Y-69000000D03*
X125450000Y-67900000D03*
X125450000Y-66800000D03*
X125450000Y-65700000D03*
X125450000Y-64600000D03*
D24*
X123600000Y-61500000D03*
X122500000Y-61500000D03*
X121400000Y-61500000D03*
X120300000Y-61500000D03*
X119200000Y-61500000D03*
X118100000Y-61500000D03*
X117000000Y-61500000D03*
X115900000Y-61500000D03*
X114800000Y-61500000D03*
X113700000Y-61500000D03*
X112600000Y-61500000D03*
X111500000Y-61500000D03*
X110400000Y-61500000D03*
D25*
X108550000Y-64600000D03*
X108550000Y-65700000D03*
X108550000Y-66800000D03*
X108550000Y-67900000D03*
X108550000Y-69000000D03*
X108550000Y-70100000D03*
X108550000Y-71200000D03*
X108550000Y-72300000D03*
X108550000Y-73400000D03*
D26*
X112200000Y-74000000D03*
X113400000Y-74000000D03*
X114600000Y-74000000D03*
X115800000Y-74000000D03*
X117000000Y-74000000D03*
X118200000Y-74000000D03*
X119400000Y-74000000D03*
X120600000Y-74000000D03*
X121800000Y-74000000D03*
D27*
X122950000Y-71400000D03*
X122950000Y-70200000D03*
X122950000Y-69000000D03*
X122950000Y-67800000D03*
X122950000Y-66600000D03*
D26*
X121800000Y-64000000D03*
X120600000Y-64000000D03*
X119400000Y-64000000D03*
X118200000Y-64000000D03*
X117000000Y-64000000D03*
X115800000Y-64000000D03*
X114600000Y-64000000D03*
X113400000Y-64000000D03*
X112200000Y-64000000D03*
D27*
X111050000Y-66600000D03*
X111050000Y-67800000D03*
X111050000Y-69000000D03*
X111050000Y-70200000D03*
X111050000Y-71400000D03*
D26*
X112800000Y-72200000D03*
X114000000Y-72200000D03*
X115200000Y-72200000D03*
X116400000Y-72200000D03*
X117600000Y-72200000D03*
X118800000Y-72200000D03*
X120000000Y-72200000D03*
X121200000Y-72200000D03*
X121200000Y-65800000D03*
X120000000Y-65800000D03*
X118800000Y-65800000D03*
X117600000Y-65800000D03*
X116400000Y-65800000D03*
X115200000Y-65800000D03*
X114000000Y-65800000D03*
X112800000Y-65800000D03*
D28*
X115200000Y-69900000D03*
X117000000Y-69900000D03*
X118800000Y-69900000D03*
X118800000Y-68100000D03*
X117000000Y-68100000D03*
X115200000Y-68100000D03*
%TD*%
D29*
%TO.C,C5*%
X102500000Y-69520000D03*
X102500000Y-65480000D03*
%TD*%
D13*
%TO.C,C20*%
X124000000Y-88480000D03*
X124000000Y-87520000D03*
%TD*%
D10*
%TO.C,C9*%
X107520000Y-108000000D03*
X108480000Y-108000000D03*
%TD*%
%TO.C,C17*%
X131520000Y-75000000D03*
X132480000Y-75000000D03*
%TD*%
D29*
%TO.C,C6*%
X102500000Y-77520000D03*
X102500000Y-73480000D03*
%TD*%
D13*
%TO.C,C22*%
X128000000Y-88480000D03*
X128000000Y-87520000D03*
%TD*%
D15*
%TO.C,C4*%
X109500000Y-93450000D03*
X109500000Y-91550000D03*
%TD*%
%TO.C,C1*%
X110000000Y-104950000D03*
X110000000Y-103050000D03*
%TD*%
D30*
%TO.C,U3*%
X106400000Y-102230000D03*
X105130000Y-102230000D03*
X103870000Y-102230000D03*
X102600000Y-102230000D03*
X102600000Y-107770000D03*
X103870000Y-107770000D03*
X105130000Y-107770000D03*
X106400000Y-107770000D03*
D31*
X104500000Y-105000000D03*
%TD*%
D32*
%TO.C,L1*%
X104500000Y-96000000D03*
X104500000Y-90000000D03*
%TD*%
D12*
%TO.C,R7*%
X116490000Y-79500000D03*
X117510000Y-79500000D03*
%TD*%
D13*
%TO.C,C24*%
X111500000Y-58480000D03*
X111500000Y-57520000D03*
%TD*%
D10*
%TO.C,C26*%
X106020000Y-84500000D03*
X106980000Y-84500000D03*
%TD*%
D12*
%TO.C,R18*%
X131490000Y-77000000D03*
X132510000Y-77000000D03*
%TD*%
D11*
%TO.C,R10*%
X124000000Y-79510000D03*
X124000000Y-78490000D03*
%TD*%
D13*
%TO.C,C21*%
X126000000Y-88480000D03*
X126000000Y-87520000D03*
%TD*%
D12*
%TO.C,R1*%
X108490000Y-98000000D03*
X109510000Y-98000000D03*
%TD*%
D33*
%TO.C,U4*%
X130950000Y-122200000D03*
X130000000Y-122200000D03*
X129050000Y-122200000D03*
X129050000Y-124800000D03*
X130950000Y-124800000D03*
%TD*%
D12*
%TO.C,R6*%
X129490000Y-77000000D03*
X130510000Y-77000000D03*
%TD*%
D34*
%TO.C,U5*%
X131400000Y-72750000D03*
X131400000Y-72250000D03*
X131400000Y-71750000D03*
X131400000Y-71250000D03*
X128600000Y-71250000D03*
X128600000Y-71750000D03*
X128600000Y-72250000D03*
X128600000Y-72750000D03*
%TD*%
M02*
