%TF.GenerationSoftware,KiCad,Pcbnew,10.0.6*%
%TF.CreationDate,2026-09-07T19:52:13+08:00*%
%TF.ProjectId,sms_forwarder_ml307a,736d735f-666f-4727-9761-726465725f6d,rev?*%
%TF.SameCoordinates,Original*%
%TF.FileFunction,Legend,Top*%
%TF.FilePolarity,Positive*%
%FSLAX46Y46*%
G04 Gerber Fmt 4.6, Leading zero omitted, Abs format (unit mm)*
G04 Created by KiCad (PCBNEW 10.0.6) date 2026-09-07 19:52:13*
%MOMM*%
%LPD*%
G01*
G04 APERTURE LIST*
%ADD10C,0.130000*%
%ADD11C,0.160000*%
%ADD12C,0.120000*%
%ADD13C,0.200000*%
%ADD14C,0.060000*%
%ADD15C,0.150000*%
%ADD16C,0.080000*%
%ADD17C,0.250000*%
%ADD18C,0.500000*%
%ADD19C,0.000000*%
%ADD20C,0.300000*%
G04 APERTURE END LIST*
D10*
X99414285Y-122444287D02*
X99528571Y-122482382D01*
X99528571Y-122482382D02*
X99566666Y-122520478D01*
X99566666Y-122520478D02*
X99604762Y-122596668D01*
X99604762Y-122596668D02*
X99604762Y-122710954D01*
X99604762Y-122710954D02*
X99566666Y-122787144D01*
X99566666Y-122787144D02*
X99528571Y-122825240D01*
X99528571Y-122825240D02*
X99452381Y-122863335D01*
X99452381Y-122863335D02*
X99147619Y-122863335D01*
X99147619Y-122863335D02*
X99147619Y-122063335D01*
X99147619Y-122063335D02*
X99414285Y-122063335D01*
X99414285Y-122063335D02*
X99490476Y-122101430D01*
X99490476Y-122101430D02*
X99528571Y-122139525D01*
X99528571Y-122139525D02*
X99566666Y-122215716D01*
X99566666Y-122215716D02*
X99566666Y-122291906D01*
X99566666Y-122291906D02*
X99528571Y-122368097D01*
X99528571Y-122368097D02*
X99490476Y-122406192D01*
X99490476Y-122406192D02*
X99414285Y-122444287D01*
X99414285Y-122444287D02*
X99147619Y-122444287D01*
X100100000Y-122063335D02*
X100252381Y-122063335D01*
X100252381Y-122063335D02*
X100328571Y-122101430D01*
X100328571Y-122101430D02*
X100404762Y-122177620D01*
X100404762Y-122177620D02*
X100442857Y-122330001D01*
X100442857Y-122330001D02*
X100442857Y-122596668D01*
X100442857Y-122596668D02*
X100404762Y-122749049D01*
X100404762Y-122749049D02*
X100328571Y-122825240D01*
X100328571Y-122825240D02*
X100252381Y-122863335D01*
X100252381Y-122863335D02*
X100100000Y-122863335D01*
X100100000Y-122863335D02*
X100023809Y-122825240D01*
X100023809Y-122825240D02*
X99947619Y-122749049D01*
X99947619Y-122749049D02*
X99909523Y-122596668D01*
X99909523Y-122596668D02*
X99909523Y-122330001D01*
X99909523Y-122330001D02*
X99947619Y-122177620D01*
X99947619Y-122177620D02*
X100023809Y-122101430D01*
X100023809Y-122101430D02*
X100100000Y-122063335D01*
X100938095Y-122063335D02*
X101090476Y-122063335D01*
X101090476Y-122063335D02*
X101166666Y-122101430D01*
X101166666Y-122101430D02*
X101242857Y-122177620D01*
X101242857Y-122177620D02*
X101280952Y-122330001D01*
X101280952Y-122330001D02*
X101280952Y-122596668D01*
X101280952Y-122596668D02*
X101242857Y-122749049D01*
X101242857Y-122749049D02*
X101166666Y-122825240D01*
X101166666Y-122825240D02*
X101090476Y-122863335D01*
X101090476Y-122863335D02*
X100938095Y-122863335D01*
X100938095Y-122863335D02*
X100861904Y-122825240D01*
X100861904Y-122825240D02*
X100785714Y-122749049D01*
X100785714Y-122749049D02*
X100747618Y-122596668D01*
X100747618Y-122596668D02*
X100747618Y-122330001D01*
X100747618Y-122330001D02*
X100785714Y-122177620D01*
X100785714Y-122177620D02*
X100861904Y-122101430D01*
X100861904Y-122101430D02*
X100938095Y-122063335D01*
X101509523Y-122063335D02*
X101966666Y-122063335D01*
X101738094Y-122863335D02*
X101738094Y-122063335D01*
X103838095Y-122863335D02*
X103571428Y-122482382D01*
X103380952Y-122863335D02*
X103380952Y-122063335D01*
X103380952Y-122063335D02*
X103685714Y-122063335D01*
X103685714Y-122063335D02*
X103761904Y-122101430D01*
X103761904Y-122101430D02*
X103799999Y-122139525D01*
X103799999Y-122139525D02*
X103838095Y-122215716D01*
X103838095Y-122215716D02*
X103838095Y-122330001D01*
X103838095Y-122330001D02*
X103799999Y-122406192D01*
X103799999Y-122406192D02*
X103761904Y-122444287D01*
X103761904Y-122444287D02*
X103685714Y-122482382D01*
X103685714Y-122482382D02*
X103380952Y-122482382D01*
X104180952Y-122444287D02*
X104447618Y-122444287D01*
X104561904Y-122863335D02*
X104180952Y-122863335D01*
X104180952Y-122863335D02*
X104180952Y-122063335D01*
X104180952Y-122063335D02*
X104561904Y-122063335D01*
X104866666Y-122825240D02*
X104980952Y-122863335D01*
X104980952Y-122863335D02*
X105171428Y-122863335D01*
X105171428Y-122863335D02*
X105247619Y-122825240D01*
X105247619Y-122825240D02*
X105285714Y-122787144D01*
X105285714Y-122787144D02*
X105323809Y-122710954D01*
X105323809Y-122710954D02*
X105323809Y-122634763D01*
X105323809Y-122634763D02*
X105285714Y-122558573D01*
X105285714Y-122558573D02*
X105247619Y-122520478D01*
X105247619Y-122520478D02*
X105171428Y-122482382D01*
X105171428Y-122482382D02*
X105019047Y-122444287D01*
X105019047Y-122444287D02*
X104942857Y-122406192D01*
X104942857Y-122406192D02*
X104904762Y-122368097D01*
X104904762Y-122368097D02*
X104866666Y-122291906D01*
X104866666Y-122291906D02*
X104866666Y-122215716D01*
X104866666Y-122215716D02*
X104904762Y-122139525D01*
X104904762Y-122139525D02*
X104942857Y-122101430D01*
X104942857Y-122101430D02*
X105019047Y-122063335D01*
X105019047Y-122063335D02*
X105209524Y-122063335D01*
X105209524Y-122063335D02*
X105323809Y-122101430D01*
X105666667Y-122444287D02*
X105933333Y-122444287D01*
X106047619Y-122863335D02*
X105666667Y-122863335D01*
X105666667Y-122863335D02*
X105666667Y-122063335D01*
X105666667Y-122063335D02*
X106047619Y-122063335D01*
X106276191Y-122063335D02*
X106733334Y-122063335D01*
X106504762Y-122863335D02*
X106504762Y-122063335D01*
X107971427Y-123744287D02*
X108238093Y-123744287D01*
X108352379Y-124163335D02*
X107971427Y-124163335D01*
X107971427Y-124163335D02*
X107971427Y-123363335D01*
X107971427Y-123363335D02*
X108352379Y-123363335D01*
X108657141Y-124125240D02*
X108771427Y-124163335D01*
X108771427Y-124163335D02*
X108961903Y-124163335D01*
X108961903Y-124163335D02*
X109038094Y-124125240D01*
X109038094Y-124125240D02*
X109076189Y-124087144D01*
X109076189Y-124087144D02*
X109114284Y-124010954D01*
X109114284Y-124010954D02*
X109114284Y-123934763D01*
X109114284Y-123934763D02*
X109076189Y-123858573D01*
X109076189Y-123858573D02*
X109038094Y-123820478D01*
X109038094Y-123820478D02*
X108961903Y-123782382D01*
X108961903Y-123782382D02*
X108809522Y-123744287D01*
X108809522Y-123744287D02*
X108733332Y-123706192D01*
X108733332Y-123706192D02*
X108695237Y-123668097D01*
X108695237Y-123668097D02*
X108657141Y-123591906D01*
X108657141Y-123591906D02*
X108657141Y-123515716D01*
X108657141Y-123515716D02*
X108695237Y-123439525D01*
X108695237Y-123439525D02*
X108733332Y-123401430D01*
X108733332Y-123401430D02*
X108809522Y-123363335D01*
X108809522Y-123363335D02*
X108999999Y-123363335D01*
X108999999Y-123363335D02*
X109114284Y-123401430D01*
X109457142Y-124163335D02*
X109457142Y-123363335D01*
X109457142Y-123363335D02*
X109761904Y-123363335D01*
X109761904Y-123363335D02*
X109838094Y-123401430D01*
X109838094Y-123401430D02*
X109876189Y-123439525D01*
X109876189Y-123439525D02*
X109914285Y-123515716D01*
X109914285Y-123515716D02*
X109914285Y-123630001D01*
X109914285Y-123630001D02*
X109876189Y-123706192D01*
X109876189Y-123706192D02*
X109838094Y-123744287D01*
X109838094Y-123744287D02*
X109761904Y-123782382D01*
X109761904Y-123782382D02*
X109457142Y-123782382D01*
X110180951Y-123363335D02*
X110676189Y-123363335D01*
X110676189Y-123363335D02*
X110409523Y-123668097D01*
X110409523Y-123668097D02*
X110523808Y-123668097D01*
X110523808Y-123668097D02*
X110599999Y-123706192D01*
X110599999Y-123706192D02*
X110638094Y-123744287D01*
X110638094Y-123744287D02*
X110676189Y-123820478D01*
X110676189Y-123820478D02*
X110676189Y-124010954D01*
X110676189Y-124010954D02*
X110638094Y-124087144D01*
X110638094Y-124087144D02*
X110599999Y-124125240D01*
X110599999Y-124125240D02*
X110523808Y-124163335D01*
X110523808Y-124163335D02*
X110295237Y-124163335D01*
X110295237Y-124163335D02*
X110219046Y-124125240D01*
X110219046Y-124125240D02*
X110180951Y-124087144D01*
X110980951Y-123439525D02*
X111019047Y-123401430D01*
X111019047Y-123401430D02*
X111095237Y-123363335D01*
X111095237Y-123363335D02*
X111285713Y-123363335D01*
X111285713Y-123363335D02*
X111361904Y-123401430D01*
X111361904Y-123401430D02*
X111399999Y-123439525D01*
X111399999Y-123439525D02*
X111438094Y-123515716D01*
X111438094Y-123515716D02*
X111438094Y-123591906D01*
X111438094Y-123591906D02*
X111399999Y-123706192D01*
X111399999Y-123706192D02*
X110942856Y-124163335D01*
X110942856Y-124163335D02*
X111438094Y-124163335D01*
X111780952Y-123858573D02*
X112390476Y-123858573D01*
X113228571Y-124087144D02*
X113190475Y-124125240D01*
X113190475Y-124125240D02*
X113076190Y-124163335D01*
X113076190Y-124163335D02*
X112999999Y-124163335D01*
X112999999Y-124163335D02*
X112885713Y-124125240D01*
X112885713Y-124125240D02*
X112809523Y-124049049D01*
X112809523Y-124049049D02*
X112771428Y-123972859D01*
X112771428Y-123972859D02*
X112733332Y-123820478D01*
X112733332Y-123820478D02*
X112733332Y-123706192D01*
X112733332Y-123706192D02*
X112771428Y-123553811D01*
X112771428Y-123553811D02*
X112809523Y-123477620D01*
X112809523Y-123477620D02*
X112885713Y-123401430D01*
X112885713Y-123401430D02*
X112999999Y-123363335D01*
X112999999Y-123363335D02*
X113076190Y-123363335D01*
X113076190Y-123363335D02*
X113190475Y-123401430D01*
X113190475Y-123401430D02*
X113228571Y-123439525D01*
X113495237Y-123363335D02*
X113990475Y-123363335D01*
X113990475Y-123363335D02*
X113723809Y-123668097D01*
X113723809Y-123668097D02*
X113838094Y-123668097D01*
X113838094Y-123668097D02*
X113914285Y-123706192D01*
X113914285Y-123706192D02*
X113952380Y-123744287D01*
X113952380Y-123744287D02*
X113990475Y-123820478D01*
X113990475Y-123820478D02*
X113990475Y-124010954D01*
X113990475Y-124010954D02*
X113952380Y-124087144D01*
X113952380Y-124087144D02*
X113914285Y-124125240D01*
X113914285Y-124125240D02*
X113838094Y-124163335D01*
X113838094Y-124163335D02*
X113609523Y-124163335D01*
X113609523Y-124163335D02*
X113533332Y-124125240D01*
X113533332Y-124125240D02*
X113495237Y-124087144D01*
X114942857Y-123858573D02*
X115552381Y-123858573D01*
X115247619Y-124163335D02*
X115247619Y-123553811D01*
X116542857Y-124163335D02*
X116542857Y-123363335D01*
X116542857Y-123363335D02*
X116809523Y-123934763D01*
X116809523Y-123934763D02*
X117076190Y-123363335D01*
X117076190Y-123363335D02*
X117076190Y-124163335D01*
X117838095Y-124163335D02*
X117457143Y-124163335D01*
X117457143Y-124163335D02*
X117457143Y-123363335D01*
X118028571Y-123363335D02*
X118523809Y-123363335D01*
X118523809Y-123363335D02*
X118257143Y-123668097D01*
X118257143Y-123668097D02*
X118371428Y-123668097D01*
X118371428Y-123668097D02*
X118447619Y-123706192D01*
X118447619Y-123706192D02*
X118485714Y-123744287D01*
X118485714Y-123744287D02*
X118523809Y-123820478D01*
X118523809Y-123820478D02*
X118523809Y-124010954D01*
X118523809Y-124010954D02*
X118485714Y-124087144D01*
X118485714Y-124087144D02*
X118447619Y-124125240D01*
X118447619Y-124125240D02*
X118371428Y-124163335D01*
X118371428Y-124163335D02*
X118142857Y-124163335D01*
X118142857Y-124163335D02*
X118066666Y-124125240D01*
X118066666Y-124125240D02*
X118028571Y-124087144D01*
X119019048Y-123363335D02*
X119095238Y-123363335D01*
X119095238Y-123363335D02*
X119171429Y-123401430D01*
X119171429Y-123401430D02*
X119209524Y-123439525D01*
X119209524Y-123439525D02*
X119247619Y-123515716D01*
X119247619Y-123515716D02*
X119285714Y-123668097D01*
X119285714Y-123668097D02*
X119285714Y-123858573D01*
X119285714Y-123858573D02*
X119247619Y-124010954D01*
X119247619Y-124010954D02*
X119209524Y-124087144D01*
X119209524Y-124087144D02*
X119171429Y-124125240D01*
X119171429Y-124125240D02*
X119095238Y-124163335D01*
X119095238Y-124163335D02*
X119019048Y-124163335D01*
X119019048Y-124163335D02*
X118942857Y-124125240D01*
X118942857Y-124125240D02*
X118904762Y-124087144D01*
X118904762Y-124087144D02*
X118866667Y-124010954D01*
X118866667Y-124010954D02*
X118828571Y-123858573D01*
X118828571Y-123858573D02*
X118828571Y-123668097D01*
X118828571Y-123668097D02*
X118866667Y-123515716D01*
X118866667Y-123515716D02*
X118904762Y-123439525D01*
X118904762Y-123439525D02*
X118942857Y-123401430D01*
X118942857Y-123401430D02*
X119019048Y-123363335D01*
X119552381Y-123363335D02*
X120085715Y-123363335D01*
X120085715Y-123363335D02*
X119742857Y-124163335D01*
X120352381Y-123934763D02*
X120733334Y-123934763D01*
X120276191Y-124163335D02*
X120542858Y-123363335D01*
X120542858Y-123363335D02*
X120809524Y-124163335D01*
X122142858Y-124163335D02*
X121876191Y-123782382D01*
X121685715Y-124163335D02*
X121685715Y-123363335D01*
X121685715Y-123363335D02*
X121990477Y-123363335D01*
X121990477Y-123363335D02*
X122066667Y-123401430D01*
X122066667Y-123401430D02*
X122104762Y-123439525D01*
X122104762Y-123439525D02*
X122142858Y-123515716D01*
X122142858Y-123515716D02*
X122142858Y-123630001D01*
X122142858Y-123630001D02*
X122104762Y-123706192D01*
X122104762Y-123706192D02*
X122066667Y-123744287D01*
X122066667Y-123744287D02*
X121990477Y-123782382D01*
X121990477Y-123782382D02*
X121685715Y-123782382D01*
X122485715Y-123744287D02*
X122752381Y-123744287D01*
X122866667Y-124163335D02*
X122485715Y-124163335D01*
X122485715Y-124163335D02*
X122485715Y-123363335D01*
X122485715Y-123363335D02*
X122866667Y-123363335D01*
X123095239Y-123363335D02*
X123361906Y-124163335D01*
X123361906Y-124163335D02*
X123628572Y-123363335D01*
X124923810Y-124163335D02*
X124466667Y-124163335D01*
X124695239Y-124163335D02*
X124695239Y-123363335D01*
X124695239Y-123363335D02*
X124619048Y-123477620D01*
X124619048Y-123477620D02*
X124542858Y-123553811D01*
X124542858Y-123553811D02*
X124466667Y-123591906D01*
X125266668Y-124087144D02*
X125304763Y-124125240D01*
X125304763Y-124125240D02*
X125266668Y-124163335D01*
X125266668Y-124163335D02*
X125228572Y-124125240D01*
X125228572Y-124125240D02*
X125266668Y-124087144D01*
X125266668Y-124087144D02*
X125266668Y-124163335D01*
X125800001Y-123363335D02*
X125876191Y-123363335D01*
X125876191Y-123363335D02*
X125952382Y-123401430D01*
X125952382Y-123401430D02*
X125990477Y-123439525D01*
X125990477Y-123439525D02*
X126028572Y-123515716D01*
X126028572Y-123515716D02*
X126066667Y-123668097D01*
X126066667Y-123668097D02*
X126066667Y-123858573D01*
X126066667Y-123858573D02*
X126028572Y-124010954D01*
X126028572Y-124010954D02*
X125990477Y-124087144D01*
X125990477Y-124087144D02*
X125952382Y-124125240D01*
X125952382Y-124125240D02*
X125876191Y-124163335D01*
X125876191Y-124163335D02*
X125800001Y-124163335D01*
X125800001Y-124163335D02*
X125723810Y-124125240D01*
X125723810Y-124125240D02*
X125685715Y-124087144D01*
X125685715Y-124087144D02*
X125647620Y-124010954D01*
X125647620Y-124010954D02*
X125609524Y-123858573D01*
X125609524Y-123858573D02*
X125609524Y-123668097D01*
X125609524Y-123668097D02*
X125647620Y-123515716D01*
X125647620Y-123515716D02*
X125685715Y-123439525D01*
X125685715Y-123439525D02*
X125723810Y-123401430D01*
X125723810Y-123401430D02*
X125800001Y-123363335D01*
X98063335Y-109180952D02*
X98063335Y-109561904D01*
X98063335Y-109561904D02*
X98444287Y-109600000D01*
X98444287Y-109600000D02*
X98406192Y-109561904D01*
X98406192Y-109561904D02*
X98368097Y-109485714D01*
X98368097Y-109485714D02*
X98368097Y-109295238D01*
X98368097Y-109295238D02*
X98406192Y-109219047D01*
X98406192Y-109219047D02*
X98444287Y-109180952D01*
X98444287Y-109180952D02*
X98520478Y-109142857D01*
X98520478Y-109142857D02*
X98710954Y-109142857D01*
X98710954Y-109142857D02*
X98787144Y-109180952D01*
X98787144Y-109180952D02*
X98825240Y-109219047D01*
X98825240Y-109219047D02*
X98863335Y-109295238D01*
X98863335Y-109295238D02*
X98863335Y-109485714D01*
X98863335Y-109485714D02*
X98825240Y-109561904D01*
X98825240Y-109561904D02*
X98787144Y-109600000D01*
X98063335Y-108914285D02*
X98863335Y-108647618D01*
X98863335Y-108647618D02*
X98063335Y-108380952D01*
X98139525Y-107542857D02*
X98101430Y-107504761D01*
X98101430Y-107504761D02*
X98063335Y-107428571D01*
X98063335Y-107428571D02*
X98063335Y-107238095D01*
X98063335Y-107238095D02*
X98101430Y-107161904D01*
X98101430Y-107161904D02*
X98139525Y-107123809D01*
X98139525Y-107123809D02*
X98215716Y-107085714D01*
X98215716Y-107085714D02*
X98291906Y-107085714D01*
X98291906Y-107085714D02*
X98406192Y-107123809D01*
X98406192Y-107123809D02*
X98863335Y-107580952D01*
X98863335Y-107580952D02*
X98863335Y-107085714D01*
X98634763Y-106780952D02*
X98634763Y-106399999D01*
X98863335Y-106857142D02*
X98063335Y-106590475D01*
X98063335Y-106590475D02*
X98863335Y-106323809D01*
X98601430Y-83471428D02*
X98563335Y-83547618D01*
X98563335Y-83547618D02*
X98563335Y-83661904D01*
X98563335Y-83661904D02*
X98601430Y-83776190D01*
X98601430Y-83776190D02*
X98677620Y-83852380D01*
X98677620Y-83852380D02*
X98753811Y-83890475D01*
X98753811Y-83890475D02*
X98906192Y-83928571D01*
X98906192Y-83928571D02*
X99020478Y-83928571D01*
X99020478Y-83928571D02*
X99172859Y-83890475D01*
X99172859Y-83890475D02*
X99249049Y-83852380D01*
X99249049Y-83852380D02*
X99325240Y-83776190D01*
X99325240Y-83776190D02*
X99363335Y-83661904D01*
X99363335Y-83661904D02*
X99363335Y-83585713D01*
X99363335Y-83585713D02*
X99325240Y-83471428D01*
X99325240Y-83471428D02*
X99287144Y-83433332D01*
X99287144Y-83433332D02*
X99020478Y-83433332D01*
X99020478Y-83433332D02*
X99020478Y-83585713D01*
X99363335Y-83090475D02*
X98563335Y-83090475D01*
X98563335Y-83090475D02*
X99363335Y-82633332D01*
X99363335Y-82633332D02*
X98563335Y-82633332D01*
X99325240Y-82290476D02*
X99363335Y-82176190D01*
X99363335Y-82176190D02*
X99363335Y-81985714D01*
X99363335Y-81985714D02*
X99325240Y-81909523D01*
X99325240Y-81909523D02*
X99287144Y-81871428D01*
X99287144Y-81871428D02*
X99210954Y-81833333D01*
X99210954Y-81833333D02*
X99134763Y-81833333D01*
X99134763Y-81833333D02*
X99058573Y-81871428D01*
X99058573Y-81871428D02*
X99020478Y-81909523D01*
X99020478Y-81909523D02*
X98982382Y-81985714D01*
X98982382Y-81985714D02*
X98944287Y-82138095D01*
X98944287Y-82138095D02*
X98906192Y-82214285D01*
X98906192Y-82214285D02*
X98868097Y-82252380D01*
X98868097Y-82252380D02*
X98791906Y-82290476D01*
X98791906Y-82290476D02*
X98715716Y-82290476D01*
X98715716Y-82290476D02*
X98639525Y-82252380D01*
X98639525Y-82252380D02*
X98601430Y-82214285D01*
X98601430Y-82214285D02*
X98563335Y-82138095D01*
X98563335Y-82138095D02*
X98563335Y-81947618D01*
X98563335Y-81947618D02*
X98601430Y-81833333D01*
X99325240Y-81528571D02*
X99363335Y-81414285D01*
X99363335Y-81414285D02*
X99363335Y-81223809D01*
X99363335Y-81223809D02*
X99325240Y-81147618D01*
X99325240Y-81147618D02*
X99287144Y-81109523D01*
X99287144Y-81109523D02*
X99210954Y-81071428D01*
X99210954Y-81071428D02*
X99134763Y-81071428D01*
X99134763Y-81071428D02*
X99058573Y-81109523D01*
X99058573Y-81109523D02*
X99020478Y-81147618D01*
X99020478Y-81147618D02*
X98982382Y-81223809D01*
X98982382Y-81223809D02*
X98944287Y-81376190D01*
X98944287Y-81376190D02*
X98906192Y-81452380D01*
X98906192Y-81452380D02*
X98868097Y-81490475D01*
X98868097Y-81490475D02*
X98791906Y-81528571D01*
X98791906Y-81528571D02*
X98715716Y-81528571D01*
X98715716Y-81528571D02*
X98639525Y-81490475D01*
X98639525Y-81490475D02*
X98601430Y-81452380D01*
X98601430Y-81452380D02*
X98563335Y-81376190D01*
X98563335Y-81376190D02*
X98563335Y-81185713D01*
X98563335Y-81185713D02*
X98601430Y-81071428D01*
D11*
X109580952Y-47361775D02*
X109200000Y-47361775D01*
X109200000Y-47361775D02*
X109200000Y-46561775D01*
X109733333Y-46561775D02*
X110190476Y-46561775D01*
X109961904Y-47361775D02*
X109961904Y-46561775D01*
X110457143Y-46942727D02*
X110723809Y-46942727D01*
X110838095Y-47361775D02*
X110457143Y-47361775D01*
X110457143Y-47361775D02*
X110457143Y-46561775D01*
X110457143Y-46561775D02*
X110838095Y-46561775D01*
X99285714Y-126906680D02*
X99428571Y-126954299D01*
X99428571Y-126954299D02*
X99666666Y-126954299D01*
X99666666Y-126954299D02*
X99761904Y-126906680D01*
X99761904Y-126906680D02*
X99809523Y-126859060D01*
X99809523Y-126859060D02*
X99857142Y-126763822D01*
X99857142Y-126763822D02*
X99857142Y-126668584D01*
X99857142Y-126668584D02*
X99809523Y-126573346D01*
X99809523Y-126573346D02*
X99761904Y-126525727D01*
X99761904Y-126525727D02*
X99666666Y-126478108D01*
X99666666Y-126478108D02*
X99476190Y-126430489D01*
X99476190Y-126430489D02*
X99380952Y-126382870D01*
X99380952Y-126382870D02*
X99333333Y-126335251D01*
X99333333Y-126335251D02*
X99285714Y-126240013D01*
X99285714Y-126240013D02*
X99285714Y-126144775D01*
X99285714Y-126144775D02*
X99333333Y-126049537D01*
X99333333Y-126049537D02*
X99380952Y-126001918D01*
X99380952Y-126001918D02*
X99476190Y-125954299D01*
X99476190Y-125954299D02*
X99714285Y-125954299D01*
X99714285Y-125954299D02*
X99857142Y-126001918D01*
X100285714Y-126954299D02*
X100285714Y-125954299D01*
X100285714Y-125954299D02*
X100619047Y-126668584D01*
X100619047Y-126668584D02*
X100952380Y-125954299D01*
X100952380Y-125954299D02*
X100952380Y-126954299D01*
X101380952Y-126906680D02*
X101523809Y-126954299D01*
X101523809Y-126954299D02*
X101761904Y-126954299D01*
X101761904Y-126954299D02*
X101857142Y-126906680D01*
X101857142Y-126906680D02*
X101904761Y-126859060D01*
X101904761Y-126859060D02*
X101952380Y-126763822D01*
X101952380Y-126763822D02*
X101952380Y-126668584D01*
X101952380Y-126668584D02*
X101904761Y-126573346D01*
X101904761Y-126573346D02*
X101857142Y-126525727D01*
X101857142Y-126525727D02*
X101761904Y-126478108D01*
X101761904Y-126478108D02*
X101571428Y-126430489D01*
X101571428Y-126430489D02*
X101476190Y-126382870D01*
X101476190Y-126382870D02*
X101428571Y-126335251D01*
X101428571Y-126335251D02*
X101380952Y-126240013D01*
X101380952Y-126240013D02*
X101380952Y-126144775D01*
X101380952Y-126144775D02*
X101428571Y-126049537D01*
X101428571Y-126049537D02*
X101476190Y-126001918D01*
X101476190Y-126001918D02*
X101571428Y-125954299D01*
X101571428Y-125954299D02*
X101809523Y-125954299D01*
X101809523Y-125954299D02*
X101952380Y-126001918D01*
X103476190Y-126430489D02*
X103142857Y-126430489D01*
X103142857Y-126954299D02*
X103142857Y-125954299D01*
X103142857Y-125954299D02*
X103619047Y-125954299D01*
X103904762Y-125954299D02*
X104142857Y-126954299D01*
X104142857Y-126954299D02*
X104333333Y-126240013D01*
X104333333Y-126240013D02*
X104523809Y-126954299D01*
X104523809Y-126954299D02*
X104761905Y-125954299D01*
X105142857Y-126954299D02*
X105142857Y-125954299D01*
X105142857Y-125954299D02*
X105380952Y-125954299D01*
X105380952Y-125954299D02*
X105523809Y-126001918D01*
X105523809Y-126001918D02*
X105619047Y-126097156D01*
X105619047Y-126097156D02*
X105666666Y-126192394D01*
X105666666Y-126192394D02*
X105714285Y-126382870D01*
X105714285Y-126382870D02*
X105714285Y-126525727D01*
X105714285Y-126525727D02*
X105666666Y-126716203D01*
X105666666Y-126716203D02*
X105619047Y-126811441D01*
X105619047Y-126811441D02*
X105523809Y-126906680D01*
X105523809Y-126906680D02*
X105380952Y-126954299D01*
X105380952Y-126954299D02*
X105142857Y-126954299D01*
%TO.C,C10*%
D12*
X107892164Y-104640000D02*
X108107836Y-104640000D01*
X107892164Y-105360000D02*
X108107836Y-105360000D01*
%TO.C,R5*%
X100620000Y-108153641D02*
X100620000Y-107846359D01*
X101380000Y-108153641D02*
X101380000Y-107846359D01*
%TO.C,R12*%
X127620000Y-79153641D02*
X127620000Y-78846359D01*
X128380000Y-79153641D02*
X128380000Y-78846359D01*
%TO.C,C16*%
X129892164Y-74640000D02*
X130107836Y-74640000D01*
X129892164Y-75360000D02*
X130107836Y-75360000D01*
%TO.C,C8*%
X100692164Y-99640000D02*
X100907836Y-99640000D01*
X100692164Y-100360000D02*
X100907836Y-100360000D01*
%TO.C,R2*%
X111846359Y-97620000D02*
X112153641Y-97620000D01*
X111846359Y-98380000D02*
X112153641Y-98380000D01*
%TO.C,C19*%
X121640000Y-88107836D02*
X121640000Y-87892164D01*
X122360000Y-88107836D02*
X122360000Y-87892164D01*
%TO.C,C25*%
X106392164Y-80140000D02*
X106607836Y-80140000D01*
X106392164Y-80860000D02*
X106607836Y-80860000D01*
%TO.C,SW2*%
X98500000Y-116800000D02*
X98500000Y-123200000D01*
X98500000Y-123200000D02*
X99700000Y-123200000D01*
X99700000Y-116800000D02*
X98500000Y-116800000D01*
X101300000Y-123200000D02*
X102500000Y-123200000D01*
X102500000Y-116800000D02*
X101300000Y-116800000D01*
X102500000Y-123200000D02*
X102500000Y-116800000D01*
%TO.C,C3*%
X108765000Y-88761252D02*
X108765000Y-88238748D01*
X110235000Y-88761252D02*
X110235000Y-88238748D01*
%TO.C,R3*%
X108846359Y-112620000D02*
X109153641Y-112620000D01*
X108846359Y-113380000D02*
X109153641Y-113380000D01*
%TO.C,C7*%
X108892164Y-99640000D02*
X109107836Y-99640000D01*
X108892164Y-100360000D02*
X109107836Y-100360000D01*
%TO.C,C14*%
X131640000Y-121607836D02*
X131640000Y-121392164D01*
X132360000Y-121607836D02*
X132360000Y-121392164D01*
%TO.C,R15*%
X105346359Y-82120000D02*
X105653641Y-82120000D01*
X105346359Y-82880000D02*
X105653641Y-82880000D01*
%TO.C,SW1*%
X103000000Y-116800000D02*
X103000000Y-123200000D01*
X103000000Y-123200000D02*
X104200000Y-123200000D01*
X104200000Y-116800000D02*
X103000000Y-116800000D01*
X105800000Y-123200000D02*
X107000000Y-123200000D01*
X107000000Y-116800000D02*
X105800000Y-116800000D01*
X107000000Y-123200000D02*
X107000000Y-116800000D01*
%TO.C,R11*%
X125620000Y-79153641D02*
X125620000Y-78846359D01*
X126380000Y-79153641D02*
X126380000Y-78846359D01*
%TO.C,C11*%
X125490000Y-116140580D02*
X125490000Y-115859420D01*
X126510000Y-116140580D02*
X126510000Y-115859420D01*
%TO.C,R9*%
X121620000Y-79153641D02*
X121620000Y-78846359D01*
X122380000Y-79153641D02*
X122380000Y-78846359D01*
%TO.C,C15*%
X108892164Y-114640000D02*
X109107836Y-114640000D01*
X108892164Y-115360000D02*
X109107836Y-115360000D01*
%TO.C,R4*%
X104846359Y-109620000D02*
X105153641Y-109620000D01*
X104846359Y-110380000D02*
X105153641Y-110380000D01*
%TO.C,R16*%
X112620000Y-119153641D02*
X112620000Y-118846359D01*
X113380000Y-119153641D02*
X113380000Y-118846359D01*
%TO.C,C12*%
X131490000Y-118640580D02*
X131490000Y-118359420D01*
X132510000Y-118640580D02*
X132510000Y-118359420D01*
%TO.C,R14*%
X109620000Y-57153641D02*
X109620000Y-56846359D01*
X110380000Y-57153641D02*
X110380000Y-56846359D01*
%TO.C,C2*%
X109265000Y-108261252D02*
X109265000Y-107738748D01*
X110735000Y-108261252D02*
X110735000Y-107738748D01*
%TO.C,R8*%
X107846359Y-110620000D02*
X108153641Y-110620000D01*
X107846359Y-111380000D02*
X108153641Y-111380000D01*
%TO.C,C13*%
X125640000Y-119107836D02*
X125640000Y-118892164D01*
X126360000Y-119107836D02*
X126360000Y-118892164D01*
%TO.C,R13*%
X130620000Y-87153641D02*
X130620000Y-86846359D01*
X131380000Y-87153641D02*
X131380000Y-86846359D01*
%TO.C,J3*%
D13*
X109150000Y-51700000D02*
X109350000Y-51700000D01*
X109150000Y-52300000D02*
X109150000Y-51700000D01*
X109150000Y-54300000D02*
X109150000Y-53700000D01*
X109350000Y-54300000D02*
X109150000Y-54300000D01*
X111950000Y-51700000D02*
X111950000Y-54300000D01*
D14*
X112070000Y-51500000D02*
G75*
G02*
X112010000Y-51500000I-30000J0D01*
G01*
X112010000Y-51500000D02*
G75*
G02*
X112070000Y-51500000I30000J0D01*
G01*
%TO.C,C18*%
D12*
X129892164Y-60640000D02*
X130107836Y-60640000D01*
X129892164Y-61360000D02*
X130107836Y-61360000D01*
%TO.C,C23*%
X108140000Y-58107836D02*
X108140000Y-57892164D01*
X108860000Y-58107836D02*
X108860000Y-57892164D01*
%TO.C,F1*%
D15*
X125230000Y-126060000D02*
X125230000Y-127940000D01*
X125380000Y-128090000D02*
X126570000Y-128090000D01*
X126570000Y-125910000D02*
X125380000Y-125910000D01*
X128430000Y-125910000D02*
X129620000Y-125910000D01*
X129620000Y-128090000D02*
X128430000Y-128090000D01*
X129770000Y-126060000D02*
X129770000Y-127940000D01*
D16*
X127498731Y-126997801D02*
G75*
G02*
X127500000Y-127840000I-728730J-422198D01*
G01*
X127501269Y-127002199D02*
G75*
G02*
X127500000Y-126160000I728731J422199D01*
G01*
D14*
X125930000Y-127800000D02*
G75*
G02*
X125870000Y-127800000I-30000J0D01*
G01*
X125870000Y-127800000D02*
G75*
G02*
X125930000Y-127800000I30000J0D01*
G01*
%TO.C,J4*%
D13*
X100200000Y-80550000D02*
X102800000Y-80550000D01*
X100200000Y-83350000D02*
X100200000Y-83150000D01*
X100800000Y-83350000D02*
X100200000Y-83350000D01*
X102800000Y-83150000D02*
X102800000Y-83350000D01*
X102800000Y-83350000D02*
X102200000Y-83350000D01*
D14*
X100030000Y-80460000D02*
G75*
G02*
X99970000Y-80460000I-30000J0D01*
G01*
X99970000Y-80460000D02*
G75*
G02*
X100030000Y-80460000I30000J0D01*
G01*
%TO.C,D2*%
D12*
X100265000Y-104700000D02*
X100265000Y-106985000D01*
X100265000Y-106985000D02*
X101735000Y-106985000D01*
X101735000Y-106985000D02*
X101735000Y-104700000D01*
%TO.C,D1*%
X132000000Y-129210000D02*
X132000000Y-125350000D01*
X132000000Y-129210000D02*
X134000000Y-129210000D01*
X134000000Y-129210000D02*
X134000000Y-125350000D01*
%TO.C,R17*%
X120620000Y-119153641D02*
X120620000Y-118846359D01*
X121380000Y-119153641D02*
X121380000Y-118846359D01*
%TO.C,U2*%
D17*
X108150000Y-61100000D02*
X108150000Y-64020000D01*
X108150000Y-73980000D02*
X108150000Y-76900000D01*
X108150000Y-76900000D02*
X109820000Y-76900000D01*
X109820000Y-61100000D02*
X108150000Y-61100000D01*
X124180000Y-76900000D02*
X125850000Y-76900000D01*
X125850000Y-61100000D02*
X124180000Y-61100000D01*
X125850000Y-64020000D02*
X125850000Y-61100000D01*
X125850000Y-76900000D02*
X125850000Y-73980000D01*
D14*
X108180000Y-76900000D02*
G75*
G02*
X108120000Y-76900000I-30000J0D01*
G01*
X108120000Y-76900000D02*
G75*
G02*
X108180000Y-76900000I30000J0D01*
G01*
D18*
X110650000Y-78050000D02*
G75*
G02*
X110150000Y-78050000I-250000J0D01*
G01*
X110150000Y-78050000D02*
G75*
G02*
X110650000Y-78050000I250000J0D01*
G01*
X110650000Y-78050000D02*
G75*
G02*
X110150000Y-78050000I-250000J0D01*
G01*
X110150000Y-78050000D02*
G75*
G02*
X110650000Y-78050000I250000J0D01*
G01*
%TO.C,C5*%
D15*
X99770000Y-64770000D02*
X101860000Y-64770000D01*
X99770000Y-69090000D02*
X99770000Y-64770000D01*
X100910000Y-70230000D02*
X99770000Y-69090000D01*
X101860000Y-70230000D02*
X100910000Y-70230000D01*
X103140000Y-70230000D02*
X104090000Y-70230000D01*
X104090000Y-70230000D02*
X105230000Y-69090000D01*
X105230000Y-64770000D02*
X103140000Y-64770000D01*
X105230000Y-69090000D02*
X105230000Y-64770000D01*
D14*
X105260000Y-70230000D02*
G75*
G02*
X105200000Y-70230000I-30000J0D01*
G01*
X105200000Y-70230000D02*
G75*
G02*
X105260000Y-70230000I30000J0D01*
G01*
D19*
G36*
X103798497Y-65645004D02*
G01*
X103639498Y-65009005D01*
X103798497Y-65009005D01*
X103798497Y-65645004D01*
G37*
G36*
X103798497Y-69990995D02*
G01*
X103639498Y-69354996D01*
X103798497Y-69354996D01*
X103798497Y-69990995D01*
G37*
G36*
X104248997Y-69752495D02*
G01*
X103188999Y-69593496D01*
X104248997Y-69593496D01*
X104248997Y-69752495D01*
G37*
%TO.C,C20*%
D12*
X123640000Y-88107836D02*
X123640000Y-87892164D01*
X124360000Y-88107836D02*
X124360000Y-87892164D01*
%TO.C,C9*%
X107892164Y-107640000D02*
X108107836Y-107640000D01*
X107892164Y-108360000D02*
X108107836Y-108360000D01*
%TO.C,C17*%
X131892164Y-74640000D02*
X132107836Y-74640000D01*
X131892164Y-75360000D02*
X132107836Y-75360000D01*
%TO.C,C6*%
D15*
X99770000Y-72770000D02*
X101860000Y-72770000D01*
X99770000Y-77090000D02*
X99770000Y-72770000D01*
X100910000Y-78230000D02*
X99770000Y-77090000D01*
X101860000Y-78230000D02*
X100910000Y-78230000D01*
X103140000Y-78230000D02*
X104090000Y-78230000D01*
X104090000Y-78230000D02*
X105230000Y-77090000D01*
X105230000Y-72770000D02*
X103140000Y-72770000D01*
X105230000Y-77090000D02*
X105230000Y-72770000D01*
D14*
X105260000Y-78230000D02*
G75*
G02*
X105200000Y-78230000I-30000J0D01*
G01*
X105200000Y-78230000D02*
G75*
G02*
X105260000Y-78230000I30000J0D01*
G01*
D19*
G36*
X103798497Y-73645004D02*
G01*
X103639498Y-73009005D01*
X103798497Y-73009005D01*
X103798497Y-73645004D01*
G37*
G36*
X103798497Y-77990995D02*
G01*
X103639498Y-77354996D01*
X103798497Y-77354996D01*
X103798497Y-77990995D01*
G37*
G36*
X104248997Y-77752495D02*
G01*
X103188999Y-77593496D01*
X104248997Y-77593496D01*
X104248997Y-77752495D01*
G37*
%TO.C,C22*%
D12*
X127640000Y-88107836D02*
X127640000Y-87892164D01*
X128360000Y-88107836D02*
X128360000Y-87892164D01*
%TO.C,C4*%
X108765000Y-92761252D02*
X108765000Y-92238748D01*
X110235000Y-92761252D02*
X110235000Y-92238748D01*
%TO.C,C1*%
X109265000Y-104261252D02*
X109265000Y-103738748D01*
X110735000Y-104261252D02*
X110735000Y-103738748D01*
%TO.C,U3*%
D15*
X101970000Y-103480000D02*
X107030000Y-103480000D01*
X101970000Y-106520000D02*
X101970000Y-103480000D01*
X107030000Y-103480000D02*
X107030000Y-106520000D01*
X107030000Y-106520000D02*
X101970000Y-106520000D01*
D20*
X106550000Y-104230000D02*
G75*
G02*
X106250000Y-104230000I-150000J0D01*
G01*
X106250000Y-104230000D02*
G75*
G02*
X106550000Y-104230000I150000J0D01*
G01*
D14*
X106980000Y-102000000D02*
G75*
G02*
X106920000Y-102000000I-30000J0D01*
G01*
X106920000Y-102000000D02*
G75*
G02*
X106980000Y-102000000I30000J0D01*
G01*
D20*
X107290000Y-102230000D02*
G75*
G02*
X106990000Y-102230000I-150000J0D01*
G01*
X106990000Y-102230000D02*
G75*
G02*
X107290000Y-102230000I150000J0D01*
G01*
%TO.C,L1*%
D17*
X101200000Y-89500000D02*
X102420000Y-89500000D01*
X101200000Y-89520000D02*
X101220000Y-89500000D01*
X101200000Y-96500000D02*
X101200000Y-89520000D01*
X102420000Y-96500000D02*
X101200000Y-96500000D01*
X106580000Y-89500000D02*
X107800000Y-89500000D01*
X107800000Y-89500000D02*
X107800000Y-96490000D01*
X107800000Y-96490000D02*
X107800000Y-96500000D01*
X107800000Y-96500000D02*
X106580000Y-96500000D01*
D14*
X107830000Y-96500000D02*
G75*
G02*
X107770000Y-96500000I-30000J0D01*
G01*
X107770000Y-96500000D02*
G75*
G02*
X107830000Y-96500000I30000J0D01*
G01*
%TO.C,R7*%
D12*
X116846359Y-79120000D02*
X117153641Y-79120000D01*
X116846359Y-79880000D02*
X117153641Y-79880000D01*
%TO.C,C24*%
X111140000Y-58107836D02*
X111140000Y-57892164D01*
X111860000Y-58107836D02*
X111860000Y-57892164D01*
%TO.C,C26*%
X106392164Y-84140000D02*
X106607836Y-84140000D01*
X106392164Y-84860000D02*
X106607836Y-84860000D01*
%TO.C,R18*%
X131846359Y-76620000D02*
X132153641Y-76620000D01*
X131846359Y-77380000D02*
X132153641Y-77380000D01*
%TO.C,R10*%
X123620000Y-79153641D02*
X123620000Y-78846359D01*
X124380000Y-79153641D02*
X124380000Y-78846359D01*
%TO.C,C21*%
X125640000Y-88107836D02*
X125640000Y-87892164D01*
X126360000Y-88107836D02*
X126360000Y-87892164D01*
%TO.C,R1*%
X108846359Y-97620000D02*
X109153641Y-97620000D01*
X108846359Y-98380000D02*
X109153641Y-98380000D01*
%TO.C,R6*%
X129846359Y-76620000D02*
X130153641Y-76620000D01*
X129846359Y-77380000D02*
X130153641Y-77380000D01*
%TO.C,U5*%
D15*
X129280000Y-70920000D02*
X130720000Y-70920000D01*
X129280000Y-73080000D02*
X129280000Y-70920000D01*
X130720000Y-70920000D02*
X130720000Y-73080000D01*
X130720000Y-73080000D02*
X129280000Y-73080000D01*
D20*
X131550000Y-73340000D02*
G75*
G02*
X131250000Y-73340000I-150000J0D01*
G01*
X131250000Y-73340000D02*
G75*
G02*
X131550000Y-73340000I150000J0D01*
G01*
D14*
X131580000Y-73000000D02*
G75*
G02*
X131520000Y-73000000I-30000J0D01*
G01*
X131520000Y-73000000D02*
G75*
G02*
X131580000Y-73000000I30000J0D01*
G01*
%TD*%
M02*
