%TF.GenerationSoftware,KiCad,Pcbnew,10.0.6*%
%TF.CreationDate,2026-09-07T19:52:13+08:00*%
%TF.ProjectId,sms_forwarder_ml307a,736d735f-666f-4727-9761-726465725f6d,rev?*%
%TF.SameCoordinates,Original*%
%TF.FileFunction,Legend,Bot*%
%TF.FilePolarity,Positive*%
%FSLAX46Y46*%
G04 Gerber Fmt 4.6, Leading zero omitted, Abs format (unit mm)*
G04 Created by KiCad (PCBNEW 10.0.6) date 2026-09-07 19:52:13*
%MOMM*%
%LPD*%
G01*
G04 APERTURE LIST*
%ADD10C,0.130000*%
%ADD11C,0.120000*%
%ADD12C,0.150000*%
%ADD13C,0.060000*%
%ADD14C,0.300000*%
%ADD15C,0.250000*%
G04 APERTURE END LIST*
D10*
X104938094Y-128063335D02*
X104785713Y-128063335D01*
X104785713Y-128063335D02*
X104709523Y-128101430D01*
X104709523Y-128101430D02*
X104633332Y-128177620D01*
X104633332Y-128177620D02*
X104595237Y-128330001D01*
X104595237Y-128330001D02*
X104595237Y-128596668D01*
X104595237Y-128596668D02*
X104633332Y-128749049D01*
X104633332Y-128749049D02*
X104709523Y-128825240D01*
X104709523Y-128825240D02*
X104785713Y-128863335D01*
X104785713Y-128863335D02*
X104938094Y-128863335D01*
X104938094Y-128863335D02*
X105014285Y-128825240D01*
X105014285Y-128825240D02*
X105090475Y-128749049D01*
X105090475Y-128749049D02*
X105128571Y-128596668D01*
X105128571Y-128596668D02*
X105128571Y-128330001D01*
X105128571Y-128330001D02*
X105090475Y-128177620D01*
X105090475Y-128177620D02*
X105014285Y-128101430D01*
X105014285Y-128101430D02*
X104938094Y-128063335D01*
X104252380Y-128863335D02*
X104252380Y-128063335D01*
X104252380Y-128063335D02*
X103947618Y-128063335D01*
X103947618Y-128063335D02*
X103871428Y-128101430D01*
X103871428Y-128101430D02*
X103833333Y-128139525D01*
X103833333Y-128139525D02*
X103795237Y-128215716D01*
X103795237Y-128215716D02*
X103795237Y-128330001D01*
X103795237Y-128330001D02*
X103833333Y-128406192D01*
X103833333Y-128406192D02*
X103871428Y-128444287D01*
X103871428Y-128444287D02*
X103947618Y-128482382D01*
X103947618Y-128482382D02*
X104252380Y-128482382D01*
X103452380Y-128444287D02*
X103185714Y-128444287D01*
X103071428Y-128863335D02*
X103452380Y-128863335D01*
X103452380Y-128863335D02*
X103452380Y-128063335D01*
X103452380Y-128063335D02*
X103071428Y-128063335D01*
X102728570Y-128863335D02*
X102728570Y-128063335D01*
X102728570Y-128063335D02*
X102271427Y-128863335D01*
X102271427Y-128863335D02*
X102271427Y-128063335D01*
X101280951Y-128863335D02*
X101280951Y-128063335D01*
X101280951Y-128444287D02*
X100823808Y-128444287D01*
X100823808Y-128863335D02*
X100823808Y-128063335D01*
X100519047Y-128063335D02*
X100328571Y-128863335D01*
X100328571Y-128863335D02*
X100176190Y-128291906D01*
X100176190Y-128291906D02*
X100023809Y-128863335D01*
X100023809Y-128863335D02*
X99833333Y-128063335D01*
X134063335Y-101057142D02*
X134863335Y-101247618D01*
X134863335Y-101247618D02*
X134291906Y-101399999D01*
X134291906Y-101399999D02*
X134863335Y-101552380D01*
X134863335Y-101552380D02*
X134063335Y-101742857D01*
X134863335Y-102047619D02*
X134063335Y-102047619D01*
X134444287Y-102695237D02*
X134444287Y-102428571D01*
X134863335Y-102428571D02*
X134063335Y-102428571D01*
X134063335Y-102428571D02*
X134063335Y-102809523D01*
X134863335Y-103114285D02*
X134063335Y-103114285D01*
X134634763Y-104066665D02*
X134634763Y-104447618D01*
X134863335Y-103990475D02*
X134063335Y-104257142D01*
X134063335Y-104257142D02*
X134863335Y-104523808D01*
X134863335Y-104790475D02*
X134063335Y-104790475D01*
X134063335Y-104790475D02*
X134863335Y-105247618D01*
X134863335Y-105247618D02*
X134063335Y-105247618D01*
X134063335Y-105514284D02*
X134063335Y-105971427D01*
X134863335Y-105742855D02*
X134063335Y-105742855D01*
X134444287Y-106238094D02*
X134444287Y-106504760D01*
X134863335Y-106619046D02*
X134863335Y-106238094D01*
X134863335Y-106238094D02*
X134063335Y-106238094D01*
X134063335Y-106238094D02*
X134063335Y-106619046D01*
X134863335Y-106961904D02*
X134063335Y-106961904D01*
X134063335Y-106961904D02*
X134863335Y-107419047D01*
X134863335Y-107419047D02*
X134063335Y-107419047D01*
X134863335Y-107799999D02*
X134063335Y-107799999D01*
X134063335Y-107799999D02*
X134863335Y-108257142D01*
X134863335Y-108257142D02*
X134063335Y-108257142D01*
X134634763Y-108599998D02*
X134634763Y-108980951D01*
X134863335Y-108523808D02*
X134063335Y-108790475D01*
X134063335Y-108790475D02*
X134863335Y-109057141D01*
X134863335Y-109933332D02*
X134063335Y-109933332D01*
X134863335Y-110390475D02*
X134406192Y-110047617D01*
X134063335Y-110390475D02*
X134520478Y-109933332D01*
X134444287Y-110733332D02*
X134444287Y-110999998D01*
X134863335Y-111114284D02*
X134863335Y-110733332D01*
X134863335Y-110733332D02*
X134063335Y-110733332D01*
X134063335Y-110733332D02*
X134063335Y-111114284D01*
X134444287Y-111457142D02*
X134444287Y-111723808D01*
X134863335Y-111838094D02*
X134863335Y-111457142D01*
X134863335Y-111457142D02*
X134063335Y-111457142D01*
X134063335Y-111457142D02*
X134063335Y-111838094D01*
X134863335Y-112180952D02*
X134063335Y-112180952D01*
X134063335Y-112180952D02*
X134063335Y-112485714D01*
X134063335Y-112485714D02*
X134101430Y-112561904D01*
X134101430Y-112561904D02*
X134139525Y-112599999D01*
X134139525Y-112599999D02*
X134215716Y-112638095D01*
X134215716Y-112638095D02*
X134330001Y-112638095D01*
X134330001Y-112638095D02*
X134406192Y-112599999D01*
X134406192Y-112599999D02*
X134444287Y-112561904D01*
X134444287Y-112561904D02*
X134482382Y-112485714D01*
X134482382Y-112485714D02*
X134482382Y-112180952D01*
X134787144Y-114047619D02*
X134825240Y-114009523D01*
X134825240Y-114009523D02*
X134863335Y-113895238D01*
X134863335Y-113895238D02*
X134863335Y-113819047D01*
X134863335Y-113819047D02*
X134825240Y-113704761D01*
X134825240Y-113704761D02*
X134749049Y-113628571D01*
X134749049Y-113628571D02*
X134672859Y-113590476D01*
X134672859Y-113590476D02*
X134520478Y-113552380D01*
X134520478Y-113552380D02*
X134406192Y-113552380D01*
X134406192Y-113552380D02*
X134253811Y-113590476D01*
X134253811Y-113590476D02*
X134177620Y-113628571D01*
X134177620Y-113628571D02*
X134101430Y-113704761D01*
X134101430Y-113704761D02*
X134063335Y-113819047D01*
X134063335Y-113819047D02*
X134063335Y-113895238D01*
X134063335Y-113895238D02*
X134101430Y-114009523D01*
X134101430Y-114009523D02*
X134139525Y-114047619D01*
X134863335Y-114771428D02*
X134863335Y-114390476D01*
X134863335Y-114390476D02*
X134063335Y-114390476D01*
X134444287Y-115038095D02*
X134444287Y-115304761D01*
X134863335Y-115419047D02*
X134863335Y-115038095D01*
X134863335Y-115038095D02*
X134063335Y-115038095D01*
X134063335Y-115038095D02*
X134063335Y-115419047D01*
X134634763Y-115723809D02*
X134634763Y-116104762D01*
X134863335Y-115647619D02*
X134063335Y-115914286D01*
X134063335Y-115914286D02*
X134863335Y-116180952D01*
X134863335Y-116904762D02*
X134482382Y-116638095D01*
X134863335Y-116447619D02*
X134063335Y-116447619D01*
X134063335Y-116447619D02*
X134063335Y-116752381D01*
X134063335Y-116752381D02*
X134101430Y-116828571D01*
X134101430Y-116828571D02*
X134139525Y-116866666D01*
X134139525Y-116866666D02*
X134215716Y-116904762D01*
X134215716Y-116904762D02*
X134330001Y-116904762D01*
X134330001Y-116904762D02*
X134406192Y-116866666D01*
X134406192Y-116866666D02*
X134444287Y-116828571D01*
X134444287Y-116828571D02*
X134482382Y-116752381D01*
X134482382Y-116752381D02*
X134482382Y-116447619D01*
X135330001Y-62599998D02*
X135977620Y-62599998D01*
X135977620Y-62599998D02*
X136053811Y-62561903D01*
X136053811Y-62561903D02*
X136091906Y-62523807D01*
X136091906Y-62523807D02*
X136130001Y-62447617D01*
X136130001Y-62447617D02*
X136130001Y-62333331D01*
X136130001Y-62333331D02*
X136091906Y-62257141D01*
X135825240Y-62599998D02*
X135863335Y-62523807D01*
X135863335Y-62523807D02*
X135863335Y-62371426D01*
X135863335Y-62371426D02*
X135825240Y-62295236D01*
X135825240Y-62295236D02*
X135787144Y-62257141D01*
X135787144Y-62257141D02*
X135710954Y-62219045D01*
X135710954Y-62219045D02*
X135482382Y-62219045D01*
X135482382Y-62219045D02*
X135406192Y-62257141D01*
X135406192Y-62257141D02*
X135368097Y-62295236D01*
X135368097Y-62295236D02*
X135330001Y-62371426D01*
X135330001Y-62371426D02*
X135330001Y-62523807D01*
X135330001Y-62523807D02*
X135368097Y-62599998D01*
X135863335Y-62980951D02*
X135330001Y-62980951D01*
X135063335Y-62980951D02*
X135101430Y-62942855D01*
X135101430Y-62942855D02*
X135139525Y-62980951D01*
X135139525Y-62980951D02*
X135101430Y-63019046D01*
X135101430Y-63019046D02*
X135063335Y-62980951D01*
X135063335Y-62980951D02*
X135139525Y-62980951D01*
X135330001Y-63247617D02*
X135330001Y-63552379D01*
X135063335Y-63361903D02*
X135749049Y-63361903D01*
X135749049Y-63361903D02*
X135825240Y-63399998D01*
X135825240Y-63399998D02*
X135863335Y-63476188D01*
X135863335Y-63476188D02*
X135863335Y-63552379D01*
X135863335Y-63819046D02*
X135063335Y-63819046D01*
X135863335Y-64161903D02*
X135444287Y-64161903D01*
X135444287Y-64161903D02*
X135368097Y-64123808D01*
X135368097Y-64123808D02*
X135330001Y-64047617D01*
X135330001Y-64047617D02*
X135330001Y-63933331D01*
X135330001Y-63933331D02*
X135368097Y-63857141D01*
X135368097Y-63857141D02*
X135406192Y-63819046D01*
X135330001Y-64885713D02*
X135863335Y-64885713D01*
X135330001Y-64542856D02*
X135749049Y-64542856D01*
X135749049Y-64542856D02*
X135825240Y-64580951D01*
X135825240Y-64580951D02*
X135863335Y-64657141D01*
X135863335Y-64657141D02*
X135863335Y-64771427D01*
X135863335Y-64771427D02*
X135825240Y-64847618D01*
X135825240Y-64847618D02*
X135787144Y-64885713D01*
X135863335Y-65266666D02*
X135063335Y-65266666D01*
X135368097Y-65266666D02*
X135330001Y-65342856D01*
X135330001Y-65342856D02*
X135330001Y-65495237D01*
X135330001Y-65495237D02*
X135368097Y-65571428D01*
X135368097Y-65571428D02*
X135406192Y-65609523D01*
X135406192Y-65609523D02*
X135482382Y-65647618D01*
X135482382Y-65647618D02*
X135710954Y-65647618D01*
X135710954Y-65647618D02*
X135787144Y-65609523D01*
X135787144Y-65609523D02*
X135825240Y-65571428D01*
X135825240Y-65571428D02*
X135863335Y-65495237D01*
X135863335Y-65495237D02*
X135863335Y-65342856D01*
X135863335Y-65342856D02*
X135825240Y-65266666D01*
X135787144Y-65990476D02*
X135825240Y-66028571D01*
X135825240Y-66028571D02*
X135863335Y-65990476D01*
X135863335Y-65990476D02*
X135825240Y-65952380D01*
X135825240Y-65952380D02*
X135787144Y-65990476D01*
X135787144Y-65990476D02*
X135863335Y-65990476D01*
X135825240Y-66714285D02*
X135863335Y-66638094D01*
X135863335Y-66638094D02*
X135863335Y-66485713D01*
X135863335Y-66485713D02*
X135825240Y-66409523D01*
X135825240Y-66409523D02*
X135787144Y-66371428D01*
X135787144Y-66371428D02*
X135710954Y-66333332D01*
X135710954Y-66333332D02*
X135482382Y-66333332D01*
X135482382Y-66333332D02*
X135406192Y-66371428D01*
X135406192Y-66371428D02*
X135368097Y-66409523D01*
X135368097Y-66409523D02*
X135330001Y-66485713D01*
X135330001Y-66485713D02*
X135330001Y-66638094D01*
X135330001Y-66638094D02*
X135368097Y-66714285D01*
X135863335Y-67171427D02*
X135825240Y-67095237D01*
X135825240Y-67095237D02*
X135787144Y-67057142D01*
X135787144Y-67057142D02*
X135710954Y-67019046D01*
X135710954Y-67019046D02*
X135482382Y-67019046D01*
X135482382Y-67019046D02*
X135406192Y-67057142D01*
X135406192Y-67057142D02*
X135368097Y-67095237D01*
X135368097Y-67095237D02*
X135330001Y-67171427D01*
X135330001Y-67171427D02*
X135330001Y-67285713D01*
X135330001Y-67285713D02*
X135368097Y-67361904D01*
X135368097Y-67361904D02*
X135406192Y-67399999D01*
X135406192Y-67399999D02*
X135482382Y-67438094D01*
X135482382Y-67438094D02*
X135710954Y-67438094D01*
X135710954Y-67438094D02*
X135787144Y-67399999D01*
X135787144Y-67399999D02*
X135825240Y-67361904D01*
X135825240Y-67361904D02*
X135863335Y-67285713D01*
X135863335Y-67285713D02*
X135863335Y-67171427D01*
X135863335Y-67780952D02*
X135330001Y-67780952D01*
X135406192Y-67780952D02*
X135368097Y-67819047D01*
X135368097Y-67819047D02*
X135330001Y-67895237D01*
X135330001Y-67895237D02*
X135330001Y-68009523D01*
X135330001Y-68009523D02*
X135368097Y-68085714D01*
X135368097Y-68085714D02*
X135444287Y-68123809D01*
X135444287Y-68123809D02*
X135863335Y-68123809D01*
X135444287Y-68123809D02*
X135368097Y-68161904D01*
X135368097Y-68161904D02*
X135330001Y-68238095D01*
X135330001Y-68238095D02*
X135330001Y-68352380D01*
X135330001Y-68352380D02*
X135368097Y-68428571D01*
X135368097Y-68428571D02*
X135444287Y-68466666D01*
X135444287Y-68466666D02*
X135863335Y-68466666D01*
X135025240Y-69419047D02*
X136053811Y-68733333D01*
X135825240Y-69647618D02*
X135863335Y-69723809D01*
X135863335Y-69723809D02*
X135863335Y-69876190D01*
X135863335Y-69876190D02*
X135825240Y-69952380D01*
X135825240Y-69952380D02*
X135749049Y-69990476D01*
X135749049Y-69990476D02*
X135710954Y-69990476D01*
X135710954Y-69990476D02*
X135634763Y-69952380D01*
X135634763Y-69952380D02*
X135596668Y-69876190D01*
X135596668Y-69876190D02*
X135596668Y-69761904D01*
X135596668Y-69761904D02*
X135558573Y-69685714D01*
X135558573Y-69685714D02*
X135482382Y-69647618D01*
X135482382Y-69647618D02*
X135444287Y-69647618D01*
X135444287Y-69647618D02*
X135368097Y-69685714D01*
X135368097Y-69685714D02*
X135330001Y-69761904D01*
X135330001Y-69761904D02*
X135330001Y-69876190D01*
X135330001Y-69876190D02*
X135368097Y-69952380D01*
X135330001Y-70676190D02*
X135863335Y-70676190D01*
X135330001Y-70333333D02*
X135749049Y-70333333D01*
X135749049Y-70333333D02*
X135825240Y-70371428D01*
X135825240Y-70371428D02*
X135863335Y-70447618D01*
X135863335Y-70447618D02*
X135863335Y-70561904D01*
X135863335Y-70561904D02*
X135825240Y-70638095D01*
X135825240Y-70638095D02*
X135787144Y-70676190D01*
X135863335Y-71057143D02*
X135063335Y-71057143D01*
X135558573Y-71133333D02*
X135863335Y-71361905D01*
X135330001Y-71361905D02*
X135634763Y-71057143D01*
X135863335Y-71704762D02*
X135330001Y-71704762D01*
X135063335Y-71704762D02*
X135101430Y-71666666D01*
X135101430Y-71666666D02*
X135139525Y-71704762D01*
X135139525Y-71704762D02*
X135101430Y-71742857D01*
X135101430Y-71742857D02*
X135063335Y-71704762D01*
X135063335Y-71704762D02*
X135139525Y-71704762D01*
X135330001Y-72009523D02*
X135863335Y-72199999D01*
X135330001Y-72390476D02*
X135863335Y-72199999D01*
X135863335Y-72199999D02*
X136053811Y-72123809D01*
X136053811Y-72123809D02*
X136091906Y-72085714D01*
X136091906Y-72085714D02*
X136130001Y-72009523D01*
X135863335Y-72695238D02*
X135330001Y-72695238D01*
X135482382Y-72695238D02*
X135406192Y-72733333D01*
X135406192Y-72733333D02*
X135368097Y-72771428D01*
X135368097Y-72771428D02*
X135330001Y-72847619D01*
X135330001Y-72847619D02*
X135330001Y-72923809D01*
X135863335Y-73533333D02*
X135444287Y-73533333D01*
X135444287Y-73533333D02*
X135368097Y-73495238D01*
X135368097Y-73495238D02*
X135330001Y-73419047D01*
X135330001Y-73419047D02*
X135330001Y-73266666D01*
X135330001Y-73266666D02*
X135368097Y-73190476D01*
X135825240Y-73533333D02*
X135863335Y-73457142D01*
X135863335Y-73457142D02*
X135863335Y-73266666D01*
X135863335Y-73266666D02*
X135825240Y-73190476D01*
X135825240Y-73190476D02*
X135749049Y-73152380D01*
X135749049Y-73152380D02*
X135672859Y-73152380D01*
X135672859Y-73152380D02*
X135596668Y-73190476D01*
X135596668Y-73190476D02*
X135558573Y-73266666D01*
X135558573Y-73266666D02*
X135558573Y-73457142D01*
X135558573Y-73457142D02*
X135520478Y-73533333D01*
X135025240Y-74485714D02*
X136053811Y-73800000D01*
X135825240Y-74714285D02*
X135863335Y-74790476D01*
X135863335Y-74790476D02*
X135863335Y-74942857D01*
X135863335Y-74942857D02*
X135825240Y-75019047D01*
X135825240Y-75019047D02*
X135749049Y-75057143D01*
X135749049Y-75057143D02*
X135710954Y-75057143D01*
X135710954Y-75057143D02*
X135634763Y-75019047D01*
X135634763Y-75019047D02*
X135596668Y-74942857D01*
X135596668Y-74942857D02*
X135596668Y-74828571D01*
X135596668Y-74828571D02*
X135558573Y-74752381D01*
X135558573Y-74752381D02*
X135482382Y-74714285D01*
X135482382Y-74714285D02*
X135444287Y-74714285D01*
X135444287Y-74714285D02*
X135368097Y-74752381D01*
X135368097Y-74752381D02*
X135330001Y-74828571D01*
X135330001Y-74828571D02*
X135330001Y-74942857D01*
X135330001Y-74942857D02*
X135368097Y-75019047D01*
X135863335Y-75400000D02*
X135330001Y-75400000D01*
X135406192Y-75400000D02*
X135368097Y-75438095D01*
X135368097Y-75438095D02*
X135330001Y-75514285D01*
X135330001Y-75514285D02*
X135330001Y-75628571D01*
X135330001Y-75628571D02*
X135368097Y-75704762D01*
X135368097Y-75704762D02*
X135444287Y-75742857D01*
X135444287Y-75742857D02*
X135863335Y-75742857D01*
X135444287Y-75742857D02*
X135368097Y-75780952D01*
X135368097Y-75780952D02*
X135330001Y-75857143D01*
X135330001Y-75857143D02*
X135330001Y-75971428D01*
X135330001Y-75971428D02*
X135368097Y-76047619D01*
X135368097Y-76047619D02*
X135444287Y-76085714D01*
X135444287Y-76085714D02*
X135863335Y-76085714D01*
X135825240Y-76428571D02*
X135863335Y-76504762D01*
X135863335Y-76504762D02*
X135863335Y-76657143D01*
X135863335Y-76657143D02*
X135825240Y-76733333D01*
X135825240Y-76733333D02*
X135749049Y-76771429D01*
X135749049Y-76771429D02*
X135710954Y-76771429D01*
X135710954Y-76771429D02*
X135634763Y-76733333D01*
X135634763Y-76733333D02*
X135596668Y-76657143D01*
X135596668Y-76657143D02*
X135596668Y-76542857D01*
X135596668Y-76542857D02*
X135558573Y-76466667D01*
X135558573Y-76466667D02*
X135482382Y-76428571D01*
X135482382Y-76428571D02*
X135444287Y-76428571D01*
X135444287Y-76428571D02*
X135368097Y-76466667D01*
X135368097Y-76466667D02*
X135330001Y-76542857D01*
X135330001Y-76542857D02*
X135330001Y-76657143D01*
X135330001Y-76657143D02*
X135368097Y-76733333D01*
X135558573Y-77114286D02*
X135558573Y-77723810D01*
X135330001Y-77990476D02*
X135330001Y-78295238D01*
X135863335Y-78104762D02*
X135177620Y-78104762D01*
X135177620Y-78104762D02*
X135101430Y-78142857D01*
X135101430Y-78142857D02*
X135063335Y-78219047D01*
X135063335Y-78219047D02*
X135063335Y-78295238D01*
X135863335Y-78676190D02*
X135825240Y-78600000D01*
X135825240Y-78600000D02*
X135787144Y-78561905D01*
X135787144Y-78561905D02*
X135710954Y-78523809D01*
X135710954Y-78523809D02*
X135482382Y-78523809D01*
X135482382Y-78523809D02*
X135406192Y-78561905D01*
X135406192Y-78561905D02*
X135368097Y-78600000D01*
X135368097Y-78600000D02*
X135330001Y-78676190D01*
X135330001Y-78676190D02*
X135330001Y-78790476D01*
X135330001Y-78790476D02*
X135368097Y-78866667D01*
X135368097Y-78866667D02*
X135406192Y-78904762D01*
X135406192Y-78904762D02*
X135482382Y-78942857D01*
X135482382Y-78942857D02*
X135710954Y-78942857D01*
X135710954Y-78942857D02*
X135787144Y-78904762D01*
X135787144Y-78904762D02*
X135825240Y-78866667D01*
X135825240Y-78866667D02*
X135863335Y-78790476D01*
X135863335Y-78790476D02*
X135863335Y-78676190D01*
X135863335Y-79285715D02*
X135330001Y-79285715D01*
X135482382Y-79285715D02*
X135406192Y-79323810D01*
X135406192Y-79323810D02*
X135368097Y-79361905D01*
X135368097Y-79361905D02*
X135330001Y-79438096D01*
X135330001Y-79438096D02*
X135330001Y-79514286D01*
X135330001Y-79704762D02*
X135863335Y-79857143D01*
X135863335Y-79857143D02*
X135482382Y-80009524D01*
X135482382Y-80009524D02*
X135863335Y-80161905D01*
X135863335Y-80161905D02*
X135330001Y-80314286D01*
X135863335Y-80961905D02*
X135444287Y-80961905D01*
X135444287Y-80961905D02*
X135368097Y-80923810D01*
X135368097Y-80923810D02*
X135330001Y-80847619D01*
X135330001Y-80847619D02*
X135330001Y-80695238D01*
X135330001Y-80695238D02*
X135368097Y-80619048D01*
X135825240Y-80961905D02*
X135863335Y-80885714D01*
X135863335Y-80885714D02*
X135863335Y-80695238D01*
X135863335Y-80695238D02*
X135825240Y-80619048D01*
X135825240Y-80619048D02*
X135749049Y-80580952D01*
X135749049Y-80580952D02*
X135672859Y-80580952D01*
X135672859Y-80580952D02*
X135596668Y-80619048D01*
X135596668Y-80619048D02*
X135558573Y-80695238D01*
X135558573Y-80695238D02*
X135558573Y-80885714D01*
X135558573Y-80885714D02*
X135520478Y-80961905D01*
X135863335Y-81342858D02*
X135330001Y-81342858D01*
X135482382Y-81342858D02*
X135406192Y-81380953D01*
X135406192Y-81380953D02*
X135368097Y-81419048D01*
X135368097Y-81419048D02*
X135330001Y-81495239D01*
X135330001Y-81495239D02*
X135330001Y-81571429D01*
X135863335Y-82180953D02*
X135063335Y-82180953D01*
X135825240Y-82180953D02*
X135863335Y-82104762D01*
X135863335Y-82104762D02*
X135863335Y-81952381D01*
X135863335Y-81952381D02*
X135825240Y-81876191D01*
X135825240Y-81876191D02*
X135787144Y-81838096D01*
X135787144Y-81838096D02*
X135710954Y-81800000D01*
X135710954Y-81800000D02*
X135482382Y-81800000D01*
X135482382Y-81800000D02*
X135406192Y-81838096D01*
X135406192Y-81838096D02*
X135368097Y-81876191D01*
X135368097Y-81876191D02*
X135330001Y-81952381D01*
X135330001Y-81952381D02*
X135330001Y-82104762D01*
X135330001Y-82104762D02*
X135368097Y-82180953D01*
X135825240Y-82866668D02*
X135863335Y-82790477D01*
X135863335Y-82790477D02*
X135863335Y-82638096D01*
X135863335Y-82638096D02*
X135825240Y-82561906D01*
X135825240Y-82561906D02*
X135749049Y-82523810D01*
X135749049Y-82523810D02*
X135444287Y-82523810D01*
X135444287Y-82523810D02*
X135368097Y-82561906D01*
X135368097Y-82561906D02*
X135330001Y-82638096D01*
X135330001Y-82638096D02*
X135330001Y-82790477D01*
X135330001Y-82790477D02*
X135368097Y-82866668D01*
X135368097Y-82866668D02*
X135444287Y-82904763D01*
X135444287Y-82904763D02*
X135520478Y-82904763D01*
X135520478Y-82904763D02*
X135596668Y-82523810D01*
X135863335Y-83247620D02*
X135330001Y-83247620D01*
X135482382Y-83247620D02*
X135406192Y-83285715D01*
X135406192Y-83285715D02*
X135368097Y-83323810D01*
X135368097Y-83323810D02*
X135330001Y-83400001D01*
X135330001Y-83400001D02*
X135330001Y-83476191D01*
X135558573Y-83742858D02*
X135558573Y-84352382D01*
X135863335Y-84733334D02*
X135063335Y-84733334D01*
X135368097Y-84733334D02*
X135330001Y-84809524D01*
X135330001Y-84809524D02*
X135330001Y-84961905D01*
X135330001Y-84961905D02*
X135368097Y-85038096D01*
X135368097Y-85038096D02*
X135406192Y-85076191D01*
X135406192Y-85076191D02*
X135482382Y-85114286D01*
X135482382Y-85114286D02*
X135710954Y-85114286D01*
X135710954Y-85114286D02*
X135787144Y-85076191D01*
X135787144Y-85076191D02*
X135825240Y-85038096D01*
X135825240Y-85038096D02*
X135863335Y-84961905D01*
X135863335Y-84961905D02*
X135863335Y-84809524D01*
X135863335Y-84809524D02*
X135825240Y-84733334D01*
X135863335Y-85571429D02*
X135825240Y-85495239D01*
X135825240Y-85495239D02*
X135787144Y-85457144D01*
X135787144Y-85457144D02*
X135710954Y-85419048D01*
X135710954Y-85419048D02*
X135482382Y-85419048D01*
X135482382Y-85419048D02*
X135406192Y-85457144D01*
X135406192Y-85457144D02*
X135368097Y-85495239D01*
X135368097Y-85495239D02*
X135330001Y-85571429D01*
X135330001Y-85571429D02*
X135330001Y-85685715D01*
X135330001Y-85685715D02*
X135368097Y-85761906D01*
X135368097Y-85761906D02*
X135406192Y-85800001D01*
X135406192Y-85800001D02*
X135482382Y-85838096D01*
X135482382Y-85838096D02*
X135710954Y-85838096D01*
X135710954Y-85838096D02*
X135787144Y-85800001D01*
X135787144Y-85800001D02*
X135825240Y-85761906D01*
X135825240Y-85761906D02*
X135863335Y-85685715D01*
X135863335Y-85685715D02*
X135863335Y-85571429D01*
X135863335Y-86523811D02*
X135444287Y-86523811D01*
X135444287Y-86523811D02*
X135368097Y-86485716D01*
X135368097Y-86485716D02*
X135330001Y-86409525D01*
X135330001Y-86409525D02*
X135330001Y-86257144D01*
X135330001Y-86257144D02*
X135368097Y-86180954D01*
X135825240Y-86523811D02*
X135863335Y-86447620D01*
X135863335Y-86447620D02*
X135863335Y-86257144D01*
X135863335Y-86257144D02*
X135825240Y-86180954D01*
X135825240Y-86180954D02*
X135749049Y-86142858D01*
X135749049Y-86142858D02*
X135672859Y-86142858D01*
X135672859Y-86142858D02*
X135596668Y-86180954D01*
X135596668Y-86180954D02*
X135558573Y-86257144D01*
X135558573Y-86257144D02*
X135558573Y-86447620D01*
X135558573Y-86447620D02*
X135520478Y-86523811D01*
X135863335Y-86904764D02*
X135330001Y-86904764D01*
X135482382Y-86904764D02*
X135406192Y-86942859D01*
X135406192Y-86942859D02*
X135368097Y-86980954D01*
X135368097Y-86980954D02*
X135330001Y-87057145D01*
X135330001Y-87057145D02*
X135330001Y-87133335D01*
X135863335Y-87742859D02*
X135063335Y-87742859D01*
X135825240Y-87742859D02*
X135863335Y-87666668D01*
X135863335Y-87666668D02*
X135863335Y-87514287D01*
X135863335Y-87514287D02*
X135825240Y-87438097D01*
X135825240Y-87438097D02*
X135787144Y-87400002D01*
X135787144Y-87400002D02*
X135710954Y-87361906D01*
X135710954Y-87361906D02*
X135482382Y-87361906D01*
X135482382Y-87361906D02*
X135406192Y-87400002D01*
X135406192Y-87400002D02*
X135368097Y-87438097D01*
X135368097Y-87438097D02*
X135330001Y-87514287D01*
X135330001Y-87514287D02*
X135330001Y-87666668D01*
X135330001Y-87666668D02*
X135368097Y-87742859D01*
%TO.C,TP1*%
D11*
X102200000Y-119000000D02*
G75*
G02*
X100800000Y-119000000I-700000J0D01*
G01*
X100800000Y-119000000D02*
G75*
G02*
X102200000Y-119000000I700000J0D01*
G01*
%TO.C,TP4*%
X102200000Y-122000000D02*
G75*
G02*
X100800000Y-122000000I-700000J0D01*
G01*
X100800000Y-122000000D02*
G75*
G02*
X102200000Y-122000000I700000J0D01*
G01*
%TO.C,TP3*%
X132200000Y-123000000D02*
G75*
G02*
X130800000Y-123000000I-700000J0D01*
G01*
X130800000Y-123000000D02*
G75*
G02*
X132200000Y-123000000I700000J0D01*
G01*
%TO.C,TP2*%
X102200000Y-85000000D02*
G75*
G02*
X100800000Y-85000000I-700000J0D01*
G01*
X100800000Y-85000000D02*
G75*
G02*
X102200000Y-85000000I700000J0D01*
G01*
%TO.C,U6*%
D12*
X116110000Y-119460000D02*
X117890000Y-119460000D01*
X116110000Y-122540000D02*
X117890000Y-122540000D01*
D13*
X115630000Y-122460000D02*
G75*
G02*
X115570000Y-122460000I-30000J0D01*
G01*
X115570000Y-122460000D02*
G75*
G02*
X115630000Y-122460000I30000J0D01*
G01*
D14*
X115850000Y-122670000D02*
G75*
G02*
X115550000Y-122670000I-150000J0D01*
G01*
X115550000Y-122670000D02*
G75*
G02*
X115850000Y-122670000I150000J0D01*
G01*
%TO.C,J2*%
D15*
X111000000Y-78300000D02*
X111000000Y-81520000D01*
X111000000Y-83780000D02*
X111000000Y-90400000D01*
X113140000Y-78300000D02*
X111000000Y-78300000D01*
X122270000Y-92300000D02*
X111730000Y-92300000D01*
X123000000Y-78300000D02*
X120860000Y-78300000D01*
X123000000Y-81520000D02*
X123000000Y-78300000D01*
X123000000Y-90400000D02*
X123000000Y-83780000D01*
D13*
X110840000Y-78160000D02*
G75*
G02*
X110780000Y-78160000I-30000J0D01*
G01*
X110780000Y-78160000D02*
G75*
G02*
X110840000Y-78160000I30000J0D01*
G01*
%TO.C,TP5*%
D11*
X132700000Y-68000000D02*
G75*
G02*
X131300000Y-68000000I-700000J0D01*
G01*
X131300000Y-68000000D02*
G75*
G02*
X132700000Y-68000000I700000J0D01*
G01*
%TO.C,U7*%
D12*
X126110000Y-82460000D02*
X127890000Y-82460000D01*
X126110000Y-85540000D02*
X127890000Y-85540000D01*
D13*
X125630000Y-85460000D02*
G75*
G02*
X125570000Y-85460000I-30000J0D01*
G01*
X125570000Y-85460000D02*
G75*
G02*
X125630000Y-85460000I30000J0D01*
G01*
D14*
X125850000Y-85670000D02*
G75*
G02*
X125550000Y-85670000I-150000J0D01*
G01*
X125550000Y-85670000D02*
G75*
G02*
X125850000Y-85670000I150000J0D01*
G01*
%TO.C,TP6*%
D11*
X132700000Y-70000000D02*
G75*
G02*
X131300000Y-70000000I-700000J0D01*
G01*
X131300000Y-70000000D02*
G75*
G02*
X132700000Y-70000000I700000J0D01*
G01*
%TO.C,U1*%
D15*
X113400000Y-102400000D02*
X130000000Y-102400000D01*
X113400000Y-115600000D02*
X113400000Y-102400000D01*
X113400000Y-115600000D02*
X130000000Y-115600000D01*
X124600000Y-102400000D02*
X124600000Y-115600000D01*
X130000000Y-115600000D02*
X130000000Y-102400000D01*
X123100000Y-116000000D02*
G75*
G02*
X122900000Y-116000000I-100000J0D01*
G01*
X122900000Y-116000000D02*
G75*
G02*
X123100000Y-116000000I100000J0D01*
G01*
D13*
X130030000Y-115600000D02*
G75*
G02*
X129970000Y-115600000I-30000J0D01*
G01*
X129970000Y-115600000D02*
G75*
G02*
X130030000Y-115600000I30000J0D01*
G01*
%TD*%
M02*
